<?xml version="1.0" standalone="no"?>
<!DOCTYPE svg PUBLIC "-//W3C//DTD SVG 1.1//EN" "http://www.w3.org/Graphics/SVG/1.1/DTD/svg11.dtd" >
<svg>
<metadata>
Created by FontForge 20090914 at Tue Jul 11 16:51:04 2017
 By www-data
Copyright (c)2015, Hanken Sans designed by Alfredo Marco Pradil (ammpradil@gmail.com). Hanken Sans is a trademark of Alfredo Marco Pradil.
</metadata>
<defs>
<font id="HankenSans-Light" horiz-adv-x="523" >
  <font-face 
    font-family="Hanken Sans Light"
    font-weight="300"
    font-stretch="normal"
    units-per-em="1000"
    panose-1="0 0 4 0 0 0 0 0 0 0"
    ascent="800"
    descent="-200"
    x-height="488"
    cap-height="690"
    bbox="-699 -244 1018 1094"
    underline-thickness="40"
    underline-position="-60"
    unicode-range="U+0020-U+FB02"
  />
<missing-glyph horiz-adv-x="444" 
d="M22 488h400v-488h-400v488zM372 50v388h-300v-388h300z" />
    <glyph glyph-name="arrowleft" unicode="&#x3c;&#x2d;" horiz-adv-x="1069" 
d="M1009 285h-802l285 -152v-58l-423 237l423 234v-58l-286 -153h803v-50z" />
    <glyph glyph-name="arrowright" unicode="&#x2d;&#x3e;" horiz-adv-x="1069" 
d="M576 133l285 152h-802v50h803l-286 153v58l423 -234l-423 -237v58z" />
    <glyph glyph-name="fi" unicode="fi" 
d="M436 0h-62v435h-208v-435h-63v435h-89v53h89v83c0 36.667 13 65.667 39 87s56.333 32 91 32h53v-59h-52c-22.667 0 -39.667 -5.33301 -51 -16s-17 -25.667 -17 -45v-82h270v-488zM441 690v-89h-73v89h73z" />
    <glyph glyph-name="fl" unicode="fl" horiz-adv-x="519" 
d="M103 435h-89v53h89v83c0 36.667 13 65.667 39 87s56.333 32 91 32h63v-59h-62c-22.667 0 -39.667 -5.33301 -51 -16s-17 -25.667 -17 -45v-82h130v-53h-130v-435h-63v435zM375 690h62v-690h-62v690z" />
    <glyph glyph-name="f_f" unicode="ff" horiz-adv-x="575" 
d="M453.5 614c-14.333 -14.667 -21.5 -34.332 -21.5 -58.999v-67h131v-53h-131v-435h-62v435h-205v-435h-62v435h-89v53h89v63c0 42.667 12.667 76.5 38 101.5s59.333 37.5 102 37.5h53v-54h-52c-24 0 -43.167 -7.33301 -57.5 -22s-21.5 -34.334 -21.5 -59.001v-67h205v63
c0 42.667 12.667 76.5 38 101.5s59.333 37.5 102 37.5h53v-54h-52c-24 0 -43.167 -7.33301 -57.5 -22z" />
    <glyph glyph-name="f_f_i" unicode="ffi" horiz-adv-x="813" 
d="M726 0l-62 0.000976562v435h-219v-435h-63v435h-217v-435h-62v435h-89v53h89v63c0 42.667 12.667 76.5 38 101.5s59.333 37.5 102 37.5h53v-54h-52c-24 0 -43.167 -7.33301 -57.5 -22s-21.5 -34.334 -21.5 -59.001v-67h217v83c0 24.667 6.16699 46 18.5 64
s28.333 31.667 48 41s40.5 14 62.5 14h64v-59h-62c-22.667 0 -39.667 -5.33301 -51 -16s-17 -25.667 -17 -45v-82h281v-488zM731 690.001v-89h-73v89h73z" />
    <glyph glyph-name="f_f_l" unicode="ffl" horiz-adv-x="786" 
d="M407 658c26 21.333 56.333 32.001 91 32.001h63v-59h-62c-22.667 0 -39.667 -5.33301 -51 -16s-17 -25.667 -17 -45v-82h130v-53h-130v-435h-63v435h-203v-435h-62v435h-89v53h89v63c0 42.667 12.667 76.5 38 101.5s59.333 37.5 102 37.5h53v-54h-52
c-24 0 -43.167 -7.33301 -57.5 -22s-21.5 -34.334 -21.5 -59.001v-67h203v83c0 36.667 13 65.667 39 87zM704 690.001v-690h-62v690h62z" />
    <glyph glyph-name=".notdef" horiz-adv-x="444" 
d="M22 488h400v-488h-400v488zM372 50v388h-300v-388h300z" />
    <glyph glyph-name="space" unicode=" " horiz-adv-x="229" 
 />
    <glyph glyph-name="exclam" unicode="!" horiz-adv-x="253" 
d="M89 690h75l-14 -509h-47zM83 86h87v-86h-87v86z" />
    <glyph glyph-name="quotedbl" unicode="&#x22;" horiz-adv-x="338" 
d="M71 690h57v-263h-57v263zM213 690h56v-263h-56v263z" />
    <glyph glyph-name="numbersign" unicode="#" horiz-adv-x="625" 
d="M153 218h-118v46h128l34 172h-122v44h132l44 210h49l-43 -203h165l43 203h49l-42 -208h118v-46h-128l-34 -172h122v-44h-132l-45 -220h-50l45 213h-165l-44 -213h-50zM378 264l34 172h-165l-34 -172h165z" />
    <glyph glyph-name="dollar" unicode="$" horiz-adv-x="530" 
d="M430 54.5c-34 -35 -78.3369 -55.165 -133.004 -60.498v-72h-64v72c-56 6.66699 -103.333 28.334 -142 65.001s-57.667 88.667 -57 156h66c0 -54 16.5 -94.167 49.5 -120.5s73.167 -39.5 120.5 -39.5c42.667 0 77.334 10.667 104.001 32s40 50.666 40 87.999
c0 27.333 -7.16699 50.666 -21.5 69.999s-32.166 35.166 -53.499 47.499s-49.666 25.833 -84.999 40.5c-42 17.333 -75.5 33 -100.5 47s-46.5 33.167 -64.5 57.5s-27 54.5 -27 90.5c0 48 15.667 87.5 47 118.5s72.666 48.5 123.999 52.5v71h64v-74
c60.667 -10.667 112 -44 154 -100l-44 -41c-42.667 56 -94 84 -154 84c-36.667 0 -66.5 -9.66699 -89.5 -29s-34.5 -45 -34.5 -77c0 -24 7.16699 -44.5 21.5 -61.5s31.833 -31.167 52.5 -42.5s49.667 -25.333 87 -42c40.667 -17.333 73.834 -33.833 99.501 -49.5
s47.334 -36 65.001 -61s26.5 -55.833 26.5 -92.5c0 -51.333 -17 -94.5 -51 -129.5z" />
    <glyph glyph-name="percent" unicode="%" horiz-adv-x="736" 
d="M74 439.5c-19.333 31.667 -29.001 67.167 -29.001 106.5s9.5 75 28.5 107s49.167 48 90.5 48c38.667 0 68.834 -15.5 90.501 -46.5s32.5 -67.167 32.5 -108.5s-10.5 -77.333 -31.5 -108s-50.5 -46 -88.5 -46c-42.667 0 -73.667 15.833 -93 47.5zM515.999 689h65
l-368 -688h-66zM213.999 474c11.333 21.333 17.002 45.666 17.002 72.999c0 26.667 -5.66699 50.167 -17 70.5s-28 30.5 -50 30.5c-21.333 0 -37.5 -10.167 -48.5 -30.5s-16.5 -44.166 -16.5 -71.499s5.66699 -51.5 17 -72.5s27.666 -31.5 48.999 -31.5
s37.666 10.667 48.999 32zM478.001 48.5c-19.333 31.667 -29.001 66.832 -29.001 105.499c0 39.333 9.5 75 28.5 107s49.167 48 90.5 48c38.667 0 68.834 -15.5 90.501 -46.5s32.5 -67.167 32.5 -108.5s-10.5 -77.166 -31.5 -107.499s-50.5 -45.5 -88.5 -45.5
c-42.667 0 -73.667 15.833 -93 47.5zM618.5 83.498c11 21 16.5 44.834 16.5 71.501c0 28 -5.66699 52.167 -17 72.5s-28 30.5 -50 30.5c-21.333 0 -37.5 -10.5 -48.5 -31.5s-16.5 -45.167 -16.5 -72.5c0 -26.667 5.66699 -50.334 17 -71.001s28 -31 50 -31
c21.333 0 37.5 10.5 48.5 31.5z" />
    <glyph glyph-name="ampersand" unicode="&#x26;" horiz-adv-x="646" 
d="M71.5 270c17 29.333 38.1641 53.1641 63.4971 71.4971s50 27.5 74 27.5l11 -1l2 11c-16.667 4 -32.667 13.833 -48 29.5s-27.833 34.834 -37.5 57.501s-14.5 45.334 -14.5 68.001c0 33.333 7.5 62.333 22.5 87s35 43.334 60 56.001s52.5 19 82.5 19
c45.333 0 82.833 -14 112.5 -42s44.5 -66.333 44.5 -115c0 -32.667 -10 -62.334 -30 -89.001s-45.667 -49 -77 -67l-38 42c25.333 14 45.666 30.667 60.999 50s23 41.333 23 66c0 29.333 -9.16699 53.833 -27.5 73.5s-41.166 29.5 -68.499 29.5
c-28.667 0 -52.5 -10 -71.5 -30s-28.5 -45.667 -28.5 -77c0 -22 7.33301 -44.833 22 -68.5s31.334 -45.167 50.001 -64.5l194 -203l91 161h74l-121 -207l147 -155h-92l-93 99c-27.333 -37.333 -57.166 -65.166 -89.499 -83.499s-71.166 -27.5 -116.499 -27.5
c-38 0 -72.667 7.5 -104 22.5s-56.333 36.833 -75 65.5s-28 62.667 -28 102c0 32 8.5 62.667 25.5 92zM132.997 107.498c13.333 -20.333 30.833 -36.168 52.5 -47.501s44.167 -17 67.5 -17c36 0 66.333 8.16699 91 24.5s48 42.166 70 77.499l-176 188
c-42 -18.667 -73.333 -40.167 -94 -64.5s-31 -55.166 -31 -92.499c0 -25.333 6.66699 -48.166 20 -68.499z" />
    <glyph glyph-name="quotesingle" unicode="'" horiz-adv-x="199" 
d="M71 704h57v-263h-57v263z" />
    <glyph glyph-name="parenleft" unicode="(" horiz-adv-x="308" 
d="M108.5 73c-19 78.667 -28.5 155.664 -28.5 230.997c0 76 9.5 153.333 28.5 232s47.167 145 84.5 199h55c-36.667 -62.667 -64.334 -130.667 -83.001 -204s-28 -149 -28 -227c0 -77.333 9.33301 -152.666 28 -225.999s46.334 -141.666 83.001 -204.999h-55
c-37.333 54.667 -65.5 121.334 -84.5 200.001z" />
    <glyph glyph-name="parenright" unicode=")" horiz-adv-x="308" 
d="M60 -127c36.667 63.333 64.334 131.669 83.001 205.002s28 148.666 28 225.999c0 78 -9.33301 153.667 -28 227s-46.334 141.333 -83.001 204h55c37.333 -54 65.5 -120.333 84.5 -199s28.5 -156 28.5 -232c0 -75.333 -9.5 -152.333 -28.5 -231
s-47.167 -145.334 -84.5 -200.001h-55z" />
    <glyph glyph-name="asterisk" unicode="*" horiz-adv-x="338" 
d="M71 445l88 103l-126 19l14 48l115 -50l-15 125h46l-17 -125l116 50l13 -48l-123 -19l87 -103l-37 -29l-62 117l-62 -117z" />
    <glyph glyph-name="plus" unicode="+" horiz-adv-x="640" 
d="M291 224h-218v58h218v224h59v-224h217v-58h-217v-224h-59v224z" />
    <glyph glyph-name="comma" unicode="," horiz-adv-x="261" 
d="M163 96v-96l-57 -153h-43l41 153h-34v96h93z" />
    <glyph glyph-name="hyphen" unicode="-" horiz-adv-x="302" 
d="M30 270h242v-41h-242v41z" />
    <glyph glyph-name="period" unicode="." horiz-adv-x="203" 
d="M61 96h93v-96h-93v96z" />
    <glyph glyph-name="slash" unicode="/" horiz-adv-x="511" 
d="M376 690h66l-296 -766h-65z" />
    <glyph glyph-name="zero" unicode="0" horiz-adv-x="530" 
d="M90 95c-34.667 70 -52 153.332 -52 249.999s17 180.167 51 250.5s92 105.5 174 105.5c52.667 0 96 -16.667 130 -50s59 -77 75 -131s24 -113 24 -177c0 -63.333 -7.83301 -121.666 -23.5 -174.999s-40.167 -96.333 -73.5 -129s-75 -49 -125 -49
c-85.333 0 -145.333 35 -180 105zM389 139.999c22 58.667 33 127.334 33 206.001c0 79.333 -11.167 147.666 -33.5 204.999s-64.166 86 -125.499 86c-62 0 -104.333 -28.667 -127 -86s-34 -126 -34 -206s11.667 -148.833 35 -206.5s66.666 -86.5 129.999 -86.5
c59.333 0 100 29.333 122 88z" />
    <glyph glyph-name="one" unicode="1" horiz-adv-x="378" 
d="M202 616l-162 -93v69l170 98h58v-690h-66v616z" />
    <glyph glyph-name="two" unicode="2" horiz-adv-x="528" 
d="M483 58l0.000976562 -58h-428v69c0 46 9 84.833 27 116.5s39.667 57.167 65 76.5s59 41 101 65c34.667 19.333 62.167 36.333 82.5 51s37.333 32.5 51 53.5s20.5 46.167 20.5 75.5c0 38.667 -12.333 70.667 -37 96s-56 38 -94 38c-45.333 0 -80.833 -16 -106.5 -48
s-36.834 -73.333 -33.501 -124l-67 6c0 69.333 18.5 124 55.5 164s87.5 60 151.5 60c38 0 72 -8.33301 102 -25s53.5 -39.834 70.5 -69.501s25.5 -63.167 25.5 -100.5s-8.5 -69.5 -25.5 -96.5s-37.667 -49.5 -62 -67.5s-56.5 -38.333 -96.5 -61
c-37.333 -21.333 -67 -39.666 -89 -54.999s-40.333 -34.333 -55 -57s-22 -49 -22 -79v-30h364z" />
    <glyph glyph-name="three" unicode="3" horiz-adv-x="539" 
d="M103 42c-43.333 34.667 -65.002 84 -65.002 148l61 7c0 -31.333 7.83301 -58.333 23.5 -81s36.5 -39.834 62.5 -51.501s54 -17.5 84 -17.5c29.333 0 57.166 5.83301 83.499 17.5s47.666 28.667 63.999 51s24.5 48.833 24.5 79.5c0 46 -15.667 80.833 -47 104.5
s-69.666 35.5 -114.999 35.5h-53v62h53c36.667 0 66.334 10.5 89.001 31.5s34 50.5 34 88.5s-13.667 68.333 -41 91s-62 34 -104 34s-76.5 -11.5 -103.5 -34.5s-40.833 -53.833 -41.5 -92.5l-60 8c0 54.667 19 97.834 57 129.501s87.667 47.5 149 47.5
c60 0 109.167 -15.667 147.5 -47s57.5 -74.333 57.5 -129c0 -39.333 -11.5 -73.333 -34.5 -102s-52.5 -45.334 -88.5 -50.001v-5c52.667 -5.33301 92.334 -23 119.001 -53s40.667 -70 42 -120c0 -65.333 -21.667 -115.666 -65 -150.999s-99 -53 -167 -53
c-67.333 0 -122.666 17.333 -165.999 52z" />
    <glyph glyph-name="four" unicode="4" horiz-adv-x="528" 
d="M525 248v-58h-118v-190h-64v190h-313v48l316 452h61v-442h118zM343 248v343l-240 -343h240z" />
    <glyph glyph-name="five" unicode="5" horiz-adv-x="528" 
d="M397 418c32.667 -19.333 58.168 -46.333 76.501 -81s27.5 -73.667 27.5 -117c0 -44 -9.66699 -83.5 -29 -118.5s-46 -62.333 -80 -82s-73 -29.5 -117 -29.5c-34 0 -66.667 8.33301 -98 25s-57.833 39.667 -79.5 69s-35.834 62.333 -42.501 99l58 19
c8.66699 -46 28.5 -83.833 59.5 -113.5s65.5 -44.5 103.5 -44.5c48 0 86.833 16.667 116.5 50s44.5 76 44.5 128c0 49.333 -14.833 89.833 -44.5 121.5s-68.5 47.5 -116.5 47.5c-26.667 0 -53.5 -7.5 -80.5 -22.5s-47.5 -33.833 -61.5 -56.5l-54 30l59 348h331v-58h-279
l-37 -220l-7 -20l4 -1c12.667 15.333 32.167 28.5 58.5 39.5s51.5 16.5 75.5 16.5c42 0 79.333 -9.66699 112 -29z" />
    <glyph glyph-name="six" unicode="6" horiz-adv-x="527" 
d="M150 20.5c-34.667 20.333 -62.001 47.998 -82.001 82.998s-30 73.5 -30 115.5c0 78 21.667 157 65 237s106 158 188 234h98c-50 -36 -101 -84.167 -153 -144.5s-85.333 -114.166 -100 -161.499h4c14.667 16.667 34 30.5 58 41.5s50.667 16.5 80 16.5
c38 0 73.167 -9.5 105.5 -28.5s58 -45.667 77 -80s28.5 -73.166 28.5 -116.499c0 -40 -9.66699 -77.333 -29 -112s-46.166 -62.5 -80.499 -83.5s-72.833 -31.5 -115.5 -31.5c-41.333 0 -79.333 10.167 -114 30.5zM347.999 69.498c24.667 14.333 43.832 34.332 57.499 59.999
s20.5 54.5 20.5 86.5c0 49.333 -15 89.666 -45 120.999s-68.667 47 -116 47s-86.166 -15.667 -116.499 -47s-45.5 -71.666 -45.5 -120.999s15.167 -89.666 45.5 -120.999s69.166 -47 116.499 -47c30.667 0 58.334 7.16699 83.001 21.5z" />
    <glyph glyph-name="seven" unicode="7" horiz-adv-x="441" 
d="M199.5 343c32.333 104.667 85.168 200.333 158.501 287v2h-341v58h406v-55c-75.333 -93.333 -129 -191.5 -161 -294.5s-54.333 -216.5 -67 -340.5h-67c15.333 124 39.166 238.333 71.499 343z" />
    <glyph glyph-name="eight" unicode="8" horiz-adv-x="532" 
d="M148.5 15.5c-35 17 -62.3301 40.498 -81.9971 70.498s-29.5 63.667 -29.5 101c0 43.333 13 82.333 39 117s59 56.334 99 65.001v5c-30 10.667 -54.667 30.334 -74 59.001s-29 60 -29 94c0 32.667 8.33301 62.167 25 88.5s39.667 47 69 62s62.666 22.5 99.999 22.5
s70.666 -7.5 99.999 -22.5s52.333 -35.667 69 -62s25 -55.833 25 -88.5c0 -35.333 -9.66699 -67.333 -29 -96s-44 -47.667 -74 -57v-5c40 -10.667 73 -33 99 -67s39 -72.333 39 -115c0 -37.333 -9.83301 -71 -29.5 -101s-46.834 -53.5 -81.501 -70.5
s-73.667 -25.5 -117 -25.5c-44 0 -83.5 8.5 -118.5 25.5zM362.003 426.998c24.667 24 37 54.332 37 90.999s-12.333 67 -37 91s-55.667 36 -93 36c-38.667 0 -70.334 -11.833 -95.001 -35.5s-37 -53.5 -37 -89.5c0 -37.333 12.333 -68.166 37 -92.499
s56.334 -36.5 95.001 -36.5c37.333 0 68.333 12 93 36zM349.503 62.4971c25 13 44.5 30.833 58.5 53.5s21 48.334 21 77.001c0 28 -7 53.333 -21 76s-33.5 40.5 -58.5 53.5s-53.167 19.5 -84.5 19.5s-59.5 -6.5 -84.5 -19.5s-44.5 -30.833 -58.5 -53.5s-21 -48 -21 -76
c0 -28.667 7 -54.334 21 -77.001s33.5 -40.5 58.5 -53.5s53.167 -19.5 84.5 -19.5s59.5 6.5 84.5 19.5z" />
    <glyph glyph-name="nine" unicode="9" horiz-adv-x="527" 
d="M291 144.5c52 60.333 85.334 114.168 100.001 161.501h-4c-14.667 -16.667 -34 -30.5 -58 -41.5s-50.667 -16.5 -80 -16.5c-38 0 -73.167 9.5 -105.5 28.5s-58 45.667 -77 80s-28.5 73.166 -28.5 116.499c0 40 9.66699 77.333 29 112s46.166 62.5 80.499 83.5
s72.833 31.5 115.5 31.5c41.333 0 79.333 -10.167 114 -30.5s62 -48 82 -83s30 -73.5 30 -115.5c0 -78 -21.667 -157 -65 -237s-106 -158 -188 -234h-98c50 36 101 84.167 153 144.5zM378.501 353.002c30.333 31.333 45.502 71.667 45.502 121s-15.167 89.666 -45.5 120.999
s-69.166 47 -116.499 47c-30.667 0 -58.334 -7.16699 -83.001 -21.5s-43.834 -34.333 -57.501 -60s-20.5 -54.5 -20.5 -86.5c0 -49.333 15 -89.666 45 -120.999s68.667 -47 116 -47s86.166 15.667 116.499 47z" />
    <glyph glyph-name="colon" unicode=":" horiz-adv-x="219" 
d="M63 96h93v-96h-93v96zM62 475h93v-96h-93v96z" />
    <glyph glyph-name="semicolon" unicode=";" horiz-adv-x="266" 
d="M157 96v-96l-57 -153h-43l41 153h-34v96h93zM65 475h93v-96h-93v96z" />
    <glyph glyph-name="less" unicode="&#x3c;" horiz-adv-x="563" 
d="M56 329l428 243v-60l-326 -183l326 -180v-63z" />
    <glyph glyph-name="equal" unicode="=" horiz-adv-x="508" 
d="M73 365h362v-58h-362v58zM73 199h362v-58h-362v58z" />
    <glyph glyph-name="greater" unicode="&#x3e;" horiz-adv-x="563" 
d="M90 149l326 180l-326 183v60l428 -243l-428 -243v63z" />
    <glyph glyph-name="question" unicode="?" horiz-adv-x="465" 
d="M201 300c0 21.333 3.66992 38.8311 11.0029 52.498s16.166 24.5 26.499 32.5s24.5 17 42.5 27c18 9.33301 32.667 18.333 44 27s20.666 20.167 27.999 34.5s11 32.833 11 55.5c0 37.333 -12.5 65.833 -37.5 85.5s-56.833 29.5 -95.5 29.5c-36 0 -67.333 -10.5 -94 -31.5
s-40.334 -49.5 -41.001 -85.5h-62c0 34.667 8.83301 65.167 26.5 91.5s41.334 46.5 71.001 60.5s61.5 21 95.5 21c57.333 0 104.666 -15.167 141.999 -45.5s56 -72.833 56 -127.5c0 -28 -4.66699 -51.167 -14 -69.5s-20.5 -32.666 -33.5 -42.999
s-29.833 -21.166 -50.5 -32.499c-23.333 -12.667 -40.5 -24.667 -51.5 -36s-16.5 -27 -16.5 -47v-120h-58v121zM188.003 85.998h87v-86h-87v86z" />
    <glyph glyph-name="at" unicode="@" horiz-adv-x="942" 
d="M253.5 -111.5c-64.333 39 -115 91.8389 -152 158.506s-55.5 139.334 -55.5 218.001s18.5 151.167 55.5 217.5s87.667 119 152 158s135.166 58.5 212.499 58.5s149 -19.5 215 -58.5s118.333 -91.5 157 -157.5s58 -137.667 58 -215c0 -48.667 -8 -95.167 -24 -139.5
s-40.167 -80.5 -72.5 -108.5s-71.5 -42 -117.5 -42c-39.333 0 -69.666 9.83301 -90.999 29.5s-32 46.5 -32 80.5c0 6 0.666992 15 2 27c-18 -24.667 -41.167 -44 -69.5 -58s-57.833 -21 -88.5 -21c-48 0 -85 17 -111 51s-39 76.667 -39 128c0 42.667 8.66699 86.5 26 131.5
s42.833 82.5 76.5 112.5s73.5 45 119.5 45c35.333 0 65.333 -8.83301 90 -26.5s39.334 -41.834 44.001 -72.501l14 74h67l-64 -329c-3.33301 -18.667 -5 -33.334 -5 -44.001c0 -22.667 5.5 -38.834 16.5 -48.501s27.833 -14.5 50.5 -14.5c34 0 61.833 12.5 83.5 37.5
s37 55.167 46 90.5s13.5 69.666 13.5 102.999c0 64 -16.5 123.667 -49.5 179s-77.5 99.666 -133.5 132.999s-116.667 50 -182 50c-66 0 -126 -16.5 -180 -49.5s-96.667 -77.833 -128 -134.5s-47 -118.334 -47 -185.001s15.667 -128.334 47 -185.001
s73.833 -101.5 127.5 -134.5s113.167 -49.5 178.5 -49.5c38.667 0 79 6.33301 121 19l23 -62c-46.667 -16.667 -94.334 -25 -143.001 -25c-76.667 0 -147.167 19.5 -211.5 58.5zM505.5 136.506c26.333 23.667 46.165 52.999 59.498 87.999s20 69.167 20 102.5
c0 34.667 -8 61.834 -24 81.501s-40.333 29.5 -73 29.5c-36 0 -67.167 -11.667 -93.5 -35s-46.166 -52.5 -59.499 -87.5s-20 -69.167 -20 -102.5c0 -34.667 7.83301 -62 23.5 -82s39.834 -30 72.501 -30c36.667 0 68.167 11.833 94.5 35.5z" />
    <glyph glyph-name="A" unicode="A" horiz-adv-x="557" 
d="M432 157h-307l-49 -157h-70l228 690h92l227 -690h-71zM415 213l-126 397c-4.66699 16 -7.66699 27.333 -9 34h-2c-0.666992 -2 -4 -13.333 -10 -34l-125 -397h272z" />
    <glyph glyph-name="B" unicode="B" horiz-adv-x="621" 
d="M100 690l229.999 -0.00292969c65.333 0 116.833 -16.5 154.5 -49.5s56.5 -77.5 56.5 -133.5c0 -28 -6.16699 -53 -18.5 -75s-27.166 -39 -44.499 -51s-32 -17.333 -44 -16v-10c23.333 0.666992 46 -6.16602 68 -20.499s39.667 -34.666 53 -60.999s20 -55.166 20 -86.499
c0 -57.333 -19 -102.833 -57 -136.5s-87.333 -50.5 -148 -50.5h-270v690zM316.999 381.997c42 0 77.833 11.333 107.5 34s44.5 54 44.5 94c0 79.333 -47.333 119 -142 119h-162v-247h152zM361.999 62.9971c49.333 0 86 11.168 110 33.501s36 53.833 36 94.5
c0 39.333 -14.333 70.666 -43 93.999s-63 35 -103 35h-197v-257h197z" />
    <glyph glyph-name="C" unicode="C" horiz-adv-x="658" 
d="M196.5 32c-47.667 28 -84.6699 68.668 -111.003 122.001s-39.5 117 -39.5 191s13.333 137.833 40 191.5s63.5 94.5 110.5 122.5s101.167 42 162.5 42c60 0 115.167 -16.833 165.5 -50.5s84.833 -77.167 103.5 -130.5l-54 -26c-16 44 -42.667 79 -80 105
s-82.666 39 -135.999 39c-50 0 -93.5 -11.833 -130.5 -35.5s-65.667 -57.167 -86 -100.5s-30.5 -94 -30.5 -152c0 -59.333 10.167 -111.5 30.5 -156.5s49.333 -79.667 87 -104s81.834 -36.5 132.501 -36.5c48 0 91.167 13.167 129.5 39.5s66.166 61.166 83.499 104.499
l54 -25c-12 -35.333 -31.667 -66.833 -59 -94.5s-59.166 -49.167 -95.499 -64.5s-74.166 -23 -113.499 -23c-61.333 0 -115.833 14 -163.5 42z" />
    <glyph glyph-name="D" unicode="D" horiz-adv-x="662" 
d="M100 690l171.999 0.000976562c110.667 0 195.667 -30 255 -90s89 -147 89 -261c0 -108.667 -30.167 -192.334 -90.5 -251.001s-145.166 -88 -254.499 -88h-171v690zM258.999 62.001c97.333 0 169.833 23.167 217.5 69.5s71.5 117.5 71.5 213.5s-23 167.333 -69 214
s-115.667 70 -209 70h-104v-567h93z" />
    <glyph glyph-name="E" unicode="E" horiz-adv-x="598" 
d="M100 690h444v-60h-378v-255h330v-60h-330v-255h378v-60h-444v690z" />
    <glyph glyph-name="F" unicode="F" horiz-adv-x="576" 
d="M100 690h440v-60h-374v-255h331v-60h-331v-315h-66v690z" />
    <glyph glyph-name="G" unicode="G" horiz-adv-x="731" 
d="M643 344l-0.00292969 -344h-53l-2 146h-3c-16.667 -44 -44.334 -81 -83.001 -111s-90 -45 -154 -45c-63.333 0 -117.833 15.833 -163.5 47.5s-80.167 74.5 -103.5 128.5s-35 114.333 -35 181c0 65.333 11.333 124.833 34 178.5s57.334 96.334 104.001 128.001
s103.667 47.5 171 47.5c128.667 0 221.334 -60.333 278.001 -181l-61 -25c-24.667 48.667 -55 84.334 -91 107.001s-78.333 34 -127 34c-54.667 0 -100.167 -12.833 -136.5 -38.5s-63.166 -60 -80.499 -103s-26 -91.167 -26 -144.5
c0 -54.667 8.83301 -104.334 26.5 -149.001s44.334 -80.334 80.001 -107.001s79.5 -40 131.5 -40c42 0 80 8.83301 114 26.5s61.5 44 82.5 79s32.833 77.5 35.5 127.5h-160v57h222z" />
    <glyph glyph-name="H" unicode="H" horiz-adv-x="692" 
d="M100 690h66v-316h360v316h66v-690h-66v316h-360v-316h-66v690z" />
    <glyph glyph-name="I" unicode="I" horiz-adv-x="266" 
d="M100 690h66v-690h-66v690z" />
    <glyph glyph-name="J" unicode="J" horiz-adv-x="361" 
d="M89 47c88 0 131.999 62.667 131.999 188v455h66v-448c0 -168 -67 -252 -201 -252c-24 0 -47.667 3.33301 -71 10v62c28.667 -10 53.334 -15 74.001 -15z" />
    <glyph glyph-name="K" unicode="K" horiz-adv-x="593" 
d="M588 0h-87l-284 353h-51v-353h-66v690h66v-329l301 329h82l-282 -303z" />
    <glyph glyph-name="L" unicode="L" horiz-adv-x="471" 
d="M100 690h66v-630h295v-60h-361v690z" />
    <glyph glyph-name="M" unicode="M" horiz-adv-x="826" 
d="M100 690h109l204 -579l204 579h109v-690h-66v636h-3c0 -12 -4 -29.667 -12 -53l-187 -523h-90l-188 535c-7.33301 20 -11 33.333 -11 40h-3v-635h-66v690z" />
    <glyph glyph-name="N" unicode="N" horiz-adv-x="722" 
d="M100 690h102.999l325 -580l23 -41h5v621h66v-690h-105l-320 571c-9.33301 16.667 -18.666 35.667 -27.999 57h-3v-628h-66v690z" />
    <glyph glyph-name="O" unicode="O" horiz-adv-x="708" 
d="M191.5 33.5c-46.333 29 -82.166 70.167 -107.499 123.5s-38 116 -38 188s12.667 134.667 38 188s61.166 94.5 107.499 123.5s100.833 43.5 163.5 43.5c62 0 116.167 -14.5 162.5 -43.5s82 -70.167 107 -123.5s37.5 -116 37.5 -188s-12.5 -134.667 -37.5 -188
s-60.667 -94.5 -107 -123.5s-100.5 -43.5 -162.5 -43.5c-62.667 0 -117.167 14.5 -163.5 43.5zM484 88c36.667 24 65 58 85 102s30 95.667 30 155s-10 111 -30 155s-48.333 78 -85 102s-79.667 36 -129 36c-50 0 -93.5 -12 -130.5 -36s-65.5 -58 -85.5 -102
s-30 -95.667 -30 -155s10 -111 30 -155s48.5 -78 85.5 -102s80.5 -36 130.5 -36c49.333 0 92.333 12 129 36z" />
    <glyph glyph-name="P" unicode="P" horiz-adv-x="574" 
d="M100 690h217c70 0 125.333 -18.333 166 -55s61 -88.667 61 -156c0 -65.333 -19.667 -115.5 -59 -150.5s-95.333 -52.5 -168 -52.5h-151v-276h-66v690zM323 336c52 0 90.833 11.499 116.5 34.499s38.5 58.5 38.5 106.5c0 48.667 -13 86.334 -39 113.001
s-64.667 40 -116 40h-157v-294h157z" />
    <glyph glyph-name="Q" unicode="Q" horiz-adv-x="712" 
d="M627 -63l-101 102c-48 -32.667 -105 -49 -171 -49c-62.667 0 -117.167 14.5 -163.5 43.5s-82.166 70.167 -107.499 123.5s-38 116 -38 188s12.667 134.667 38 188s61.166 94.5 107.499 123.5s100.833 43.5 163.5 43.5c62 0 116.167 -14.5 162.5 -43.5
s82 -70.167 107 -123.5s37.5 -116 37.5 -188c0 -57.333 -8.16699 -109 -24.5 -155s-39.5 -84.333 -69.5 -115l98 -98zM480 86l-131 133.001l36 38l138 -137c24 26 42.667 58.167 56 96.5s20 81.166 20 128.499c0 59.333 -10 111 -30 155s-48.333 78 -85 102
s-79.667 36 -129 36c-50 0 -93.5 -12 -130.5 -36s-65.5 -58 -85.5 -102s-30 -95.667 -30 -155s10 -111 30 -155s48.5 -78 85.5 -102s80.5 -36 130.5 -36c47.333 0 89 11.333 125 34z" />
    <glyph glyph-name="R" unicode="R" horiz-adv-x="596" 
d="M100 690l226.999 -0.000976562c64.667 0 116.834 -17.167 156.501 -51.5s59.5 -80.166 59.5 -137.499c0 -47.333 -13.5 -86.5 -40.5 -117.5s-63.5 -51.167 -109.5 -60.5l168 -324h-74l-160 316h-161v-316h-66v691zM342.999 374.999c44.667 2 78.167 13.833 100.5 35.5
s33.5 51.834 33.5 90.501c0 41.333 -12.833 73.166 -38.5 95.499s-62.5 33.5 -110.5 33.5h-161v-255h176z" />
    <glyph glyph-name="S" unicode="S" horiz-adv-x="530" 
d="M155 15c-35.333 15.333 -64.3369 39.6709 -87.0039 73.0039s-34 75.666 -34 126.999h66c0 -54 16.5 -94.167 49.5 -120.5s73.167 -39.5 120.5 -39.5c42.667 0 77.334 10.667 104.001 32s40 50.666 40 87.999c0 27.333 -7.16699 50.666 -21.5 69.999
s-32.166 35.166 -53.499 47.499s-49.666 25.833 -84.999 40.5c-42 17.333 -75.5 33 -100.5 47s-46.5 33.167 -64.5 57.5s-27 54.5 -27 90.5c0 51.333 17.667 92.833 53 124.5s81.666 47.5 138.999 47.5c80 0 145.667 -34.667 197 -104l-44 -41c-42.667 56 -94 84 -154 84
c-36.667 0 -66.5 -9.66699 -89.5 -29s-34.5 -45 -34.5 -77c0 -24 7.16699 -44.5 21.5 -61.5s31.833 -31.167 52.5 -42.5s49.667 -25.333 87 -42c40.667 -17.333 73.834 -33.833 99.501 -49.5s47.334 -36 65.001 -61s26.5 -55.833 26.5 -92.5
c0 -37.333 -9.16699 -70.5 -27.5 -99.5s-43.833 -51.667 -76.5 -68s-69.334 -24.5 -110.001 -24.5c-39.333 0 -76.666 7.66699 -111.999 23z" />
    <glyph glyph-name="T" unicode="T" horiz-adv-x="561" 
d="M248 631h-238v59h541v-59h-237v-631h-66v631z" />
    <glyph glyph-name="U" unicode="U" horiz-adv-x="646" 
d="M151.5 56c-42.333 44 -63.5 104.667 -63.5 182v452h66v-455c0 -57.333 15.167 -102.5 45.5 -135.5s71.833 -49.5 124.5 -49.5c52 0 93 16.5 123 49.5s45 78.167 45 135.5v455h66v-447c0 -78.667 -21 -140.5 -63 -185.5s-99 -67.5 -171 -67.5
c-72.667 0 -130.167 22 -172.5 66z" />
    <glyph glyph-name="V" unicode="V" horiz-adv-x="565" 
d="M555 690l-225 -690h-94l-226 690h68l204 -644l204 644h69z" />
    <glyph glyph-name="W" unicode="W" horiz-adv-x="883" 
d="M10 690l67.999 -0.000976562l141 -604v-16h5c0 0.666992 -0.333008 1.83398 -1 3.50098s-0.666992 3.5 0 5.5l170 543h96l169 -543c0.666992 -1.33301 0.666992 -3 0 -5s-1 -3.33301 -1 -4h6c0 0.666992 -0.166992 3 -0.5 7s-0.166016 7 0.500977 9l141 604h69l-167 -690
h-80l-183 567l-187 -567h-79z" />
    <glyph glyph-name="X" unicode="X" horiz-adv-x="546" 
d="M237 345l-226 345h79l183 -291l183 291h79l-226 -345l227 -345h-79l-185 286l-183 -286h-79z" />
    <glyph glyph-name="Y" unicode="Y" horiz-adv-x="647" 
d="M289 270l-284 420h79l237 -361l242 361h79l-286 -420v-270h-67v270z" />
    <glyph glyph-name="Z" unicode="Z" horiz-adv-x="562" 
d="M545 632l-450 -572h450v-60h-528v56l445 574h-423v60h506v-58z" />
    <glyph glyph-name="bracketleft" unicode="[" horiz-adv-x="262" 
d="M70 735h172v-46h-121v-776h121v-47h-172v869z" />
    <glyph glyph-name="backslash" unicode="\" horiz-adv-x="511" 
d="M69 690h65l296 -766h-66z" />
    <glyph glyph-name="bracketright" unicode="]" horiz-adv-x="262" 
d="M20 -134v47h121v776h-121v46h172v-869h-172z" />
    <glyph glyph-name="asciicircum" unicode="^" horiz-adv-x="363" 
d="M181 689l170 -374h-60l-110 262l-108 -262h-61z" />
    <glyph glyph-name="underscore" unicode="_" horiz-adv-x="372" 
d="M0 0h372v-47h-372v47z" />
    <glyph glyph-name="grave" unicode="`" horiz-adv-x="200" 
d="M-1 690h92l105 -132h-63z" />
    <glyph glyph-name="a" unicode="a" horiz-adv-x="510" 
d="M88.5 28.5c-29 25.667 -43.501 59.8311 -43.501 102.498c0 32.667 8.5 58.834 25.5 78.501s41.5 34.834 73.5 45.501c15.333 5.33301 32.666 9.83301 51.999 13.5s32 6.16699 38 7.5c22 4 38.667 7.33301 50 10c28 6.66699 50.333 16 67 28s25 28 25 48
c0 23.333 -10.667 42 -32 56s-49 21 -83 21c-31.333 0 -60.5 -6.33301 -87.5 -19s-48.833 -31 -65.5 -55l-50 34c23.333 31.333 52.333 55.333 87 72s72.667 25 114 25c50.667 0 92.834 -12.5 126.501 -37.5s50.5 -60.5 50.5 -106.5v-231l14 -121h-60l-11 83h-5
c-13.333 -28 -34.666 -50.5 -63.999 -67.5s-64 -25.5 -104 -25.5c-49.333 0 -88.5 12.833 -117.5 38.5zM289.499 64.9971c24.333 10.667 44.835 28.999 61.502 54.999s25 60.333 25 103v51h-4c-16.667 -14 -35.334 -24.5 -56.001 -31.5s-48.667 -14.5 -84 -22.5
c-32 -6 -54.667 -12 -68 -18c-34.667 -14.667 -52 -38.667 -52 -72c0 -25.333 9.66699 -45.166 29 -59.499s44 -21.5 74 -21.5c25.333 0 50.166 5.33301 74.499 16z" />
    <glyph glyph-name="b" unicode="b" horiz-adv-x="532" 
d="M443 427.5c32.667 -47 49 -108.167 49 -183.5s-16.167 -136.5 -48.5 -183.5s-80.833 -70.5 -145.5 -70.5c-60.667 0 -110.667 22.667 -150 68h-4v-58h-62v690h62v-260h5c39.333 45.333 88.666 68 147.999 68c64.667 0 113.334 -23.5 146.001 -70.5zM392 99
c24.667 34.667 37 83 37 145c0 61.333 -12.333 109.166 -37 143.499s-61.334 51.5 -110.001 51.5c-44 0 -78.833 -17.667 -104.5 -53s-38.5 -82.666 -38.5 -141.999c0 -60.667 12.833 -108.667 38.5 -144s60.5 -53 104.5 -53c48.667 0 85.334 17.333 110.001 52z" />
    <glyph glyph-name="c" unicode="c" horiz-adv-x="468" 
d="M134 24.5c-31.333 23 -54.833 53.6689 -70.5 92.002s-23.5 80.5 -23.5 126.5s7.83301 88.167 23.5 126.5s39 69 70 92s68.5 34.5 112.5 34.5c42.667 0 80 -11 112 -33s57 -52.667 75 -92l-54 -22c-10.667 28.667 -28 51.167 -52 67.5s-51 24.5 -81 24.5
c-48.667 0 -84.667 -20 -108 -60s-35 -86 -35 -138c0 -52.667 11.667 -98.834 35 -138.501s59.333 -59.5 108 -59.5c30.667 0 58 8.5 82 25.5s41.667 39.167 53 66.5l52 -21c-17.333 -40.667 -42 -71.834 -74 -93.501s-69.333 -32.5 -112 -32.5
c-44 0 -81.667 11.5 -113 34.5z" />
    <glyph glyph-name="d" unicode="d" horiz-adv-x="532" 
d="M450 690v-690h-62v58h-4c-39.333 -45.333 -89.333 -68 -150 -68c-64.667 0 -113.167 23.5 -145.5 70.5s-48.5 108.167 -48.5 183.5s16.333 136.5 49 183.5s81.334 70.5 146.001 70.5c59.333 0 108.666 -22.667 147.999 -68h5v260h62zM354.5 100
c25.667 35.333 38.5 83.333 38.5 144c0 59.333 -12.833 106.666 -38.5 141.999s-60.5 53 -104.5 53c-48.667 0 -85.334 -17.167 -110.001 -51.5s-37 -82.166 -37 -143.499c0 -62 12.333 -110.333 37 -145s61.334 -52 110.001 -52c44 0 78.833 17.667 104.5 53z" />
    <glyph glyph-name="e" unicode="e" horiz-adv-x="494" 
d="M453.5 224.5c-0.333008 -3 -0.5 -4.83301 -0.5 -5.5h-349c4 -48.667 19.167 -88.667 45.5 -120s65.833 -47 118.5 -47c54.667 0 99 14.667 133 44l35 -42c-25.333 -22 -51.833 -37.5 -79.5 -46.5s-57.167 -13.5 -88.5 -13.5c-52 0 -95 11.5 -129 34.5s-59 53.333 -75 91
s-24 79.167 -24 124.5c0 43.333 7.33301 84 22 122s38 68.833 70 92.5s72.667 35.5 122 35.5c72.667 0 124.167 -24.667 154.5 -74s45.5 -109.333 45.5 -180c0 -7.33301 -0.166992 -12.5 -0.5 -15.5zM141 389c-24 -32 -37.001 -71.333 -39.001 -118h293
c-1.33301 50 -14.166 90.167 -38.499 120.5s-59.5 45.5 -105.5 45.5c-49.333 0 -86 -16 -110 -48z" />
    <glyph glyph-name="f" unicode="f" horiz-adv-x="308" 
d="M103 435l-89 0.000976562v53h89v63c0 42.667 12.667 76.5 38 101.5s59.333 37.5 102 37.5h53v-54h-52c-24 0 -43.167 -7.33301 -57.5 -22s-21.5 -34.334 -21.5 -59.001v-67h131v-53h-131v-435h-62v435z" />
    <glyph glyph-name="g" unicode="g" horiz-adv-x="532" 
d="M121.5 -139.5c-39 22.333 -63.833 51.501 -74.5 87.501l70 17c6.66699 -24.667 22.5 -45 47.5 -61s54.5 -24 88.5 -24c40.667 0 73.334 12.167 98.001 36.5s37 55.833 37 94.5v69c-34.667 -50 -85.334 -75 -152.001 -75c-42.667 0 -78.667 11.333 -108 34
s-51.333 52.667 -66 90s-22 78.666 -22 123.999c0 70.667 17 129 51 175s85.333 69 154 69c28.667 0 54.167 -5.16699 76.5 -15.5s41.5 -27.5 57.5 -51.5h8v58h63v-477c0 -55.333 -17.667 -99.833 -53 -133.5s-83 -50.5 -143 -50.5c-49.333 0 -93.5 11.167 -132.5 33.5z
M358.5 109.001c23 33.333 34.5 77.668 34.5 133.001c0 57.333 -11.667 105.166 -35 143.499s-59.333 57.5 -108 57.5c-49.333 0 -86.166 -18 -110.499 -54s-36.5 -81.667 -36.5 -137c0 -56 12.167 -102.167 36.5 -138.5s61.166 -54.5 110.499 -54.5s85.5 16.667 108.5 50z
" />
    <glyph glyph-name="h" unicode="h" 
d="M82 690h61.999v-277h6c32 54.667 79 82 141 82c49.333 0 88.333 -16 117 -48s43 -75.667 43 -131v-316h-62v310c0 83.333 -35.667 125 -107 125c-39.333 0 -72.166 -14 -98.499 -42s-39.5 -63.333 -39.5 -106v-287h-62v690z" />
    <glyph glyph-name="i" unicode="i" horiz-adv-x="237" 
d="M82 690h73v-89h-73v89zM88 488h62v-488h-62v488z" />
    <glyph glyph-name="j" unicode="j" horiz-adv-x="238" 
d="M83 690h73v-90h-73v90zM-18 -163v54h53c20 0 34 5.5 42 16.5s12 26.167 12 45.5v535h62v-526c0 -44 -9 -75.833 -27 -95.5s-48.333 -29.5 -91 -29.5h-51z" />
    <glyph glyph-name="k" unicode="k" horiz-adv-x="471" 
d="M480 0h-80l-211 260l-45 -2v-258h-62v690h62v-419l225 217h78l-205 -200z" />
    <glyph glyph-name="l" unicode="l" horiz-adv-x="226" 
d="M82 690h62v-690h-62v690z" />
    <glyph glyph-name="m" unicode="m" horiz-adv-x="789" 
d="M82 488l62 -0.000976562v-68h3c13.333 24 31.166 42.833 53.499 56.5s48.5 20.5 78.5 20.5s56.833 -7.5 80.5 -22.5s41.834 -37.833 54.501 -68.5h5c16.667 31.333 36.5 54.166 59.5 68.499s51.833 21.5 86.5 21.5c101.333 0 152 -59.667 152 -179v-317h-62v315
c0 37.333 -8.5 67.5 -25.5 90.5s-43.833 34.5 -80.5 34.5c-40 0 -69.833 -14.167 -89.5 -42.5s-29.5 -65.166 -29.5 -110.499v-287h-62v317c0 38 -8.16699 68 -24.5 90s-42.5 33 -78.5 33c-41.333 0 -71.833 -14.167 -91.5 -42.5s-29.5 -65.166 -29.5 -110.499v-287h-62v488
z" />
    <glyph glyph-name="n" unicode="n" 
d="M82 488h63.001v-75h4c15.333 26 34.666 46.167 57.999 60.5s50.666 21.5 81.999 21.5c50.667 0 90.334 -16 119.001 -48s43 -75.667 43 -131v-316h-62v310c0 86 -34.333 129 -103 129c-42 0 -76.167 -14 -102.5 -42s-39.5 -64.667 -39.5 -110v-287h-62v488z" />
    <glyph glyph-name="o" unicode="o" horiz-adv-x="514" 
d="M99 56c-39.333 44 -59 106.002 -59 186.002s19.667 142 59 186s91.666 66 156.999 66c42.667 0 80.334 -9.83301 113.001 -29.5s58.334 -48.334 77.001 -86.001s28 -83.167 28 -136.5s-9.33301 -98.833 -28 -136.5s-44.334 -66.334 -77.001 -86.001
s-70.334 -29.5 -113.001 -29.5c-65.333 0 -117.666 22 -156.999 66zM371.5 96.502c27.667 33 41.5 81.5 41.5 145.5s-13.833 112.667 -41.5 146s-65.834 50 -114.501 50s-86.834 -16.667 -114.501 -50s-41.5 -82 -41.5 -146s13.833 -112.5 41.5 -145.5
s65.834 -49.5 114.501 -49.5s86.834 16.5 114.501 49.5z" />
    <glyph glyph-name="p" unicode="p" horiz-adv-x="531" 
d="M82 488l60 -0.00195312v-61h6c35.333 47.333 85 71 149 71c40.667 0 75.5 -11.167 104.5 -33.5s51.167 -52.666 66.5 -90.999s23 -81.5 23 -129.5s-7.66699 -91.167 -23 -129.5s-37.5 -68.666 -66.5 -90.999s-63.833 -33.5 -104.5 -33.5c-62 0 -112 23.667 -150 71h-3
v-224h-62v651zM389 97.998c26.667 36 40 84.667 40 146s-13.333 109.833 -40 145.5s-62.667 53.5 -108 53.5c-44.667 0 -79.834 -17.833 -105.501 -53.5s-38.5 -84.167 -38.5 -145.5c0 -62 12.833 -110.833 38.5 -146.5s60.834 -53.5 105.501 -53.5
c45.333 0 81.333 18 108 54z" />
    <glyph glyph-name="q" unicode="q" horiz-adv-x="531" 
d="M387 -163v224.002h-3c-38 -47.333 -88 -71 -150 -71c-40.667 0 -75.5 11.167 -104.5 33.5s-51.167 52.666 -66.5 90.999s-23 81.5 -23 129.5s7.66699 91.167 23 129.5s37.5 68.666 66.5 90.999s63.833 33.5 104.5 33.5c64 0 113.667 -23.667 149 -71h6v61h60v-651h-62z
M355.5 97.502c25.667 35.667 38.5 84.5 38.5 146.5c0 61.333 -12.833 109.833 -38.5 145.5s-60.834 53.5 -105.501 53.5c-45.333 0 -81.333 -17.833 -108 -53.5s-40 -84.167 -40 -145.5s13.333 -110 40 -146s62.667 -54 108 -54c44.667 0 79.834 17.833 105.501 53.5z" />
    <glyph glyph-name="r" unicode="r" horiz-adv-x="349" 
d="M82 488l63.999 -0.000976562v-85h3c10 26.667 26.667 48.667 50 66s51 26 83 26c16.667 0 34 -2.66699 52 -8v-60c-16 6.66699 -32.333 10 -49 10c-24.667 0 -47.667 -6.83301 -69 -20.5s-38.666 -35.167 -51.999 -64.5s-20 -65.666 -20 -108.999v-243h-62v488z" />
    <glyph glyph-name="s" unicode="s" horiz-adv-x="450" 
d="M106 24.5c-36.667 23 -60.334 50.5029 -71.001 82.5029l56 30c8 -23.333 24.167 -44 48.5 -62s55.833 -27 94.5 -27c34 0 62.833 7.33301 86.5 22s35.5 36 35.5 64c0 19.333 -6.33301 34.833 -19 46.5s-28 20.5 -46 26.5s-43.333 12.667 -76 20
c-34 8 -62.167 16.167 -84.5 24.5s-41.166 21 -56.499 38s-23 39.5 -23 67.5s8 52.333 24 73s36.833 36.5 62.5 47.5s53.5 16.5 83.5 16.5c39.333 0 74.166 -9 104.499 -27s52.833 -40.333 67.5 -67l-43 -31c-32.667 48.667 -75.667 73 -129 73
c-31.333 0 -57.833 -7.33301 -79.5 -22s-32.5 -33.334 -32.5 -56.001c0 -16.667 6.33301 -30.167 19 -40.5s27.334 -18.333 44.001 -24s42.667 -12.834 78 -21.501s64.333 -17.5 87 -26.5s41.667 -22.333 57 -40s23 -41.167 23 -70.5c0 -32 -9 -59.333 -27 -82
s-41.333 -39.834 -70 -51.501s-58.667 -17.5 -90 -17.5c-46 0 -87.333 11.5 -124 34.5z" />
    <glyph glyph-name="t" unicode="t" horiz-adv-x="314" 
d="M123 31.5c-20.667 21 -31 54.167 -31 99.5v304h-75v53h40c11.333 0 20 3 26 9s9 14.333 9 25v118h62v-152h135v-53h-135v-292c0 -34 5.66699 -57.667 17 -71s31.333 -20 60 -20h44v-52h-55c-44 0 -76.333 10.5 -97 31.5z" />
    <glyph glyph-name="u" unicode="u" 
d="M441 0l-62.999 -0.000976562v75h-7c-32 -54.667 -77.667 -82 -137 -82c-50.667 0 -90.334 16 -119.001 48s-43 75.667 -43 131v316h62v-310c0 -82.667 34.333 -124 103 -124c41.333 0 75.333 13.833 102 41.5s40 62.834 40 105.501v287h62v-488z" />
    <glyph glyph-name="v" unicode="v" horiz-adv-x="429" 
d="M409 488l-147 -488h-95l-147 488h68l127 -457l127 457h67z" />
    <glyph glyph-name="w" unicode="w" horiz-adv-x="659" 
d="M639 488l-104 -488h-89l-117 406l-116 -405h-89l-104 487h67l83 -452l131 452h56l133 -448l82 448h67z" />
    <glyph glyph-name="x" unicode="x" horiz-adv-x="399" 
d="M173 246l-163 242h67l122 -188l123 188h67l-162 -242l162 -246h-67l-123 191l-122 -191h-67z" />
    <glyph glyph-name="y" unicode="y" horiz-adv-x="416" 
d="M32 -109h68.001c16 0 29 3.83301 39 11.5s17.667 19.5 23 35.5l21 63l-168 487h68l115 -357c8 -22.667 12 -42.334 12 -59.001h3c0 8.66699 1.16699 18.334 3.5 29.001s5.16602 21 8.49902 31l114 356h67l-183 -551c-11.333 -34.667 -27.5 -60 -48.5 -76
s-47.833 -24 -80.5 -24h-62v54z" />
    <glyph glyph-name="z" unicode="z" horiz-adv-x="422" 
d="M400 434l-299 -378h296v-56h-372v48l301 384h-290v56h364v-54z" />
    <glyph glyph-name="braceleft" unicode="{" horiz-adv-x="313" 
d="M162.5 -100.5c-22.333 22.333 -33.5 49.165 -33.5 80.498v237c0 20 -2.66699 34.667 -8 44s-11.833 15.166 -19.5 17.499s-18.167 3.83301 -31.5 4.5v49c20 0 34.833 3.83301 44.5 11.5s14.5 25.834 14.5 54.501v238c0 32 11.167 59.167 33.5 81.5s49.5 33.5 81.5 33.5
h29v-61h-29c-16 0 -29.333 -5.16699 -40 -15.5s-16 -23.166 -16 -38.499v-232c0 -28 -2.16699 -48.833 -6.5 -62.5s-14.833 -25.167 -31.5 -34.5c16.667 -8 27.167 -19 31.5 -33s6.5 -35.333 6.5 -64v-230c0 -15.333 5.33301 -28.166 16 -38.499s24 -15.5 40 -15.5h29v-60
h-29c-32 0 -59.167 11.167 -81.5 33.5z" />
    <glyph glyph-name="bar" unicode="|" horiz-adv-x="245" 
d="M100 749h45v-825h-45v825z" />
    <glyph glyph-name="braceright" unicode="}" horiz-adv-x="315" 
d="M40 -134v60.001h29c16 0 29.333 5.16699 40 15.5s16 23.166 16 38.499v230c0 28.667 2.16699 50 6.5 64s14.833 25 31.5 33c-16.667 9.33301 -27.167 20.833 -31.5 34.5s-6.5 34.5 -6.5 62.5v232c0 15.333 -5.33301 28.166 -16 38.499s-24 15.5 -40 15.5h-29v61h29
c32 0 59.167 -11.167 81.5 -33.5s33.5 -49.5 33.5 -81.5v-238c0 -28.667 4.83301 -46.834 14.5 -54.501s24.5 -11.5 44.5 -11.5v-49c-13.333 -0.666992 -23.833 -2.16699 -31.5 -4.5s-14.167 -8.16602 -19.5 -17.499s-8 -24 -8 -44v-237
c0 -31.333 -11.167 -58.166 -33.5 -80.499s-49.5 -33.5 -81.5 -33.5h-29z" />
    <glyph glyph-name="asciitilde" unicode="~" horiz-adv-x="453" 
d="M252.5 197c-13.667 8 -28.834 19.666 -45.501 34.999c-14 12.667 -25.833 22 -35.5 28s-20.5 9 -32.5 9c-31.333 0 -46.333 -23.667 -45 -71h-49c0 36 8 65 24 87s39 33 69 33c24 0 43.5 -4.16699 58.5 -12.5s31.167 -20.5 48.5 -36.5
c12 -11.333 22.333 -19.666 31 -24.999s18.334 -8 29.001 -8c18.667 0 31.667 6.66699 39 20s11 33 11 59h53c0 -41.333 -9.33301 -73.333 -28 -96s-44.667 -34 -78 -34c-19.333 0 -35.833 4 -49.5 12z" />
    <glyph glyph-name="exclamdown" unicode="&#xa1;" horiz-adv-x="253" 
d="M83 488h87v-86h-87v86zM103 307h47l14 -520h-75z" />
    <glyph glyph-name="cent" unicode="&#xa2;" horiz-adv-x="468" 
d="M328 170.5c24 17 41.668 39.167 53.001 66.5l52 -21c-15.333 -35.333 -36.333 -63.666 -63 -84.999s-57.667 -34.333 -93 -39v-92h-45v90c-41.333 2.66699 -76.333 15.834 -105 39.501s-50.334 54.167 -65.001 91.5s-22 78 -22 122c0 44.667 7.33301 85.667 22 123
s36.334 67.666 65.001 90.999s63.667 36.333 105 39v90h45v-92c35.333 -4.66699 66.166 -17.667 92.499 -39s47.5 -49.333 63.5 -84l-54 -22c-10.667 28.667 -28 51.167 -52 67.5s-51 24.5 -81 24.5c-48.667 0 -84.667 -20 -108 -60s-35 -86 -35 -138
c0 -52.667 11.667 -98.834 35 -138.501s59.333 -59.5 108 -59.5c30.667 0 58 8.5 82 25.5z" />
    <glyph glyph-name="sterling" unicode="&#xa3;" horiz-adv-x="602" 
d="M187 60h365.999v-60h-430v279h-80v57h80v136c0 44 9.33301 83.333 28 118s44.834 61.667 78.501 81s72.167 29 115.5 29c46 0 88.833 -14.5 128.5 -43.5s66.167 -65.833 79.5 -110.5l-62 -27c-6.66699 33.333 -24.167 61 -52.5 83s-59.5 33 -93.5 33
c-47.333 0 -85.5 -14.833 -114.5 -44.5s-43.5 -69.167 -43.5 -118.5v-136h186v-57h-186v-219z" />
    <glyph glyph-name="currency" unicode="&#xa4;" horiz-adv-x="552" 
d="M60 152l49 49c-15.333 18.667 -26.833 39.334 -34.5 62.001s-11.5 45.667 -11.5 69s3.83301 46.333 11.5 69s19.167 43.334 34.5 62.001l-49 49l35 37l49 -51c39.333 31.333 83.333 47 132 47s92.667 -15.667 132 -47l49 51l35 -37l-49 -49
c15.333 -18.667 26.833 -39.334 34.5 -62.001s11.5 -45.667 11.5 -69s-3.83301 -46.333 -11.5 -69s-19.167 -43.334 -34.5 -62.001l49 -49l-35 -37l-49 51c-39.333 -31.333 -83.333 -47 -132 -47s-92.667 15.667 -132 47l-49 -51zM337 182c20 8 38 20 54 36
c15.333 15.333 27 32.833 35 52.5s12 40.167 12 61.5s-4 41.833 -12 61.5s-19.667 37.167 -35 52.5c-16 16 -34 28 -54 36s-40.333 12 -61 12s-41 -4 -61 -12s-38 -20 -54 -36c-15.333 -15.333 -27 -32.833 -35 -52.5s-12 -40.167 -12 -61.5s4 -41.833 12 -61.5
s19.667 -37.167 35 -52.5c16 -16 34 -28 54 -36s40.333 -12 61 -12s41 4 61 12z" />
    <glyph glyph-name="yen" unicode="&#xa5;" horiz-adv-x="647" 
d="M387 316h118v-58h-149v-108h149v-58h-149v-92h-67v92h-146v58h146v108h-146v58h115l-253 374h79l237 -361l242 361h79z" />
    <glyph glyph-name="brokenbar" unicode="&#xa6;" horiz-adv-x="242" 
d="M98 690h46v-320h-46v320zM98 238h46v-314h-46v314z" />
    <glyph glyph-name="section" unicode="&#xa7;" horiz-adv-x="534" 
d="M148 26.5c-35.333 23.667 -60 58.833 -74 105.5l67 21c18.667 -62 63.667 -93 135 -93c76 0 114 26.667 114 80c0 14.667 -5 26.5 -15 35.5s-22.667 15.833 -38 20.5s-36.666 10 -63.999 16c-36.667 7.33301 -66.667 15.166 -90 23.499s-43.333 22 -60 41
s-25 45.5 -25 79.5c0 20 4.33301 39 13 57s20.667 33.667 36 47c-15.333 10.667 -27.166 24.334 -35.499 41.001s-12.5 34.667 -12.5 54c0 30 8 56 24 78s37.167 38.667 63.5 50s54.166 17 83.499 17c44 0 82.167 -11.333 114.5 -34s54.5 -54.667 66.5 -96l-68 -18
c-8 26.667 -21.833 46.5 -41.5 59.5s-43.834 19.5 -72.501 19.5c-28 0 -51.833 -6.83301 -71.5 -20.5s-29.5 -33.834 -29.5 -60.501c0 -20 9 -34.167 27 -42.5s46.667 -16.5 86 -24.5c37.333 -7.33301 68 -15.166 92 -23.499s44.5 -22.5 61.5 -42.5s25.5 -47.333 25.5 -82
c0 -20 -4 -39 -12 -57s-19.333 -33.333 -34 -46c15.333 -11.333 26.833 -25.333 34.5 -42s11.5 -34.667 11.5 -54c0 -48.667 -18 -85 -54 -109s-79.333 -36 -130 -36c-50 0 -92.667 11.833 -128 35.5zM390 339.999c0 27.333 -12.501 47 -37.501 59s-58.5 22 -100.5 30l-30 6
c-17.333 -7.33301 -30.666 -17.833 -39.999 -31.5s-14 -29.5 -14 -47.5c0 -24.667 12.333 -43 37 -55s58 -22.333 100 -31l33 -8c34.667 14.667 52 40.667 52 78z" />
    <glyph glyph-name="dieresis" unicode="&#xa8;" horiz-adv-x="269" 
d="M22 690h69v-90h-69v90zM178 690h69v-90h-69v90z" />
    <glyph glyph-name="copyright" unicode="&#xa9;" horiz-adv-x="818" 
d="M227 25.5c-55.333 33 -99.333 77.833 -132 134.5s-49 118.334 -49 185.001s16.333 128.334 49 185.001s76.667 101.5 132 134.5s115.666 49.5 180.999 49.5s126 -16.5 182 -49.5s100.333 -77.833 133 -134.5s49 -118.334 49 -185.001s-16.333 -128.334 -49 -185.001
s-77 -101.5 -133 -134.5s-116.667 -49.5 -182 -49.5s-125.666 16.5 -180.999 49.5zM564.5 69c48.333 29.333 86.666 68.5 114.999 117.5s42.5 101.833 42.5 158.5s-14.167 109.5 -42.5 158.5s-66.666 88.167 -114.999 117.5s-100.5 44 -156.5 44
c-55.333 0 -107 -14.667 -155 -44s-86.333 -68.5 -115 -117.5s-43 -101.833 -43 -158.5s14.333 -109.5 43 -158.5s67 -88.167 115 -117.5s99.667 -44 155 -44c56 0 108.167 14.667 156.5 44zM317.5 158c-27 20 -47.168 46.499 -60.501 79.499s-20 69.5 -20 109.5
s6.66699 76.5 20 109.5s33.333 59.333 60 79s59 29.5 97 29.5c37.333 0 69.833 -9.33301 97.5 -28s49.167 -45.334 64.5 -80.001l-47 -19c-9.33301 24.667 -24.333 44.167 -45 58.5s-44 21.5 -70 21.5c-42 0 -73 -17.167 -93 -51.5s-30 -74.166 -30 -119.499
s10 -85.166 30 -119.499s51 -51.5 93 -51.5c27.333 0 51.166 7.33301 71.499 22s35.5 33.667 45.5 57l45 -18c-15.333 -34.667 -36.666 -61.5 -63.999 -80.5s-59.666 -28.5 -96.999 -28.5c-38 0 -70.5 10 -97.5 30z" />
    <glyph glyph-name="ordfeminine" unicode="&#xaa;" horiz-adv-x="342" 
d="M61 380c-20 17.333 -30.001 40.666 -30.001 69.999c0 22.667 5.83301 40.834 17.5 54.501s28.167 23.834 49.5 30.501c18 5.33301 41.333 10.666 70 15.999l26 5c19.333 5.33301 34.666 11.833 45.999 19.5s17 18.5 17 32.5c0 16 -7.33301 28.833 -22 38.5
s-33.667 14.5 -57 14.5c-21.333 0 -41.166 -4.5 -59.499 -13.5s-33.166 -21.5 -44.499 -37.5l-34 24c16 21.333 35.833 37.666 59.5 48.999s49.5 17 77.5 17c34.667 0 63.5 -8.66699 86.5 -26s34.5 -41.666 34.5 -72.999v-157l9 -83h-41l-7 57h-4
c-8.66699 -19.333 -23 -34.833 -43 -46.5s-43.667 -17.5 -71 -17.5c-33.333 0 -60 8.66699 -80 26zM223.499 422c22.333 18.667 33.501 48.999 33.501 90.999v35h-3c-11.333 -9.33301 -24.5 -16.5 -39.5 -21.5s-33.5 -9.83301 -55.5 -14.5
c-20.667 -4.66699 -36.334 -9 -47.001 -13c-24 -9.33301 -36 -25.666 -36 -48.999c0 -17.333 6.66699 -31 20 -41s30.333 -15 51 -15c28.667 0 54.167 9.33301 76.5 28z" />
    <glyph glyph-name="guillemotleft" unicode="&#xab;" horiz-adv-x="502" 
d="M75 250l173 155v-72l-96 -83l96 -84v-73zM252 250l173 155v-72l-96 -83l96 -84v-73z" />
    <glyph glyph-name="logicalnot" unicode="&#xac;" horiz-adv-x="566" 
d="M437 333h-364v56h420v-247h-56v191z" />
    <glyph glyph-name="registered" unicode="&#xae;" horiz-adv-x="615" 
d="M177.5 207.5c-39.667 23.667 -71 55.667 -94 96s-34.5 84.5 -34.5 132.5s11.5 92.167 34.5 132.5s54.333 72.333 94 96s82.834 35.5 129.501 35.5s89.834 -11.833 129.501 -35.5s71.167 -55.667 94.5 -96s35 -84.5 35 -132.5s-11.667 -92.167 -35 -132.5
s-54.833 -72.333 -94.5 -96s-82.834 -35.5 -129.501 -35.5s-89.834 11.833 -129.501 35.5zM418 241c34.667 20.667 62.167 48.334 82.5 83.001s30.5 72 30.5 112s-10.167 77.5 -30.5 112.5s-47.833 62.833 -82.5 83.5s-71.667 31 -111 31s-76.166 -10.333 -110.499 -31
s-61.666 -48.5 -81.999 -83.5s-30.5 -72.5 -30.5 -112.5s10.167 -77.333 30.5 -112s47.666 -62.334 81.999 -83.001s71.166 -31 110.499 -31s76.333 10.333 111 31zM220 571h106.001c30.667 0 54 -6.83301 70 -20.5s24 -33.167 24 -58.5c0 -22 -5.33301 -39.333 -16 -52
s-24.334 -21 -41.001 -25l70 -119h-53l-62 115h-52v-115h-46v275zM326.001 450c34.667 0 52 14 52 42s-17.333 42 -52 42h-64v-84h64z" />
    <glyph glyph-name="macron" unicode="&#xaf;" horiz-adv-x="323" 
d="M32 629h258v-47h-258v47z" />
    <glyph glyph-name="degree" unicode="&#xb0;" horiz-adv-x="365" 
d="M111 434c-22 12.667 -39.333 30 -52 52s-19 46 -19 72s6.33301 49.833 19 71.5s30 38.834 52 51.501s45.667 19 71 19c26 0 50 -6.33301 72 -19s39.333 -29.834 52 -51.501s19 -45.5 19 -71.5s-6.33301 -50 -19 -72s-30 -39.333 -52 -52s-46 -19 -72 -19
c-25.333 0 -49 6.33301 -71 19zM248.5 491.5c18.333 18.333 27.5 40.5 27.5 66.5s-9.33301 48.167 -28 66.5s-40.667 27.5 -66 27.5s-47.166 -9.16699 -65.499 -27.5s-27.5 -40.5 -27.5 -66.5s9.16699 -48.167 27.5 -66.5s40.166 -27.5 65.499 -27.5
c26 0 48.167 9.16699 66.5 27.5z" />
    <glyph glyph-name="plusminus" unicode="&#xb1;" horiz-adv-x="639" 
d="M296 329h-223v46h223v230h47v-230h223v-46h-223v-230h-47v230zM74 47h492v-47h-492v47z" />
    <glyph glyph-name="acute" unicode="&#xb4;" horiz-adv-x="200" 
d="M116 690h91l-144 -131h-53z" />
    <glyph glyph-name="uni00B5" unicode="&#xb5;" horiz-adv-x="486" 
d="M82 488l68 -0.000976562v-292c0 -42 7.83301 -77 23.5 -105s42.5 -42 80.5 -42c27.333 0 52.5 7.33301 75.5 22s41.167 34.167 54.5 58.5s20 50.5 20 78.5v280h68v-488h-68v91c-10 -25.333 -29.667 -48.666 -59 -69.999s-62.333 -32 -99 -32
c-36 0 -67.667 9.33301 -95 28l-11 -147h-58v618z" />
    <glyph glyph-name="paragraph" unicode="&#xb6;" horiz-adv-x="538" 
d="M261 304c-38.667 0 -74.834 7.83301 -108.501 23.5s-60.834 38 -81.501 67s-31 63.167 -31 102.5s10.333 73.5 31 102.5s47.834 51.333 81.501 67s69.834 23.5 108.501 23.5h53v-830h-53v444zM402 690h54v-830h-54v830z" />
    <glyph glyph-name="periodcentered" unicode="&#xb7;" horiz-adv-x="239" 
d="M78 363.5c-11.333 11.667 -17.001 25.834 -17.001 42.501c0 16 5.5 29.5 16.5 40.5s24.5 16.5 40.5 16.5c16.667 0 30.834 -5.5 42.501 -16.5s17.5 -24.5 17.5 -40.5c0 -16.667 -5.83301 -30.834 -17.5 -42.501s-25.834 -17.5 -42.501 -17.5
c-15.333 0 -28.666 5.83301 -39.999 17.5z" />
    <glyph glyph-name="cedilla" unicode="&#xb8;" horiz-adv-x="190" 
d="M43.5 -227.5c-15 11 -25.832 25.167 -32.499 42.5l38 21c2 -10 7.16699 -18.833 15.5 -26.5s18.166 -11.5 29.499 -11.5c12.667 0 23.834 4.83301 33.501 14.5s14.5 21.5 14.5 35.5c0 21.333 -15.667 37.333 -47 48l-54 18l45 86h45l-40 -64
c33.333 -9.33301 57.666 -20.5 72.999 -33.5s23 -29.167 23 -48.5c0 -27.333 -9.33301 -50.5 -28 -69.5s-40 -28.5 -64 -28.5c-19.333 0 -36.5 5.5 -51.5 16.5z" />
    <glyph glyph-name="ordmasculine" unicode="&#xba;" horiz-adv-x="383" 
d="M108.5 372.5c-24.333 15.667 -43.333 37 -57 64s-20.5 56.833 -20.5 89.5c0 32 6.83301 61.5 20.5 88.5s32.667 48.333 57 64s51.833 23.5 82.5 23.5s58.334 -7.83301 83.001 -23.5s43.834 -37 57.501 -64s20.5 -56.5 20.5 -88.5c0 -32.667 -6.83301 -62.5 -20.5 -89.5
s-32.834 -48.333 -57.501 -64s-52.334 -23.5 -83.001 -23.5s-58.167 7.83301 -82.5 23.5zM271.5 430.5c17.667 25.667 26.5 57.834 26.5 96.501c0 38 -8.83301 69.833 -26.5 95.5s-44.5 38.5 -80.5 38.5c-35.333 0 -61.833 -12.833 -79.5 -38.5s-26.5 -57.5 -26.5 -95.5
c0 -38.667 8.66699 -70.834 26 -96.501s44 -38.5 80 -38.5s62.833 12.833 80.5 38.5z" />
    <glyph glyph-name="guillemotright" unicode="&#xbb;" horiz-adv-x="502" 
d="M75 166l96 84l-96 83v72l173 -155l-173 -157v73zM252 166l96 84l-96 83v72l173 -155l-173 -157v73z" />
    <glyph glyph-name="questiondown" unicode="&#xbf;" horiz-adv-x="431" 
d="M277 402h-87v86h87v-86zM264 188c0 -21.333 -3.66992 -38.8311 -11.0029 -52.498s-16.166 -24.5 -26.499 -32.5s-24.5 -17 -42.5 -27c-18 -9.33301 -32.667 -18.333 -44 -27s-20.666 -20.167 -27.999 -34.5s-11 -32.833 -11 -55.5c0 -37.333 12.5 -65.833 37.5 -85.5
s56.833 -29.5 95.5 -29.5c36 0 67.333 10.5 94 31.5s40.334 49.5 41.001 85.5h62c0 -34.667 -8.83301 -65.167 -26.5 -91.5s-41.334 -46.5 -71.001 -60.5s-61.5 -21 -95.5 -21c-57.333 0 -104.666 15.167 -141.999 45.5s-56 72.833 -56 127.5c0 28 4.66699 51.167 14 69.5
s20.5 32.666 33.5 42.999s29.833 21.166 50.5 32.499c23.333 12.667 40.5 24.667 51.5 36s16.5 27 16.5 47v120h58v-121z" />
    <glyph glyph-name="Agrave" unicode="&#xc0;" horiz-adv-x="557" 
d="M432 157h-307l-49 -157h-70l228 690h92l227 -690h-71zM415 213l-126 397c-4.66699 16 -7.66699 27.333 -9 34h-2c-0.666992 -2 -4 -13.333 -10 -34l-125 -397h272zM115 892h92l105 -132h-63z" />
    <glyph glyph-name="Aacute" unicode="&#xc1;" horiz-adv-x="557" 
d="M432 157h-307l-49 -157h-70l228 690h92l227 -690h-71zM415 213l-126 397c-4.66699 16 -7.66699 27.333 -9 34h-2c-0.666992 -2 -4 -13.333 -10 -34l-125 -397h272zM360 892h91l-144 -131h-53z" />
    <glyph glyph-name="Acircumflex" unicode="&#xc2;" horiz-adv-x="557" 
d="M432 157h-307l-49 -157h-70l228 690h92l227 -690h-71zM415 213l-126 397c-4.66699 16 -7.66699 27.333 -9 34h-2c-0.666992 -2 -4 -13.333 -10 -34l-125 -397h272zM275 888h11l127 -157h-57l-75 91l-74 -91h-58z" />
    <glyph glyph-name="Atilde" unicode="&#xc3;" horiz-adv-x="557" 
d="M432 157h-307l-49 -157h-70l228 690h92l227 -690h-71zM415 213l-126 397c-4.66699 16 -7.66699 27.333 -9 34h-2c-0.666992 -2 -4 -13.333 -10 -34l-125 -397h272zM306 784.5c-13.333 7 -28.334 17.167 -45.001 30.5c-13.333 11.333 -24.833 19.833 -34.5 25.5
s-20.5 8.5 -32.5 8.5c-30 0 -44.333 -21.333 -43 -64h-40c0 32 7 57.833 21 77.5s34.667 29.5 62 29.5c23.333 0 42.666 -4 57.999 -12s31.666 -19.667 48.999 -35c10.667 -10 20.334 -17.667 29.001 -23s18.334 -8 29.001 -8c18 0 30.333 6.33301 37 19s10 31.667 10 57h44
c0 -38 -8.33301 -66.833 -25 -86.5s-41 -29.5 -73 -29.5c-17.333 0 -32.666 3.5 -45.999 10.5z" />
    <glyph glyph-name="Adieresis" unicode="&#xc4;" horiz-adv-x="557" 
d="M432 157h-307l-49 -157h-70l228 690h92l227 -690h-71zM415 213l-126 397c-4.66699 16 -7.66699 27.333 -9 34h-2c-0.666992 -2 -4 -13.333 -10 -34l-125 -397h272zM168 892h69v-90h-69v90zM324 892h69v-90h-69v90z" />
    <glyph glyph-name="Aring" unicode="&#xc5;" horiz-adv-x="557" 
d="M432 157l-307 -0.00195312l-49 -157h-70l219 662c-12 8.66699 -21.5 19.667 -28.5 33s-10.5 28 -10.5 44c0 26 9.16699 48 27.5 66s40.5 27 66.5 27s48.167 -9 66.5 -27s27.5 -40 27.5 -66c0 -15.333 -3.5 -29.666 -10.5 -42.999s-16.5 -24.666 -28.5 -33.999l218 -662
h-71zM245 773.498c-8.66699 -9 -12.999 -20.832 -12.999 -35.499c0 -14 4.5 -25.5 13.5 -34.5s20.5 -13.5 34.5 -13.5c13.333 0 24.833 4.66699 34.5 14s14.5 20.666 14.5 33.999s-4.66699 24.833 -14 34.5s-21 14.5 -35 14.5c-14.667 0 -26.334 -4.5 -35.001 -13.5z
M415.001 212.999l-126 397c-4.66699 16 -7.66699 27.333 -9 34h-2c-0.666992 -2 -4 -13.333 -10 -34l-125 -397h272z" />
    <glyph glyph-name="AE" unicode="&#xc6;" horiz-adv-x="858" 
d="M439 632v-258h323v-58h-323v-254h365v-62h-434v152h-231l-55 -152h-78l256 690h542v-58h-365zM370 216v410h-60l-148 -410h208z" />
    <glyph glyph-name="Ccedilla" unicode="&#xc7;" horiz-adv-x="658" 
d="M490.5 92.5c38.333 26.333 66.165 61.1689 83.498 104.502l54 -25c-16 -48 -45.5 -88.333 -88.5 -121s-91.167 -52.334 -144.5 -59.001l-36 -53c64 -17.333 96 -48 96 -92c0 -25.333 -9.33301 -46.333 -28 -63s-40 -25 -64 -25c-19.333 0 -36.5 5.5 -51.5 16.5
s-25.833 25.167 -32.5 42.5l38 21c2 -10.667 7.16699 -19.667 15.5 -27s18.5 -11 30.5 -11c12.667 0 23.667 3.66699 33 11s14 17.666 14 30.999c0 26.667 -15.667 45.334 -47 56.001l-54 18l42 73c-60 1.33301 -113 16.166 -159 44.499s-81.833 69 -107.5 122
s-38.5 115.833 -38.5 188.5c0 74 13.333 137.833 40 191.5s63.5 94.5 110.5 122.5s101.167 42 162.5 42c60 0 115.167 -16.833 165.5 -50.5s84.833 -77.167 103.5 -130.5l-54 -26c-16 44 -42.667 79 -80 105s-82.666 39 -135.999 39c-50 0 -93.5 -11.833 -130.5 -35.5
s-65.667 -57.167 -86 -100.5s-30.5 -94 -30.5 -152c0 -59.333 10.167 -111.5 30.5 -156.5s49.333 -79.667 87 -104s81.834 -36.5 132.501 -36.5c48 0 91.167 13.167 129.5 39.5z" />
    <glyph glyph-name="Egrave" unicode="&#xc8;" horiz-adv-x="598" 
d="M100 690h444v-60h-378v-255h330v-60h-330v-255h378v-60h-444v690zM157 892h92l105 -132h-63z" />
    <glyph glyph-name="Eacute" unicode="&#xc9;" horiz-adv-x="598" 
d="M100 690h444v-60h-378v-255h330v-60h-330v-255h378v-60h-444v690zM402 892h91l-144 -131h-53z" />
    <glyph glyph-name="Ecircumflex" unicode="&#xca;" horiz-adv-x="598" 
d="M100 690h444v-60h-378v-255h330v-60h-330v-255h378v-60h-444v690zM317 888h11l127 -157h-57l-75 91l-74 -91h-58z" />
    <glyph glyph-name="Edieresis" unicode="&#xcb;" horiz-adv-x="598" 
d="M100 690h444v-60h-378v-255h330v-60h-330v-255h378v-60h-444v690zM210 892h69v-90h-69v90zM366 892h69v-90h-69v90z" />
    <glyph glyph-name="Igrave" unicode="&#xcc;" horiz-adv-x="266" 
d="M100 690h66v-690h-66v690zM-32 892h92l105 -132h-63z" />
    <glyph glyph-name="Iacute" unicode="&#xcd;" horiz-adv-x="266" 
d="M100 690h66v-690h-66v690zM213 892h91l-144 -131h-53z" />
    <glyph glyph-name="Icircumflex" unicode="&#xce;" horiz-adv-x="266" 
d="M100 690h66v-690h-66v690zM128 888h11l127 -157h-57l-75 91l-74 -91h-58z" />
    <glyph glyph-name="Idieresis" unicode="&#xcf;" horiz-adv-x="266" 
d="M100 690h66v-690h-66v690zM21 892h69v-90h-69v90zM177 892h69v-90h-69v90z" />
    <glyph glyph-name="Eth" unicode="&#xd0;" horiz-adv-x="648" 
d="M88 321h-55v54h55v315h173c111.333 0 196.333 -29.833 255 -89.5s88 -146.5 88 -260.5c0 -109.333 -29.833 -193.333 -89.5 -252s-144.5 -88 -254.5 -88h-172v321zM248 64c85.333 0 154.001 23.333 206.001 70s78 117 78 211c0 92 -22.833 162 -68.5 210
s-113.834 72 -204.501 72h-100v-252h176v-54h-176v-257h89z" />
    <glyph glyph-name="Ntilde" unicode="&#xd1;" horiz-adv-x="722" 
d="M100 690h102.999l325 -580l23 -41h5v621h66v-690h-105l-320 571c-9.33301 16.667 -18.666 35.667 -27.999 57h-3v-628h-66v690zM386.999 784.5c-13.333 7 -28.334 17.167 -45.001 30.5c-13.333 11.333 -24.833 19.833 -34.5 25.5s-20.5 8.5 -32.5 8.5
c-30 0 -44.333 -21.333 -43 -64h-40c0 32 7 57.833 21 77.5s34.667 29.5 62 29.5c23.333 0 42.666 -4 57.999 -12s31.666 -19.667 48.999 -35c10.667 -10 20.334 -17.667 29.001 -23s18.334 -8 29.001 -8c18 0 30.333 6.33301 37 19s10 31.667 10 57h44
c0 -38 -8.33301 -66.833 -25 -86.5s-41 -29.5 -73 -29.5c-17.333 0 -32.666 3.5 -45.999 10.5z" />
    <glyph glyph-name="Ograve" unicode="&#xd2;" horiz-adv-x="708" 
d="M191.5 33.5c-46.333 29 -82.166 70.167 -107.499 123.5s-38 116 -38 188s12.667 134.667 38 188s61.166 94.5 107.499 123.5s100.833 43.5 163.5 43.5c62 0 116.167 -14.5 162.5 -43.5s82 -70.167 107 -123.5s37.5 -116 37.5 -188s-12.5 -134.667 -37.5 -188
s-60.667 -94.5 -107 -123.5s-100.5 -43.5 -162.5 -43.5c-62.667 0 -117.167 14.5 -163.5 43.5zM484 88c36.667 24 65 58 85 102s30 95.667 30 155s-10 111 -30 155s-48.333 78 -85 102s-79.667 36 -129 36c-50 0 -93.5 -12 -130.5 -36s-65.5 -58 -85.5 -102
s-30 -95.667 -30 -155s10 -111 30 -155s48.5 -78 85.5 -102s80.5 -36 130.5 -36c49.333 0 92.333 12 129 36zM189 892h92l105 -132h-63z" />
    <glyph glyph-name="Oacute" unicode="&#xd3;" horiz-adv-x="708" 
d="M191.5 33.5c-46.333 29 -82.166 70.167 -107.499 123.5s-38 116 -38 188s12.667 134.667 38 188s61.166 94.5 107.499 123.5s100.833 43.5 163.5 43.5c62 0 116.167 -14.5 162.5 -43.5s82 -70.167 107 -123.5s37.5 -116 37.5 -188s-12.5 -134.667 -37.5 -188
s-60.667 -94.5 -107 -123.5s-100.5 -43.5 -162.5 -43.5c-62.667 0 -117.167 14.5 -163.5 43.5zM484 88c36.667 24 65 58 85 102s30 95.667 30 155s-10 111 -30 155s-48.333 78 -85 102s-79.667 36 -129 36c-50 0 -93.5 -12 -130.5 -36s-65.5 -58 -85.5 -102
s-30 -95.667 -30 -155s10 -111 30 -155s48.5 -78 85.5 -102s80.5 -36 130.5 -36c49.333 0 92.333 12 129 36zM434 892h91l-144 -131h-53z" />
    <glyph glyph-name="Ocircumflex" unicode="&#xd4;" horiz-adv-x="708" 
d="M191.5 33.5c-46.333 29 -82.166 70.167 -107.499 123.5s-38 116 -38 188s12.667 134.667 38 188s61.166 94.5 107.499 123.5s100.833 43.5 163.5 43.5c62 0 116.167 -14.5 162.5 -43.5s82 -70.167 107 -123.5s37.5 -116 37.5 -188s-12.5 -134.667 -37.5 -188
s-60.667 -94.5 -107 -123.5s-100.5 -43.5 -162.5 -43.5c-62.667 0 -117.167 14.5 -163.5 43.5zM484 88c36.667 24 65 58 85 102s30 95.667 30 155s-10 111 -30 155s-48.333 78 -85 102s-79.667 36 -129 36c-50 0 -93.5 -12 -130.5 -36s-65.5 -58 -85.5 -102
s-30 -95.667 -30 -155s10 -111 30 -155s48.5 -78 85.5 -102s80.5 -36 130.5 -36c49.333 0 92.333 12 129 36zM349 888h11l127 -157h-57l-75 91l-74 -91h-58z" />
    <glyph glyph-name="Otilde" unicode="&#xd5;" horiz-adv-x="708" 
d="M191.5 33.5c-46.333 29 -82.166 70.167 -107.499 123.5s-38 116 -38 188s12.667 134.667 38 188s61.166 94.5 107.499 123.5s100.833 43.5 163.5 43.5c62 0 116.167 -14.5 162.5 -43.5s82 -70.167 107 -123.5s37.5 -116 37.5 -188s-12.5 -134.667 -37.5 -188
s-60.667 -94.5 -107 -123.5s-100.5 -43.5 -162.5 -43.5c-62.667 0 -117.167 14.5 -163.5 43.5zM484 88c36.667 24 65 58 85 102s30 95.667 30 155s-10 111 -30 155s-48.333 78 -85 102s-79.667 36 -129 36c-50 0 -93.5 -12 -130.5 -36s-65.5 -58 -85.5 -102
s-30 -95.667 -30 -155s10 -111 30 -155s48.5 -78 85.5 -102s80.5 -36 130.5 -36c49.333 0 92.333 12 129 36zM380 784.5c-13.333 7 -28.334 17.167 -45.001 30.5c-13.333 11.333 -24.833 19.833 -34.5 25.5s-20.5 8.5 -32.5 8.5c-30 0 -44.333 -21.333 -43 -64h-40
c0 32 7 57.833 21 77.5s34.667 29.5 62 29.5c23.333 0 42.666 -4 57.999 -12s31.666 -19.667 48.999 -35c10.667 -10 20.334 -17.667 29.001 -23s18.334 -8 29.001 -8c18 0 30.333 6.33301 37 19s10 31.667 10 57h44c0 -38 -8.33301 -66.833 -25 -86.5s-41 -29.5 -73 -29.5
c-17.333 0 -32.666 3.5 -45.999 10.5z" />
    <glyph glyph-name="Odieresis" unicode="&#xd6;" horiz-adv-x="708" 
d="M191.5 33.5c-46.333 29 -82.166 70.167 -107.499 123.5s-38 116 -38 188s12.667 134.667 38 188s61.166 94.5 107.499 123.5s100.833 43.5 163.5 43.5c62 0 116.167 -14.5 162.5 -43.5s82 -70.167 107 -123.5s37.5 -116 37.5 -188s-12.5 -134.667 -37.5 -188
s-60.667 -94.5 -107 -123.5s-100.5 -43.5 -162.5 -43.5c-62.667 0 -117.167 14.5 -163.5 43.5zM484 88c36.667 24 65 58 85 102s30 95.667 30 155s-10 111 -30 155s-48.333 78 -85 102s-79.667 36 -129 36c-50 0 -93.5 -12 -130.5 -36s-65.5 -58 -85.5 -102
s-30 -95.667 -30 -155s10 -111 30 -155s48.5 -78 85.5 -102s80.5 -36 130.5 -36c49.333 0 92.333 12 129 36zM242 892h69v-90h-69v90zM398 892h69v-90h-69v90z" />
    <glyph glyph-name="multiply" unicode="&#xd7;" horiz-adv-x="591" 
d="M295 207l-154 -154l-41 41l154 154l-158 159l42 41l158 -158l154 153l41 -41l-154 -153l158 -159l-41 -41z" />
    <glyph glyph-name="Oslash" unicode="&#xd8;" horiz-adv-x="708" 
d="M607 566c36.667 -60.667 54.9971 -134.333 54.9971 -221c0 -72 -12.5 -134.667 -37.5 -188s-60.667 -94.5 -107 -123.5s-100.5 -43.5 -162.5 -43.5c-47.333 0 -90.166 8.33301 -128.499 25s-71.166 41 -98.499 73l-59 -59l-29 31l63 63c-38 59.333 -57 133.333 -57 222
c0 72 12.667 134.667 38 188s61.166 94.5 107.499 123.5s100.833 43.5 163.5 43.5c46.667 0 89.334 -8.5 128.001 -25.5s71.334 -41.5 98.001 -73.5l60 60l30 -31zM148.997 169.001l386 386c-21.333 26.667 -47.333 47.167 -78 61.5s-64.667 21.5 -102 21.5
c-50 0 -93.5 -12 -130.5 -36s-65.5 -58 -85.5 -102s-30 -95.667 -30 -155c0 -69.333 13.333 -128 40 -176zM559.997 519.001l-386 -386c21.333 -26 47.333 -46 78 -60s65 -21 103 -21c49.333 0 92.333 12 129 36s65 58 85 102s30 95.667 30 155
c0 67.333 -13 125.333 -39 174z" />
    <glyph glyph-name="Ugrave" unicode="&#xd9;" horiz-adv-x="646" 
d="M151.5 56c-42.333 44 -63.5 104.667 -63.5 182v452h66v-455c0 -57.333 15.167 -102.5 45.5 -135.5s71.833 -49.5 124.5 -49.5c52 0 93 16.5 123 49.5s45 78.167 45 135.5v455h66v-447c0 -78.667 -21 -140.5 -63 -185.5s-99 -67.5 -171 -67.5
c-72.667 0 -130.167 22 -172.5 66zM157 892h92l105 -132h-63z" />
    <glyph glyph-name="Uacute" unicode="&#xda;" horiz-adv-x="646" 
d="M151.5 56c-42.333 44 -63.5 104.667 -63.5 182v452h66v-455c0 -57.333 15.167 -102.5 45.5 -135.5s71.833 -49.5 124.5 -49.5c52 0 93 16.5 123 49.5s45 78.167 45 135.5v455h66v-447c0 -78.667 -21 -140.5 -63 -185.5s-99 -67.5 -171 -67.5
c-72.667 0 -130.167 22 -172.5 66zM402 892h91l-144 -131h-53z" />
    <glyph glyph-name="Ucircumflex" unicode="&#xdb;" horiz-adv-x="646" 
d="M151.5 56c-42.333 44 -63.5 104.667 -63.5 182v452h66v-455c0 -57.333 15.167 -102.5 45.5 -135.5s71.833 -49.5 124.5 -49.5c52 0 93 16.5 123 49.5s45 78.167 45 135.5v455h66v-447c0 -78.667 -21 -140.5 -63 -185.5s-99 -67.5 -171 -67.5
c-72.667 0 -130.167 22 -172.5 66zM317 888h11l127 -157h-57l-75 91l-74 -91h-58z" />
    <glyph glyph-name="Udieresis" unicode="&#xdc;" horiz-adv-x="646" 
d="M151.5 56c-42.333 44 -63.5 104.667 -63.5 182v452h66v-455c0 -57.333 15.167 -102.5 45.5 -135.5s71.833 -49.5 124.5 -49.5c52 0 93 16.5 123 49.5s45 78.167 45 135.5v455h66v-447c0 -78.667 -21 -140.5 -63 -185.5s-99 -67.5 -171 -67.5
c-72.667 0 -130.167 22 -172.5 66zM210 892h69v-90h-69v90zM366 892h69v-90h-69v90z" />
    <glyph glyph-name="Yacute" unicode="&#xdd;" horiz-adv-x="647" 
d="M289 270l-284 420h79l237 -361l242 361h79l-286 -420v-270h-67v270zM403 892h91l-144 -131h-53z" />
    <glyph glyph-name="Thorn" unicode="&#xde;" horiz-adv-x="537" 
d="M100 690h70v-105h113c69.333 0 124 -16.5 164 -49.5s60 -77.833 60 -134.5c0 -58.667 -19.833 -104.167 -59.5 -136.5s-94.5 -48.5 -164.5 -48.5h-113v-216h-70v690zM283 278c50 0 88.167 10.167 114.5 30.5s39.5 50.5 39.5 90.5c0 39.333 -13.333 69.833 -40 91.5
s-64.667 32.5 -114 32.5h-113v-245h113z" />
    <glyph glyph-name="germandbls" unicode="&#xdf;" horiz-adv-x="546" 
d="M245 10l0.000976562 65.999c36 -16.667 68.667 -25 98 -25c26 0 47.333 8 64 24s25 37 25 63c0 24 -5.66699 43.833 -17 59.5s-28.333 33.5 -51 53.5c-24.667 20.667 -43.334 40 -56.001 58s-19 41.333 -19 70c0 25.333 4.83301 44.666 14.5 57.999s23.5 26.333 41.5 39
c16 12 28.167 23.333 36.5 34s12.5 25.334 12.5 44.001c0 28 -10.167 50.333 -30.5 67s-47.833 25 -82.5 25c-41.333 0 -73.5 -11.333 -96.5 -34s-34.5 -52.667 -34.5 -90v-522h-66v524c0 35.333 8.33301 66.333 25 93s39.334 47.167 68.001 61.5s60 21.5 94 21.5
s65.667 -6.66699 95 -20s53 -31.833 71 -55.5s27 -50.167 27 -79.5c0 -23.333 -5.33301 -41.833 -16 -55.5s-26 -27.5 -46 -41.5c-16.667 -12 -29.334 -23 -38.001 -33s-13 -22.667 -13 -38c0 -16.667 5.16699 -31.167 15.5 -43.5s26.833 -27.5 49.5 -45.5
c28.667 -22 50.667 -43 66 -63s23 -46.333 23 -79c0 -30 -7 -56.667 -21 -80s-33.333 -41.666 -58 -54.999s-52 -20 -82 -20c-26.667 0 -59.667 6.33301 -99 19z" />
    <glyph glyph-name="agrave" unicode="&#xe0;" horiz-adv-x="510" 
d="M88.5 28.5c-29 25.667 -43.501 59.8311 -43.501 102.498c0 32.667 8.5 58.834 25.5 78.501s41.5 34.834 73.5 45.501c15.333 5.33301 32.666 9.83301 51.999 13.5s32 6.16699 38 7.5c22 4 38.667 7.33301 50 10c28 6.66699 50.333 16 67 28s25 28 25 48
c0 23.333 -10.667 42 -32 56s-49 21 -83 21c-31.333 0 -60.5 -6.33301 -87.5 -19s-48.833 -31 -65.5 -55l-50 34c23.333 31.333 52.333 55.333 87 72s72.667 25 114 25c50.667 0 92.834 -12.5 126.501 -37.5s50.5 -60.5 50.5 -106.5v-231l14 -121h-60l-11 83h-5
c-13.333 -28 -34.666 -50.5 -63.999 -67.5s-64 -25.5 -104 -25.5c-49.333 0 -88.5 12.833 -117.5 38.5zM289.499 64.9971c24.333 10.667 44.835 28.999 61.502 54.999s25 60.333 25 103v51h-4c-16.667 -14 -35.334 -24.5 -56.001 -31.5s-48.667 -14.5 -84 -22.5
c-32 -6 -54.667 -12 -68 -18c-34.667 -14.667 -52 -38.667 -52 -72c0 -25.333 9.66699 -45.166 29 -59.499s44 -21.5 74 -21.5c25.333 0 50.166 5.33301 74.499 16zM87.001 689.996h92l105 -132h-63z" />
    <glyph glyph-name="aacute" unicode="&#xe1;" horiz-adv-x="510" 
d="M88.5 28.5c-29 25.667 -43.501 59.8311 -43.501 102.498c0 32.667 8.5 58.834 25.5 78.501s41.5 34.834 73.5 45.501c15.333 5.33301 32.666 9.83301 51.999 13.5s32 6.16699 38 7.5c22 4 38.667 7.33301 50 10c28 6.66699 50.333 16 67 28s25 28 25 48
c0 23.333 -10.667 42 -32 56s-49 21 -83 21c-31.333 0 -60.5 -6.33301 -87.5 -19s-48.833 -31 -65.5 -55l-50 34c23.333 31.333 52.333 55.333 87 72s72.667 25 114 25c50.667 0 92.834 -12.5 126.501 -37.5s50.5 -60.5 50.5 -106.5v-231l14 -121h-60l-11 83h-5
c-13.333 -28 -34.666 -50.5 -63.999 -67.5s-64 -25.5 -104 -25.5c-49.333 0 -88.5 12.833 -117.5 38.5zM289.499 64.9971c24.333 10.667 44.835 28.999 61.502 54.999s25 60.333 25 103v51h-4c-16.667 -14 -35.334 -24.5 -56.001 -31.5s-48.667 -14.5 -84 -22.5
c-32 -6 -54.667 -12 -68 -18c-34.667 -14.667 -52 -38.667 -52 -72c0 -25.333 9.66699 -45.166 29 -59.499s44 -21.5 74 -21.5c25.333 0 50.166 5.33301 74.499 16zM332.001 689.996h91l-144 -131h-53z" />
    <glyph glyph-name="acircumflex" unicode="&#xe2;" horiz-adv-x="510" 
d="M88.5 28.5c-29 25.667 -43.501 59.8311 -43.501 102.498c0 32.667 8.5 58.834 25.5 78.501s41.5 34.834 73.5 45.501c15.333 5.33301 32.666 9.83301 51.999 13.5s32 6.16699 38 7.5c22 4 38.667 7.33301 50 10c28 6.66699 50.333 16 67 28s25 28 25 48
c0 23.333 -10.667 42 -32 56s-49 21 -83 21c-31.333 0 -60.5 -6.33301 -87.5 -19s-48.833 -31 -65.5 -55l-50 34c23.333 31.333 52.333 55.333 87 72s72.667 25 114 25c50.667 0 92.834 -12.5 126.501 -37.5s50.5 -60.5 50.5 -106.5v-231l14 -121h-60l-11 83h-5
c-13.333 -28 -34.666 -50.5 -63.999 -67.5s-64 -25.5 -104 -25.5c-49.333 0 -88.5 12.833 -117.5 38.5zM289.499 64.9971c24.333 10.667 44.835 28.999 61.502 54.999s25 60.333 25 103v51h-4c-16.667 -14 -35.334 -24.5 -56.001 -31.5s-48.667 -14.5 -84 -22.5
c-32 -6 -54.667 -12 -68 -18c-34.667 -14.667 -52 -38.667 -52 -72c0 -25.333 9.66699 -45.166 29 -59.499s44 -21.5 74 -21.5c25.333 0 50.166 5.33301 74.499 16zM247.001 685.996h11l127 -157h-57l-75 91l-74 -91h-58z" />
    <glyph glyph-name="atilde" unicode="&#xe3;" horiz-adv-x="510" 
d="M88.5 28.5c-29 25.667 -43.501 59.8311 -43.501 102.498c0 32.667 8.5 58.834 25.5 78.501s41.5 34.834 73.5 45.501c15.333 5.33301 32.666 9.83301 51.999 13.5s32 6.16699 38 7.5c22 4 38.667 7.33301 50 10c28 6.66699 50.333 16 67 28s25 28 25 48
c0 23.333 -10.667 42 -32 56s-49 21 -83 21c-31.333 0 -60.5 -6.33301 -87.5 -19s-48.833 -31 -65.5 -55l-50 34c23.333 31.333 52.333 55.333 87 72s72.667 25 114 25c50.667 0 92.834 -12.5 126.501 -37.5s50.5 -60.5 50.5 -106.5v-231l14 -121h-60l-11 83h-5
c-13.333 -28 -34.666 -50.5 -63.999 -67.5s-64 -25.5 -104 -25.5c-49.333 0 -88.5 12.833 -117.5 38.5zM289.499 64.9971c24.333 10.667 44.835 28.999 61.502 54.999s25 60.333 25 103v51h-4c-16.667 -14 -35.334 -24.5 -56.001 -31.5s-48.667 -14.5 -84 -22.5
c-32 -6 -54.667 -12 -68 -18c-34.667 -14.667 -52 -38.667 -52 -72c0 -25.333 9.66699 -45.166 29 -59.499s44 -21.5 74 -21.5c25.333 0 50.166 5.33301 74.499 16zM278.001 582.496c-13.333 7 -28.334 17.167 -45.001 30.5c-13.333 11.333 -24.833 19.833 -34.5 25.5
s-20.5 8.5 -32.5 8.5c-30 0 -44.333 -21.333 -43 -64h-40c0 32 7 57.833 21 77.5s34.667 29.5 62 29.5c23.333 0 42.666 -4 57.999 -12s31.666 -19.667 48.999 -35c10.667 -10 20.334 -17.667 29.001 -23s18.334 -8 29.001 -8c18 0 30.333 6.33301 37 19s10 31.667 10 57h44
c0 -38 -8.33301 -66.833 -25 -86.5s-41 -29.5 -73 -29.5c-17.333 0 -32.666 3.5 -45.999 10.5z" />
    <glyph glyph-name="adieresis" unicode="&#xe4;" horiz-adv-x="510" 
d="M88.5 28.5c-29 25.667 -43.501 59.8311 -43.501 102.498c0 32.667 8.5 58.834 25.5 78.501s41.5 34.834 73.5 45.501c15.333 5.33301 32.666 9.83301 51.999 13.5s32 6.16699 38 7.5c22 4 38.667 7.33301 50 10c28 6.66699 50.333 16 67 28s25 28 25 48
c0 23.333 -10.667 42 -32 56s-49 21 -83 21c-31.333 0 -60.5 -6.33301 -87.5 -19s-48.833 -31 -65.5 -55l-50 34c23.333 31.333 52.333 55.333 87 72s72.667 25 114 25c50.667 0 92.834 -12.5 126.501 -37.5s50.5 -60.5 50.5 -106.5v-231l14 -121h-60l-11 83h-5
c-13.333 -28 -34.666 -50.5 -63.999 -67.5s-64 -25.5 -104 -25.5c-49.333 0 -88.5 12.833 -117.5 38.5zM289.499 64.9971c24.333 10.667 44.835 28.999 61.502 54.999s25 60.333 25 103v51h-4c-16.667 -14 -35.334 -24.5 -56.001 -31.5s-48.667 -14.5 -84 -22.5
c-32 -6 -54.667 -12 -68 -18c-34.667 -14.667 -52 -38.667 -52 -72c0 -25.333 9.66699 -45.166 29 -59.499s44 -21.5 74 -21.5c25.333 0 50.166 5.33301 74.499 16zM140.001 689.996h69v-90h-69v90zM296.001 689.996h69v-90h-69v90z" />
    <glyph glyph-name="aring" unicode="&#xe5;" horiz-adv-x="510" 
d="M88.5 28.5c-29 25.667 -43.501 59.8311 -43.501 102.498c0 32.667 8.5 58.834 25.5 78.501s41.5 34.834 73.5 45.501c15.333 5.33301 32.666 9.83301 51.999 13.5s32 6.16699 38 7.5c22 4 38.667 7.33301 50 10c28 6.66699 50.333 16 67 28s25 28 25 48
c0 23.333 -10.667 42 -32 56s-49 21 -83 21c-31.333 0 -60.5 -6.33301 -87.5 -19s-48.833 -31 -65.5 -55l-50 34c23.333 31.333 52.333 55.333 87 72s72.667 25 114 25c50.667 0 92.834 -12.5 126.501 -37.5s50.5 -60.5 50.5 -106.5v-231l14 -121h-60l-11 83h-5
c-13.333 -28 -34.666 -50.5 -63.999 -67.5s-64 -25.5 -104 -25.5c-49.333 0 -88.5 12.833 -117.5 38.5zM289.499 64.9971c24.333 10.667 44.835 28.999 61.502 54.999s25 60.333 25 103v51h-4c-16.667 -14 -35.334 -24.5 -56.001 -31.5s-48.667 -14.5 -84 -22.5
c-32 -6 -54.667 -12 -68 -18c-34.667 -14.667 -52 -38.667 -52 -72c0 -25.333 9.66699 -45.166 29 -59.499s44 -21.5 74 -21.5c25.333 0 50.166 5.33301 74.499 16zM185.001 552.496c-18 18.333 -27 40.833 -27 67.5c0 26 9.16699 48 27.5 66s40.5 27 66.5 27
s48.167 -9 66.5 -27s27.5 -40 27.5 -66s-9.16699 -48.333 -27.5 -67s-40.5 -28 -66.5 -28c-26.667 0 -49 9.16699 -67 27.5zM286.501 584.996c9.66699 9.33301 14.501 20.667 14.501 34s-4.66699 24.833 -14 34.5s-21 14.5 -35 14.5c-14.667 0 -26.334 -4.5 -35.001 -13.5
s-13 -20.833 -13 -35.5c0 -14 4.5 -25.5 13.5 -34.5s20.5 -13.5 34.5 -13.5c13.333 0 24.833 4.66699 34.5 14z" />
    <glyph glyph-name="ae" unicode="&#xe6;" horiz-adv-x="842" 
d="M801.5 224.5c-0.333008 -3 -0.49707 -4.83398 -0.49707 -5.50098h-349c4 -48.667 19.167 -88.667 45.5 -120s65.833 -47 118.5 -47c54.667 0 99 14.667 133 44l35 -42c-25.333 -22 -51.833 -37.5 -79.5 -46.5s-57.167 -13.5 -88.5 -13.5
c-55.333 0 -100.5 12.833 -135.5 38.5s-59.833 59.834 -74.5 102.501c-26.667 -60 -58.334 -99.167 -95.001 -117.5s-70.667 -27.5 -102 -27.5c-52.667 0 -93.167 13 -121.5 39s-42.5 60 -42.5 102c0 31.333 8 57.833 24 79.5s38.333 37.5 67 47.5
c15.333 5.33301 31 9 47 11s36.333 3.66699 61 5c8.66699 0 21 0.666992 37 2c29.333 2.66699 51.833 9 67.5 19s23.5 29 23.5 57s-9 50.833 -27 68.5s-45.333 26.5 -82 26.5c-34 0 -64.5 -7.16699 -91.5 -21.5s-47.167 -31.5 -60.5 -51.5l-42 35
c28.667 30 57.667 52.333 87 67s64.666 22 105.999 22c45.333 0 80.5 -9.16699 105.5 -27.5s41.833 -46.833 50.5 -85.5c17.333 34 41.166 60.667 71.499 80s67.833 29 112.5 29c72.667 0 124.167 -24.667 154.5 -74s45.5 -109.333 45.5 -180
c0 -7.33301 -0.166992 -12.5 -0.5 -15.5zM489.003 388.999c-24 -32 -37.001 -71.333 -39.001 -118h293c-1.33301 50 -14.166 90.167 -38.499 120.5s-59.5 45.5 -105.5 45.5c-49.333 0 -86 -16 -110 -48zM288.502 70.999c27 17.333 49 40.666 66 69.999
s28.167 61.333 33.5 96v7c0 12 0.333008 21.333 1 28c-12.667 -15.333 -30 -25.666 -52 -30.999s-51.667 -9.66602 -89 -12.999c-4.66699 -0.666992 -15.5 -1.83398 -32.5 -3.50098s-31.5 -4.16699 -43.5 -7.5c-24 -6.66699 -42.333 -18.167 -55 -34.5
s-19 -34.833 -19 -55.5c0 -24.667 8.83301 -44.5 26.5 -59.5s42.5 -22.5 74.5 -22.5c32.667 0 62.5 8.66699 89.5 26z" />
    <glyph glyph-name="ccedilla" unicode="&#xe7;" horiz-adv-x="468" 
d="M328 70.5c24 17 41.667 39.1689 53 66.502l52 -21c-15.333 -34.667 -35.666 -62.5 -60.999 -83.5s-55.333 -34.167 -90 -39.5l-36 -54c64 -17.333 96 -48 96 -92c0 -25.333 -9.33301 -46.333 -28 -63s-40 -25 -64 -25c-19.333 0 -36.5 5.5 -51.5 16.5
s-25.833 25.167 -32.5 42.5l38 21c2 -10.667 7.16699 -19.667 15.5 -27s18.5 -11 30.5 -11c12.667 0 23.667 3.66699 33 11s14 17.666 14 30.999c0 26.667 -15.667 45.334 -47 56.001l-54 18l42 73c-42.667 1.33301 -78.834 13.666 -108.501 36.999s-52 54 -67 92
s-22.5 79.333 -22.5 124c0 46 7.83301 88.167 23.5 126.5s39 69 70 92s68.5 34.5 112.5 34.5c42.667 0 80 -11 112 -33s57 -52.667 75 -92l-54 -22c-10.667 28.667 -28 51.167 -52 67.5s-51 24.5 -81 24.5c-48.667 0 -84.667 -20 -108 -60s-35 -86 -35 -138
c0 -52.667 11.667 -98.834 35 -138.501s59.333 -59.5 108 -59.5c30.667 0 58 8.5 82 25.5z" />
    <glyph glyph-name="egrave" unicode="&#xe8;" horiz-adv-x="494" 
d="M453.5 224.5c-0.333008 -3 -0.5 -4.83301 -0.5 -5.5h-349c4 -48.667 19.167 -88.667 45.5 -120s65.833 -47 118.5 -47c54.667 0 99 14.667 133 44l35 -42c-25.333 -22 -51.833 -37.5 -79.5 -46.5s-57.167 -13.5 -88.5 -13.5c-52 0 -95 11.5 -129 34.5s-59 53.333 -75 91
s-24 79.167 -24 124.5c0 43.333 7.33301 84 22 122s38 68.833 70 92.5s72.667 35.5 122 35.5c72.667 0 124.167 -24.667 154.5 -74s45.5 -109.333 45.5 -180c0 -7.33301 -0.166992 -12.5 -0.5 -15.5zM141 389c-24 -32 -37.001 -71.333 -39.001 -118h293
c-1.33301 50 -14.166 90.167 -38.499 120.5s-59.5 45.5 -105.5 45.5c-49.333 0 -86 -16 -110 -48zM78.999 690h92l105 -132h-63z" />
    <glyph glyph-name="eacute" unicode="&#xe9;" horiz-adv-x="494" 
d="M453.5 224.5c-0.333008 -3 -0.5 -4.83301 -0.5 -5.5h-349c4 -48.667 19.167 -88.667 45.5 -120s65.833 -47 118.5 -47c54.667 0 99 14.667 133 44l35 -42c-25.333 -22 -51.833 -37.5 -79.5 -46.5s-57.167 -13.5 -88.5 -13.5c-52 0 -95 11.5 -129 34.5s-59 53.333 -75 91
s-24 79.167 -24 124.5c0 43.333 7.33301 84 22 122s38 68.833 70 92.5s72.667 35.5 122 35.5c72.667 0 124.167 -24.667 154.5 -74s45.5 -109.333 45.5 -180c0 -7.33301 -0.166992 -12.5 -0.5 -15.5zM141 389c-24 -32 -37.001 -71.333 -39.001 -118h293
c-1.33301 50 -14.166 90.167 -38.499 120.5s-59.5 45.5 -105.5 45.5c-49.333 0 -86 -16 -110 -48zM323.999 690h91l-144 -131h-53z" />
    <glyph glyph-name="ecircumflex" unicode="&#xea;" horiz-adv-x="494" 
d="M453.5 224.5c-0.333008 -3 -0.5 -4.83301 -0.5 -5.5h-349c4 -48.667 19.167 -88.667 45.5 -120s65.833 -47 118.5 -47c54.667 0 99 14.667 133 44l35 -42c-25.333 -22 -51.833 -37.5 -79.5 -46.5s-57.167 -13.5 -88.5 -13.5c-52 0 -95 11.5 -129 34.5s-59 53.333 -75 91
s-24 79.167 -24 124.5c0 43.333 7.33301 84 22 122s38 68.833 70 92.5s72.667 35.5 122 35.5c72.667 0 124.167 -24.667 154.5 -74s45.5 -109.333 45.5 -180c0 -7.33301 -0.166992 -12.5 -0.5 -15.5zM141 389c-24 -32 -37.001 -71.333 -39.001 -118h293
c-1.33301 50 -14.166 90.167 -38.499 120.5s-59.5 45.5 -105.5 45.5c-49.333 0 -86 -16 -110 -48zM238.999 686h11l127 -157h-57l-75 91l-74 -91h-58z" />
    <glyph glyph-name="edieresis" unicode="&#xeb;" horiz-adv-x="494" 
d="M453.5 224.5c-0.333008 -3 -0.5 -4.83301 -0.5 -5.5h-349c4 -48.667 19.167 -88.667 45.5 -120s65.833 -47 118.5 -47c54.667 0 99 14.667 133 44l35 -42c-25.333 -22 -51.833 -37.5 -79.5 -46.5s-57.167 -13.5 -88.5 -13.5c-52 0 -95 11.5 -129 34.5s-59 53.333 -75 91
s-24 79.167 -24 124.5c0 43.333 7.33301 84 22 122s38 68.833 70 92.5s72.667 35.5 122 35.5c72.667 0 124.167 -24.667 154.5 -74s45.5 -109.333 45.5 -180c0 -7.33301 -0.166992 -12.5 -0.5 -15.5zM141 389c-24 -32 -37.001 -71.333 -39.001 -118h293
c-1.33301 50 -14.166 90.167 -38.499 120.5s-59.5 45.5 -105.5 45.5c-49.333 0 -86 -16 -110 -48zM131.999 690h69v-90h-69v90zM287.999 690h69v-90h-69v90z" />
    <glyph glyph-name="igrave" unicode="&#xec;" horiz-adv-x="225" 
d="M82 488h61v-488h-61v488zM-54 690h92l105 -132h-63z" />
    <glyph glyph-name="iacute" unicode="&#xed;" horiz-adv-x="225" 
d="M82 488h61v-488h-61v488zM191 690h91l-144 -131h-53z" />
    <glyph glyph-name="icircumflex" unicode="&#xee;" horiz-adv-x="225" 
d="M82 488h61v-488h-61v488zM106 686h11l127 -157h-57l-75 91l-74 -91h-58z" />
    <glyph glyph-name="idieresis" unicode="&#xef;" horiz-adv-x="225" 
d="M82 488h61v-488h-61v488zM-1 690h69v-90h-69v90zM155 690h69v-90h-69v90z" />
    <glyph glyph-name="eth" unicode="&#xf0;" horiz-adv-x="546" 
d="M418 580.5c30 -39.667 51.334 -85.8359 64.001 -138.503s19 -116 19 -190c0 -46.667 -9 -89.834 -27 -129.501s-44.333 -71.334 -79 -95.001s-75.334 -35.5 -122.001 -35.5s-87.5 11.833 -122.5 35.5s-61.667 55.334 -80 95.001s-27.5 82.834 -27.5 129.501
s9.16699 89.834 27.5 129.501s45 71.334 80 95.001s75.833 35.5 122.5 35.5c26 0 50.833 -5.66699 74.5 -17s40.5 -25.333 50.5 -42c-7.33301 41.333 -22.333 75.833 -45 103.5s-53.667 52.834 -93 75.501l-45 -69l-34 21l44 66c-22.667 12 -50.667 25.333 -84 40l33 50
c32 -12 60.667 -24.333 86 -37l39 58l32 -19l-37 -57c52.667 -30 94 -64.833 124 -104.5zM395.501 110.998c27.667 38.667 41.5 85.667 41.5 141c0 56 -14 103.167 -42 141.5s-68.667 57.5 -122 57.5c-54 0 -95 -19.333 -123 -58s-42 -85.667 -42 -141s14 -102.333 42 -141
s69 -58 123 -58s94.833 19.333 122.5 58z" />
    <glyph glyph-name="ntilde" unicode="&#xf1;" 
d="M82 488h63.001v-75h4c15.333 26 34.666 46.167 57.999 60.5s50.666 21.5 81.999 21.5c50.667 0 90.334 -16 119.001 -48s43 -75.667 43 -131v-316h-62v310c0 86 -34.333 129 -103 129c-42 0 -76.167 -14 -102.5 -42s-39.5 -64.667 -39.5 -110v-287h-62v488z
M280.001 583.5c-13.333 7 -28.334 17.167 -45.001 30.5c-13.333 11.333 -24.833 19.833 -34.5 25.5s-20.5 8.5 -32.5 8.5c-30 0 -44.333 -21.333 -43 -64h-40c0 32 7 57.833 21 77.5s34.667 29.5 62 29.5c23.333 0 42.666 -4 57.999 -12s31.666 -19.667 48.999 -35
c10.667 -10 20.334 -17.667 29.001 -23s18.334 -8 29.001 -8c18 0 30.333 6.33301 37 19s10 31.667 10 57h44c0 -38 -8.33301 -66.833 -25 -86.5s-41 -29.5 -73 -29.5c-17.333 0 -32.666 3.5 -45.999 10.5z" />
    <glyph glyph-name="ograve" unicode="&#xf2;" horiz-adv-x="514" 
d="M99 56c-39.333 44 -59 106.002 -59 186.002s19.667 142 59 186s91.666 66 156.999 66c42.667 0 80.334 -9.83301 113.001 -29.5s58.334 -48.334 77.001 -86.001s28 -83.167 28 -136.5s-9.33301 -98.833 -28 -136.5s-44.334 -66.334 -77.001 -86.001
s-70.334 -29.5 -113.001 -29.5c-65.333 0 -117.666 22 -156.999 66zM371.5 96.502c27.667 33 41.5 81.5 41.5 145.5s-13.833 112.667 -41.5 146s-65.834 50 -114.501 50s-86.834 -16.667 -114.501 -50s-41.5 -82 -41.5 -146s13.833 -112.5 41.5 -145.5
s65.834 -49.5 114.501 -49.5s86.834 16.5 114.501 49.5zM90 690.002h92l105 -132h-63z" />
    <glyph glyph-name="oacute" unicode="&#xf3;" horiz-adv-x="514" 
d="M99 56c-39.333 44 -59 106.002 -59 186.002s19.667 142 59 186s91.666 66 156.999 66c42.667 0 80.334 -9.83301 113.001 -29.5s58.334 -48.334 77.001 -86.001s28 -83.167 28 -136.5s-9.33301 -98.833 -28 -136.5s-44.334 -66.334 -77.001 -86.001
s-70.334 -29.5 -113.001 -29.5c-65.333 0 -117.666 22 -156.999 66zM371.5 96.502c27.667 33 41.5 81.5 41.5 145.5s-13.833 112.667 -41.5 146s-65.834 50 -114.501 50s-86.834 -16.667 -114.501 -50s-41.5 -82 -41.5 -146s13.833 -112.5 41.5 -145.5
s65.834 -49.5 114.501 -49.5s86.834 16.5 114.501 49.5zM335 690.002h91l-144 -131h-53z" />
    <glyph glyph-name="ocircumflex" unicode="&#xf4;" horiz-adv-x="514" 
d="M99 56c-39.333 44 -59 106.002 -59 186.002s19.667 142 59 186s91.666 66 156.999 66c42.667 0 80.334 -9.83301 113.001 -29.5s58.334 -48.334 77.001 -86.001s28 -83.167 28 -136.5s-9.33301 -98.833 -28 -136.5s-44.334 -66.334 -77.001 -86.001
s-70.334 -29.5 -113.001 -29.5c-65.333 0 -117.666 22 -156.999 66zM371.5 96.502c27.667 33 41.5 81.5 41.5 145.5s-13.833 112.667 -41.5 146s-65.834 50 -114.501 50s-86.834 -16.667 -114.501 -50s-41.5 -82 -41.5 -146s13.833 -112.5 41.5 -145.5
s65.834 -49.5 114.501 -49.5s86.834 16.5 114.501 49.5zM250 686.002h11l127 -157h-57l-75 91l-74 -91h-58z" />
    <glyph glyph-name="otilde" unicode="&#xf5;" horiz-adv-x="514" 
d="M99 56c-39.333 44 -59 106.002 -59 186.002s19.667 142 59 186s91.666 66 156.999 66c42.667 0 80.334 -9.83301 113.001 -29.5s58.334 -48.334 77.001 -86.001s28 -83.167 28 -136.5s-9.33301 -98.833 -28 -136.5s-44.334 -66.334 -77.001 -86.001
s-70.334 -29.5 -113.001 -29.5c-65.333 0 -117.666 22 -156.999 66zM371.5 96.502c27.667 33 41.5 81.5 41.5 145.5s-13.833 112.667 -41.5 146s-65.834 50 -114.501 50s-86.834 -16.667 -114.501 -50s-41.5 -82 -41.5 -146s13.833 -112.5 41.5 -145.5
s65.834 -49.5 114.501 -49.5s86.834 16.5 114.501 49.5zM281 582.502c-13.333 7 -28.334 17.167 -45.001 30.5c-13.333 11.333 -24.833 19.833 -34.5 25.5s-20.5 8.5 -32.5 8.5c-30 0 -44.333 -21.333 -43 -64h-40c0 32 7 57.833 21 77.5s34.667 29.5 62 29.5
c23.333 0 42.666 -4 57.999 -12s31.666 -19.667 48.999 -35c10.667 -10 20.334 -17.667 29.001 -23s18.334 -8 29.001 -8c18 0 30.333 6.33301 37 19s10 31.667 10 57h44c0 -38 -8.33301 -66.833 -25 -86.5s-41 -29.5 -73 -29.5c-17.333 0 -32.666 3.5 -45.999 10.5z" />
    <glyph glyph-name="odieresis" unicode="&#xf6;" horiz-adv-x="514" 
d="M99 56c-39.333 44 -59 106.002 -59 186.002s19.667 142 59 186s91.666 66 156.999 66c42.667 0 80.334 -9.83301 113.001 -29.5s58.334 -48.334 77.001 -86.001s28 -83.167 28 -136.5s-9.33301 -98.833 -28 -136.5s-44.334 -66.334 -77.001 -86.001
s-70.334 -29.5 -113.001 -29.5c-65.333 0 -117.666 22 -156.999 66zM371.5 96.502c27.667 33 41.5 81.5 41.5 145.5s-13.833 112.667 -41.5 146s-65.834 50 -114.501 50s-86.834 -16.667 -114.501 -50s-41.5 -82 -41.5 -146s13.833 -112.5 41.5 -145.5
s65.834 -49.5 114.501 -49.5s86.834 16.5 114.501 49.5zM143 690.002h69v-90h-69v90zM299 690.002h69v-90h-69v90z" />
    <glyph glyph-name="divide" unicode="&#xf7;" horiz-adv-x="559" 
d="M232 484h94v-90h-94v90zM96 282h367v-59h-367v59zM232 104h94v-91h-94v91z" />
    <glyph glyph-name="oslash" unicode="&#xf8;" horiz-adv-x="514" 
d="M434 400c26.667 -41.333 40.0039 -93.998 40.0039 -157.998c0 -53.333 -9.33301 -98.833 -28 -136.5s-44.334 -66.334 -77.001 -86.001s-70.334 -29.5 -113.001 -29.5c-34 0 -64.667 6 -92 18s-50.333 29.667 -69 53l-40 -40l-21 22l43 43
c-24.667 41.333 -37 93.333 -37 156c0 80 19.667 142 59 186s91.666 66 156.999 66c32.667 0 62.667 -5.83301 90 -17.5s50.666 -28.834 69.999 -51.501l41 41l21 -22zM122.004 131.002l253.001 253c-26.667 36 -66 54 -118 54c-48.667 0 -86.834 -16.667 -114.501 -50
s-41.5 -82 -41.5 -146c0 -44.667 7 -81.667 21 -111zM391.005 357.002l-254.001 -253.999c27.333 -37.333 67.333 -56 120 -56c48.667 0 86.834 16.5 114.501 49.5s41.5 81.5 41.5 145.5c0 45.333 -7.33301 83.666 -22 114.999z" />
    <glyph glyph-name="ugrave" unicode="&#xf9;" 
d="M441 0l-62.999 -0.000976562v75h-7c-32 -54.667 -77.667 -82 -137 -82c-50.667 0 -90.334 16 -119.001 48s-43 75.667 -43 131v316h62v-310c0 -82.667 34.333 -124 103 -124c41.333 0 75.333 13.833 102 41.5s40 62.834 40 105.501v287h62v-488zM91.001 689.999h92
l105 -132h-63z" />
    <glyph glyph-name="uacute" unicode="&#xfa;" 
d="M441 0l-62.999 -0.000976562v75h-7c-32 -54.667 -77.667 -82 -137 -82c-50.667 0 -90.334 16 -119.001 48s-43 75.667 -43 131v316h62v-310c0 -82.667 34.333 -124 103 -124c41.333 0 75.333 13.833 102 41.5s40 62.834 40 105.501v287h62v-488zM336.001 689.999h91
l-144 -131h-53z" />
    <glyph glyph-name="ucircumflex" unicode="&#xfb;" 
d="M441 0l-62.999 -0.000976562v75h-7c-32 -54.667 -77.667 -82 -137 -82c-50.667 0 -90.334 16 -119.001 48s-43 75.667 -43 131v316h62v-310c0 -82.667 34.333 -124 103 -124c41.333 0 75.333 13.833 102 41.5s40 62.834 40 105.501v287h62v-488zM251.001 685.999h11
l127 -157h-57l-75 91l-74 -91h-58z" />
    <glyph glyph-name="udieresis" unicode="&#xfc;" 
d="M441 0l-62.999 -0.000976562v75h-7c-32 -54.667 -77.667 -82 -137 -82c-50.667 0 -90.334 16 -119.001 48s-43 75.667 -43 131v316h62v-310c0 -82.667 34.333 -124 103 -124c41.333 0 75.333 13.833 102 41.5s40 62.834 40 105.501v287h62v-488zM144.001 689.999h69v-90
h-69v90zM300.001 689.999h69v-90h-69v90z" />
    <glyph glyph-name="yacute" unicode="&#xfd;" horiz-adv-x="416" 
d="M32 -109h68.001c16 0 29 3.83301 39 11.5s17.667 19.5 23 35.5l21 63l-168 487h68l115 -357c8 -22.667 12 -42.334 12 -59.001h3c0 8.66699 1.16699 18.334 3.5 29.001s5.16602 21 8.49902 31l114 356h67l-183 -551c-11.333 -34.667 -27.5 -60 -48.5 -76
s-47.833 -24 -80.5 -24h-62v54zM288.001 690h91l-144 -131h-53z" />
    <glyph glyph-name="thorn" unicode="&#xfe;" horiz-adv-x="543" 
d="M82 690l61.999 -0.00195312v-263h5c18.667 22.667 39.834 40.167 63.501 52.5s52.5 18.5 86.5 18.5c40 0 74.667 -11.167 104 -33.5s51.5 -52.666 66.5 -90.999s22.5 -81.5 22.5 -129.5s-7.5 -91.167 -22.5 -129.5s-37.167 -68.666 -66.5 -90.999s-64 -33.5 -104 -33.5
c-34 0 -63.167 6.16699 -87.5 18.5s-45.5 29.833 -63.5 52.5h-3v-224h-63v853zM392.499 101.498c25 38.333 37.5 85.833 37.5 142.5s-12.5 104 -37.5 142s-61.833 57 -110.5 57c-47.333 0 -83.166 -19 -107.499 -57s-36.5 -85.333 -36.5 -142
c0 -57.333 12.167 -105 36.5 -143s60.166 -57 107.499 -57c48.667 0 85.5 19.167 110.5 57.5z" />
    <glyph glyph-name="ydieresis" unicode="&#xff;" horiz-adv-x="416" 
d="M32 -109h68.001c16 0 29 3.83301 39 11.5s17.667 19.5 23 35.5l21 63l-168 487h68l115 -357c8 -22.667 12 -42.334 12 -59.001h3c0 8.66699 1.16699 18.334 3.5 29.001s5.16602 21 8.49902 31l114 356h67l-183 -551c-11.333 -34.667 -27.5 -60 -48.5 -76
s-47.833 -24 -80.5 -24h-62v54zM96.001 690h69v-90h-69v90zM252.001 690h69v-90h-69v90z" />
    <glyph glyph-name="Amacron" unicode="&#x100;" horiz-adv-x="557" 
d="M432 157h-307l-49 -157h-70l228 690h92l227 -690h-71zM415 213l-126 397c-4.66699 16 -7.66699 27.333 -9 34h-2c-0.666992 -2 -4 -13.333 -10 -34l-125 -397h272zM152 831h258v-47h-258v47z" />
    <glyph glyph-name="amacron" unicode="&#x101;" horiz-adv-x="510" 
d="M88.5 28.5c-29 25.667 -43.501 59.8311 -43.501 102.498c0 32.667 8.5 58.834 25.5 78.501s41.5 34.834 73.5 45.501c15.333 5.33301 32.666 9.83301 51.999 13.5s32 6.16699 38 7.5c22 4 38.667 7.33301 50 10c28 6.66699 50.333 16 67 28s25 28 25 48
c0 23.333 -10.667 42 -32 56s-49 21 -83 21c-31.333 0 -60.5 -6.33301 -87.5 -19s-48.833 -31 -65.5 -55l-50 34c23.333 31.333 52.333 55.333 87 72s72.667 25 114 25c50.667 0 92.834 -12.5 126.501 -37.5s50.5 -60.5 50.5 -106.5v-231l14 -121h-60l-11 83h-5
c-13.333 -28 -34.666 -50.5 -63.999 -67.5s-64 -25.5 -104 -25.5c-49.333 0 -88.5 12.833 -117.5 38.5zM289.499 64.9971c24.333 10.667 44.835 28.999 61.502 54.999s25 60.333 25 103v51h-4c-16.667 -14 -35.334 -24.5 -56.001 -31.5s-48.667 -14.5 -84 -22.5
c-32 -6 -54.667 -12 -68 -18c-34.667 -14.667 -52 -38.667 -52 -72c0 -25.333 9.66699 -45.166 29 -59.499s44 -21.5 74 -21.5c25.333 0 50.166 5.33301 74.499 16zM124.001 628.996h258v-47h-258v47z" />
    <glyph glyph-name="Abreve" unicode="&#x102;" horiz-adv-x="557" 
d="M432 157h-307l-49 -157h-70l228 690h92l227 -690h-71zM415 213l-126 397c-4.66699 16 -7.66699 27.333 -9 34h-2c-0.666992 -2 -4 -13.333 -10 -34l-125 -397h272zM176 801.5c-28.667 23.667 -43.001 55.833 -43.001 96.5h57c0 -24 8.66699 -43.833 26 -59.5
s39 -23.5 65 -23.5c24.667 0 45.834 8 63.501 24s26.5 35.667 26.5 59h56c0 -40 -14.167 -72 -42.5 -96s-62.833 -36 -103.5 -36c-41.333 0 -76.333 11.833 -105 35.5z" />
    <glyph glyph-name="abreve" unicode="&#x103;" horiz-adv-x="510" 
d="M88.5 28.5c-29 25.667 -43.501 59.8311 -43.501 102.498c0 32.667 8.5 58.834 25.5 78.501s41.5 34.834 73.5 45.501c15.333 5.33301 32.666 9.83301 51.999 13.5s32 6.16699 38 7.5c22 4 38.667 7.33301 50 10c28 6.66699 50.333 16 67 28s25 28 25 48
c0 23.333 -10.667 42 -32 56s-49 21 -83 21c-31.333 0 -60.5 -6.33301 -87.5 -19s-48.833 -31 -65.5 -55l-50 34c23.333 31.333 52.333 55.333 87 72s72.667 25 114 25c50.667 0 92.834 -12.5 126.501 -37.5s50.5 -60.5 50.5 -106.5v-231l14 -121h-60l-11 83h-5
c-13.333 -28 -34.666 -50.5 -63.999 -67.5s-64 -25.5 -104 -25.5c-49.333 0 -88.5 12.833 -117.5 38.5zM289.499 64.9971c24.333 10.667 44.835 28.999 61.502 54.999s25 60.333 25 103v51h-4c-16.667 -14 -35.334 -24.5 -56.001 -31.5s-48.667 -14.5 -84 -22.5
c-32 -6 -54.667 -12 -68 -18c-34.667 -14.667 -52 -38.667 -52 -72c0 -25.333 9.66699 -45.166 29 -59.499s44 -21.5 74 -21.5c25.333 0 50.166 5.33301 74.499 16zM148.001 599.496c-28.667 23.667 -43.001 55.833 -43.001 96.5h57c0 -24 8.66699 -43.833 26 -59.5
s39 -23.5 65 -23.5c24.667 0 45.834 8 63.501 24s26.5 35.667 26.5 59h56c0 -40 -14.167 -72 -42.5 -96s-62.833 -36 -103.5 -36c-41.333 0 -76.333 11.833 -105 35.5z" />
    <glyph glyph-name="Aogonek" unicode="&#x104;" horiz-adv-x="557" 
d="M636 -163c-22 -35.333 -53.334 -52.999 -94.001 -52.999c-30 0 -53.667 9 -71 27s-26 41 -26 69c0 22 5.66699 43.5 17 64.5s29.333 39.5 54 55.5h-34l-50 157h-307l-49 -157h-70l228 690h92l227 -690c-22.667 -16.667 -39.167 -34 -49.5 -52s-15.5 -37.333 -15.5 -58
s4.83301 -36.334 14.5 -47.001s21.834 -16 36.501 -16c10.667 0 21.5 2.83301 32.5 8.5s20.167 14.167 27.5 25.5zM414.999 213.001l-126 397c-4.66699 16 -7.66699 27.333 -9 34h-2c-0.666992 -2 -4 -13.333 -10 -34l-125 -397h272z" />
    <glyph glyph-name="aogonek" unicode="&#x105;" horiz-adv-x="510" 
d="M533 -163c-22 -35.333 -53.335 -53.002 -94.002 -53.002c-30 0 -53.667 9 -71 27s-26 41 -26 69c0 22 5.66699 43.5 17 64.5s29.333 39.5 54 55.5h-23l-11 83h-5c-13.333 -28 -34.666 -50.5 -63.999 -67.5s-64 -25.5 -104 -25.5c-49.333 0 -88.5 12.833 -117.5 38.5
s-43.5 59.834 -43.5 102.501c0 32.667 8.5 58.834 25.5 78.501s41.5 34.834 73.5 45.501c15.333 5.33301 32.666 9.83301 51.999 13.5s32 6.16699 38 7.5c22 4 38.667 7.33301 50 10c28 6.66699 50.333 16 67 28s25 28 25 48c0 23.333 -10.667 42 -32 56s-49 21 -83 21
c-31.333 0 -60.5 -6.33301 -87.5 -19s-48.833 -31 -65.5 -55l-50 34c23.333 31.333 52.333 55.333 87 72s72.667 25 114 25c50.667 0 92.834 -12.5 126.501 -37.5s50.5 -60.5 50.5 -106.5v-231l14 -121c-22.667 -16.667 -39.167 -34 -49.5 -52s-15.5 -37.333 -15.5 -58
s4.83301 -36.334 14.5 -47.001s21.834 -16 36.501 -16c10.667 0 21.5 2.83301 32.5 8.5s20.167 14.167 27.5 25.5zM375.998 273.998l-3.99805 -0.000976562c-16.667 -14 -35.334 -24.5 -56.001 -31.5s-48.667 -14.5 -84 -22.5c-32 -6 -54.667 -12 -68 -18
c-34.667 -14.667 -52 -38.667 -52 -72c0 -25.333 9.66699 -45.166 29 -59.499s44 -21.5 74 -21.5c25.333 0 50.166 5.33301 74.499 16s44.833 29 61.5 55s25 60.333 25 103v51z" />
    <glyph glyph-name="Cacute" unicode="&#x106;" horiz-adv-x="658" 
d="M196.5 32c-47.667 28 -84.6699 68.668 -111.003 122.001s-39.5 117 -39.5 191s13.333 137.833 40 191.5s63.5 94.5 110.5 122.5s101.167 42 162.5 42c60 0 115.167 -16.833 165.5 -50.5s84.833 -77.167 103.5 -130.5l-54 -26c-16 44 -42.667 79 -80 105
s-82.666 39 -135.999 39c-50 0 -93.5 -11.833 -130.5 -35.5s-65.667 -57.167 -86 -100.5s-30.5 -94 -30.5 -152c0 -59.333 10.167 -111.5 30.5 -156.5s49.333 -79.667 87 -104s81.834 -36.5 132.501 -36.5c48 0 91.167 13.167 129.5 39.5s66.166 61.166 83.499 104.499
l54 -25c-12 -35.333 -31.667 -66.833 -59 -94.5s-59.166 -49.167 -95.499 -64.5s-74.166 -23 -113.499 -23c-61.333 0 -115.833 14 -163.5 42zM416.997 892.001h91l-144 -131h-53z" />
    <glyph glyph-name="cacute" unicode="&#x107;" horiz-adv-x="468" 
d="M134 24.5c-31.333 23 -54.833 53.6689 -70.5 92.002s-23.5 80.5 -23.5 126.5s7.83301 88.167 23.5 126.5s39 69 70 92s68.5 34.5 112.5 34.5c42.667 0 80 -11 112 -33s57 -52.667 75 -92l-54 -22c-10.667 28.667 -28 51.167 -52 67.5s-51 24.5 -81 24.5
c-48.667 0 -84.667 -20 -108 -60s-35 -86 -35 -138c0 -52.667 11.667 -98.834 35 -138.501s59.333 -59.5 108 -59.5c30.667 0 58 8.5 82 25.5s41.667 39.167 53 66.5l52 -21c-17.333 -40.667 -42 -71.834 -74 -93.501s-69.333 -32.5 -112 -32.5
c-44 0 -81.667 11.5 -113 34.5zM308 690.002h91l-144 -131h-53z" />
    <glyph glyph-name="Cdotaccent" unicode="&#x10a;" horiz-adv-x="658" 
d="M196.5 32c-47.667 28 -84.6699 68.668 -111.003 122.001s-39.5 117 -39.5 191s13.333 137.833 40 191.5s63.5 94.5 110.5 122.5s101.167 42 162.5 42c60 0 115.167 -16.833 165.5 -50.5s84.833 -77.167 103.5 -130.5l-54 -26c-16 44 -42.667 79 -80 105
s-82.666 39 -135.999 39c-50 0 -93.5 -11.833 -130.5 -35.5s-65.667 -57.167 -86 -100.5s-30.5 -94 -30.5 -152c0 -59.333 10.167 -111.5 30.5 -156.5s49.333 -79.667 87 -104s81.834 -36.5 132.501 -36.5c48 0 91.167 13.167 129.5 39.5s66.166 61.166 83.499 104.499
l54 -25c-12 -35.333 -31.667 -66.833 -59 -94.5s-59.166 -49.167 -95.499 -64.5s-74.166 -23 -113.499 -23c-61.333 0 -115.833 14 -163.5 42zM302.997 892.001h69v-90h-69v90z" />
    <glyph glyph-name="cdotaccent" unicode="&#x10b;" horiz-adv-x="468" 
d="M134 24.5c-31.333 23 -54.833 53.6689 -70.5 92.002s-23.5 80.5 -23.5 126.5s7.83301 88.167 23.5 126.5s39 69 70 92s68.5 34.5 112.5 34.5c42.667 0 80 -11 112 -33s57 -52.667 75 -92l-54 -22c-10.667 28.667 -28 51.167 -52 67.5s-51 24.5 -81 24.5
c-48.667 0 -84.667 -20 -108 -60s-35 -86 -35 -138c0 -52.667 11.667 -98.834 35 -138.501s59.333 -59.5 108 -59.5c30.667 0 58 8.5 82 25.5s41.667 39.167 53 66.5l52 -21c-17.333 -40.667 -42 -71.834 -74 -93.501s-69.333 -32.5 -112 -32.5
c-44 0 -81.667 11.5 -113 34.5zM194 690.002h69v-90h-69v90z" />
    <glyph glyph-name="Ccaron" unicode="&#x10c;" horiz-adv-x="658" 
d="M196.5 32c-47.667 28 -84.6699 68.668 -111.003 122.001s-39.5 117 -39.5 191s13.333 137.833 40 191.5s63.5 94.5 110.5 122.5s101.167 42 162.5 42c60 0 115.167 -16.833 165.5 -50.5s84.833 -77.167 103.5 -130.5l-54 -26c-16 44 -42.667 79 -80 105
s-82.666 39 -135.999 39c-50 0 -93.5 -11.833 -130.5 -35.5s-65.667 -57.167 -86 -100.5s-30.5 -94 -30.5 -152c0 -59.333 10.167 -111.5 30.5 -156.5s49.333 -79.667 87 -104s81.834 -36.5 132.501 -36.5c48 0 91.167 13.167 129.5 39.5s66.166 61.166 83.499 104.499
l54 -25c-12 -35.333 -31.667 -66.833 -59 -94.5s-59.166 -49.167 -95.499 -64.5s-74.166 -23 -113.499 -23c-61.333 0 -115.833 14 -163.5 42zM205.997 892.001h58l74 -91l75 91h57l-127 -157h-11z" />
    <glyph glyph-name="ccaron" unicode="&#x10d;" horiz-adv-x="468" 
d="M134 24.5c-31.333 23 -54.833 53.6689 -70.5 92.002s-23.5 80.5 -23.5 126.5s7.83301 88.167 23.5 126.5s39 69 70 92s68.5 34.5 112.5 34.5c42.667 0 80 -11 112 -33s57 -52.667 75 -92l-54 -22c-10.667 28.667 -28 51.167 -52 67.5s-51 24.5 -81 24.5
c-48.667 0 -84.667 -20 -108 -60s-35 -86 -35 -138c0 -52.667 11.667 -98.834 35 -138.501s59.333 -59.5 108 -59.5c30.667 0 58 8.5 82 25.5s41.667 39.167 53 66.5l52 -21c-17.333 -40.667 -42 -71.834 -74 -93.501s-69.333 -32.5 -112 -32.5
c-44 0 -81.667 11.5 -113 34.5zM97 690.002h58l74 -91l75 91h57l-127 -157h-11z" />
    <glyph glyph-name="Dcaron" unicode="&#x10e;" horiz-adv-x="662" 
d="M100 690l171.999 0.000976562c110.667 0 195.667 -30 255 -90s89 -147 89 -261c0 -108.667 -30.167 -192.334 -90.5 -251.001s-145.166 -88 -254.499 -88h-171v690zM258.999 62.001c97.333 0 169.833 23.167 217.5 69.5s71.5 117.5 71.5 213.5s-23 167.333 -69 214
s-115.667 70 -209 70h-104v-567h93zM226.999 892.001h58l74 -91l75 91h57l-127 -157h-11z" />
    <glyph glyph-name="dcaron" unicode="&#x10f;" horiz-adv-x="562" 
d="M388 690h62v-690h-62v58h-4c-39.333 -45.333 -89.333 -68 -150 -68c-64.667 0 -113.167 23.5 -145.5 70.5s-48.5 108.167 -48.5 183.5s16.333 136.5 49 183.5s81.334 70.5 146.001 70.5c59.333 0 108.666 -22.667 147.999 -68h5v260zM595 690v-96l-57 -153h-43l41 153
h-34v96h93zM354.5 100c25.667 35.333 38.5 83.333 38.5 144c0 59.333 -12.833 106.666 -38.5 141.999s-60.5 53 -104.5 53c-48.667 0 -85.334 -17.167 -110.001 -51.5s-37 -82.166 -37 -143.499c0 -62 12.333 -110.333 37 -145s61.334 -52 110.001 -52
c44 0 78.833 17.667 104.5 53z" />
    <glyph glyph-name="Dcroat" unicode="&#x110;" horiz-adv-x="648" 
d="M88 321h-55v54h55v315h173c111.333 0 196.333 -29.833 255 -89.5s88 -146.5 88 -260.5c0 -109.333 -29.833 -193.333 -89.5 -252s-144.5 -88 -254.5 -88h-172v321zM248 64c85.333 0 154.001 23.333 206.001 70s78 117 78 211c0 92 -22.833 162 -68.5 210
s-113.834 72 -204.501 72h-100v-252h176v-54h-176v-257h89z" />
    <glyph glyph-name="dcroat" unicode="&#x111;" horiz-adv-x="532" 
d="M548 578h-98v-578h-62v58h-4c-39.333 -45.333 -89.333 -68 -150 -68c-64.667 0 -113.167 23.5 -145.5 70.5s-48.5 108.167 -48.5 183.5s16.333 136.5 49 183.5s81.334 70.5 146.001 70.5c59.333 0 108.666 -22.667 147.999 -68h5v148h-150v30h150v82h62v-82h98v-30z
M354.5 100c25.667 35.333 38.5 83.333 38.5 144c0 59.333 -12.833 106.666 -38.5 141.999s-60.5 53 -104.5 53c-48.667 0 -85.334 -17.167 -110.001 -51.5s-37 -82.166 -37 -143.499c0 -62 12.333 -110.333 37 -145s61.334 -52 110.001 -52c44 0 78.833 17.667 104.5 53z
" />
    <glyph glyph-name="Emacron" unicode="&#x112;" horiz-adv-x="598" 
d="M100 690h444v-60h-378v-255h330v-60h-330v-255h378v-60h-444v690zM194 831h258v-47h-258v47z" />
    <glyph glyph-name="emacron" unicode="&#x113;" horiz-adv-x="494" 
d="M453.5 224.5c-0.333008 -3 -0.5 -4.83301 -0.5 -5.5h-349c4 -48.667 19.167 -88.667 45.5 -120s65.833 -47 118.5 -47c54.667 0 99 14.667 133 44l35 -42c-25.333 -22 -51.833 -37.5 -79.5 -46.5s-57.167 -13.5 -88.5 -13.5c-52 0 -95 11.5 -129 34.5s-59 53.333 -75 91
s-24 79.167 -24 124.5c0 43.333 7.33301 84 22 122s38 68.833 70 92.5s72.667 35.5 122 35.5c72.667 0 124.167 -24.667 154.5 -74s45.5 -109.333 45.5 -180c0 -7.33301 -0.166992 -12.5 -0.5 -15.5zM141 389c-24 -32 -37.001 -71.333 -39.001 -118h293
c-1.33301 50 -14.166 90.167 -38.499 120.5s-59.5 45.5 -105.5 45.5c-49.333 0 -86 -16 -110 -48zM115.999 629h258v-47h-258v47z" />
    <glyph glyph-name="Edotaccent" unicode="&#x116;" horiz-adv-x="598" 
d="M100 690h444v-60h-378v-255h330v-60h-330v-255h378v-60h-444v690zM288 892h69v-90h-69v90z" />
    <glyph glyph-name="edotaccent" unicode="&#x117;" horiz-adv-x="494" 
d="M453.5 224.5c-0.333008 -3 -0.5 -4.83301 -0.5 -5.5h-349c4 -48.667 19.167 -88.667 45.5 -120s65.833 -47 118.5 -47c54.667 0 99 14.667 133 44l35 -42c-25.333 -22 -51.833 -37.5 -79.5 -46.5s-57.167 -13.5 -88.5 -13.5c-52 0 -95 11.5 -129 34.5s-59 53.333 -75 91
s-24 79.167 -24 124.5c0 43.333 7.33301 84 22 122s38 68.833 70 92.5s72.667 35.5 122 35.5c72.667 0 124.167 -24.667 154.5 -74s45.5 -109.333 45.5 -180c0 -7.33301 -0.166992 -12.5 -0.5 -15.5zM141 389c-24 -32 -37.001 -71.333 -39.001 -118h293
c-1.33301 50 -14.166 90.167 -38.499 120.5s-59.5 45.5 -105.5 45.5c-49.333 0 -86 -16 -110 -48zM209.999 690h69v-90h-69v90z" />
    <glyph glyph-name="Eogonek" unicode="&#x118;" horiz-adv-x="598" 
d="M627 -163c-22 -35.333 -53.334 -52.999 -94.001 -52.999c-30 0 -53.667 9 -71 27s-26 41 -26 69c0 22 5.66699 43.5 17 64.5s29.333 39.5 54 55.5h-407v690h444v-60h-378v-255h330v-60h-330v-255h378v-60c-22.667 -16.667 -39.167 -34 -49.5 -52s-15.5 -37.333 -15.5 -58
s4.83301 -36.334 14.5 -47.001s21.834 -16 36.501 -16c10.667 0 21.5 2.83301 32.5 8.5s20.167 14.167 27.5 25.5z" />
    <glyph glyph-name="eogonek" unicode="&#x119;" horiz-adv-x="494" 
d="M519 -109c-22 -35.333 -53.334 -52.999 -94.001 -52.999c-30 0 -53.667 9 -71 27s-26 41 -26 69c0 26 7 49.667 21 71c-24.667 -7.33301 -51.667 -11 -81 -11c-52 0 -95 11.5 -129 34.5s-59 53.333 -75 91s-24 79.167 -24 124.5c0 43.333 7.33301 84 22 122
s38 68.833 70 92.5s72.667 35.5 122 35.5c72.667 0 124.167 -24.667 154.5 -74s45.5 -109.333 45.5 -180c0 -7.33301 -0.166992 -12.5 -0.5 -15.5s-0.5 -4.83301 -0.5 -5.5h-349c4 -48.667 19.167 -88.667 45.5 -120s65.833 -47 118.5 -47c54.667 0 99 14.667 133 44l35 -42
c-0.666992 -0.666992 -6 -5 -16 -13c-32.667 -28.667 -49 -61 -49 -97c0 -20.667 4.83301 -36.334 14.5 -47.001s21.834 -16 36.501 -16c10.667 0 21.5 2.83301 32.5 8.5s20.167 14.167 27.5 25.5zM140.999 389.001c-24 -32 -37.001 -71.333 -39.001 -118h293
c-1.33301 50 -14.166 90.167 -38.499 120.5s-59.5 45.5 -105.5 45.5c-49.333 0 -86 -16 -110 -48z" />
    <glyph glyph-name="Ecaron" unicode="&#x11a;" horiz-adv-x="598" 
d="M100 690h444v-60h-378v-255h330v-60h-330v-255h378v-60h-444v690zM191 892h58l74 -91l75 91h57l-127 -157h-11z" />
    <glyph glyph-name="ecaron" unicode="&#x11b;" horiz-adv-x="494" 
d="M453.5 224.5c-0.333008 -3 -0.5 -4.83301 -0.5 -5.5h-349c4 -48.667 19.167 -88.667 45.5 -120s65.833 -47 118.5 -47c54.667 0 99 14.667 133 44l35 -42c-25.333 -22 -51.833 -37.5 -79.5 -46.5s-57.167 -13.5 -88.5 -13.5c-52 0 -95 11.5 -129 34.5s-59 53.333 -75 91
s-24 79.167 -24 124.5c0 43.333 7.33301 84 22 122s38 68.833 70 92.5s72.667 35.5 122 35.5c72.667 0 124.167 -24.667 154.5 -74s45.5 -109.333 45.5 -180c0 -7.33301 -0.166992 -12.5 -0.5 -15.5zM141 389c-24 -32 -37.001 -71.333 -39.001 -118h293
c-1.33301 50 -14.166 90.167 -38.499 120.5s-59.5 45.5 -105.5 45.5c-49.333 0 -86 -16 -110 -48zM112.999 690h58l74 -91l75 91h57l-127 -157h-11z" />
    <glyph glyph-name="Gbreve" unicode="&#x11e;" horiz-adv-x="731" 
d="M643 344l-0.00292969 -344h-53l-2 146h-3c-16.667 -44 -44.334 -81 -83.001 -111s-90 -45 -154 -45c-63.333 0 -117.833 15.833 -163.5 47.5s-80.167 74.5 -103.5 128.5s-35 114.333 -35 181c0 65.333 11.333 124.833 34 178.5s57.334 96.334 104.001 128.001
s103.667 47.5 171 47.5c128.667 0 221.334 -60.333 278.001 -181l-61 -25c-24.667 48.667 -55 84.334 -91 107.001s-78.333 34 -127 34c-54.667 0 -100.167 -12.833 -136.5 -38.5s-63.166 -60 -80.499 -103s-26 -91.167 -26 -144.5
c0 -54.667 8.83301 -104.334 26.5 -149.001s44.334 -80.334 80.001 -107.001s79.5 -40 131.5 -40c42 0 80 8.83301 114 26.5s61.5 44 82.5 79s32.833 77.5 35.5 127.5h-160v57h222zM249.997 801.5c-28.667 23.667 -43.001 55.833 -43.001 96.5h57
c0 -24 8.66699 -43.833 26 -59.5s39 -23.5 65 -23.5c24.667 0 45.834 8 63.501 24s26.5 35.667 26.5 59h56c0 -40 -14.167 -72 -42.5 -96s-62.833 -36 -103.5 -36c-41.333 0 -76.333 11.833 -105 35.5z" />
    <glyph glyph-name="gbreve" unicode="&#x11f;" horiz-adv-x="532" 
d="M121.5 -139.5c-39 22.333 -63.833 51.501 -74.5 87.501l70 17c6.66699 -24.667 22.5 -45 47.5 -61s54.5 -24 88.5 -24c40.667 0 73.334 12.167 98.001 36.5s37 55.833 37 94.5v69c-34.667 -50 -85.334 -75 -152.001 -75c-42.667 0 -78.667 11.333 -108 34
s-51.333 52.667 -66 90s-22 78.666 -22 123.999c0 70.667 17 129 51 175s85.333 69 154 69c28.667 0 54.167 -5.16699 76.5 -15.5s41.5 -27.5 57.5 -51.5h8v58h63v-477c0 -55.333 -17.667 -99.833 -53 -133.5s-83 -50.5 -143 -50.5c-49.333 0 -93.5 11.167 -132.5 33.5z
M358.5 109.001c23 33.333 34.5 77.668 34.5 133.001c0 57.333 -11.667 105.166 -35 143.499s-59.333 57.5 -108 57.5c-49.333 0 -86.166 -18 -110.499 -54s-36.5 -81.667 -36.5 -137c0 -56 12.167 -102.167 36.5 -138.5s61.166 -54.5 110.499 -54.5s85.5 16.667 108.5 50z
M140 599.503c-28.667 23.667 -43.001 55.833 -43.001 96.5h57c0 -24 8.66699 -43.833 26 -59.5s39 -23.5 65 -23.5c24.667 0 45.834 8 63.501 24s26.5 35.667 26.5 59h56c0 -40 -14.167 -72 -42.5 -96s-62.833 -36 -103.5 -36c-41.333 0 -76.333 11.833 -105 35.5z" />
    <glyph glyph-name="Gdotaccent" unicode="&#x120;" horiz-adv-x="731" 
d="M643 344l-0.00292969 -344h-53l-2 146h-3c-16.667 -44 -44.334 -81 -83.001 -111s-90 -45 -154 -45c-63.333 0 -117.833 15.833 -163.5 47.5s-80.167 74.5 -103.5 128.5s-35 114.333 -35 181c0 65.333 11.333 124.833 34 178.5s57.334 96.334 104.001 128.001
s103.667 47.5 171 47.5c128.667 0 221.334 -60.333 278.001 -181l-61 -25c-24.667 48.667 -55 84.334 -91 107.001s-78.333 34 -127 34c-54.667 0 -100.167 -12.833 -136.5 -38.5s-63.166 -60 -80.499 -103s-26 -91.167 -26 -144.5
c0 -54.667 8.83301 -104.334 26.5 -149.001s44.334 -80.334 80.001 -107.001s79.5 -40 131.5 -40c42 0 80 8.83301 114 26.5s61.5 44 82.5 79s32.833 77.5 35.5 127.5h-160v57h222zM319.997 892h69v-90h-69v90z" />
    <glyph glyph-name="gdotaccent" unicode="&#x121;" horiz-adv-x="532" 
d="M121.5 -139.5c-39 22.333 -63.833 51.501 -74.5 87.501l70 17c6.66699 -24.667 22.5 -45 47.5 -61s54.5 -24 88.5 -24c40.667 0 73.334 12.167 98.001 36.5s37 55.833 37 94.5v69c-34.667 -50 -85.334 -75 -152.001 -75c-42.667 0 -78.667 11.333 -108 34
s-51.333 52.667 -66 90s-22 78.666 -22 123.999c0 70.667 17 129 51 175s85.333 69 154 69c28.667 0 54.167 -5.16699 76.5 -15.5s41.5 -27.5 57.5 -51.5h8v58h63v-477c0 -55.333 -17.667 -99.833 -53 -133.5s-83 -50.5 -143 -50.5c-49.333 0 -93.5 11.167 -132.5 33.5z
M358.5 109.001c23 33.333 34.5 77.668 34.5 133.001c0 57.333 -11.667 105.166 -35 143.499s-59.333 57.5 -108 57.5c-49.333 0 -86.166 -18 -110.499 -54s-36.5 -81.667 -36.5 -137c0 -56 12.167 -102.167 36.5 -138.5s61.166 -54.5 110.499 -54.5s85.5 16.667 108.5 50z
M210 690.003h69v-90h-69v90z" />
    <glyph glyph-name="Gcommaaccent" unicode="&#x122;" horiz-adv-x="731" 
d="M643 344l-0.00292969 -344h-53l-2 146h-3c-16.667 -44 -44.334 -81 -83.001 -111s-90 -45 -154 -45c-63.333 0 -117.833 15.833 -163.5 47.5s-80.167 74.5 -103.5 128.5s-35 114.333 -35 181c0 65.333 11.333 124.833 34 178.5s57.334 96.334 104.001 128.001
s103.667 47.5 171 47.5c128.667 0 221.334 -60.333 278.001 -181l-61 -25c-24.667 48.667 -55 84.334 -91 107.001s-78.333 34 -127 34c-54.667 0 -100.167 -12.833 -136.5 -38.5s-63.166 -60 -80.499 -103s-26 -91.167 -26 -144.5
c0 -54.667 8.83301 -104.334 26.5 -149.001s44.334 -80.334 80.001 -107.001s79.5 -40 131.5 -40c42 0 80 8.83301 114 26.5s61.5 44 82.5 79s32.833 77.5 35.5 127.5h-160v57h222zM323.997 -70h89l-105 -148h-42z" />
    <glyph glyph-name="gcommaaccent" unicode="&#x123;" horiz-adv-x="532" 
d="M291 558h-89l105 132h42zM121.5 -139.5c-39 22.333 -63.833 51.501 -74.5 87.501l70 17c6.66699 -24.667 22.5 -45 47.5 -61s54.5 -24 88.5 -24c40.667 0 73.334 12.167 98.001 36.5s37 55.833 37 94.5v69c-34.667 -50 -85.334 -75 -152.001 -75
c-42.667 0 -78.667 11.333 -108 34s-51.333 52.667 -66 90s-22 78.666 -22 123.999c0 70.667 17 129 51 175s85.333 69 154 69c28.667 0 54.167 -5.16699 76.5 -15.5s41.5 -27.5 57.5 -51.5h8v58h63v-477c0 -55.333 -17.667 -99.833 -53 -133.5s-83 -50.5 -143 -50.5
c-49.333 0 -93.5 11.167 -132.5 33.5zM358.5 109.001c23 33.333 34.5 77.668 34.5 133.001c0 57.333 -11.667 105.166 -35 143.499s-59.333 57.5 -108 57.5c-49.333 0 -86.166 -18 -110.499 -54s-36.5 -81.667 -36.5 -137c0 -56 12.167 -102.167 36.5 -138.5
s61.166 -54.5 110.499 -54.5s85.5 16.667 108.5 50z" />
    <glyph glyph-name="Hbar" unicode="&#x126;" horiz-adv-x="692" 
d="M642 529h-50v-529h-66v316h-360v-316h-66v529h-50v30h50v131h66v-131h360v131h66v-131h50v-30zM526 529h-360v-155h360v155z" />
    <glyph glyph-name="hbar" unicode="&#x127;" 
d="M408 447c28.667 -32 42.999 -75.667 42.999 -131v-316h-62v310c0 83.333 -35.667 125 -107 125c-39.333 0 -72.166 -14 -98.499 -42s-39.5 -63.333 -39.5 -106v-287h-62v563h-95v30h95v97h62v-97h153v-30h-153v-150h6c32 54.667 79 82 141 82
c49.333 0 88.333 -16 117 -48z" />
    <glyph glyph-name="Itilde" unicode="&#x128;" horiz-adv-x="266" 
d="M100 690h66v-690h-66v690zM159 784.5c-13.333 7 -28.334 17.167 -45.001 30.5c-13.333 11.333 -24.833 19.833 -34.5 25.5s-20.5 8.5 -32.5 8.5c-30 0 -44.333 -21.333 -43 -64h-40c0 32 7 57.833 21 77.5s34.667 29.5 62 29.5c23.333 0 42.666 -4 57.999 -12
s31.666 -19.667 48.999 -35c10.667 -10 20.334 -17.667 29.001 -23s18.334 -8 29.001 -8c18 0 30.333 6.33301 37 19s10 31.667 10 57h44c0 -38 -8.33301 -66.833 -25 -86.5s-41 -29.5 -73 -29.5c-17.333 0 -32.666 3.5 -45.999 10.5z" />
    <glyph glyph-name="itilde" unicode="&#x129;" horiz-adv-x="225" 
d="M82 488h61v-488h-61v488zM137 582.5c-13.333 7 -28.334 17.167 -45.001 30.5c-13.333 11.333 -24.833 19.833 -34.5 25.5s-20.5 8.5 -32.5 8.5c-30 0 -44.333 -21.333 -43 -64h-40c0 32 7 57.833 21 77.5s34.667 29.5 62 29.5c23.333 0 42.666 -4 57.999 -12
s31.666 -19.667 48.999 -35c10.667 -10 20.334 -17.667 29.001 -23s18.334 -8 29.001 -8c18 0 30.333 6.33301 37 19s10 31.667 10 57h44c0 -38 -8.33301 -66.833 -25 -86.5s-41 -29.5 -73 -29.5c-17.333 0 -32.666 3.5 -45.999 10.5z" />
    <glyph glyph-name="Imacron" unicode="&#x12a;" horiz-adv-x="266" 
d="M100 690h66v-690h-66v690zM5 831h258v-47h-258v47z" />
    <glyph glyph-name="imacron" unicode="&#x12b;" horiz-adv-x="225" 
d="M82 488h61v-488h-61v488zM-17 629h258v-47h-258v47z" />
    <glyph glyph-name="Iogonek" unicode="&#x12e;" horiz-adv-x="266" 
d="M249 -163c-22 -35.333 -53.334 -52.999 -94.001 -52.999c-30 0 -53.667 9 -71 27s-26 41 -26 69c0 22 5.66699 43.5 17 64.5s29.333 39.5 54 55.5h-29v690h66v-690c-22.667 -16.667 -39.167 -34 -49.5 -52s-15.5 -37.333 -15.5 -58s4.83301 -36.334 14.5 -47.001
s21.834 -16 36.501 -16c10.667 0 21.5 2.83301 32.5 8.5s20.167 14.167 27.5 25.5z" />
    <glyph glyph-name="iogonek" unicode="&#x12f;" horiz-adv-x="237" 
d="M155 601h-73v89h73v-89zM233 -163c-22 -35.333 -53.334 -52.999 -94.001 -52.999c-30 0 -53.667 9 -71 27s-26 41 -26 69c0 22 5.66699 43.5 17 64.5s29.333 39.5 54 55.5h-25v488h62v-488c-22.667 -16.667 -39.167 -34 -49.5 -52s-15.5 -37.333 -15.5 -58
s4.83301 -36.334 14.5 -47.001s21.834 -16 36.501 -16c10.667 0 21.5 2.83301 32.5 8.5s20.167 14.167 27.5 25.5z" />
    <glyph glyph-name="Idotaccent" unicode="&#x130;" horiz-adv-x="266" 
d="M100 690h66v-690h-66v690zM99 892h69v-90h-69v90z" />
    <glyph glyph-name="dotlessi" unicode="&#x131;" horiz-adv-x="225" 
d="M82 488h61v-488h-61v488z" />
    <glyph glyph-name="Kcommaaccent" unicode="&#x136;" horiz-adv-x="593" 
d="M588 0h-87l-284 353h-51v-353h-66v690h66v-329l301 329h82l-282 -303zM289 -70h89l-105 -148h-42z" />
    <glyph glyph-name="kcommaaccent" unicode="&#x137;" horiz-adv-x="471" 
d="M480 0h-80l-211 260l-45 -2v-258h-62v690h62v-419l225 217h78l-205 -200zM240 -70h89l-105 -148h-42z" />
    <glyph glyph-name="kgreenlandic" unicode="&#x138;" horiz-adv-x="472" 
d="M481 0h-80l-211 260l-45 -2v-258h-63v488h63v-217l225 217h78l-205 -200z" />
    <glyph glyph-name="Lacute" unicode="&#x139;" horiz-adv-x="471" 
d="M100 690h66v-630h295v-60h-361v690zM225 892h91l-144 -131h-53z" />
    <glyph glyph-name="lacute" unicode="&#x13a;" horiz-adv-x="226" 
d="M82 690h62v-690h-62v690zM192 892h91l-144 -131h-53z" />
    <glyph glyph-name="Lcommaaccent" unicode="&#x13b;" horiz-adv-x="471" 
d="M100 690h66v-630h295v-60h-361v690zM197 -70h89l-105 -148h-42z" />
    <glyph glyph-name="lcommaaccent" unicode="&#x13c;" horiz-adv-x="226" 
d="M82 690h62v-690h-62v690zM68 -70h89l-105 -148h-42z" />
    <glyph glyph-name="Lcaron" unicode="&#x13d;" horiz-adv-x="471" 
d="M461 60v-60h-361v690h66v-630h295zM267 441l41 153h-34v96h93v-96l-57 -153h-43z" />
    <glyph glyph-name="lcaron" unicode="&#x13e;" horiz-adv-x="286" 
d="M82 690h62v-690h-62v690zM315 690v-96l-57 -153h-43l41 153h-34v96h93z" />
    <glyph glyph-name="Lslash" unicode="&#x141;" horiz-adv-x="471" 
d="M461 60v-60h-361v268l-101 -74v49l101 75v372h66v-323l99 73v-50l-99 -73v-257h295z" />
    <glyph glyph-name="lslash" unicode="&#x142;" horiz-adv-x="226" 
d="M246 411l-102 -75v-336h-62v290l-102 -75v49l102 76v350h62v-305l102 76v-50z" />
    <glyph glyph-name="Nacute" unicode="&#x143;" horiz-adv-x="722" 
d="M100 690h102.999l325 -580l23 -41h5v621h66v-690h-105l-320 571c-9.33301 16.667 -18.666 35.667 -27.999 57h-3v-628h-66v690zM440.999 892h91l-144 -131h-53z" />
    <glyph glyph-name="nacute" unicode="&#x144;" 
d="M82 488h63.001v-75h4c15.333 26 34.666 46.167 57.999 60.5s50.666 21.5 81.999 21.5c50.667 0 90.334 -16 119.001 -48s43 -75.667 43 -131v-316h-62v310c0 86 -34.333 129 -103 129c-42 0 -76.167 -14 -102.5 -42s-39.5 -64.667 -39.5 -110v-287h-62v488zM334.001 691
h91l-144 -131h-53z" />
    <glyph glyph-name="Ncommaaccent" unicode="&#x145;" horiz-adv-x="722" 
d="M100 690h102.999l325 -580l23 -41h5v621h66v-690h-105l-320 571c-9.33301 16.667 -18.666 35.667 -27.999 57h-3v-628h-66v690zM316.999 -70h89l-105 -148h-42z" />
    <glyph glyph-name="ncommaaccent" unicode="&#x146;" 
d="M82 488h63.001v-75h4c15.333 26 34.666 46.167 57.999 60.5s50.666 21.5 81.999 21.5c50.667 0 90.334 -16 119.001 -48s43 -75.667 43 -131v-316h-62v310c0 86 -34.333 129 -103 129c-42 0 -76.167 -14 -102.5 -42s-39.5 -64.667 -39.5 -110v-287h-62v488zM222.001 -70
h89l-105 -148h-42z" />
    <glyph glyph-name="Ncaron" unicode="&#x147;" horiz-adv-x="722" 
d="M100 690h102.999l325 -580l23 -41h5v621h66v-690h-105l-320 571c-9.33301 16.667 -18.666 35.667 -27.999 57h-3v-628h-66v690zM229.999 892h58l74 -91l75 91h57l-127 -157h-11z" />
    <glyph glyph-name="ncaron" unicode="&#x148;" 
d="M82 488h63.001v-75h4c15.333 26 34.666 46.167 57.999 60.5s50.666 21.5 81.999 21.5c50.667 0 90.334 -16 119.001 -48s43 -75.667 43 -131v-316h-62v310c0 86 -34.333 129 -103 129c-42 0 -76.167 -14 -102.5 -42s-39.5 -64.667 -39.5 -110v-287h-62v488zM123.001 691
h58l74 -91l75 91h57l-127 -157h-11z" />
    <glyph glyph-name="Eng" unicode="&#x14a;" horiz-adv-x="722" 
d="M617 -80.5c-3.33301 -20.333 -14.501 -39.167 -33.501 -56.5s-49.833 -26 -92.5 -26h-38v53h37c22.667 0 39.167 6.33301 49.5 19s16.333 25.667 18 39s2.5 30.666 2.5 51.999h-43l-320 571c-9.33301 16.667 -18.666 35.667 -27.999 57h-3v-628h-66v690h103l325 -580
l23 -41h5v621h66v-690c0 -33.333 -1.66699 -60.166 -5 -80.499z" />
    <glyph glyph-name="eng" unicode="&#x14b;" horiz-adv-x="543" 
d="M82 488h66.002v-81h6c16.667 28.667 38.167 50.667 64.5 66s56.166 23 89.499 23c54 0 93.833 -18.5 119.5 -55.5s38.5 -84.5 38.5 -142.5v-352c0 -84 -42 -126 -126 -126h-38v48h16c56 0 84 27.667 84 83v340c0 40.667 -7.83301 74.5 -23.5 101.5
s-42.834 40.5 -81.501 40.5c-27.333 0 -52.5 -7 -75.5 -21s-41.333 -33 -55 -57s-20.5 -50 -20.5 -78v-277h-64v488z" />
    <glyph glyph-name="Omacron" unicode="&#x14c;" horiz-adv-x="708" 
d="M191.5 33.5c-46.333 29 -82.166 70.167 -107.499 123.5s-38 116 -38 188s12.667 134.667 38 188s61.166 94.5 107.499 123.5s100.833 43.5 163.5 43.5c62 0 116.167 -14.5 162.5 -43.5s82 -70.167 107 -123.5s37.5 -116 37.5 -188s-12.5 -134.667 -37.5 -188
s-60.667 -94.5 -107 -123.5s-100.5 -43.5 -162.5 -43.5c-62.667 0 -117.167 14.5 -163.5 43.5zM484 88c36.667 24 65 58 85 102s30 95.667 30 155s-10 111 -30 155s-48.333 78 -85 102s-79.667 36 -129 36c-50 0 -93.5 -12 -130.5 -36s-65.5 -58 -85.5 -102
s-30 -95.667 -30 -155s10 -111 30 -155s48.5 -78 85.5 -102s80.5 -36 130.5 -36c49.333 0 92.333 12 129 36zM226 831h258v-47h-258v47z" />
    <glyph glyph-name="omacron" unicode="&#x14d;" horiz-adv-x="514" 
d="M99 56c-39.333 44 -59 106.002 -59 186.002s19.667 142 59 186s91.666 66 156.999 66c42.667 0 80.334 -9.83301 113.001 -29.5s58.334 -48.334 77.001 -86.001s28 -83.167 28 -136.5s-9.33301 -98.833 -28 -136.5s-44.334 -66.334 -77.001 -86.001
s-70.334 -29.5 -113.001 -29.5c-65.333 0 -117.666 22 -156.999 66zM371.5 96.502c27.667 33 41.5 81.5 41.5 145.5s-13.833 112.667 -41.5 146s-65.834 50 -114.501 50s-86.834 -16.667 -114.501 -50s-41.5 -82 -41.5 -146s13.833 -112.5 41.5 -145.5
s65.834 -49.5 114.501 -49.5s86.834 16.5 114.501 49.5zM127 629.002h258v-47h-258v47z" />
    <glyph glyph-name="Ohungarumlaut" unicode="&#x150;" horiz-adv-x="708" 
d="M191.5 33.5c-46.333 29 -82.166 70.167 -107.499 123.5s-38 116 -38 188s12.667 134.667 38 188s61.166 94.5 107.499 123.5s100.833 43.5 163.5 43.5c62 0 116.167 -14.5 162.5 -43.5s82 -70.167 107 -123.5s37.5 -116 37.5 -188s-12.5 -134.667 -37.5 -188
s-60.667 -94.5 -107 -123.5s-100.5 -43.5 -162.5 -43.5c-62.667 0 -117.167 14.5 -163.5 43.5zM484 88c36.667 24 65 58 85 102s30 95.667 30 155s-10 111 -30 155s-48.333 78 -85 102s-79.667 36 -129 36c-50 0 -93.5 -12 -130.5 -36s-65.5 -58 -85.5 -102
s-30 -95.667 -30 -155s10 -111 30 -155s48.5 -78 85.5 -102s80.5 -36 130.5 -36c49.333 0 92.333 12 129 36zM334 892h91l-132 -140h-64zM494 892h92l-133 -140h-63z" />
    <glyph glyph-name="ohungarumlaut" unicode="&#x151;" horiz-adv-x="514" 
d="M99 56c-39.333 44 -59 106.002 -59 186.002s19.667 142 59 186s91.666 66 156.999 66c42.667 0 80.334 -9.83301 113.001 -29.5s58.334 -48.334 77.001 -86.001s28 -83.167 28 -136.5s-9.33301 -98.833 -28 -136.5s-44.334 -66.334 -77.001 -86.001
s-70.334 -29.5 -113.001 -29.5c-65.333 0 -117.666 22 -156.999 66zM371.5 96.502c27.667 33 41.5 81.5 41.5 145.5s-13.833 112.667 -41.5 146s-65.834 50 -114.501 50s-86.834 -16.667 -114.501 -50s-41.5 -82 -41.5 -146s13.833 -112.5 41.5 -145.5
s65.834 -49.5 114.501 -49.5s86.834 16.5 114.501 49.5zM235 690.002h91l-132 -140h-64zM395 690.002h92l-133 -140h-63z" />
    <glyph glyph-name="OE" unicode="&#x152;" horiz-adv-x="1072" 
d="M181.5 37.5c-45.667 31.667 -79.832 74.167 -102.499 127.5s-34 113.333 -34 180s11.167 126.834 33.5 180.501s56.5 96.167 102.5 127.5s102.333 47 169 47c55.333 0 100.833 -9.66699 136.5 -29s65.5 -50 89.5 -92h18v111h424v-58h-365v-258h322v-58h-322v-254h365v-62
h-424v107h-21c-24 -40.667 -53.667 -70.334 -89 -89.001s-80 -28 -134 -28c-66.667 0 -122.834 15.833 -168.501 47.5zM484.002 89.5c35.333 27 61.333 62.833 78 107.5s25 94 25 148s-8.33301 103.333 -25 148s-42.667 80.5 -78 107.5s-80 40.5 -134 40.5
s-99 -13.5 -135 -40.5s-62.333 -62.833 -79 -107.5s-25 -94 -25 -148s8.33301 -103.333 25 -148s43 -80.5 79 -107.5s81 -40.5 135 -40.5s98.667 13.5 134 40.5z" />
    <glyph glyph-name="oe" unicode="&#x153;" horiz-adv-x="879" 
d="M838.5 224.5c-0.333008 -3 -0.500977 -4.83301 -0.500977 -5.5h-349c4 -48.667 19.167 -88.667 45.5 -120s65.833 -47 118.5 -47c54.667 0 99 14.667 133 44l35 -42c-25.333 -22 -51.833 -37.5 -79.5 -46.5s-57.167 -13.5 -88.5 -13.5
c-50.667 0 -92.667 10.833 -126 32.5s-58.666 51.167 -75.999 88.5c-17.333 -40 -43 -70.833 -77 -92.5s-73.333 -32.5 -118 -32.5c-65.333 0 -117.666 22 -156.999 66s-59 106 -59 186s19.667 142 59 186s91.666 66 156.999 66c44 0 82.833 -10.5 116.5 -31.5
s59.167 -51.167 76.5 -90.5c16 37.333 39.833 67 71.5 89s71.167 33 118.5 33c72.667 0 124.167 -24.667 154.5 -74s45.5 -109.333 45.5 -180c0 -7.33301 -0.166992 -12.5 -0.5 -15.5zM371.499 96.5c27.667 33 41.5 81.5 41.5 145.5s-13.833 112.667 -41.5 146
s-65.834 50 -114.501 50s-86.834 -16.667 -114.501 -50s-41.5 -82 -41.5 -146s13.833 -112.5 41.5 -145.5s65.834 -49.5 114.501 -49.5s86.834 16.5 114.501 49.5zM525.999 389c-24 -32 -37.001 -71.333 -39.001 -118h293c-1.33301 50 -14.166 90.167 -38.499 120.5
s-59.5 45.5 -105.5 45.5c-49.333 0 -86 -16 -110 -48z" />
    <glyph glyph-name="Racute" unicode="&#x154;" horiz-adv-x="596" 
d="M100 690l226.999 -0.000976562c64.667 0 116.834 -17.167 156.501 -51.5s59.5 -80.166 59.5 -137.499c0 -47.333 -13.5 -86.5 -40.5 -117.5s-63.5 -51.167 -109.5 -60.5l168 -324h-74l-160 316h-161v-316h-66v691zM342.999 374.999c44.667 2 78.167 13.833 100.5 35.5
s33.5 51.834 33.5 90.501c0 41.333 -12.833 73.166 -38.5 95.499s-62.5 33.5 -110.5 33.5h-161v-255h176zM400.999 891.999h91l-144 -131h-53z" />
    <glyph glyph-name="racute" unicode="&#x155;" horiz-adv-x="349" 
d="M82 488l63.999 -0.000976562v-85h3c10 26.667 26.667 48.667 50 66s51 26 83 26c16.667 0 34 -2.66699 52 -8v-60c-16 6.66699 -32.333 10 -49 10c-24.667 0 -47.667 -6.83301 -69 -20.5s-38.666 -35.167 -51.999 -64.5s-20 -65.666 -20 -108.999v-243h-62v488z
M286.999 689.999h91l-144 -131h-53z" />
    <glyph glyph-name="Rcommaaccent" unicode="&#x156;" horiz-adv-x="596" 
d="M100 690l226.999 -0.000976562c64.667 0 116.834 -17.167 156.501 -51.5s59.5 -80.166 59.5 -137.499c0 -47.333 -13.5 -86.5 -40.5 -117.5s-63.5 -51.167 -109.5 -60.5l168 -324h-74l-160 316h-161v-316h-66v691zM342.999 374.999c44.667 2 78.167 13.833 100.5 35.5
s33.5 51.834 33.5 90.501c0 41.333 -12.833 73.166 -38.5 95.499s-62.5 33.5 -110.5 33.5h-161v-255h176zM284.999 -70.001h89l-105 -148h-42z" />
    <glyph glyph-name="rcommaaccent" unicode="&#x157;" horiz-adv-x="349" 
d="M82 488l63.999 -0.000976562v-85h3c10 26.667 26.667 48.667 50 66s51 26 83 26c16.667 0 34 -2.66699 52 -8v-60c-16 6.66699 -32.333 10 -49 10c-24.667 0 -47.667 -6.83301 -69 -20.5s-38.666 -35.167 -51.999 -64.5s-20 -65.666 -20 -108.999v-243h-62v488z
M66.999 -70.001h89l-105 -148h-42z" />
    <glyph glyph-name="Rcaron" unicode="&#x158;" horiz-adv-x="596" 
d="M100 690l226.999 -0.000976562c64.667 0 116.834 -17.167 156.501 -51.5s59.5 -80.166 59.5 -137.499c0 -47.333 -13.5 -86.5 -40.5 -117.5s-63.5 -51.167 -109.5 -60.5l168 -324h-74l-160 316h-161v-316h-66v691zM342.999 374.999c44.667 2 78.167 13.833 100.5 35.5
s33.5 51.834 33.5 90.501c0 41.333 -12.833 73.166 -38.5 95.499s-62.5 33.5 -110.5 33.5h-161v-255h176zM189.999 891.999h58l74 -91l75 91h57l-127 -157h-11z" />
    <glyph glyph-name="rcaron" unicode="&#x159;" horiz-adv-x="349" 
d="M82 488l63.999 -0.000976562v-85h3c10 26.667 26.667 48.667 50 66s51 26 83 26c16.667 0 34 -2.66699 52 -8v-60c-16 6.66699 -32.333 10 -49 10c-24.667 0 -47.667 -6.83301 -69 -20.5s-38.666 -35.167 -51.999 -64.5s-20 -65.666 -20 -108.999v-243h-62v488z
M75.999 689.999h58l74 -91l75 91h57l-127 -157h-11z" />
    <glyph glyph-name="Sacute" unicode="&#x15a;" horiz-adv-x="530" 
d="M155 15c-35.333 15.333 -64.3369 39.6709 -87.0039 73.0039s-34 75.666 -34 126.999h66c0 -54 16.5 -94.167 49.5 -120.5s73.167 -39.5 120.5 -39.5c42.667 0 77.334 10.667 104.001 32s40 50.666 40 87.999c0 27.333 -7.16699 50.666 -21.5 69.999
s-32.166 35.166 -53.499 47.499s-49.666 25.833 -84.999 40.5c-42 17.333 -75.5 33 -100.5 47s-46.5 33.167 -64.5 57.5s-27 54.5 -27 90.5c0 51.333 17.667 92.833 53 124.5s81.666 47.5 138.999 47.5c80 0 145.667 -34.667 197 -104l-44 -41c-42.667 56 -94 84 -154 84
c-36.667 0 -66.5 -9.66699 -89.5 -29s-34.5 -45 -34.5 -77c0 -24 7.16699 -44.5 21.5 -61.5s31.833 -31.167 52.5 -42.5s49.667 -25.333 87 -42c40.667 -17.333 73.834 -33.833 99.501 -49.5s47.334 -36 65.001 -61s26.5 -55.833 26.5 -92.5
c0 -37.333 -9.16699 -70.5 -27.5 -99.5s-43.833 -51.667 -76.5 -68s-69.334 -24.5 -110.001 -24.5c-39.333 0 -76.666 7.66699 -111.999 23zM335.996 892.005h91l-144 -131h-53z" />
    <glyph glyph-name="sacute" unicode="&#x15b;" horiz-adv-x="450" 
d="M106 24.5c-36.667 23 -60.334 50.5029 -71.001 82.5029l56 30c8 -23.333 24.167 -44 48.5 -62s55.833 -27 94.5 -27c34 0 62.833 7.33301 86.5 22s35.5 36 35.5 64c0 19.333 -6.33301 34.833 -19 46.5s-28 20.5 -46 26.5s-43.333 12.667 -76 20
c-34 8 -62.167 16.167 -84.5 24.5s-41.166 21 -56.499 38s-23 39.5 -23 67.5s8 52.333 24 73s36.833 36.5 62.5 47.5s53.5 16.5 83.5 16.5c39.333 0 74.166 -9 104.499 -27s52.833 -40.333 67.5 -67l-43 -31c-32.667 48.667 -75.667 73 -129 73
c-31.333 0 -57.833 -7.33301 -79.5 -22s-32.5 -33.334 -32.5 -56.001c0 -16.667 6.33301 -30.167 19 -40.5s27.334 -18.333 44.001 -24s42.667 -12.834 78 -21.501s64.333 -17.5 87 -26.5s41.667 -22.333 57 -40s23 -41.167 23 -70.5c0 -32 -9 -59.333 -27 -82
s-41.333 -39.834 -70 -51.501s-58.667 -17.5 -90 -17.5c-46 0 -87.333 11.5 -124 34.5zM309 690.003h91l-144 -131h-53z" />
    <glyph glyph-name="Scedilla" unicode="&#x15e;" horiz-adv-x="530" 
d="M454.5 86c-17.667 -28.667 -42.5039 -51.3262 -74.5039 -67.9932s-68 -25.334 -108 -26.001l-37 -55c64 -17.333 96 -48 96 -92c0 -25.333 -9.33301 -46.333 -28 -63s-40 -25 -64 -25c-19.333 0 -36.5 5.5 -51.5 16.5s-25.833 25.167 -32.5 42.5l38 21
c2 -10.667 7.16699 -19.667 15.5 -27s18.5 -11 30.5 -11c12.667 0 23.667 3.66699 33 11s14 17.666 14 30.999c0 26.667 -15.667 45.334 -47 56.001l-54 18l45 79c-55.333 7.33301 -102 29.166 -140 65.499s-56.667 88.166 -56 155.499h66c0 -54 16.5 -94.167 49.5 -120.5
s73.167 -39.5 120.5 -39.5c42.667 0 77.334 10.667 104.001 32s40 50.666 40 87.999c0 27.333 -7.16699 50.666 -21.5 69.999s-32.166 35.166 -53.499 47.499s-49.666 25.833 -84.999 40.5c-42 17.333 -75.5 33 -100.5 47s-46.5 33.167 -64.5 57.5s-27 54.5 -27 90.5
c0 51.333 17.667 92.833 53 124.5s81.666 47.5 138.999 47.5c80 0 145.667 -34.667 197 -104l-44 -41c-42.667 56 -94 84 -154 84c-36.667 0 -66.5 -9.66699 -89.5 -29s-34.5 -45 -34.5 -77c0 -24 7.16699 -44.5 21.5 -61.5s31.833 -31.167 52.5 -42.5
s49.667 -25.333 87 -42c40.667 -17.333 73.834 -33.833 99.501 -49.5s47.334 -36 65.001 -61s26.5 -55.833 26.5 -92.5s-8.83301 -69.334 -26.5 -98.001z" />
    <glyph glyph-name="scedilla" unicode="&#x15f;" horiz-adv-x="450" 
d="M372.5 40.5c-29.667 -25.667 -65.834 -41.832 -108.501 -48.499l-36 -53c64 -17.333 96 -48 96 -92c0 -25.333 -9.33301 -46.333 -28 -63s-40 -25 -64 -25c-19.333 0 -36.5 5.5 -51.5 16.5s-25.833 25.167 -32.5 42.5l38 21c2 -10.667 7.16699 -19.667 15.5 -27
s18.5 -11 30.5 -11c12.667 0 23.667 3.66699 33 11s14 17.666 14 30.999c0 26.667 -15.667 45.334 -47 56.001l-54 18l42 73c-44 2 -83.167 14.333 -117.5 37s-56.833 49.334 -67.5 80.001l56 30c8 -23.333 24.167 -44 48.5 -62s55.833 -27 94.5 -27
c34 0 62.833 7.33301 86.5 22s35.5 36 35.5 64c0 19.333 -6.33301 34.833 -19 46.5s-28 20.5 -46 26.5s-43.333 12.667 -76 20c-34 8 -62.167 16.167 -84.5 24.5s-41.166 21 -56.499 38s-23 39.5 -23 67.5s8 52.333 24 73s36.833 36.5 62.5 47.5s53.5 16.5 83.5 16.5
c39.333 0 74.166 -9 104.499 -27s52.833 -40.333 67.5 -67l-43 -31c-32.667 48.667 -75.667 73 -129 73c-31.333 0 -57.833 -7.33301 -79.5 -22s-32.5 -33.334 -32.5 -56.001c0 -16.667 6.33301 -30.167 19 -40.5s27.334 -18.333 44.001 -24s42.667 -12.834 78 -21.501
s64.333 -17.5 87 -26.5s41.667 -22.333 57 -40s23 -41.167 23 -70.5c0 -41.333 -14.833 -74.833 -44.5 -100.5z" />
    <glyph glyph-name="Scaron" unicode="&#x160;" horiz-adv-x="530" 
d="M155 15c-35.333 15.333 -64.3369 39.6709 -87.0039 73.0039s-34 75.666 -34 126.999h66c0 -54 16.5 -94.167 49.5 -120.5s73.167 -39.5 120.5 -39.5c42.667 0 77.334 10.667 104.001 32s40 50.666 40 87.999c0 27.333 -7.16699 50.666 -21.5 69.999
s-32.166 35.166 -53.499 47.499s-49.666 25.833 -84.999 40.5c-42 17.333 -75.5 33 -100.5 47s-46.5 33.167 -64.5 57.5s-27 54.5 -27 90.5c0 51.333 17.667 92.833 53 124.5s81.666 47.5 138.999 47.5c80 0 145.667 -34.667 197 -104l-44 -41c-42.667 56 -94 84 -154 84
c-36.667 0 -66.5 -9.66699 -89.5 -29s-34.5 -45 -34.5 -77c0 -24 7.16699 -44.5 21.5 -61.5s31.833 -31.167 52.5 -42.5s49.667 -25.333 87 -42c40.667 -17.333 73.834 -33.833 99.501 -49.5s47.334 -36 65.001 -61s26.5 -55.833 26.5 -92.5
c0 -37.333 -9.16699 -70.5 -27.5 -99.5s-43.833 -51.667 -76.5 -68s-69.334 -24.5 -110.001 -24.5c-39.333 0 -76.666 7.66699 -111.999 23zM124.996 892.005h58l74 -91l75 91h57l-127 -157h-11z" />
    <glyph glyph-name="scaron" unicode="&#x161;" horiz-adv-x="450" 
d="M106 24.5c-36.667 23 -60.334 50.5029 -71.001 82.5029l56 30c8 -23.333 24.167 -44 48.5 -62s55.833 -27 94.5 -27c34 0 62.833 7.33301 86.5 22s35.5 36 35.5 64c0 19.333 -6.33301 34.833 -19 46.5s-28 20.5 -46 26.5s-43.333 12.667 -76 20
c-34 8 -62.167 16.167 -84.5 24.5s-41.166 21 -56.499 38s-23 39.5 -23 67.5s8 52.333 24 73s36.833 36.5 62.5 47.5s53.5 16.5 83.5 16.5c39.333 0 74.166 -9 104.499 -27s52.833 -40.333 67.5 -67l-43 -31c-32.667 48.667 -75.667 73 -129 73
c-31.333 0 -57.833 -7.33301 -79.5 -22s-32.5 -33.334 -32.5 -56.001c0 -16.667 6.33301 -30.167 19 -40.5s27.334 -18.333 44.001 -24s42.667 -12.834 78 -21.501s64.333 -17.5 87 -26.5s41.667 -22.333 57 -40s23 -41.167 23 -70.5c0 -32 -9 -59.333 -27 -82
s-41.333 -39.834 -70 -51.501s-58.667 -17.5 -90 -17.5c-46 0 -87.333 11.5 -124 34.5zM98 690.003h58l74 -91l75 91h57l-127 -157h-11z" />
    <glyph glyph-name="uni0162" unicode="&#x162;" horiz-adv-x="561" 
d="M314 631v-618h1l-1 -1v-12h-8l-41 -61c64 -17.333 96 -48 96 -92c0 -25.333 -9.33301 -46.333 -28 -63s-40 -25 -64 -25c-19.333 0 -36.5 5.5 -51.5 16.5s-25.833 25.167 -32.5 42.5l38 21c2 -10.667 7.16699 -19.667 15.5 -27s18.5 -11 30.5 -11
c12.667 0 23.667 3.66699 33 11s14 17.666 14 30.999c0 26.667 -15.667 45.334 -47 56.001l-54 18l48 83h-15v631h-238v59h541v-59h-237z" />
    <glyph glyph-name="uni0163" unicode="&#x163;" horiz-adv-x="314" 
d="M294 -153c0 -25.333 -9.33301 -46.332 -28 -62.999s-40 -25 -64 -25c-19.333 0 -36.5 5.5 -51.5 16.5s-25.833 25.167 -32.5 42.5l38 21c2 -10.667 7.16699 -19.667 15.5 -27s18.5 -11 30.5 -11c12.667 0 23.667 3.66699 33 11s14 17.666 14 30.999
c0 26.667 -15.667 45.334 -47 56.001l-54 18l48 84c-35.333 3.33301 -61.5 15.666 -78.5 36.999s-25.5 52.333 -25.5 93v304h-75v53h40c11.333 0 20 3 26 9s9 14.333 9 25v118h62v-152h135v-53h-135v-292c0 -34 5.66699 -57.667 17 -71s31.333 -20 60 -20h44v-52h-36
l-41 -61c64 -17.333 96 -48 96 -92z" />
    <glyph glyph-name="Tcaron" unicode="&#x164;" horiz-adv-x="561" 
d="M248 631h-238v59h541v-59h-237v-631h-66v631zM149 892h58l74 -91l75 91h57l-127 -157h-11z" />
    <glyph glyph-name="tcaron" unicode="&#x165;" horiz-adv-x="314" 
d="M346 785v-96l-57 -153h-43l41 153h-34v96h93zM154 488h135v-53h-135v-292c0 -34 5.66699 -57.667 17 -71s31.333 -20 60 -20h44v-52h-55c-44 0 -76.333 10.5 -97 31.5s-31 54.167 -31 99.5v304h-75v53h40c11.333 0 20 3 26 9s9 14.333 9 25v118h62v-152z" />
    <glyph glyph-name="Tbar" unicode="&#x166;" horiz-adv-x="561" 
d="M314 631v-271h122v-30h-122v-330h-66v330h-122v30h122v271h-238v59h541v-59h-237z" />
    <glyph glyph-name="tbar" unicode="&#x167;" horiz-adv-x="314" 
d="M154 435v-176h129v-30h-129v-86c0 -34 5.66699 -57.667 17 -71s31.333 -20 60 -20h44v-52h-55c-44 0 -76.333 10.5 -97 31.5s-31 54.167 -31 99.5v98h-79v30h79v176h-75v53h40c11.333 0 20 3 26 9s9 14.333 9 25v118h62v-152h135v-53h-135z" />
    <glyph glyph-name="Utilde" unicode="&#x168;" horiz-adv-x="646" 
d="M151.5 56c-42.333 44 -63.5 104.667 -63.5 182v452h66v-455c0 -57.333 15.167 -102.5 45.5 -135.5s71.833 -49.5 124.5 -49.5c52 0 93 16.5 123 49.5s45 78.167 45 135.5v455h66v-447c0 -78.667 -21 -140.5 -63 -185.5s-99 -67.5 -171 -67.5
c-72.667 0 -130.167 22 -172.5 66zM348 784.5c-13.333 7 -28.334 17.167 -45.001 30.5c-13.333 11.333 -24.833 19.833 -34.5 25.5s-20.5 8.5 -32.5 8.5c-30 0 -44.333 -21.333 -43 -64h-40c0 32 7 57.833 21 77.5s34.667 29.5 62 29.5c23.333 0 42.666 -4 57.999 -12
s31.666 -19.667 48.999 -35c10.667 -10 20.334 -17.667 29.001 -23s18.334 -8 29.001 -8c18 0 30.333 6.33301 37 19s10 31.667 10 57h44c0 -38 -8.33301 -66.833 -25 -86.5s-41 -29.5 -73 -29.5c-17.333 0 -32.666 3.5 -45.999 10.5z" />
    <glyph glyph-name="utilde" unicode="&#x169;" 
d="M441 0l-62.999 -0.000976562v75h-7c-32 -54.667 -77.667 -82 -137 -82c-50.667 0 -90.334 16 -119.001 48s-43 75.667 -43 131v316h62v-310c0 -82.667 34.333 -124 103 -124c41.333 0 75.333 13.833 102 41.5s40 62.834 40 105.501v287h62v-488zM282.001 582.499
c-13.333 7 -28.334 17.167 -45.001 30.5c-13.333 11.333 -24.833 19.833 -34.5 25.5s-20.5 8.5 -32.5 8.5c-30 0 -44.333 -21.333 -43 -64h-40c0 32 7 57.833 21 77.5s34.667 29.5 62 29.5c23.333 0 42.666 -4 57.999 -12s31.666 -19.667 48.999 -35
c10.667 -10 20.334 -17.667 29.001 -23s18.334 -8 29.001 -8c18 0 30.333 6.33301 37 19s10 31.667 10 57h44c0 -38 -8.33301 -66.833 -25 -86.5s-41 -29.5 -73 -29.5c-17.333 0 -32.666 3.5 -45.999 10.5z" />
    <glyph glyph-name="Umacron" unicode="&#x16a;" horiz-adv-x="646" 
d="M151.5 56c-42.333 44 -63.5 104.667 -63.5 182v452h66v-455c0 -57.333 15.167 -102.5 45.5 -135.5s71.833 -49.5 124.5 -49.5c52 0 93 16.5 123 49.5s45 78.167 45 135.5v455h66v-447c0 -78.667 -21 -140.5 -63 -185.5s-99 -67.5 -171 -67.5
c-72.667 0 -130.167 22 -172.5 66zM194 831h258v-47h-258v47z" />
    <glyph glyph-name="umacron" unicode="&#x16b;" 
d="M441 0l-62.999 -0.000976562v75h-7c-32 -54.667 -77.667 -82 -137 -82c-50.667 0 -90.334 16 -119.001 48s-43 75.667 -43 131v316h62v-310c0 -82.667 34.333 -124 103 -124c41.333 0 75.333 13.833 102 41.5s40 62.834 40 105.501v287h62v-488zM128.001 628.999h258v-47
h-258v47z" />
    <glyph glyph-name="Uring" unicode="&#x16e;" horiz-adv-x="646" 
d="M151.5 56c-42.333 44 -63.5 104.667 -63.5 182v452h66v-455c0 -57.333 15.167 -102.5 45.5 -135.5s71.833 -49.5 124.5 -49.5c52 0 93 16.5 123 49.5s45 78.167 45 135.5v455h66v-447c0 -78.667 -21 -140.5 -63 -185.5s-99 -67.5 -171 -67.5
c-72.667 0 -130.167 22 -172.5 66zM255 754.5c-18 18.333 -27 40.833 -27 67.5c0 26 9.16699 48 27.5 66s40.5 27 66.5 27s48.167 -9 66.5 -27s27.5 -40 27.5 -66s-9.16699 -48.333 -27.5 -67s-40.5 -28 -66.5 -28c-26.667 0 -49 9.16699 -67 27.5zM356.5 787
c9.66699 9.33301 14.501 20.667 14.501 34s-4.66699 24.833 -14 34.5s-21 14.5 -35 14.5c-14.667 0 -26.334 -4.5 -35.001 -13.5s-13 -20.833 -13 -35.5c0 -14 4.5 -25.5 13.5 -34.5s20.5 -13.5 34.5 -13.5c13.333 0 24.833 4.66699 34.5 14z" />
    <glyph glyph-name="uring" unicode="&#x16f;" 
d="M441 0l-62.999 -0.000976562v75h-7c-32 -54.667 -77.667 -82 -137 -82c-50.667 0 -90.334 16 -119.001 48s-43 75.667 -43 131v316h62v-310c0 -82.667 34.333 -124 103 -124c41.333 0 75.333 13.833 102 41.5s40 62.834 40 105.501v287h62v-488zM189.001 552.499
c-18 18.333 -27 40.833 -27 67.5c0 26 9.16699 48 27.5 66s40.5 27 66.5 27s48.167 -9 66.5 -27s27.5 -40 27.5 -66s-9.16699 -48.333 -27.5 -67s-40.5 -28 -66.5 -28c-26.667 0 -49 9.16699 -67 27.5zM290.501 584.999c9.66699 9.33301 14.501 20.667 14.501 34
s-4.66699 24.833 -14 34.5s-21 14.5 -35 14.5c-14.667 0 -26.334 -4.5 -35.001 -13.5s-13 -20.833 -13 -35.5c0 -14 4.5 -25.5 13.5 -34.5s20.5 -13.5 34.5 -13.5c13.333 0 24.833 4.66699 34.5 14z" />
    <glyph glyph-name="Uhungarumlaut" unicode="&#x170;" horiz-adv-x="646" 
d="M151.5 56c-42.333 44 -63.5 104.667 -63.5 182v452h66v-455c0 -57.333 15.167 -102.5 45.5 -135.5s71.833 -49.5 124.5 -49.5c52 0 93 16.5 123 49.5s45 78.167 45 135.5v455h66v-447c0 -78.667 -21 -140.5 -63 -185.5s-99 -67.5 -171 -67.5
c-72.667 0 -130.167 22 -172.5 66zM302 892h91l-132 -140h-64zM462 892h92l-133 -140h-63z" />
    <glyph glyph-name="uhungarumlaut" unicode="&#x171;" 
d="M441 0l-62.999 -0.000976562v75h-7c-32 -54.667 -77.667 -82 -137 -82c-50.667 0 -90.334 16 -119.001 48s-43 75.667 -43 131v316h62v-310c0 -82.667 34.333 -124 103 -124c41.333 0 75.333 13.833 102 41.5s40 62.834 40 105.501v287h62v-488zM236.001 689.999h91
l-132 -140h-64zM396.001 689.999h92l-133 -140h-63z" />
    <glyph glyph-name="Uogonek" unicode="&#x172;" horiz-adv-x="646" 
d="M409 -72c0 -20.667 4.83105 -36.334 14.498 -47.001s21.834 -16 36.501 -16c10.667 0 21.5 2.83301 32.5 8.5s20.167 14.167 27.5 25.5l37 -24c-22 -35.333 -53.333 -53 -94 -53c-30 0 -53.667 9 -71 27s-26 41 -26 69c0 30 9.33301 56.667 28 80
c-23.333 -5.33301 -46.666 -8 -69.999 -8c-72.667 0 -130.167 22 -172.5 66s-63.5 104.667 -63.5 182v452h66v-455c0 -57.333 15.167 -102.5 45.5 -135.5s71.833 -49.5 124.5 -49.5c52 0 93 16.5 123 49.5s45 78.167 45 135.5v455h66v-447c0 -48 -8 -89.833 -24 -125.5
s-38.667 -64.5 -68 -86.5c-38 -31.333 -57 -65.666 -57 -102.999z" />
    <glyph glyph-name="uogonek" unicode="&#x173;" 
d="M524 -163c-22 -35.333 -53.333 -53 -94 -53c-30 0 -53.667 9 -71 27s-26 41 -26 69c0 22 5.66699 43.5 17 64.5s29.333 39.5 54 55.5h-26v75h-7c-32 -54.667 -77.667 -82 -137 -82c-50.667 0 -90.334 16 -119.001 48s-43 75.667 -43 131v316h62v-310
c0 -82.667 34.333 -124 103 -124c41.333 0 75.333 13.833 102 41.5s40 62.834 40 105.501v287h62v-488c-22.667 -16.667 -39.167 -34 -49.5 -52s-15.5 -37.333 -15.5 -58s4.83301 -36.334 14.5 -47.001s21.834 -16 36.501 -16c10.667 0 21.5 2.83301 32.5 8.5
s20.167 14.167 27.5 25.5z" />
    <glyph glyph-name="Wcircumflex" unicode="&#x174;" horiz-adv-x="883" 
d="M10 690l67.999 -0.000976562l141 -604v-16h5c0 0.666992 -0.333008 1.83398 -1 3.50098s-0.666992 3.5 0 5.5l170 543h96l169 -543c0.666992 -1.33301 0.666992 -3 0 -5s-1 -3.33301 -1 -4h6c0 0.666992 -0.166992 3 -0.5 7s-0.166016 7 0.500977 9l141 604h69l-167 -690
h-80l-183 567l-187 -567h-79zM436.999 873.999h11l127 -157h-57l-75 91l-74 -91h-58z" />
    <glyph glyph-name="wcircumflex" unicode="&#x175;" horiz-adv-x="659" 
d="M639 488l-104 -488h-89l-117 406l-116 -405h-89l-104 487h67l83 -452l131 452h56l133 -448l82 448h67zM323 686h11l127 -157h-57l-75 91l-74 -91h-58z" />
    <glyph glyph-name="Ycircumflex" unicode="&#x176;" horiz-adv-x="647" 
d="M289 270l-284 420h79l237 -361l242 361h79l-286 -420v-270h-67v270zM318 888h11l127 -157h-57l-75 91l-74 -91h-58z" />
    <glyph glyph-name="ycircumflex" unicode="&#x177;" horiz-adv-x="416" 
d="M32 -109h68.001c16 0 29 3.83301 39 11.5s17.667 19.5 23 35.5l21 63l-168 487h68l115 -357c8 -22.667 12 -42.334 12 -59.001h3c0 8.66699 1.16699 18.334 3.5 29.001s5.16602 21 8.49902 31l114 356h67l-183 -551c-11.333 -34.667 -27.5 -60 -48.5 -76
s-47.833 -24 -80.5 -24h-62v54zM203.001 686h11l127 -157h-57l-75 91l-74 -91h-58z" />
    <glyph glyph-name="Ydieresis" unicode="&#x178;" horiz-adv-x="647" 
d="M289 270l-284 420h79l237 -361l242 361h79l-286 -420v-270h-67v270zM211 892h69v-90h-69v90zM367 892h69v-90h-69v90z" />
    <glyph glyph-name="Zacute" unicode="&#x179;" horiz-adv-x="562" 
d="M545 632l-450 -572h450v-60h-528v56l445 574h-423v60h506v-58zM365 892h91l-144 -131h-53z" />
    <glyph glyph-name="zacute" unicode="&#x17a;" horiz-adv-x="422" 
d="M400 434l-299 -378h296v-56h-372v48l301 384h-290v56h364v-54zM291 690h91l-144 -131h-53z" />
    <glyph glyph-name="Zdotaccent" unicode="&#x17b;" horiz-adv-x="562" 
d="M545 632l-450 -572h450v-60h-528v56l445 574h-423v60h506v-58zM251 892h69v-90h-69v90z" />
    <glyph glyph-name="zdotaccent" unicode="&#x17c;" horiz-adv-x="422" 
d="M400 434l-299 -378h296v-56h-372v48l301 384h-290v56h364v-54zM177 690h69v-90h-69v90z" />
    <glyph glyph-name="Zcaron" unicode="&#x17d;" horiz-adv-x="562" 
d="M545 632l-450 -572h450v-60h-528v56l445 574h-423v60h506v-58zM154 892h58l74 -91l75 91h57l-127 -157h-11z" />
    <glyph glyph-name="zcaron" unicode="&#x17e;" horiz-adv-x="422" 
d="M400 434l-299 -378h296v-56h-372v48l301 384h-290v56h364v-54zM80 690h58l74 -91l75 91h57l-127 -157h-11z" />
    <glyph glyph-name="florin" unicode="&#x192;" horiz-adv-x="423" 
d="M228.5 614c-14.333 -14.667 -21.5 -34.332 -21.5 -58.999v-67h131v-53h-131v-435c0 -66.667 -15.833 -114.334 -47.5 -143.001s-73.167 -43 -124.5 -43v57c35.333 0 62.5 9 81.5 27s28.5 52 28.5 102v435h-89v53h89v63c0 42.667 12.667 76.5 38 101.5
s59.333 37.5 102 37.5h53v-54h-52c-24 0 -43.167 -7.33301 -57.5 -22z" />
    <glyph glyph-name="uni01CD" unicode="&#x1cd;" horiz-adv-x="557" 
d="M432 157h-307l-49 -157h-70l228 690h92l227 -690h-71zM415 213l-126 397c-4.66699 16 -7.66699 27.333 -9 34h-2c-0.666992 -2 -4 -13.333 -10 -34l-125 -397h272zM149 892h58l74 -91l75 91h57l-127 -157h-11z" />
    <glyph glyph-name="uni01CE" unicode="&#x1ce;" horiz-adv-x="510" 
d="M88.5 28.5c-29 25.667 -43.501 59.8311 -43.501 102.498c0 32.667 8.5 58.834 25.5 78.501s41.5 34.834 73.5 45.501c15.333 5.33301 32.666 9.83301 51.999 13.5s32 6.16699 38 7.5c22 4 38.667 7.33301 50 10c28 6.66699 50.333 16 67 28s25 28 25 48
c0 23.333 -10.667 42 -32 56s-49 21 -83 21c-31.333 0 -60.5 -6.33301 -87.5 -19s-48.833 -31 -65.5 -55l-50 34c23.333 31.333 52.333 55.333 87 72s72.667 25 114 25c50.667 0 92.834 -12.5 126.501 -37.5s50.5 -60.5 50.5 -106.5v-231l14 -121h-60l-11 83h-5
c-13.333 -28 -34.666 -50.5 -63.999 -67.5s-64 -25.5 -104 -25.5c-49.333 0 -88.5 12.833 -117.5 38.5zM289.499 64.9971c24.333 10.667 44.835 28.999 61.502 54.999s25 60.333 25 103v51h-4c-16.667 -14 -35.334 -24.5 -56.001 -31.5s-48.667 -14.5 -84 -22.5
c-32 -6 -54.667 -12 -68 -18c-34.667 -14.667 -52 -38.667 -52 -72c0 -25.333 9.66699 -45.166 29 -59.499s44 -21.5 74 -21.5c25.333 0 50.166 5.33301 74.499 16zM121.001 689.996h58l74 -91l75 91h57l-127 -157h-11z" />
    <glyph glyph-name="uni01CF" unicode="&#x1cf;" horiz-adv-x="266" 
d="M100 690h66v-690h-66v690zM2 892h58l74 -91l75 91h57l-127 -157h-11z" />
    <glyph glyph-name="uni01D0" unicode="&#x1d0;" horiz-adv-x="225" 
d="M82 488h61v-488h-61v488zM-20 690h58l74 -91l75 91h57l-127 -157h-11z" />
    <glyph glyph-name="uni01D1" unicode="&#x1d1;" horiz-adv-x="708" 
d="M191.5 33.5c-46.333 29 -82.166 70.167 -107.499 123.5s-38 116 -38 188s12.667 134.667 38 188s61.166 94.5 107.499 123.5s100.833 43.5 163.5 43.5c62 0 116.167 -14.5 162.5 -43.5s82 -70.167 107 -123.5s37.5 -116 37.5 -188s-12.5 -134.667 -37.5 -188
s-60.667 -94.5 -107 -123.5s-100.5 -43.5 -162.5 -43.5c-62.667 0 -117.167 14.5 -163.5 43.5zM484 88c36.667 24 65 58 85 102s30 95.667 30 155s-10 111 -30 155s-48.333 78 -85 102s-79.667 36 -129 36c-50 0 -93.5 -12 -130.5 -36s-65.5 -58 -85.5 -102
s-30 -95.667 -30 -155s10 -111 30 -155s48.5 -78 85.5 -102s80.5 -36 130.5 -36c49.333 0 92.333 12 129 36zM223 892h58l74 -91l75 91h57l-127 -157h-11z" />
    <glyph glyph-name="uni01D2" unicode="&#x1d2;" horiz-adv-x="514" 
d="M99 56c-39.333 44 -59 106.002 -59 186.002s19.667 142 59 186s91.666 66 156.999 66c42.667 0 80.334 -9.83301 113.001 -29.5s58.334 -48.334 77.001 -86.001s28 -83.167 28 -136.5s-9.33301 -98.833 -28 -136.5s-44.334 -66.334 -77.001 -86.001
s-70.334 -29.5 -113.001 -29.5c-65.333 0 -117.666 22 -156.999 66zM371.5 96.502c27.667 33 41.5 81.5 41.5 145.5s-13.833 112.667 -41.5 146s-65.834 50 -114.501 50s-86.834 -16.667 -114.501 -50s-41.5 -82 -41.5 -146s13.833 -112.5 41.5 -145.5
s65.834 -49.5 114.501 -49.5s86.834 16.5 114.501 49.5zM124 690.002h58l74 -91l75 91h57l-127 -157h-11z" />
    <glyph glyph-name="uni01D3" unicode="&#x1d3;" horiz-adv-x="646" 
d="M151.5 56c-42.333 44 -63.5 104.667 -63.5 182v452h66v-455c0 -57.333 15.167 -102.5 45.5 -135.5s71.833 -49.5 124.5 -49.5c52 0 93 16.5 123 49.5s45 78.167 45 135.5v455h66v-447c0 -78.667 -21 -140.5 -63 -185.5s-99 -67.5 -171 -67.5
c-72.667 0 -130.167 22 -172.5 66zM191 892h58l74 -91l75 91h57l-127 -157h-11z" />
    <glyph glyph-name="uni01D4" unicode="&#x1d4;" 
d="M441 0l-62.999 -0.000976562v75h-7c-32 -54.667 -77.667 -82 -137 -82c-50.667 0 -90.334 16 -119.001 48s-43 75.667 -43 131v316h62v-310c0 -82.667 34.333 -124 103 -124c41.333 0 75.333 13.833 102 41.5s40 62.834 40 105.501v287h62v-488zM125.001 689.999h58
l74 -91l75 91h57l-127 -157h-11z" />
    <glyph glyph-name="uni01D5" unicode="&#x1d5;" horiz-adv-x="646" 
d="M151.5 56c-42.333 44 -63.5 104.667 -63.5 182v452h66v-455c0 -57.333 15.167 -102.5 45.5 -135.5s71.833 -49.5 124.5 -49.5c52 0 93 16.5 123 49.5s45 78.167 45 135.5v455h66v-447c0 -78.667 -21 -140.5 -63 -185.5s-99 -67.5 -171 -67.5
c-72.667 0 -130.167 22 -172.5 66zM210 892h69v-90h-69v90zM366 892h69v-90h-69v90zM194 1033h258v-47h-258v47z" />
    <glyph glyph-name="uni01D6" unicode="&#x1d6;" 
d="M441 0l-62.999 -0.000976562v75h-7c-32 -54.667 -77.667 -82 -137 -82c-50.667 0 -90.334 16 -119.001 48s-43 75.667 -43 131v316h62v-310c0 -82.667 34.333 -124 103 -124c41.333 0 75.333 13.833 102 41.5s40 62.834 40 105.501v287h62v-488zM144.001 689.999h69v-90
h-69v90zM300.001 689.999h69v-90h-69v90zM128.001 830.999h258v-47h-258v47z" />
    <glyph glyph-name="uni01D7" unicode="&#x1d7;" horiz-adv-x="646" 
d="M151.5 56c-42.333 44 -63.5 104.667 -63.5 182v452h66v-455c0 -57.333 15.167 -102.5 45.5 -135.5s71.833 -49.5 124.5 -49.5c52 0 93 16.5 123 49.5s45 78.167 45 135.5v455h66v-447c0 -78.667 -21 -140.5 -63 -185.5s-99 -67.5 -171 -67.5
c-72.667 0 -130.167 22 -172.5 66zM210 892h69v-90h-69v90zM366 892h69v-90h-69v90zM402 1094h91l-144 -131h-53z" />
    <glyph glyph-name="uni01D8" unicode="&#x1d8;" 
d="M441 0l-62.999 -0.000976562v75h-7c-32 -54.667 -77.667 -82 -137 -82c-50.667 0 -90.334 16 -119.001 48s-43 75.667 -43 131v316h62v-310c0 -82.667 34.333 -124 103 -124c41.333 0 75.333 13.833 102 41.5s40 62.834 40 105.501v287h62v-488zM144.001 689.999h69v-90
h-69v90zM300.001 689.999h69v-90h-69v90zM336.001 891.999h91l-144 -131h-53z" />
    <glyph glyph-name="uni01D9" unicode="&#x1d9;" horiz-adv-x="646" 
d="M151.5 56c-42.333 44 -63.5 104.667 -63.5 182v452h66v-455c0 -57.333 15.167 -102.5 45.5 -135.5s71.833 -49.5 124.5 -49.5c52 0 93 16.5 123 49.5s45 78.167 45 135.5v455h66v-447c0 -78.667 -21 -140.5 -63 -185.5s-99 -67.5 -171 -67.5
c-72.667 0 -130.167 22 -172.5 66zM210 892h69v-90h-69v90zM366 892h69v-90h-69v90zM191 1094h58l74 -91l75 91h57l-127 -157h-11z" />
    <glyph glyph-name="uni01DA" unicode="&#x1da;" 
d="M441 0l-62.999 -0.000976562v75h-7c-32 -54.667 -77.667 -82 -137 -82c-50.667 0 -90.334 16 -119.001 48s-43 75.667 -43 131v316h62v-310c0 -82.667 34.333 -124 103 -124c41.333 0 75.333 13.833 102 41.5s40 62.834 40 105.501v287h62v-488zM144.001 689.999h69v-90
h-69v90zM300.001 689.999h69v-90h-69v90zM125.001 891.999h58l74 -91l75 91h57l-127 -157h-11z" />
    <glyph glyph-name="uni01DB" unicode="&#x1db;" horiz-adv-x="646" 
d="M151.5 56c-42.333 44 -63.5 104.667 -63.5 182v452h66v-455c0 -57.333 15.167 -102.5 45.5 -135.5s71.833 -49.5 124.5 -49.5c52 0 93 16.5 123 49.5s45 78.167 45 135.5v455h66v-447c0 -78.667 -21 -140.5 -63 -185.5s-99 -67.5 -171 -67.5
c-72.667 0 -130.167 22 -172.5 66zM210 892h69v-90h-69v90zM366 892h69v-90h-69v90zM157 1094h92l105 -132h-63z" />
    <glyph glyph-name="uni01DC" unicode="&#x1dc;" 
d="M441 0l-62.999 -0.000976562v75h-7c-32 -54.667 -77.667 -82 -137 -82c-50.667 0 -90.334 16 -119.001 48s-43 75.667 -43 131v316h62v-310c0 -82.667 34.333 -124 103 -124c41.333 0 75.333 13.833 102 41.5s40 62.834 40 105.501v287h62v-488zM144.001 689.999h69v-90
h-69v90zM300.001 689.999h69v-90h-69v90zM91.001 891.999h92l105 -132h-63z" />
    <glyph glyph-name="Oslashacute" unicode="&#x1fe;" horiz-adv-x="708" 
d="M607 566c36.667 -60.667 54.9971 -134.333 54.9971 -221c0 -72 -12.5 -134.667 -37.5 -188s-60.667 -94.5 -107 -123.5s-100.5 -43.5 -162.5 -43.5c-47.333 0 -90.166 8.33301 -128.499 25s-71.166 41 -98.499 73l-59 -59l-29 31l63 63c-38 59.333 -57 133.333 -57 222
c0 72 12.667 134.667 38 188s61.166 94.5 107.499 123.5s100.833 43.5 163.5 43.5c46.667 0 89.334 -8.5 128.001 -25.5s71.334 -41.5 98.001 -73.5l60 60l30 -31zM148.997 169.001l386 386c-21.333 26.667 -47.333 47.167 -78 61.5s-64.667 21.5 -102 21.5
c-50 0 -93.5 -12 -130.5 -36s-65.5 -58 -85.5 -102s-30 -95.667 -30 -155c0 -69.333 13.333 -128 40 -176zM559.997 519.001l-386 -386c21.333 -26 47.333 -46 78 -60s65 -21 103 -21c49.333 0 92.333 12 129 36s65 58 85 102s30 95.667 30 155
c0 67.333 -13 125.333 -39 174zM433.997 892.001h91l-144 -131h-53z" />
    <glyph glyph-name="oslashacute" unicode="&#x1ff;" horiz-adv-x="514" 
d="M434 400c26.667 -41.333 40.0039 -93.998 40.0039 -157.998c0 -53.333 -9.33301 -98.833 -28 -136.5s-44.334 -66.334 -77.001 -86.001s-70.334 -29.5 -113.001 -29.5c-34 0 -64.667 6 -92 18s-50.333 29.667 -69 53l-40 -40l-21 22l43 43
c-24.667 41.333 -37 93.333 -37 156c0 80 19.667 142 59 186s91.666 66 156.999 66c32.667 0 62.667 -5.83301 90 -17.5s50.666 -28.834 69.999 -51.501l41 41l21 -22zM122.004 131.002l253.001 253c-26.667 36 -66 54 -118 54c-48.667 0 -86.834 -16.667 -114.501 -50
s-41.5 -82 -41.5 -146c0 -44.667 7 -81.667 21 -111zM391.005 357.002l-254.001 -253.999c27.333 -37.333 67.333 -56 120 -56c48.667 0 86.834 16.5 114.501 49.5s41.5 81.5 41.5 145.5c0 45.333 -7.33301 83.666 -22 114.999zM335.004 690.003h91l-144 -131h-53z" />
    <glyph glyph-name="Scommaaccent" unicode="&#x218;" horiz-adv-x="530" 
d="M155 15c-35.333 15.333 -64.3369 39.6709 -87.0039 73.0039s-34 75.666 -34 126.999h66c0 -54 16.5 -94.167 49.5 -120.5s73.167 -39.5 120.5 -39.5c42.667 0 77.334 10.667 104.001 32s40 50.666 40 87.999c0 27.333 -7.16699 50.666 -21.5 69.999
s-32.166 35.166 -53.499 47.499s-49.666 25.833 -84.999 40.5c-42 17.333 -75.5 33 -100.5 47s-46.5 33.167 -64.5 57.5s-27 54.5 -27 90.5c0 51.333 17.667 92.833 53 124.5s81.666 47.5 138.999 47.5c80 0 145.667 -34.667 197 -104l-44 -41c-42.667 56 -94 84 -154 84
c-36.667 0 -66.5 -9.66699 -89.5 -29s-34.5 -45 -34.5 -77c0 -24 7.16699 -44.5 21.5 -61.5s31.833 -31.167 52.5 -42.5s49.667 -25.333 87 -42c40.667 -17.333 73.834 -33.833 99.501 -49.5s47.334 -36 65.001 -61s26.5 -55.833 26.5 -92.5
c0 -37.333 -9.16699 -70.5 -27.5 -99.5s-43.833 -51.667 -76.5 -68s-69.334 -24.5 -110.001 -24.5c-39.333 0 -76.666 7.66699 -111.999 23zM205.996 -71.9951h89l-105 -148h-42z" />
    <glyph glyph-name="scommaaccent" unicode="&#x219;" horiz-adv-x="450" 
d="M106 24.5c-36.667 23 -60.334 50.5029 -71.001 82.5029l56 30c8 -23.333 24.167 -44 48.5 -62s55.833 -27 94.5 -27c34 0 62.833 7.33301 86.5 22s35.5 36 35.5 64c0 19.333 -6.33301 34.833 -19 46.5s-28 20.5 -46 26.5s-43.333 12.667 -76 20
c-34 8 -62.167 16.167 -84.5 24.5s-41.166 21 -56.499 38s-23 39.5 -23 67.5s8 52.333 24 73s36.833 36.5 62.5 47.5s53.5 16.5 83.5 16.5c39.333 0 74.166 -9 104.499 -27s52.833 -40.333 67.5 -67l-43 -31c-32.667 48.667 -75.667 73 -129 73
c-31.333 0 -57.833 -7.33301 -79.5 -22s-32.5 -33.334 -32.5 -56.001c0 -16.667 6.33301 -30.167 19 -40.5s27.334 -18.333 44.001 -24s42.667 -12.834 78 -21.501s64.333 -17.5 87 -26.5s41.667 -22.333 57 -40s23 -41.167 23 -70.5c0 -32 -9 -59.333 -27 -82
s-41.333 -39.834 -70 -51.501s-58.667 -17.5 -90 -17.5c-46 0 -87.333 11.5 -124 34.5zM199 -69.9971h89l-105 -148h-42z" />
    <glyph glyph-name="uni021A" unicode="&#x21a;" horiz-adv-x="561" 
d="M248 631h-238v59h541v-59h-237v-631h-66v631zM236 -70h89l-105 -148h-42z" />
    <glyph glyph-name="uni021B" unicode="&#x21b;" horiz-adv-x="314" 
d="M123 31.5c-20.667 21 -31 54.167 -31 99.5v304h-75v53h40c11.333 0 20 3 26 9s9 14.333 9 25v118h62v-152h135v-53h-135v-292c0 -34 5.66699 -57.667 17 -71s31.333 -20 60 -20h44v-52h-55c-44 0 -76.333 10.5 -97 31.5zM169 -70h89l-105 -148h-42z" />
    <glyph glyph-name="uni0237" unicode="&#x237;" horiz-adv-x="233" 
d="M-18 -163l0.000976562 54h50c21.333 0 36.166 5.5 44.499 16.5s12.5 27.167 12.5 48.5v532h62v-526c0 -44.667 -9 -76.667 -27 -96s-48.667 -29 -92 -29h-50z" />
    <glyph glyph-name="circumflex" unicode="&#x2c6;" horiz-adv-x="322" 
d="M156 700h11l127 -157h-57l-75 91l-74 -91h-58z" />
    <glyph glyph-name="caron" unicode="&#x2c7;" horiz-adv-x="322" 
d="M29 690h58l74 -91l75 91h57l-127 -157h-11z" />
    <glyph glyph-name="breve" unicode="&#x2d8;" horiz-adv-x="298" 
d="M45 599.5c-28.667 23.667 -43.001 55.833 -43.001 96.5h57c0 -24 8.66699 -43.833 26 -59.5s39 -23.5 65 -23.5c24.667 0 45.834 8 63.501 24s26.5 35.667 26.5 59h56c0 -40 -14.167 -72 -42.5 -96s-62.833 -36 -103.5 -36c-41.333 0 -76.333 11.833 -105 35.5z" />
    <glyph glyph-name="dotaccent" unicode="&#x2d9;" horiz-adv-x="125" 
d="M22 690h69v-90h-69v90z" />
    <glyph glyph-name="ring" unicode="&#x2da;" horiz-adv-x="195" 
d="M30 552.5c-18 18.333 -27 40.833 -27 67.5c0 26 9.16699 48 27.5 66s40.5 27 66.5 27s48.167 -9 66.5 -27s27.5 -40 27.5 -66s-9.16699 -48.333 -27.5 -67s-40.5 -28 -66.5 -28c-26.667 0 -49 9.16699 -67 27.5zM131.5 585c9.66699 9.33301 14.501 20.667 14.501 34
s-4.66699 24.833 -14 34.5s-21 14.5 -35 14.5c-14.667 0 -26.334 -4.5 -35.001 -13.5s-13 -20.833 -13 -35.5c0 -14 4.5 -25.5 13.5 -34.5s20.5 -13.5 34.5 -13.5c13.333 0 24.833 4.66699 34.5 14z" />
    <glyph glyph-name="ogonek" unicode="&#x2db;" horiz-adv-x="228" 
d="M109 -189c-17.333 18 -26.001 41 -26.001 69c0 23.333 6.33301 45.833 19 67.5s32.667 40.834 60 57.501l29 -5c-22.667 -16.667 -39.167 -34 -49.5 -52s-15.5 -37.333 -15.5 -58s4.83301 -36.334 14.5 -47.001s21.834 -16 36.501 -16c10.667 0 21.5 2.83301 32.5 8.5
s20.167 14.167 27.5 25.5l37 -24c-22 -35.333 -53.333 -53 -94 -53c-30 0 -53.667 9 -71 27z" />
    <glyph glyph-name="tilde" unicode="&#x2dc;" horiz-adv-x="348" 
d="M200 554.5c-13.333 7 -28.334 17.167 -45.001 30.5c-13.333 11.333 -24.833 19.833 -34.5 25.5s-20.5 8.5 -32.5 8.5c-30 0 -44.333 -21.333 -43 -64h-40c0 32 7 57.833 21 77.5s34.667 29.5 62 29.5c23.333 0 42.666 -4 57.999 -12s31.666 -19.667 48.999 -35
c10.667 -10 20.334 -17.667 29.001 -23s18.334 -8 29.001 -8c18 0 30.333 6.33301 37 19s10 31.667 10 57h44c0 -38 -8.33301 -66.833 -25 -86.5s-41 -29.5 -73 -29.5c-17.333 0 -32.666 3.5 -45.999 10.5z" />
    <glyph glyph-name="hungarumlaut" unicode="&#x2dd;" horiz-adv-x="365" 
d="M105 690h91l-132 -140h-64zM265 690h92l-133 -140h-63z" />
    <glyph glyph-name="gravecomb" unicode="&#x300;" horiz-adv-x="0" 
d="M-201 690h92l105 -132h-63z" />
    <glyph glyph-name="acutecomb" unicode="&#x301;" horiz-adv-x="0" 
d="M-84 690h91l-144 -131h-53z" />
    <glyph glyph-name="uni0302" unicode="&#x302;" horiz-adv-x="0" 
d="M-166 700h11l127 -157h-57l-75 91l-74 -91h-58z" />
    <glyph glyph-name="tildecomb" unicode="&#x303;" horiz-adv-x="0" 
d="M-148 554.5c-13.333 7 -28.334 17.167 -45.001 30.5c-13.333 11.333 -24.833 19.833 -34.5 25.5s-20.5 8.5 -32.5 8.5c-30 0 -44.333 -21.333 -43 -64h-40c0 32 7 57.833 21 77.5s34.667 29.5 62 29.5c23.333 0 42.666 -4 57.999 -12s31.666 -19.667 48.999 -35
c10.667 -10 20.334 -17.667 29.001 -23s18.334 -8 29.001 -8c18 0 30.333 6.33301 37 19s10 31.667 10 57h44c0 -38 -8.33301 -66.833 -25 -86.5s-41 -29.5 -73 -29.5c-17.333 0 -32.666 3.5 -45.999 10.5z" />
    <glyph glyph-name="uni0304" unicode="&#x304;" horiz-adv-x="0" 
d="M-291 629h258v-47h-258v47z" />
    <glyph glyph-name="uni0306" unicode="&#x306;" horiz-adv-x="0" 
d="M-253 599.5c-28.667 23.667 -43.001 55.833 -43.001 96.5h57c0 -24 8.66699 -43.833 26 -59.5s39 -23.5 65 -23.5c24.667 0 45.834 8 63.501 24s26.5 35.667 26.5 59h56c0 -40 -14.167 -72 -42.5 -96s-62.833 -36 -103.5 -36c-41.333 0 -76.333 11.833 -105 35.5z" />
    <glyph glyph-name="uni0307" unicode="&#x307;" horiz-adv-x="0" 
d="M-103 690h69v-90h-69v90z" />
    <glyph glyph-name="uni0308" unicode="&#x308;" horiz-adv-x="0" 
d="M-247 690h69v-90h-69v90zM-91 690h69v-90h-69v90z" />
    <glyph glyph-name="uni030A" unicode="&#x30a;" horiz-adv-x="0" 
d="M-165 552.5c-18 18.333 -27 40.833 -27 67.5c0 26 9.16699 48 27.5 66s40.5 27 66.5 27s48.167 -9 66.5 -27s27.5 -40 27.5 -66s-9.16699 -48.333 -27.5 -67s-40.5 -28 -66.5 -28c-26.667 0 -49 9.16699 -67 27.5zM-63.5 585c9.66699 9.33301 14.501 20.667 14.501 34
s-4.66699 24.833 -14 34.5s-21 14.5 -35 14.5c-14.667 0 -26.334 -4.5 -35.001 -13.5s-13 -20.833 -13 -35.5c0 -14 4.5 -25.5 13.5 -34.5s20.5 -13.5 34.5 -13.5c13.333 0 24.833 4.66699 34.5 14z" />
    <glyph glyph-name="uni030B" unicode="&#x30b;" horiz-adv-x="0" 
d="M-260 690h91l-132 -140h-64zM-100 690h92l-133 -140h-63z" />
    <glyph glyph-name="uni030C" unicode="&#x30c;" horiz-adv-x="0" 
d="M-293 690h58l74 -91l75 91h57l-127 -157h-11z" />
    <glyph glyph-name="uni030F" unicode="&#x30f;" horiz-adv-x="0" 
d="M-351 690h88l103 -133h-80zM-200 690h88l103 -133h-80z" />
    <glyph glyph-name="uni0312" unicode="&#x312;" horiz-adv-x="0" 
d="M74 563h-89l105 132h42z" />
    <glyph glyph-name="uni031B" unicode="&#x31b;" horiz-adv-x="0" 
d="M-76 690h89l-105 -202h-42z" />
    <glyph glyph-name="uni0326" unicode="&#x326;" horiz-adv-x="0" 
d="M-81 -70h89l-105 -148h-42z" />
    <glyph glyph-name="uni0327" unicode="&#x327;" horiz-adv-x="0" 
d="M-146.5 -227.5c-15 11 -25.833 25.167 -32.5 42.5l38 21c2 -10.667 7.16699 -19.667 15.5 -27s18.5 -11 30.5 -11c12.667 0 23.667 3.66699 33 11s14 17.666 14 30.999c0 26.667 -15.667 45.334 -47 56.001l-54 18l55 96h45l-50 -74c64 -17.333 96 -48 96 -92
c0 -25.333 -9.33301 -46.333 -28 -63s-40 -25 -64 -25c-19.333 0 -36.5 5.5 -51.5 16.5z" />
    <glyph glyph-name="uni0328" unicode="&#x328;" horiz-adv-x="0" 
d="M-119 -189c-17.333 18 -26.001 41 -26.001 69c0 23.333 6.33301 45.833 19 67.5s32.667 40.834 60 57.501l29 -5c-22.667 -16.667 -39.167 -34 -49.5 -52s-15.5 -37.333 -15.5 -58s4.83301 -36.334 14.5 -47.001s21.834 -16 36.501 -16c10.667 0 21.5 2.83301 32.5 8.5
s20.167 14.167 27.5 25.5l37 -24c-22 -35.333 -53.333 -53 -94 -53c-30 0 -53.667 9 -71 27z" />
    <glyph glyph-name="uni0335" unicode="&#x335;" horiz-adv-x="0" 
d="M-699 293h310v-30h-310v30z" />
    <glyph glyph-name="uni0336" unicode="&#x336;" horiz-adv-x="0" 
d="M-597 293h592v-30h-592v30z" />
    <glyph glyph-name="uni0337" unicode="&#x337;" horiz-adv-x="0" 
d="M-557 126l356 263v-67l-356 -262v66z" />
    <glyph glyph-name="uni0338" unicode="&#x338;" horiz-adv-x="0" 
d="M0 630l-602 -601l-29 31l601 601z" />
    <glyph glyph-name="pi" unicode="&#x3c0;" horiz-adv-x="557" 
d="M359.5 22.5c-17.667 21.667 -26.499 46.832 -26.499 75.499v334h-154v-432h-57v432h-40v56h348v-56h-40v-337c0 -17.333 3.83301 -31.666 11.5 -42.999s18.167 -17 31.5 -17c8.66699 0 19.667 3.33301 33 10l9 -41c-16.667 -9.33301 -33.334 -14 -50.001 -14
c-26 0 -47.833 10.833 -65.5 32.5z" />
    <glyph glyph-name="Wgrave" unicode="&#x1e80;" horiz-adv-x="883" 
d="M10 690l67.999 -0.000976562l141 -604v-16h5c0 0.666992 -0.333008 1.83398 -1 3.50098s-0.666992 3.5 0 5.5l170 543h96l169 -543c0.666992 -1.33301 0.666992 -3 0 -5s-1 -3.33301 -1 -4h6c0 0.666992 -0.166992 3 -0.5 7s-0.166016 7 0.500977 9l141 604h69l-167 -690
h-80l-183 567l-187 -567h-79zM276.999 877.999h92l105 -132h-63z" />
    <glyph glyph-name="wgrave" unicode="&#x1e81;" horiz-adv-x="659" 
d="M639 488l-104 -488h-89l-117 406l-116 -405h-89l-104 487h67l83 -452l131 452h56l133 -448l82 448h67zM163 690h92l105 -132h-63z" />
    <glyph glyph-name="Wacute" unicode="&#x1e82;" horiz-adv-x="883" 
d="M10 690l67.999 -0.000976562l141 -604v-16h5c0 0.666992 -0.333008 1.83398 -1 3.50098s-0.666992 3.5 0 5.5l170 543h96l169 -543c0.666992 -1.33301 0.666992 -3 0 -5s-1 -3.33301 -1 -4h6c0 0.666992 -0.166992 3 -0.5 7s-0.166016 7 0.500977 9l141 604h69l-167 -690
h-80l-183 567l-187 -567h-79zM521.999 877.999h91l-144 -131h-53z" />
    <glyph glyph-name="wacute" unicode="&#x1e83;" horiz-adv-x="659" 
d="M639 488l-104 -488h-89l-117 406l-116 -405h-89l-104 487h67l83 -452l131 452h56l133 -448l82 448h67zM408 690h91l-144 -131h-53z" />
    <glyph glyph-name="Wdieresis" unicode="&#x1e84;" horiz-adv-x="883" 
d="M10 690l67.999 -0.000976562l141 -604v-16h5c0 0.666992 -0.333008 1.83398 -1 3.50098s-0.666992 3.5 0 5.5l170 543h96l169 -543c0.666992 -1.33301 0.666992 -3 0 -5s-1 -3.33301 -1 -4h6c0 0.666992 -0.166992 3 -0.5 7s-0.166016 7 0.500977 9l141 604h69l-167 -690
h-80l-183 567l-187 -567h-79zM329.999 877.999h69v-90h-69v90zM485.999 877.999h69v-90h-69v90z" />
    <glyph glyph-name="wdieresis" unicode="&#x1e85;" horiz-adv-x="659" 
d="M639 488l-104 -488h-89l-117 406l-116 -405h-89l-104 487h67l83 -452l131 452h56l133 -448l82 448h67zM216 690h69v-90h-69v90zM372 690h69v-90h-69v90z" />
    <glyph glyph-name="uni1EBC" unicode="&#x1ebc;" horiz-adv-x="598" 
d="M100 690h444v-60h-378v-255h330v-60h-330v-255h378v-60h-444v690zM348 784.5c-13.333 7 -28.334 17.167 -45.001 30.5c-13.333 11.333 -24.833 19.833 -34.5 25.5s-20.5 8.5 -32.5 8.5c-30 0 -44.333 -21.333 -43 -64h-40c0 32 7 57.833 21 77.5s34.667 29.5 62 29.5
c23.333 0 42.666 -4 57.999 -12s31.666 -19.667 48.999 -35c10.667 -10 20.334 -17.667 29.001 -23s18.334 -8 29.001 -8c18 0 30.333 6.33301 37 19s10 31.667 10 57h44c0 -38 -8.33301 -66.833 -25 -86.5s-41 -29.5 -73 -29.5c-17.333 0 -32.666 3.5 -45.999 10.5z" />
    <glyph glyph-name="uni1EBD" unicode="&#x1ebd;" horiz-adv-x="494" 
d="M453.5 224.5c-0.333008 -3 -0.5 -4.83301 -0.5 -5.5h-349c4 -48.667 19.167 -88.667 45.5 -120s65.833 -47 118.5 -47c54.667 0 99 14.667 133 44l35 -42c-25.333 -22 -51.833 -37.5 -79.5 -46.5s-57.167 -13.5 -88.5 -13.5c-52 0 -95 11.5 -129 34.5s-59 53.333 -75 91
s-24 79.167 -24 124.5c0 43.333 7.33301 84 22 122s38 68.833 70 92.5s72.667 35.5 122 35.5c72.667 0 124.167 -24.667 154.5 -74s45.5 -109.333 45.5 -180c0 -7.33301 -0.166992 -12.5 -0.5 -15.5zM141 389c-24 -32 -37.001 -71.333 -39.001 -118h293
c-1.33301 50 -14.166 90.167 -38.499 120.5s-59.5 45.5 -105.5 45.5c-49.333 0 -86 -16 -110 -48zM269.999 582.5c-13.333 7 -28.334 17.167 -45.001 30.5c-13.333 11.333 -24.833 19.833 -34.5 25.5s-20.5 8.5 -32.5 8.5c-30 0 -44.333 -21.333 -43 -64h-40
c0 32 7 57.833 21 77.5s34.667 29.5 62 29.5c23.333 0 42.666 -4 57.999 -12s31.666 -19.667 48.999 -35c10.667 -10 20.334 -17.667 29.001 -23s18.334 -8 29.001 -8c18 0 30.333 6.33301 37 19s10 31.667 10 57h44c0 -38 -8.33301 -66.833 -25 -86.5s-41 -29.5 -73 -29.5
c-17.333 0 -32.666 3.5 -45.999 10.5z" />
    <glyph glyph-name="Ygrave" unicode="&#x1ef2;" horiz-adv-x="647" 
d="M289 270l-284 420h79l237 -361l242 361h79l-286 -420v-270h-67v270zM158 892h92l105 -132h-63z" />
    <glyph glyph-name="ygrave" unicode="&#x1ef3;" horiz-adv-x="416" 
d="M32 -109h68.001c16 0 29 3.83301 39 11.5s17.667 19.5 23 35.5l21 63l-168 487h68l115 -357c8 -22.667 12 -42.334 12 -59.001h3c0 8.66699 1.16699 18.334 3.5 29.001s5.16602 21 8.49902 31l114 356h67l-183 -551c-11.333 -34.667 -27.5 -60 -48.5 -76
s-47.833 -24 -80.5 -24h-62v54zM43.001 690h92l105 -132h-63z" />
    <glyph glyph-name="uni1EF8" unicode="&#x1ef8;" horiz-adv-x="647" 
d="M289 270l-284 420h79l237 -361l242 361h79l-286 -420v-270h-67v270zM349 784.5c-13.333 7 -28.334 17.167 -45.001 30.5c-13.333 11.333 -24.833 19.833 -34.5 25.5s-20.5 8.5 -32.5 8.5c-30 0 -44.333 -21.333 -43 -64h-40c0 32 7 57.833 21 77.5s34.667 29.5 62 29.5
c23.333 0 42.666 -4 57.999 -12s31.666 -19.667 48.999 -35c10.667 -10 20.334 -17.667 29.001 -23s18.334 -8 29.001 -8c18 0 30.333 6.33301 37 19s10 31.667 10 57h44c0 -38 -8.33301 -66.833 -25 -86.5s-41 -29.5 -73 -29.5c-17.333 0 -32.666 3.5 -45.999 10.5z" />
    <glyph glyph-name="uni1EF9" unicode="&#x1ef9;" horiz-adv-x="416" 
d="M32 -109h68.001c16 0 29 3.83301 39 11.5s17.667 19.5 23 35.5l21 63l-168 487h68l115 -357c8 -22.667 12 -42.334 12 -59.001h3c0 8.66699 1.16699 18.334 3.5 29.001s5.16602 21 8.49902 31l114 356h67l-183 -551c-11.333 -34.667 -27.5 -60 -48.5 -76
s-47.833 -24 -80.5 -24h-62v54zM234.001 582.5c-13.333 7 -28.334 17.167 -45.001 30.5c-13.333 11.333 -24.833 19.833 -34.5 25.5s-20.5 8.5 -32.5 8.5c-30 0 -44.333 -21.333 -43 -64h-40c0 32 7 57.833 21 77.5s34.667 29.5 62 29.5c23.333 0 42.666 -4 57.999 -12
s31.666 -19.667 48.999 -35c10.667 -10 20.334 -17.667 29.001 -23s18.334 -8 29.001 -8c18 0 30.333 6.33301 37 19s10 31.667 10 57h44c0 -38 -8.33301 -66.833 -25 -86.5s-41 -29.5 -73 -29.5c-17.333 0 -32.666 3.5 -45.999 10.5z" />
    <glyph glyph-name="endash" unicode="&#x2013;" horiz-adv-x="372" 
d="M20 270h332v-41h-332v41z" />
    <glyph glyph-name="emdash" unicode="&#x2014;" horiz-adv-x="1000" 
d="M0 270h1000v-41h-1000v41z" />
    <glyph glyph-name="quoteleft" unicode="&#x2018;" horiz-adv-x="232" 
d="M116 537h34v-96h-93v96l57 153h43z" />
    <glyph glyph-name="quoteright" unicode="&#x2019;" horiz-adv-x="232" 
d="M171 690v-96l-57 -153h-43l41 153h-34v96h93z" />
    <glyph glyph-name="quotesinglbase" unicode="&#x201a;" horiz-adv-x="261" 
d="M163 96v-96l-57 -153h-43l41 153h-34v96h93z" />
    <glyph glyph-name="quotedblleft" unicode="&#x201c;" horiz-adv-x="410" 
d="M294 537h34v-96h-93v96l57 153h43zM116 537h34v-96h-93v96l57 153h43z" />
    <glyph glyph-name="quotedblright" unicode="&#x201d;" horiz-adv-x="422" 
d="M171 690v-96l-57 -153h-43l41 153h-34v96h93zM361 690v-96l-57 -153h-43l41 153h-34v96h93z" />
    <glyph glyph-name="quotedblbase" unicode="&#x201e;" horiz-adv-x="451" 
d="M163 96v-96l-57 -153h-43l41 153h-34v96h93zM353 96v-96l-57 -153h-43l41 153h-34v96h93z" />
    <glyph glyph-name="dagger" unicode="&#x2020;" horiz-adv-x="371" 
d="M162 426h-108v46h108v218h47v-218h108v-46h-108v-526h-47v526z" />
    <glyph glyph-name="daggerdbl" unicode="&#x2021;" horiz-adv-x="371" 
d="M162 118h-108v46h108v262h-108v46h108v218h47v-218h108v-46h-108v-262h108v-46h-108v-218h-47v218z" />
    <glyph glyph-name="bullet" unicode="&#x2022;" horiz-adv-x="348" 
d="M105 228c-21.333 12.667 -38.166 29.667 -50.499 51s-18.5 44.333 -18.5 69s6.16699 47.667 18.5 69s29.166 38.166 50.499 50.499s44.333 18.5 69 18.5s47.667 -6.16699 69 -18.5s38.166 -29.166 50.499 -50.499s18.5 -44.333 18.5 -69s-6.16699 -47.667 -18.5 -69
s-29.166 -38.333 -50.499 -51s-44.333 -19 -69 -19s-47.667 6.33301 -69 19z" />
    <glyph glyph-name="twodotenleader" unicode="&#x2025;" horiz-adv-x="404" 
d="M56 86h92v-86h-92v86zM258 86h92v-86h-92v86z" />
    <glyph glyph-name="ellipsis" unicode="&#x2026;" horiz-adv-x="779" 
d="M349 96h93v-96h-93v96zM61 96h93v-96h-93v96zM637 96h93v-96h-93v96z" />
    <glyph glyph-name="perthousand" unicode="&#x2030;" horiz-adv-x="996" 
d="M59 439.5c-19.333 31.667 -29.001 67.167 -29.001 106.5s9.5 75 28.5 107s49.167 48 90.5 48c38.667 0 68.834 -15.5 90.501 -46.5s32.5 -67.167 32.5 -108.5s-10.5 -77.333 -31.5 -108s-50.5 -46 -88.5 -46c-42.667 0 -73.667 15.833 -93 47.5zM500.999 689h65
l-368 -688h-66zM198.999 474c11.333 21.333 17.002 45.666 17.002 72.999c0 26.667 -5.66699 50.167 -17 70.5s-28 30.5 -50 30.5c-21.333 0 -37.5 -10.167 -48.5 -30.5s-16.5 -44.166 -16.5 -71.499s5.66699 -51.5 17 -72.5s27.666 -31.5 48.999 -31.5
s37.666 10.667 48.999 32zM463.001 48.5c-19.333 31.667 -29.001 66.832 -29.001 105.499c0 39.333 9.5 75 28.5 107s49.167 48 90.5 48c38.667 0 68.834 -15.5 90.501 -46.5s32.5 -67.167 32.5 -108.5s-10.5 -77.166 -31.5 -107.499s-50.5 -45.5 -88.5 -45.5
c-42.667 0 -73.667 15.833 -93 47.5zM754.5 48.498c-19.667 31.667 -29.5 66.832 -29.5 105.499c0 39.333 9.5 75 28.5 107s49.167 48 90.5 48c39.333 0 69.5 -15.333 90.5 -46s31.5 -67 31.5 -109c0 -41.333 -10.167 -77.166 -30.5 -107.499s-49.833 -45.5 -88.5 -45.5
c-42 0 -72.833 15.833 -92.5 47.5zM603.5 83.4961c11 21 16.5 44.834 16.5 71.501c0 28 -5.66699 52.167 -17 72.5s-28 30.5 -50 30.5c-21.333 0 -37.5 -10.5 -48.5 -31.5s-16.5 -45.167 -16.5 -72.5c0 -26.667 5.66699 -50.334 17 -71.001s28 -31 50 -31
c21.333 0 37.5 10.5 48.5 31.5zM894.5 83.4971c11 21 16.499 44.834 16.499 71.501c0 27.333 -5.66699 51.333 -17 72s-28 31 -50 31c-21.333 0 -37.666 -10.5 -48.999 -31.5s-17 -45.167 -17 -72.5c0 -26.667 5.66699 -50.334 17 -71.001s28 -31 50 -31
s38.5 10.5 49.5 31.5z" />
    <glyph glyph-name="guilsinglleft" unicode="&#x2039;" horiz-adv-x="272" 
d="M50 249l173 157v-73l-96 -84l96 -83v-73z" />
    <glyph glyph-name="guilsinglright" unicode="&#x203a;" horiz-adv-x="272" 
d="M50 166l96 83l-96 84v73l173 -157l-173 -156v73z" />
    <glyph glyph-name="fraction" unicode="&#x2044;" horiz-adv-x="115" 
d="M208 690h63l-362 -690h-64z" />
    <glyph glyph-name="Euro" unicode="&#x20ac;" horiz-adv-x="640" 
d="M610 74c-50.667 -56 -119.329 -84.001 -205.996 -84.001c-80 0 -144.667 23.333 -194 70s-81.333 109 -96 187h-119l24 49h88c-1.33301 20 -2 35.667 -2 47c0 10.667 0.666992 24.667 2 42l-130 1l24 49h112c14 79.333 45.667 143.5 95 192.5s114.666 73.5 195.999 73.5
c70 0 129 -20 177 -60l-19 -54c-47.333 41.333 -100.333 62 -159 62c-60.667 0 -109.834 -19.833 -147.501 -59.5s-62.834 -91.167 -75.501 -154.5h321l-24 -51l-304 1c-1.33301 -20 -2 -35.667 -2 -47c0 -9.33301 0.666992 -23.333 2 -42h269l-20 -49h-242
c12.667 -60.667 37.667 -109.167 75 -145.5s88.333 -54.5 153 -54.5c31.333 0 61.166 4.83301 89.499 14.5s52.5 24.834 72.5 45.501z" />
    <glyph glyph-name="trademark" unicode="&#x2122;" horiz-adv-x="570" 
d="M6 690h212v-40h-85v-222h-42v222h-85v40zM510 690v-262h-42v186l-62 -186h-40l-64 190v-190h-42v262h56l69 -219l72 219h53z" />
    <glyph glyph-name="uni2126" unicode="&#x2126;" horiz-adv-x="713" 
d="M40 56l176.999 0.00195312c-52.667 27.333 -95 67.166 -127 119.499s-48 110.833 -48 175.5c0 60.667 14 116.667 42 168s66.167 92.166 114.5 122.499s101.166 45.5 158.499 45.5c58 0 111 -15.167 159 -45.5s85.833 -71.333 113.5 -123s41.5 -107.834 41.5 -168.501
c0 -63.333 -15 -121.333 -45 -174s-70.333 -92 -121 -118h168v-58h-240v59c35.333 11.333 66.333 32 93 62s47.334 65.667 62.001 107s22 83.666 22 126.999c0 55.333 -11.5 103.833 -34.5 145.5s-53.833 73.667 -92.5 96s-80.667 33.5 -126 33.5
c-46 0 -88.5 -11.667 -127.5 -35s-69.833 -55.666 -92.5 -96.999s-34 -87.666 -34 -138.999c0 -62 16.333 -121 49 -177s75.334 -97 128.001 -123v-59h-240v56z" />
    <glyph glyph-name="partialdiff" unicode="&#x2202;" horiz-adv-x="595" 
d="M103.5 53c-36.333 39.333 -54.5029 91.668 -54.5029 157.001c0 53.333 11.833 102.5 35.5 147.5s56.167 80.667 97.5 107s87 39.5 137 39.5c32 0 59 -5.66699 81 -17s40.667 -28.333 56 -51c-12 134 -66.333 201 -163 201c-31.333 0 -56.666 -7 -75.999 -21l-43 45
c34.667 24.667 76.667 37 126 37c74.667 0 130.334 -28.833 167.001 -86.5s55 -136.167 55 -235.5c0 -76 -10.5 -142.833 -31.5 -200.5s-51.667 -102.334 -92 -134.001s-88.833 -47.5 -145.5 -47.5c-63.333 0 -113.166 19.667 -149.499 59zM355.997 86.502
c29.333 22.333 51.8311 51.6699 67.498 88.0029s23.5 75.166 23.5 116.499c0 48 -11.167 85.833 -33.5 113.5s-54.833 41.5 -97.5 41.5c-39.333 0 -74.166 -11.833 -104.499 -35.5s-53.666 -53.834 -69.999 -90.501s-24.5 -74.334 -24.5 -113.001
c0 -46 11.833 -83.167 35.5 -111.5s57.5 -42.5 101.5 -42.5c38.667 0 72.667 11.167 102 33.5z" />
    <glyph glyph-name="uni2206" unicode="&#x2206;" horiz-adv-x="533" 
d="M268 689l261 -689h-523zM445 57l-177 467l-178 -467h355z" />
    <glyph glyph-name="product" unicode="&#x220f;" horiz-adv-x="663" 
d="M140 633h-40v57h463v-57h-40v-633h-57v633h-269v-633h-57v633z" />
    <glyph glyph-name="summation" unicode="&#x2211;" horiz-adv-x="555" 
d="M35 27l285 318l-285 319v26h485v-57h-378l260 -288l-260 -288h378v-57h-485v27z" />
    <glyph glyph-name="minus" unicode="&#x2212;" horiz-adv-x="559" 
d="M96 282h367v-59h-367v59z" />
    <glyph glyph-name="radical" unicode="&#x221a;" horiz-adv-x="525" 
d="M97 286h-72v56h112l85 -267l230 617l53 -23l-286 -747z" />
    <glyph glyph-name="infinity" unicode="&#x221e;" horiz-adv-x="729" 
d="M85 206c-26 26 -39 60.333 -39 103s13 77 39 103s58.333 39 97 39c28.667 0 58.834 -9 90.501 -27s62.167 -43.667 91.5 -77c29.333 33.333 59.833 59 91.5 77s61.834 27 90.501 27c38.667 0 71.167 -13 97.5 -39s39.5 -60.333 39.5 -103s-13.167 -77 -39.5 -103
s-58.833 -39 -97.5 -39c-28.667 0 -58.834 9 -90.501 27s-62.167 43.667 -91.5 77c-29.333 -33.333 -59.833 -59 -91.5 -77s-61.834 -27 -90.501 -27c-38.667 0 -71 13 -97 39zM254 241c24.667 16 50 38.667 76 68c-26 29.333 -51.333 52 -76 68s-47.667 24 -69 24
c-25.333 0 -46.333 -8.16699 -63 -24.5s-25 -38.833 -25 -67.5s8.33301 -51.167 25 -67.5s37.667 -24.5 63 -24.5c21.333 0 44.333 8 69 24zM607 241.5c16.667 16.333 25 38.833 25 67.5s-8.33301 51.167 -25 67.5s-37.667 24.5 -63 24.5c-21.333 0 -44.5 -8 -69.5 -24
s-50.5 -38.667 -76.5 -68c26 -29.333 51.5 -52 76.5 -68s48.167 -24 69.5 -24c25.333 0 46.333 8.16699 63 24.5z" />
    <glyph glyph-name="integral" unicode="&#x222b;" horiz-adv-x="417" 
d="M12 -166c59.333 0 102.832 12.833 130.499 38.5s41.5 66.5 41.5 122.5v573c0 26.667 5.66699 50.5 17 71.5s26.5 37.5 45.5 49.5s39.833 18 62.5 18c32.667 0 64.667 -12 96 -36l-38 -45c-16.667 16 -36 24 -58 24c-19.333 0 -35.666 -7 -48.999 -21s-20 -33.667 -20 -59
v-572c0 -72.667 -20 -127.667 -60 -165s-96 -56 -168 -56v57z" />
    <glyph glyph-name="approxequal" unicode="&#x2248;" horiz-adv-x="455" 
d="M273.5 86c-13.667 8 -28.834 19.666 -45.501 34.999c-14 12.667 -25.833 22 -35.5 28s-20.5 9 -32.5 9c-31.333 0 -46.333 -23.667 -45 -71h-49c0 36 8 65 24 87s39 33 69 33c24 0 43.5 -4.16699 58.5 -12.5s31.167 -20.5 48.5 -36.5
c12 -11.333 22.333 -19.666 31 -24.999s18.334 -8 29.001 -8c18.667 0 31.667 6.66699 39 20s11 33 11 59h53c0 -41.333 -9.33301 -73.333 -28 -96s-44.667 -34 -78 -34c-19.333 0 -35.833 4 -49.5 12zM273.5 304.999c-13.667 8 -28.834 19.666 -45.501 34.999
c-14 12.667 -25.833 22 -35.5 28s-20.5 9 -32.5 9c-31.333 0 -46.333 -23.667 -45 -71h-49c0 36 8 65 24 87s39 33 69 33c24 0 43.5 -4.16699 58.5 -12.5s31.167 -20.5 48.5 -36.5c12 -11.333 22.333 -19.666 31 -24.999s18.334 -8 29.001 -8c18.667 0 31.667 6.66699 39 20
s11 33 11 59h53c0 -41.333 -9.33301 -73.333 -28 -96s-44.667 -34 -78 -34c-19.333 0 -35.833 4 -49.5 12z" />
    <glyph glyph-name="notequal" unicode="&#x2260;" horiz-adv-x="581" 
d="M383 375h125v-58h-155l-58 -108h213v-58h-243l-123 -231h-69l122 231h-131v58h162l57 108h-219v58h250l124 235h70z" />
    <glyph glyph-name="lessequal" unicode="&#x2264;" horiz-adv-x="574" 
d="M56 337l428 243v-60l-326 -183l326 -180v-63zM45 0v47h439v-47h-439z" />
    <glyph glyph-name="greaterequal" unicode="&#x2265;" horiz-adv-x="564" 
d="M80 157l326 180l-326 183v60l428 -243l-428 -243v63zM80 47h439v-47h-439v47z" />
    <glyph glyph-name="lozenge" unicode="&#x25ca;" horiz-adv-x="507" 
d="M40 350l176 350h75l176 -350l-176 -350h-75zM398 350l-144 286l-145 -286l145 -286z" />
    <glyph glyph-name="dblgrave" unicode="&#xf6d6;" horiz-adv-x="365" 
d="M14 690h88l103 -133h-80zM165 690h88l103 -133h-80z" />
    <glyph glyph-name="i.loclTRK" horiz-adv-x="225" 
d="M82 488h61v-488h-61v488zM77 690h69v-90h-69v90z" />
    <glyph glyph-name="f_t" horiz-adv-x="575" 
d="M415 435v-292c0 -34 5.66699 -57.667 17 -71s31.333 -20 60 -20h44v-52h-55c-44 0 -76.333 10.5 -97 31.5s-31 54.167 -31 99.5v304h-187v-435h-63v435h-89v53h89v83c0 36.667 13 65.667 39 87s56.333 32 91 32h43v-54h-42c-22 0 -38.833 -5.83301 -50.5 -17.5
s-17.5 -26.167 -17.5 -43.5v-87h152c11.333 0 20 3 26 9s9 14.333 9 25v118h62v-152h135v-53h-135z" />
    <glyph glyph-name="t_t" horiz-adv-x="580" 
d="M420 435v-292c0 -34 5.66699 -57.667 17 -71s31.333 -20 60 -20h44v-52h-55c-44 0 -76.333 10.5 -97 31.5s-31 54.167 -31 99.5v304h-204v-292c0 -34 5.66699 -57.667 17 -71s31.333 -20 60 -20h44v-52h-55c-44 0 -76.333 10.5 -97 31.5s-31 54.167 -31 99.5v304h-75v53
h40c11.333 0 20 3 26 9s9 14.333 9 25v118h62v-152h169c11.333 0 20 3 26 9s9 14.333 9 25v118h62v-152h135v-53h-135z" />
    <glyph glyph-name="horn" horiz-adv-x="170" 
d="M94 690h89l-105 -202h-42z" />
    <glyph glyph-name="commaturnedabove" horiz-adv-x="65" 
d="M139 563h-89l105 132h42z" />
    <glyph glyph-name="softdash" horiz-adv-x="415" 
d="M52 273h312v-47h-312v47z" />
    <glyph glyph-name="HankenDesign" horiz-adv-x="906" 
d="M263.5 21c-57.667 34 -103.5 79.833 -137.5 137.5s-51 120.834 -51 189.501s17 131.834 51 189.501s79.833 103.5 137.5 137.5s120.834 51 189.501 51s131.834 -17 189.501 -51s103.5 -79.833 137.5 -137.5s51 -120.834 51 -189.501s-17 -131.834 -51 -189.501
s-79.833 -103.5 -137.5 -137.5s-120.834 -51 -189.501 -51s-131.834 17 -189.501 51zM625 51c52.667 30.667 94.334 72.334 125.001 125.001s46 110 46 172s-15.333 119.333 -46 172s-72.334 94.334 -125.001 125.001s-110 46 -172 46s-119.333 -15.333 -172 -46
s-94.334 -72.334 -125.001 -125.001s-46 -110 -46 -172s15.333 -119.333 46 -172s72.334 -94.334 125.001 -125.001s110 -46 172 -46s119.333 15.333 172 46zM244 205c-3.33301 3.33301 -5 7.33105 -5 11.998v262c0 4.66699 1.66699 8.83398 5 12.501s7.33301 5.5 12 5.5
c5.33301 0 9.66602 -1.66699 12.999 -5s5 -7.66602 5 -12.999v-262c0 -4.66699 -1.66699 -8.66699 -5 -12s-7.66602 -5 -12.999 -5c-4.66699 0 -8.66699 1.66699 -12 5zM441 204.998c-3.33301 3.33301 -5 7.33301 -5 12v262c0 5.33301 1.66699 9.66602 5 12.999
s7.33301 5 12 5s8.66699 -1.66699 12 -5s5 -7.66602 5 -12.999v-262c0 -4.66699 -1.5 -8.66699 -4.5 -12s-7.16699 -5 -12.5 -5c-4.66699 0 -8.66699 1.66699 -12 5zM638 204.998l-131.999 131.001c-3.33301 3.33301 -5 7.33301 -5 12s1.66699 8.66699 5 12l132 131
c3.33301 4 7 6 11 6c4.66699 0 8.83398 -2 12.501 -6s5.5 -8.33301 5.5 -13c0 -4 -1.66699 -7.66699 -5 -11l-119 -119l119 -119c3.33301 -3.33301 5 -7 5 -11c0 -4.66699 -1.83301 -8.83398 -5.5 -12.501s-7.83398 -5.5 -12.501 -5.5s-8.33398 1.66699 -11.001 5z
M310.001 335.999c-3.33301 3.33301 -5 7.33301 -5 12c0 5.33301 1.66699 9.5 5 12.5s7.33301 4.5 12 4.5h65c5.33301 0 9.66602 -1.66699 12.999 -5s5 -7.33301 5 -12s-1.66699 -8.66699 -5 -12s-7.66602 -5 -12.999 -5h-65c-4.66699 0 -8.66699 1.66699 -12 5z" />
    </font>
</defs>
</svg>
