<?xml version="1.0" standalone="no"?>
<!DOCTYPE svg PUBLIC "-//W3C//DTD SVG 1.1//EN" "http://www.w3.org/Graphics/SVG/1.1/DTD/svg11.dtd" >
<svg>
<metadata>
Created by FontForge 20090914 at Tue Jul 11 16:50:47 2017
 By www-data
Copyright (c)2015, Hanken Sans designed by Alfredo Marco Pradil (ammpradil@gmail.com). Hanken Sans is a trademark of Alfredo Marco Pradil.
</metadata>
<defs>
<font id="HankenSans-ExtraBold" horiz-adv-x="0" >
  <font-face 
    font-family="Hanken Sans ExtraBold"
    font-weight="800"
    font-stretch="normal"
    units-per-em="1000"
    panose-1="0 0 9 0 0 0 0 0 0 0"
    ascent="800"
    descent="-200"
    x-height="488"
    cap-height="690"
    bbox="-650 -244 1108 1092"
    underline-thickness="40"
    underline-position="-60"
    unicode-range="U+0020-U+FB02"
  />
<missing-glyph horiz-adv-x="416" 
d="M8 488h400v-488h-400v488zM358 50v388h-300v-388h300z" />
    <glyph glyph-name="arrowleft" unicode="&#x3c;&#x2d;" horiz-adv-x="1087" 
d="M1084 239h-737l187 -100v-137l-551 310l551 305v-137l-186 -99h736v-142z" />
    <glyph glyph-name="arrowright" unicode="&#x2d;&#x3e;" horiz-adv-x="1088" 
d="M555 139l187 100h-737v142h736l-186 99v137l551 -305l-551 -310v137z" />
    <glyph glyph-name="fi" unicode="fi" horiz-adv-x="616" 
d="M564 0h-168v383h-137v-383h-167v383h-89v105h91v33c0 56 13.333 98.167 40 126.5s70.667 42.5 132 42.5h74v-126h-57c-16 0 -24 -16 -24 -48v-28h305v-488zM565 690v-135h-170v135h170z" />
    <glyph glyph-name="fl" unicode="fl" horiz-adv-x="644" 
d="M92 383h-89v105h91v33c0 56 13.333 98.167 40 126.5s70.667 42.5 132 42.5h84v-126h-67c-16 0 -24 -16 -24 -48v-28h91v-105h-91v-383h-167v383zM421 690h168v-690h-168v690z" />
    <glyph glyph-name="f_f" unicode="ff" horiz-adv-x="671" 
d="M574.5 554.5c-3.66699 -5.66699 -5.49805 -13.832 -5.49805 -24.499v-42h90v-105h-90v-383h-168v383h-141v-383h-168v383h-89v105h91v41c0 53.333 13.667 93.5 41 120.5s70 40.5 128 40.5h87v-127h-63c-10.667 0 -17.834 -2.83301 -21.501 -8.5
s-5.5 -13.834 -5.5 -24.501v-42h143v41c0 53.333 13.667 93.5 41 120.5s70 40.5 128 40.5h87v-127h-63c-10.667 0 -17.834 -2.83301 -21.501 -8.5z" />
    <glyph glyph-name="f_f_i" unicode="ffi" horiz-adv-x="920" 
d="M868 0l-167.998 0.000976562v383h-137v-383h-167v383h-136v-383h-168v383h-89v105h91v41c0 53.333 13.667 93.5 41 120.5s70 40.5 128 40.5h87v-127h-63c-10.667 0 -17.834 -2.83301 -21.501 -8.5s-5.5 -13.834 -5.5 -24.501v-42h138v33c0 56 13.5 98.167 40.5 126.5
s71.167 42.5 132.5 42.5h70v-126h-45c-12.667 0 -21.334 -2.5 -26.001 -7.5s-7 -13.833 -7 -26.5v-42h305v-488zM869.002 690.001v-135h-170v135h170z" />
    <glyph glyph-name="f_f_l" unicode="ffl" horiz-adv-x="939" 
d="M441.5 647.5c27 28.333 71.168 42.501 132.501 42.501h84v-126h-67c-8 0 -14 -2.33301 -18 -7s-6 -12.667 -6 -24v-45h91v-105h-91v-383h-167v383h-140v-383h-168v383h-89v105h91v41c0 53.333 13.667 93.5 41 120.5s70 40.5 128 40.5h87v-127h-63
c-10.667 0 -17.834 -2.83301 -21.501 -8.5s-5.5 -13.834 -5.5 -24.501v-42h141v33c0 56 13.5 98.167 40.5 126.5zM883.001 690.001v-690h-168v690h168z" />
    <glyph glyph-name=".notdef" horiz-adv-x="416" 
d="M8 488h400v-488h-400v488zM358 50v388h-300v-388h300z" />
    <glyph glyph-name="space" unicode=" " horiz-adv-x="229" 
 />
    <glyph glyph-name="exclam" unicode="!" horiz-adv-x="302" 
d="M75 690h152l-14 -442h-124zM69 164h164v-164h-164v164z" />
    <glyph glyph-name="quotedbl" unicode="&#x22;" horiz-adv-x="431" 
d="M49 690h126v-286h-126v286zM249 690h131v-286h-131v286z" />
    <glyph glyph-name="numbersign" unicode="#" horiz-adv-x="654" 
d="M132 193h-97v106h120l20 101h-102v103h123l39 187h110l-38 -180h105l38 180h109l-37 -185h97v-105h-119l-19 -101h101v-104h-123l-40 -195h-111l40 189h-105l-39 -189h-111zM370 299l20 101h-105l-20 -101h105z" />
    <glyph glyph-name="dollar" unicode="$" horiz-adv-x="558" 
d="M486.5 67c-38.333 -40 -89.833 -63.999 -154.5 -71.999v-74h-112v77c-42 7.33301 -78.833 21.833 -110.5 43.5s-56 48.167 -73 79.5s-25.5 64.666 -25.5 99.999h170c2 -23.333 13.333 -42.166 34 -56.499s45 -21.5 73 -21.5c28.667 0 51 6.16699 67 18.5
s24 28.166 24 47.499c0 15.333 -5.83301 28.333 -17.5 39s-26.167 19.334 -43.5 26.001s-42.333 15 -75 25c-42.667 13.333 -77.834 26.5 -105.501 39.5s-51.334 32.5 -71.001 58.5s-29.5 60 -29.5 102c0 54.667 16.833 99 50.5 133s77.834 55.333 132.501 64v74h112v-75
c63.333 -12.667 121 -46.334 173 -101.001l-94 -102c-22 22 -45.667 38.833 -71 50.5s-48.666 17.5 -69.999 17.5c-20 0 -36.167 -4 -48.5 -12s-18.5 -18.333 -18.5 -31c0 -16 8.5 -28.333 25.5 -37s46.167 -19.667 87.5 -33c45.333 -14 83.5 -28.5 114.5 -43.5
s57.667 -37.5 80 -67.5s33.5 -68.667 33.5 -116c0 -62 -19.167 -113 -57.5 -153z" />
    <glyph glyph-name="percent" unicode="%" horiz-adv-x="790" 
d="M522 729h142l-403 -751h-141zM104.5 387.5c-23 19 -39.3359 41.333 -49.0029 67s-14.5 50.167 -14.5 73.5c0 24.667 4.66699 50.334 14 77.001s25.333 49.334 48 68.001s52.667 28 90 28c34.667 0 63.334 -8.83301 86.001 -26.5s39.334 -39.834 50.001 -66.501
s16 -53.667 16 -81c0 -26.667 -5.16699 -52.834 -15.5 -78.501s-26.666 -47 -48.999 -64s-50.5 -25.5 -84.5 -25.5c-38 0 -68.5 9.5 -91.5 28.5zM216.497 489.5c7 9.66699 10.5 22.5 10.5 38.5c0 18.667 -3.5 33 -10.5 43s-14.833 15 -23.5 15c-10 0 -18.5 -5 -25.5 -15
s-10.5 -24.333 -10.5 -43c0 -17.333 3.66699 -30.5 11 -39.5s16 -13.5 26 -13.5c8 0 15.5 4.83301 22.5 14.5zM508.497 19c-23 18.667 -39.3359 41.333 -49.0029 68s-14.5 52.334 -14.5 77.001c0 25.333 4.66699 51.666 14 78.999s25.333 50.666 48 69.999s52.667 29 90 29
c34.667 0 63.334 -9 86.001 -27s39.334 -40.667 50.001 -68s16 -55 16 -83c0 -27.333 -5.16699 -54.166 -15.5 -80.499s-26.666 -48.333 -48.999 -66s-50.5 -26.5 -84.5 -26.5c-38 0 -68.5 9.33301 -91.5 28zM620.494 122.499c7 11 10.499 25.166 10.499 42.499
c0 18.667 -3.5 33.334 -10.5 44.001s-14.833 16 -23.5 16c-9.33301 0 -17.666 -5.33301 -24.999 -16s-11 -25.667 -11 -45c0 -18 3.66699 -32.167 11 -42.5s16.333 -15.5 27 -15.5c7.33301 0 14.5 5.5 21.5 16.5z" />
    <glyph glyph-name="ampersand" unicode="&#x26;" horiz-adv-x="728" 
d="M45 275c14 27.333 32.1631 49.001 54.4961 65.001s44.833 24 67.5 24c8.66699 0 15.334 -0.666992 20.001 -2l2 11c-30.667 14.667 -54.167 33 -70.5 55s-24.5 53.333 -24.5 94s10.833 74.334 32.5 101.001s49.334 46.167 83.001 58.5s68.834 18.5 105.501 18.5
c38 0 73.667 -6.5 107 -19.5s60.333 -32.833 81 -59.5s31 -60 31 -100c0 -35.333 -7.5 -65.333 -22.5 -90s-39.833 -48.334 -74.5 -71.001l-98 90c21.333 17.333 32 37 32 59c0 14 -5 26.167 -15 36.5s-23 15.5 -39 15.5s-29.167 -5 -39.5 -15s-15.5 -22 -15.5 -36
c0 -12.667 3 -23.834 9 -33.501s18 -23.5 36 -41.5l162 -159l59 84h199l-152 -190l173 -170h-224l-56 57c-21.333 -21.333 -48 -38.5 -80 -51.5s-68.667 -19.5 -110 -19.5c-45.333 0 -87.166 7.5 -125.499 22.5s-69.333 37.5 -93 67.5s-35.5 66.667 -35.5 110
c0 32 7 61.667 21 89zM226.496 145.501c15.667 -13 35.1689 -19.5 58.502 -19.5c13.333 0 27.166 3.66699 41.499 11s26.833 16.333 37.5 27l-104 108c-16.667 -6 -30.334 -14.833 -41.001 -26.5s-16 -26.5 -16 -44.5c0 -24 7.83301 -42.5 23.5 -55.5z" />
    <glyph glyph-name="quotesingle" unicode="'" horiz-adv-x="232" 
d="M49 704h134v-286h-134v286z" />
    <glyph glyph-name="parenleft" unicode="(" horiz-adv-x="324" 
d="M93 -42.5c-20 47.667 -35.833 100.834 -47.5 159.501s-17.5 116.667 -17.5 174c0 87.333 11.667 170.666 35 249.999s55 143 95 191h161c-47.333 -58.667 -83.833 -126.167 -109.5 -202.5s-38.5 -155.833 -38.5 -238.5c0 -178 49.667 -326.667 149 -446h-161
c-24 27.333 -46 64.833 -66 112.5z" />
    <glyph glyph-name="parenright" unicode=")" horiz-adv-x="324" 
d="M4 -155c99.333 119.333 149 268 149 446c0 82.667 -12.833 162.167 -38.5 238.5s-62.167 143.833 -109.5 202.5h161c40 -48 71.667 -111.667 95 -191s35 -162.666 35 -249.999c0 -57.333 -5.83301 -115.333 -17.5 -174s-27.5 -111.834 -47.5 -159.501
s-42 -85.167 -66 -112.5h-161z" />
    <glyph glyph-name="asterisk" unicode="*" horiz-adv-x="361" 
d="M53 421l78 91l-113 18l27 93l104 -45l-14 112h94l-15 -112l104 45l25 -93l-109 -18l77 -91l-74 -57l-55 104l-56 -104z" />
    <glyph glyph-name="plus" unicode="+" horiz-adv-x="643" 
d="M259 189h-188v128h188v189h126v-189h188v-128h-188v-189h-126v189z" />
    <glyph glyph-name="comma" unicode="," horiz-adv-x="279" 
d="M235 174v-174l-95 -149h-83l52 149h-71v174h197z" />
    <glyph glyph-name="hyphen" unicode="-" horiz-adv-x="371" 
d="M26 331h319v-154h-319v154z" />
    <glyph glyph-name="period" unicode="." horiz-adv-x="286" 
d="M43 174h197v-174h-197v174z" />
    <glyph glyph-name="slash" unicode="/" horiz-adv-x="615" 
d="M399 688h147l-317 -764h-148z" />
    <glyph glyph-name="zero" unicode="0" horiz-adv-x="591" 
d="M87 84.5c-48 63 -72 149.833 -72 260.5s23.5 197.667 70.5 261s115.167 95 204.5 95c92 0 162.5 -31.333 211.5 -94s73.5 -150 73.5 -262c0 -111.333 -24 -198.333 -72 -261s-116.667 -94 -206 -94c-92 0 -162 31.5 -210 94.5zM373 196.5c17.333 37 26 86.834 26 149.501
c0 62 -9 111.167 -27 147.5s-45.333 54.5 -82 54.5c-35.333 0 -61.666 -18.333 -78.999 -55s-26 -86 -26 -148c0 -62.667 9 -112.334 27 -149.001s45.333 -55 82 -55c35.333 0 61.666 18.5 78.999 55.5z" />
    <glyph glyph-name="one" unicode="1" horiz-adv-x="474" 
d="M199 539l-156 -103v156l159 98h166v-690h-169v539z" />
    <glyph glyph-name="two" unicode="2" horiz-adv-x="620" 
d="M579 146v-145.995h-506v88c0 47.333 9.33301 86.666 28 117.999s41.167 55.833 67.5 73.5s60.166 36.5 101.499 56.5c29.333 14.667 52.166 26.834 68.499 36.501s29.833 21.667 40.5 36s16 31.166 16 50.499c0 26.667 -7 47.667 -21 63s-33.667 23 -59 23
c-30.667 0 -54.167 -11.333 -70.5 -34s-24.166 -54.667 -23.499 -96l-167 10c0 83.333 22.5 149.833 67.5 199.5s112.5 74.5 202.5 74.5c47.333 0 89.333 -9.33301 126 -28s65 -44.667 85 -78s30 -71.333 30 -114c0 -44.667 -8.66699 -81.834 -26 -111.501
s-38.166 -52.834 -62.499 -69.501s-55.833 -34.667 -94.5 -54c-29.333 -14.667 -52.333 -27.334 -69 -38.001s-30 -23.334 -40 -38.001c-4.66699 -6 -9 -13.333 -13 -22h319z" />
    <glyph glyph-name="three" unicode="3" horiz-adv-x="548" 
d="M147 18c-39.333 18.667 -70.9971 46.832 -94.9971 84.499s-36 83.5 -36 137.5l165 7c0 -33.333 8.66699 -59.666 26 -78.999s40.333 -29 69 -29c26.667 0 48.334 7.5 65.001 22.5s25 35.167 25 60.5c0 24 -8 42.833 -24 56.5s-37 20.5 -63 20.5h-35v134h35
c16.667 0 30 5 40 15s15 24 15 42c0 18.667 -6.33301 33.334 -19 44.001s-29.667 16 -51 16c-22.667 0 -40.834 -7.66699 -54.501 -23s-20.834 -36 -21.501 -62l-163 8c0 47.333 10.667 88.166 32 122.499s49.833 60.333 85.5 78s75.167 26.5 118.5 26.5
c41.333 0 80.166 -8 116.499 -24s65.666 -39.167 87.999 -69.5s33.5 -65.5 33.5 -105.5c0 -33.333 -8.16699 -60.666 -24.5 -81.999s-37.5 -36.333 -63.5 -45v-2c32 -4.66699 60 -20.334 84 -47.001s36.667 -62.667 38 -108c0 -49.333 -12 -91 -36 -125
s-55.667 -59.5 -95 -76.5s-81.333 -25.5 -126 -25.5c-46.667 0 -89.667 9.33301 -129 28z" />
    <glyph glyph-name="four" unicode="4" horiz-adv-x="591" 
d="M540 277v-137h-73v-140h-171v140h-270v162l302 388h139v-413h73zM296 277v193l-150 -193h150z" />
    <glyph glyph-name="five" unicode="5" horiz-adv-x="592" 
d="M451.5 451c32.333 -19.333 57.999 -46.333 76.999 -81s28.5 -74 28.5 -118c0 -50 -12.167 -95 -36.5 -135s-57 -71.167 -98 -93.5s-85.833 -33.5 -134.5 -33.5c-66 0 -123.167 18.167 -171.5 54.5s-82.833 84.833 -103.5 145.5l163 47
c8.66699 -29.333 22.334 -51.333 41.001 -66s41 -22 67 -22c26.667 0 49.834 9 69.501 27s29.5 42.333 29.5 73s-9.66699 55 -29 73s-43 27 -71 27c-40 0 -71 -17 -93 -51l-162 33l68 359h430v-141h-301l-18 -107l-6 -12l3 -3c39.333 35.333 86.666 53 141.999 53
c38 0 73.167 -9.66699 105.5 -29z" />
    <glyph glyph-name="six" unicode="6" horiz-adv-x="556" 
d="M147 23c-39.333 22 -70.832 51.5 -94.499 88.5s-35.5 77.5 -35.5 121.5c0 82.667 22 163.167 66 241.5s99 150.166 165 215.499h218c-17.333 -10 -42.5 -31.5 -75.5 -64.5s-63.833 -67.833 -92.5 -104.5s-47.334 -67 -56.001 -91l5 -3c26 17.333 56.333 26 91 26
c36 0 69.5 -9 100.5 -27s55.833 -42.833 74.5 -74.5s28 -66.834 28 -105.501c0 -45.333 -11.667 -87.666 -35 -126.999s-55.333 -70.666 -96 -93.999s-85.667 -35 -135 -35c-46 0 -88.667 11 -128 33zM343.501 180.5c17.667 17 26.5 38.5 26.5 64.5
s-8.83301 47.333 -26.5 64s-40.167 25 -67.5 25c-26 0 -47.5 -8.33301 -64.5 -25s-25.5 -38 -25.5 -64s8.5 -47.5 25.5 -64.5s38.5 -25.5 64.5 -25.5c27.333 0 49.833 8.5 67.5 25.5z" />
    <glyph glyph-name="seven" unicode="7" horiz-adv-x="483" 
d="M116.5 191.5c18.333 67 46 131.499 83 193.499s82.833 114 137.5 156v8h-313v141h443v-188c-52 -49.333 -91 -102.333 -117 -159s-42.667 -111.167 -50 -163.5s-11.666 -112.166 -12.999 -179.499h-200c1.33301 60.667 11.166 124.5 29.499 191.5z" />
    <glyph glyph-name="eight" unicode="8" horiz-adv-x="577" 
d="M149.5 16.5c-39.667 17.667 -70.666 42.668 -92.999 75.001s-33.5 69.833 -33.5 112.5c0 39.333 11.167 73.5 33.5 102.5s56.5 50.833 102.5 65.5v2c-28.667 5.33301 -53 20.666 -73 45.999s-30 56.333 -30 93c0 35.333 10 67.333 30 96s47.5 51 82.5 67
s74.5 24 118.5 24c44.667 0 84.5 -8 119.5 -24s62.5 -38.333 82.5 -67s30 -60.667 30 -96c0 -32 -9.66699 -61 -29 -87s-44 -43.333 -74 -52v-2c44 -10.667 78 -31 102 -61s36 -65.667 36 -107c0 -42.667 -11.5 -80.167 -34.5 -112.5s-54.833 -57.333 -95.5 -75
s-87 -26.5 -139 -26.5c-50.667 0 -95.834 8.83301 -135.501 26.5zM336.001 458.001c13.333 11.333 20 25.667 20 43s-6.66699 31.833 -20 43.5s-30 17.5 -50 17.5s-36.667 -6 -50 -18s-20 -26.667 -20 -44c0 -16.667 6.66699 -30.667 20 -42s30 -17 50 -17
s36.667 5.66699 50 17zM356.501 159.502c18.333 15.667 27.5 36.167 27.5 61.5c0 23.333 -9.16699 42.833 -27.5 58.5s-41.5 23.5 -69.5 23.5c-28.667 0 -52.167 -7.66699 -70.5 -23s-27.5 -35 -27.5 -59c0 -25.333 9 -45.833 27 -61.5s41.667 -23.5 71 -23.5
c28 0 51.167 7.83301 69.5 23.5z" />
    <glyph glyph-name="nine" unicode="9" horiz-adv-x="555" 
d="M164.5 65c33 32.667 64 67.5 93 104.5s47.833 67.167 56.5 90.5l-5 3c-27.333 -17.333 -58 -26 -92 -26c-35.333 0 -68.5 9 -99.5 27s-55.833 42.833 -74.5 74.5s-28 66.834 -28 105.501c0 45.333 11.667 87.666 35 126.999s55.333 70.666 96 93.999s85.667 35 135 35
c45.333 0 87.833 -11 127.5 -33s71.167 -51.5 94.5 -88.5s35 -77.5 35 -121.5c0 -82 -22 -162.333 -66 -241s-98.667 -150.667 -164 -216h-218c16.667 10.667 41.5 32.334 74.5 65.001zM343.5 381c17 16.667 25.5 38 25.5 64s-8.5 47.5 -25.5 64.5s-38.167 25.5 -63.5 25.5
c-27.333 0 -50 -8.5 -68 -25.5s-27 -38.5 -27 -64.5s9 -47.333 27 -64s40.667 -25 68 -25c25.333 0 46.5 8.33301 63.5 25z" />
    <glyph glyph-name="colon" unicode=":" horiz-adv-x="279" 
d="M41 174h197v-174h-197v174zM42 517h197v-174h-197v174z" />
    <glyph glyph-name="semicolon" unicode=";" horiz-adv-x="282" 
d="M265 174v-174l-95 -149h-83l52 149h-71v174h197zM60 517h197v-174h-197v174z" />
    <glyph glyph-name="less" unicode="&#x3c;" horiz-adv-x="671" 
d="M39 329l560 283v-148l-280 -135l280 -134v-149z" />
    <glyph glyph-name="equal" unicode="=" horiz-adv-x="549" 
d="M55 440h439v-137h-439v137zM55 203h439v-137h-439v137z" />
    <glyph glyph-name="greater" unicode="&#x3e;" horiz-adv-x="698" 
d="M88 195l280 134l-280 135v148l560 -283l-560 -283v149z" />
    <glyph glyph-name="question" unicode="?" horiz-adv-x="473" 
d="M167 293c0 24.667 3.66699 44.832 11 60.499s16 27.834 26 36.501s23.667 18 41 28c21.333 12 37 23.5 47 34.5s15 27.5 15 49.5c0 20 -5.83301 35.833 -17.5 47.5s-28.5 17.5 -50.5 17.5c-29.333 0 -50 -10 -62 -30s-18 -49 -18 -87h-136c0 74 17 134.167 51 180.5
s86.333 69.5 157 69.5c58.667 0 108.5 -16 149.5 -48s61.5 -80.667 61.5 -146c0 -31.333 -4.16699 -56.5 -12.5 -75.5s-18.333 -33 -30 -42s-26.5 -18.167 -44.5 -27.5c-18.667 -9.33301 -32.5 -18.5 -41.5 -27.5s-13.5 -22.833 -13.5 -41.5v-46h-133v47zM155 163.998h158
v-164h-158v164z" />
    <glyph glyph-name="at" unicode="@" horiz-adv-x="914" 
d="M672.5 639.5c67 -39.667 120.002 -93 159.002 -160s58.5 -139.833 58.5 -218.5c0 -50 -8.16699 -98.833 -24.5 -146.5s-41.5 -87.167 -75.5 -118.5s-76.333 -47 -127 -47c-40 0 -72.5 11.167 -97.5 33.5s-37.167 57.5 -36.5 105.5c-34 -54 -81.333 -81 -142 -81
c-52.667 0 -93.167 18.667 -121.5 56s-42.5 85.666 -42.5 144.999c0 52 10.667 100.5 32 145.5s49.666 81 84.999 108s73.333 40.5 114 40.5c28 0 53 -6.66699 75 -20s36.333 -34.666 43 -63.999l14 65h103c-30 32.667 -65.5 58 -106.5 76s-84.167 27 -129.5 27
c-58 0 -111.333 -14.333 -160 -43s-87.334 -68.667 -116.001 -120s-43 -109.666 -43 -174.999c0 -58.667 11.833 -112.667 35.5 -162s59.334 -88.833 107.001 -118.5s105.5 -44.5 173.5 -44.5c21.333 0 44.333 2.33301 69 7l32 -104
c-30.667 -8.66699 -63.334 -13 -98.001 -13c-81.333 0 -154.5 17.667 -219.5 53s-116.167 85.666 -153.5 150.999s-56 141 -56 227c0 87.333 18.833 165.5 56.5 234.5s89 123 154 162s137.167 58.5 216.5 58.5c80.667 0 154.5 -19.833 221.5 -59.5zM722.502 76.5
c16.333 13 29.833 33.999 40.5 62.999s16 65.833 16 110.5c0 42.667 -6.83301 82.834 -20.5 120.501s-33.167 71.5 -58.5 101.5l-72 -335c-2.66699 -10 -4 -20 -4 -30c0 -17.333 4.5 -30 13.5 -38s21.167 -12 36.5 -12c16 0 32.167 6.5 48.5 19.5zM479.002 150.499
c19.333 16.333 34.334 37.502 45.001 63.502s16 53 16 81c0 32 -6.83301 56.333 -20.5 73s-32.834 25 -57.501 25c-24 0 -45.667 -7.83301 -65 -23.5s-34.5 -36.334 -45.5 -62.001s-16.5 -52.834 -16.5 -81.501c0 -31.333 7.16699 -55.833 21.5 -73.5s33.5 -26.5 57.5 -26.5
s45.667 8.16699 65 24.5z" />
    <glyph glyph-name="A" unicode="A" horiz-adv-x="707" 
d="M475 153h-241l-50 -153h-186l243 690h224l244 -690h-185zM430 291l-60.001 188c-3.33301 8 -6.16602 16.5 -8.49902 25.5s-3.5 18.167 -3.5 27.5h-5c0.666992 -12 -1 -23.167 -5 -33.5s-6.33301 -16.833 -7 -19.5l-62 -188h151z" />
    <glyph glyph-name="B" unicode="B" horiz-adv-x="646" 
d="M67 690h296c72.667 0 128.5 -16.5 167.5 -49.5s58.5 -79.833 58.5 -140.5c0 -32.667 -8.33301 -61 -25 -85s-38.667 -41.333 -66 -52v-4c38.667 -7.33301 69.167 -25 91.5 -53s33.5 -63.333 33.5 -106c0 -64 -20.5 -113.333 -61.5 -148s-98.833 -52 -173.5 -52h-321v690z
M364 416c19.333 0 35.5 5.83301 48.5 17.5s19.5 26.5 19.5 44.5s-6.16699 32.333 -18.5 43s-28.5 16 -48.5 16h-125v-121h124zM372 152c26.667 0 47 6.5 61 19.5s21 30.5 21 52.5c0 20.667 -7.33301 37 -22 49s-34.667 18 -60 18h-132v-139h132z" />
    <glyph glyph-name="C" unicode="C" horiz-adv-x="644" 
d="M156 40.5c-46.667 33.667 -80.3369 77.3301 -101.004 130.997s-31 111.5 -31 173.5c0 62.667 10.333 120.834 31 174.501s54.334 97.334 101.001 131.001s107 50.5 181 50.5c75.333 0 137.333 -17.5 186 -52.5s85.334 -88.5 110.001 -160.5l-166 -62
c-7.33301 40.667 -22.666 71.334 -45.999 92.001s-51.666 31 -84.999 31c-43.333 0 -77.666 -17.5 -102.999 -52.5s-38 -84.5 -38 -148.5c0 -63.333 12.833 -113.5 38.5 -150.5s58.834 -55.5 99.501 -55.5c33.333 0 61.666 10.667 84.999 32s40.666 53.333 51.999 96
l165 -66c-47.333 -142.667 -147 -214 -299 -214c-73.333 0 -133.333 16.833 -180 50.5z" />
    <glyph glyph-name="D" unicode="D" horiz-adv-x="684" 
d="M67 690h221.999c121.333 0 213.5 -30.333 276.5 -91s94.5 -145 94.5 -253c0 -111.333 -31.667 -196.833 -95 -256.5s-155.666 -89.5 -276.999 -89.5h-221v690zM275.999 152c71.333 0 124.833 16.5 160.5 49.5s53.5 81.5 53.5 145.5c0 62 -16.833 109.167 -50.5 141.5
s-84.5 48.5 -152.5 48.5h-48v-385h37z" />
    <glyph glyph-name="E" unicode="E" horiz-adv-x="583" 
d="M67 690h473v-153h-301v-114h285v-154h-285v-115h301v-154h-473v690z" />
    <glyph glyph-name="F" unicode="F" horiz-adv-x="566" 
d="M67 690h492v-153h-320v-114h277v-154h-277v-269h-172v690z" />
    <glyph glyph-name="G" unicode="G" horiz-adv-x="716" 
d="M664 397l-0.00195312 -397.002h-131l-6 90c-20 -34.667 -47.5 -60 -82.5 -76s-74.167 -24 -117.5 -24c-62 0 -116 16.667 -162 50s-81 77.333 -105 132s-36 113.667 -36 177s12.667 121.833 38 175.5s62.5 96.5 111.5 128.5s108.167 48 177.5 48
c52 0 99.833 -9 143.5 -27s80 -42.167 109 -72.5s48.5 -63.5 58.5 -99.5l-145 -57c-10.667 36.667 -29.167 64.834 -55.5 84.501s-59.166 29.5 -98.499 29.5c-57.333 0 -99.666 -20 -126.999 -60s-41 -91 -41 -153s13.667 -112 41 -150s70 -57 128 -57
c32 0 59.333 5.83301 82 17.5s39.5 26.834 50.5 45.501s16.167 38 15.5 58h-145v137h297z" />
    <glyph glyph-name="H" unicode="H" horiz-adv-x="732" 
d="M67 688h172v-266h254v266h172v-688h-172v269h-254v-269h-172v688z" />
    <glyph glyph-name="I" unicode="I" horiz-adv-x="306" 
d="M67 690h172v-690h-172v690z" />
    <glyph glyph-name="J" unicode="J" horiz-adv-x="391" 
d="M89 150c28 0 48.667 6.33301 62 19s20 38 20 76v443h173v-490c0 -63.333 -19.833 -113.833 -59.5 -151.5s-95.167 -56.5 -166.5 -56.5c-49.333 0 -85 3.33301 -107 10v158c36 -5.33301 62 -8 78 -8z" />
    <glyph glyph-name="K" unicode="K" horiz-adv-x="736" 
d="M736 0h-233l-240 295h-24v-295h-172v688h172v-312l266 312h219l-299 -332z" />
    <glyph glyph-name="L" unicode="L" horiz-adv-x="540" 
d="M67 690h172v-537h295v-153h-467v690z" />
    <glyph glyph-name="M" unicode="M" horiz-adv-x="959" 
d="M67 688l245 0.000976562l166 -420l167 420h248v-688h-173v479h-6c-2 -12.667 -7.33301 -30.334 -16 -53.001l-146 -366h-148l-145 362c-6.66699 16 -11.667 35 -15 57h-7v-479h-170v688z" />
    <glyph glyph-name="N" unicode="N" horiz-adv-x="766" 
d="M67 690h174l250 -360c6.66699 -10 13.334 -21.833 20.001 -35.5s10.667 -25.5 12 -35.5h4v431h173v-690h-176l-250 363c-18.667 25.333 -28.334 49.333 -29.001 72h-6v-435h-172v690z" />
    <glyph glyph-name="O" unicode="O" horiz-adv-x="724" 
d="M181.5 33.5c-50.333 29 -89.166 70.167 -116.499 123.5s-41 116 -41 188s13.667 134.667 41 188s66.166 94.5 116.499 123.5s109.5 43.5 177.5 43.5c69.333 0 129.666 -14.5 180.999 -43.5s90.833 -70.167 118.5 -123.5s41.5 -116 41.5 -188s-13.833 -134.667 -41.5 -188
s-67.167 -94.5 -118.5 -123.5s-111.666 -43.5 -180.999 -43.5c-68 0 -127.167 14.5 -177.5 43.5zM470.5 196c27.667 36.667 41.5 86.332 41.5 148.999s-13.833 112.334 -41.5 149.001s-64.834 55 -111.501 55c-44 0 -79.333 -18.5 -106 -55.5s-40 -86.5 -40 -148.5
s13.333 -111.5 40 -148.5s62 -55.5 106 -55.5c46.667 0 83.834 18.333 111.501 55z" />
    <glyph glyph-name="P" unicode="P" horiz-adv-x="617" 
d="M67 690l294.001 -0.000976562c50 0 93 -9.83301 129 -29.5s63.5 -47.167 82.5 -82.5s28.5 -76 28.5 -122c0 -71.333 -21.333 -127.166 -64 -167.499s-101.334 -60.5 -176.001 -60.5h-122v-228h-172v690zM346.001 379.999c26 0 46.5 7.66602 61.5 22.999s22.5 35 22.5 59
c0 22.667 -7.5 40.834 -22.5 54.501s-35.5 20.5 -61.5 20.5h-107v-157h107z" />
    <glyph glyph-name="Q" unicode="Q" horiz-adv-x="741" 
d="M625 -65l-92.998 94.001c-50.667 -26 -108.334 -39 -173.001 -39c-68 0 -127.167 14.5 -177.5 43.5s-89.166 70.167 -116.499 123.5s-41 116 -41 188s13.667 134.667 41 188s66.166 94.5 116.499 123.5s109.5 43.5 177.5 43.5c69.333 0 129.666 -14.5 180.999 -43.5
s90.833 -70.167 118.5 -123.5s41.5 -116 41.5 -188c0 -92.667 -22.667 -169.334 -68 -230.001l86 -85zM412.002 151.001l-64.999 65.999l90 92l61 -60c9.33301 29.333 14 61.333 14 96c0 62.667 -13.833 112.334 -41.5 149.001s-64.834 55 -111.501 55
c-44 0 -79.333 -18.5 -106 -55.5s-40 -86.5 -40 -148.5s13.333 -111.5 40 -148.5s62 -55.5 106 -55.5c20 0 37.667 3.33301 53 10z" />
    <glyph glyph-name="R" unicode="R" horiz-adv-x="640" 
d="M67 690h302.999c44.667 0 84.834 -8.33301 120.501 -25s63.5 -40.5 83.5 -71.5s30 -67.833 30 -110.5c0 -86.667 -40.333 -149.667 -121 -189l161 -295h-200l-129 270h-76v-270h-172v691zM371.999 414c20 1.33301 35.833 7.49902 47.5 18.499s17.5 24.833 17.5 41.5
c0 18.667 -6 33.334 -18 44.001s-28.333 16 -49 16h-130v-120h132z" />
    <glyph glyph-name="S" unicode="S" horiz-adv-x="558" 
d="M142.5 23c-41.667 20.667 -73.998 48.5 -96.998 83.5s-34.5 73.167 -34.5 114.5h170c2 -23.333 13.333 -42.166 34 -56.499s45 -21.5 73 -21.5c28.667 0 51 6.16699 67 18.5s24 28.166 24 47.499c0 15.333 -5.83301 28.333 -17.5 39s-26.167 19.334 -43.5 26.001
s-42.333 15 -75 25c-42.667 13.333 -77.834 26.5 -105.501 39.5s-51.334 32.5 -71.001 58.5s-29.5 60 -29.5 102c0 42.667 10.333 79.167 31 109.5s48.834 53.166 84.501 68.499s75.5 23 119.5 23c43.333 0 84.166 -8.16699 122.499 -24.5s75.166 -43.5 110.499 -81.5
l-94 -102c-22 22 -45.667 38.833 -71 50.5s-48.666 17.5 -69.999 17.5c-20 0 -36.167 -4 -48.5 -12s-18.5 -18.333 -18.5 -31c0 -16 8.5 -28.333 25.5 -37s46.167 -19.667 87.5 -33c45.333 -14 83.5 -28.5 114.5 -43.5s57.667 -37.5 80 -67.5s33.5 -68.667 33.5 -116
c0 -46 -10.833 -86.167 -32.5 -120.5s-52 -60.833 -91 -79.5s-84.167 -28 -135.5 -28c-53.333 0 -100.833 10.333 -142.5 31z" />
    <glyph glyph-name="T" unicode="T" horiz-adv-x="582" 
d="M204 537h-198v153h570v-153h-199v-537h-173v537z" />
    <glyph glyph-name="U" unicode="U" horiz-adv-x="706" 
d="M136 62c-47.333 48 -71.001 116.334 -71.001 205.001v423h172v-428c0 -36.667 9.83301 -64.834 29.5 -84.501s47.834 -29.5 84.501 -29.5c37.333 0 66.333 9.83301 87 29.5s31 47.834 31 84.501v428h172v-418c0 -90.667 -24 -160.334 -72 -209.001s-120.667 -73 -218 -73
c-96 0 -167.667 24 -215 72z" />
    <glyph glyph-name="V" unicode="V" horiz-adv-x="722" 
d="M722 690l-245 -690h-232l-245 690h179l185 -518l179 518h179z" />
    <glyph glyph-name="W" unicode="W" horiz-adv-x="977" 
d="M4 690h179l104 -497c3.33301 -18 5 -34.667 5 -50h10c0 11.333 1.33301 22.333 4 33l5 20l90 426h176l92 -426c0.666992 -2.66699 2 -9.5 4 -20.5s3 -21.833 3 -32.5h9c0 16 2 32.667 6 50l103 497h179l-162 -690h-251l-73 406l-70 -406h-252z" />
    <glyph glyph-name="X" unicode="X" horiz-adv-x="688" 
d="M230 345l-232 345h195l152 -238l149 238h196l-233 -345l234 -345h-196l-151 234l-152 -234h-195z" />
    <glyph glyph-name="Y" unicode="Y" horiz-adv-x="695" 
d="M262 268l-265 422h194l161 -280l153 280h194l-266 -422v-268h-171v268z" />
    <glyph glyph-name="Z" unicode="Z" horiz-adv-x="612" 
d="M595 571l-325 -418h325v-153h-578v110l333 418h-311v162h556v-119z" />
    <glyph glyph-name="bracketleft" unicode="[" horiz-adv-x="301" 
d="M62 731h228v-142h-87v-601h87v-145h-228v888z" />
    <glyph glyph-name="backslash" unicode="\" horiz-adv-x="615" 
d="M69 688h148l317 -764h-147z" />
    <glyph glyph-name="bracketright" unicode="]" horiz-adv-x="301" 
d="M11 -157v145h87v601h-87v142h228v-888h-228z" />
    <glyph glyph-name="asciicircum" unicode="^" horiz-adv-x="485" 
d="M243 690l241 -457h-164l-77 171l-79 -171h-163z" />
    <glyph glyph-name="underscore" unicode="_" horiz-adv-x="441" 
d="M-4 0h449v-125h-449v125z" />
    <glyph glyph-name="grave" unicode="`" horiz-adv-x="191" 
d="M-36 690h160l115 -140h-98z" />
    <glyph glyph-name="a" unicode="a" horiz-adv-x="539" 
d="M72 25c-29.333 23.333 -43.999 56.3301 -43.999 98.9971c0 64 32.667 107 98 129c22 8 53.333 15 94 21l42 8c23.333 5.33301 41.166 11.333 53.499 18s18.5 16.334 18.5 29.001c0 11.333 -5.5 20 -16.5 26s-25.5 9 -43.5 9c-26 0 -51.833 -6 -77.5 -18
s-45.834 -27.333 -60.501 -46l-110 88c26 32.667 58.833 58.834 98.5 78.501s86.834 29.5 141.501 29.5c63.333 0 116.833 -14.167 160.5 -42.5s65.5 -71.166 65.5 -128.499v-260l2 -65h-141l-8 56h-7c-28 -44 -75.667 -66 -143 -66c-52.667 0 -93.667 11.667 -123 35z
M318.501 130.997c19 14 28.498 35.667 28.498 65v22h-5c-7.33301 -7.33301 -16.166 -12.833 -26.499 -16.5s-20.666 -6.66699 -30.999 -9s-17.833 -4.16602 -22.5 -5.49902c-21.333 -6 -36.5 -11.5 -45.5 -16.5s-13.5 -14.167 -13.5 -27.5
c0 -8.66699 3.66699 -16.334 11 -23.001s20.333 -10 39 -10c24.667 0 46.5 7 65.5 21z" />
    <glyph glyph-name="b" unicode="b" horiz-adv-x="597" 
d="M471 465c31.333 -22 55.6699 -52.167 73.0029 -90.5s26 -81.833 26 -130.5s-8.83301 -92.167 -26.5 -130.5s-42.334 -68.5 -74.001 -90.5s-67.834 -33 -108.501 -33c-33.333 0 -63.333 7.33301 -90 22s-45 33.667 -55 57h-1v-69h-164v690h168v-265
c12.667 22 32.167 39.667 58.5 53s55.166 20 86.499 20c40 0 75.667 -11 107 -33zM374.504 173c17 18.667 25.5 43 25.5 73c0 30.667 -8.5 55.667 -25.5 75s-39.5 29 -67.5 29c-26.667 0 -48.334 -9.66699 -65.001 -29s-25 -44.333 -25 -75c0 -30 8.33301 -54.333 25 -73
s38.334 -28 65.001 -28c28 0 50.5 9.33301 67.5 28z" />
    <glyph glyph-name="c" unicode="c" horiz-adv-x="522" 
d="M141.5 23.5c-37.667 22.333 -66.002 52.6699 -85.002 91.0029s-28.5 81.166 -28.5 128.499s9.5 90.166 28.5 128.499s47.333 68.666 85 90.999s83.167 33.5 136.5 33.5c114.667 0 192.667 -52.333 234 -157l-145 -58c-10 26 -21.667 43.833 -35 53.5
s-29.333 14.5 -48 14.5c-58 0 -87 -36 -87 -108c0 -69.333 28.333 -104 85 -104c22 0 39.5 5.66699 52.5 17s22.833 28.333 29.5 51l142 -54c-17.333 -53.333 -45.166 -93.5 -83.499 -120.5s-86.166 -40.5 -143.499 -40.5c-54 0 -99.833 11.167 -137.5 33.5z" />
    <glyph glyph-name="d" unicode="d" horiz-adv-x="597" 
d="M546 690l0.00390625 -690h-164v69h-1c-10 -23.333 -28.333 -42.333 -55 -57s-56.667 -22 -90 -22c-40.667 0 -76.834 11 -108.501 33s-56.334 52.167 -74.001 90.5s-26.5 81.833 -26.5 130.5s8.66699 92.167 26 130.5s41.666 68.5 72.999 90.5s67 33 107 33
c31.333 0 60.166 -6.66699 86.499 -20s45.833 -31 58.5 -53v265h168zM355.004 173c16.667 18.667 25 43 25 73c0 30.667 -8.33301 55.667 -25 75s-38.334 29 -65.001 29c-28 0 -50.5 -9.66699 -67.5 -29s-25.5 -44.333 -25.5 -75c0 -30 8.5 -54.333 25.5 -73
s39.5 -28 67.5 -28c26.667 0 48.334 9.33301 65.001 28z" />
    <glyph glyph-name="e" unicode="e" horiz-adv-x="530" 
d="M357 174l150 -36.999c-21.333 -44.667 -53.166 -79.667 -95.499 -105s-91.5 -38 -147.5 -38c-44.667 0 -84.667 8.83301 -120 26.5s-63.5 44.5 -84.5 80.5s-31.5 80.333 -31.5 133c0 55.333 10.667 102.666 32 141.999s50.5 68.833 87.5 88.5s78.167 29.5 123.5 29.5
c42 0 81 -8.16699 117 -24.5s64.833 -40.833 86.5 -73.5s32.5 -72.667 32.5 -120c0 -28 -2 -50.667 -6 -68h-304c4 -51.333 29 -77 75 -77c35.333 0 63.666 14.333 84.999 43zM217 339.001c-11.333 -14 -17.667 -31.667 -19 -53h142c2 21.333 -2.83301 39 -14.5 53
s-30.167 21 -55.5 21c-24 0 -41.667 -7 -53 -21z" />
    <glyph glyph-name="f" unicode="f" horiz-adv-x="362" 
d="M92 383l-88.999 0.000976562v105h91v41c0 53.333 13.667 93.5 41 120.5s70 40.5 128 40.5h87v-127h-63c-10.667 0 -17.834 -2.83301 -21.501 -8.5s-5.5 -13.834 -5.5 -24.501v-42h90v-105h-90v-383h-168v383z" />
    <glyph glyph-name="g" unicode="g" horiz-adv-x="598" 
d="M543 488l0.000976562 -422.999c0 -81.333 -24.5 -141.333 -73.5 -180s-113.167 -58 -192.5 -58c-49.333 0 -93.333 7.33301 -132 22s-75.334 36 -110.001 64l86 110c40 -38 91.667 -57 155 -57c27.333 0 50.833 7.83301 70.5 23.5s29.5 40.834 29.5 75.501v35
c-7.33301 -16.667 -22.833 -31.334 -46.5 -44.001s-51.167 -19 -82.5 -19c-41.333 0 -78.5 8.83301 -111.5 26.5s-59.167 43.834 -78.5 78.501s-29 76.667 -29 126s9.5 91.166 28.5 125.499s44.167 60.166 75.5 77.499s65 26 101 26c33.333 0 62.5 -6.33301 87.5 -19
s43.5 -28 55.5 -46v56h167zM355.501 187.501c17 18.333 25.5 41.833 25.5 70.5c0 28 -8.5 51.667 -25.5 71s-39.5 29 -67.5 29c-27.333 0 -49.333 -9.33301 -66 -28s-25 -42 -25 -70c0 -29.333 8.33301 -53.333 25 -72s38.667 -28 66 -28c28 0 50.5 9.16699 67.5 27.5z" />
    <glyph glyph-name="h" unicode="h" horiz-adv-x="594" 
d="M51 690h168v-259h3c14.667 23.333 35.5 41 62.5 53s56.833 18 89.5 18c54 0 95.833 -16.833 125.5 -50.5s44.5 -76.167 44.5 -127.5v-324h-167v293c0 21.333 -7.16699 38.833 -21.5 52.5s-33.5 20.5 -57.5 20.5c-26 0 -45.667 -7.16699 -59 -21.5s-20 -32.5 -20 -54.5
v-290h-168v690z" />
    <glyph glyph-name="i" unicode="i" horiz-adv-x="272" 
d="M51 690h170v-135h-170v135zM52 488h168v-488h-168v488z" />
    <glyph glyph-name="j" unicode="j" horiz-adv-x="272" 
d="M51 690h170v-133h-170v133zM-45 -163v121h53c12.667 0 23.167 3.66699 31.5 11s12.5 17.333 12.5 30v489h168v-478c0 -49.333 -14.5 -90.5 -43.5 -123.5s-70.833 -49.5 -125.5 -49.5h-96z" />
    <glyph glyph-name="k" unicode="k" horiz-adv-x="580" 
d="M595 0h-198l-164 275h-14v-275h-168v690h168v-369l150 167h218l-188 -186z" />
    <glyph glyph-name="l" unicode="l" horiz-adv-x="279" 
d="M55 690h168v-690h-168v690z" />
    <glyph glyph-name="m" unicode="m" horiz-adv-x="842" 
d="M51 488h165.002v-66h3c30 50 75 75 135 75c31.333 0 57 -6.83301 77 -20.5s36.667 -33.5 50 -59.5h9c15.333 26 33.833 45.667 55.5 59s49.167 20 82.5 20c52 0 92.333 -17 121 -51s43 -79 43 -135v-310h-168v284c0 22 -4.83301 39.167 -14.5 51.5
s-23.834 18.5 -42.501 18.5c-20.667 0 -36.167 -6.5 -46.5 -19.5s-15.5 -31.167 -15.5 -54.5v-280h-168v284c0 22.667 -4.83301 40 -14.5 52s-23.834 18 -42.501 18c-20.667 0 -36 -6.5 -46 -19.5s-15 -31.167 -15 -54.5v-280h-168v488z" />
    <glyph glyph-name="n" unicode="n" horiz-adv-x="594" 
d="M51 488h164.999v-57h6c14 21.333 34 38.5 60 51.5s56.667 19.5 92 19.5c50.667 0 91.667 -16.5 123 -49.5s47 -75.833 47 -128.5v-324h-167v293c0 22.667 -6.66699 40.167 -20 52.5s-31.333 18.5 -54 18.5c-25.333 0 -45.666 -6.66699 -60.999 -20s-23 -31.333 -23 -54
v-290h-168v488z" />
    <glyph glyph-name="o" unicode="o" horiz-adv-x="567" 
d="M152 19c-38.667 19.333 -69 48 -91 86s-33 83.667 -33 137c0 54 11 99.833 33 137.5s52.333 66.167 91 85.5s82.667 29 132 29s93.166 -9.66699 131.499 -29s68.5 -47.833 90.5 -85.5s33 -83.5 33 -137.5c0 -53.333 -11 -99 -33 -137s-52.167 -66.667 -90.5 -86
s-82.166 -29 -131.499 -29s-93.333 9.66699 -132 29zM347.5 155c15.667 18 23.5 47 23.5 87s-7.83301 69 -23.5 87s-36.834 27 -63.501 27s-47.834 -9 -63.501 -27s-23.5 -47 -23.5 -87s7.83301 -69 23.5 -87s36.834 -27 63.501 -27s47.834 9 63.501 27z" />
    <glyph glyph-name="p" unicode="p" horiz-adv-x="597" 
d="M470.5 465c31 -22 55.166 -52.333 72.499 -91s26 -82 26 -130c0 -48.667 -8.83301 -92.167 -26.5 -130.5s-42.167 -68.5 -73.5 -90.5s-67 -33 -107 -33c-35.333 0 -66.666 8 -93.999 24s-45 36.333 -53 61v-238h-164v651h168v-64c11.333 22 30.5 39.833 57.5 53.5
s56.5 20.5 88.5 20.5c39.333 0 74.5 -11 105.5 -33zM374.499 173c17 18.667 25.5 43.334 25.5 74.001c0 30 -8.66699 54.833 -26 74.5s-39.333 29.5 -66 29.5s-48.667 -9.66699 -66 -29s-26 -44.333 -26 -75s8.5 -55.334 25.5 -74.001s39.167 -28 66.5 -28
s49.5 9.33301 66.5 28z" />
    <glyph glyph-name="q" unicode="q" horiz-adv-x="597" 
d="M546 488l-0.000976562 -651h-164v238c-8 -24.667 -25.667 -45 -53 -61s-58.666 -24 -93.999 -24c-40 0 -75.667 11 -107 33s-55.833 52.167 -73.5 90.5s-26.5 81.833 -26.5 130.5c0 48 8.66699 91.333 26 130s41.5 69 72.5 91s66.167 33 105.5 33
c32 0 61.5 -6.83301 88.5 -20.5s46.167 -31.5 57.5 -53.5v64h168zM355.499 173c17 18.667 25.5 43.334 25.5 74.001s-8.66699 55.667 -26 75s-39.333 29 -66 29s-48.667 -9.83301 -66 -29.5s-26 -44.5 -26 -74.5c0 -30.667 8.5 -55.334 25.5 -74.001s39.167 -28 66.5 -28
s49.5 9.33301 66.5 28z" />
    <glyph glyph-name="r" unicode="r" horiz-adv-x="393" 
d="M51 488l162.001 0.000976562v-83h3c15.333 35.333 33.166 59.166 53.499 71.499s42.833 18.5 67.5 18.5c16.667 0 30.334 -2 41.001 -6v-172c-28.667 8 -53.334 12 -74.001 12c-30.667 0 -52.5 -9 -65.5 -27s-19.5 -46.667 -19.5 -86v-216h-168v488z" />
    <glyph glyph-name="s" unicode="s" horiz-adv-x="483" 
d="M131.5 6.5c-43.667 11 -79.8311 26.502 -108.498 46.502l62 123c24 -16.667 50.5 -30.167 79.5 -40.5s56.833 -15.5 83.5 -15.5c32 0 48 7.66699 48 23c0 9.33301 -6.16699 16.666 -18.5 21.999s-35.5 12 -69.5 20c-50.667 11.333 -91.334 28.166 -122.001 50.499
s-46 56.833 -46 103.5c0 55.333 19.333 96 58 122s88.667 39 150 39c42.667 0 79.834 -5.83301 111.501 -17.5s61.5 -27.167 89.5 -46.5l-63 -110c-30 24.667 -68 42 -114 52c-13.333 2.66699 -26 4 -38 4c-21.333 0 -34.333 -5.33301 -39 -16
c-6 -10.667 -1 -19.334 15 -26.001s41.333 -14.667 76 -24c4 -1.33301 12.667 -3.66602 26 -6.99902c43.333 -11.333 78.666 -28.666 105.999 -51.999s41 -56.333 41 -99c0 -52.667 -17 -93.834 -51 -123.501s-84 -44.5 -150 -44.5c-40.667 0 -82.834 5.5 -126.501 16.5z
" />
    <glyph glyph-name="t" unicode="t" horiz-adv-x="351" 
d="M115 33c-20 22 -30 51.333 -30 88v262h-82v105h15c44.667 0 67 23.333 67 70v80h167v-150h77v-105h-77v-228c0 -9.33301 1.83301 -15.833 5.5 -19.5s9.16699 -5.5 16.5 -5.5h64v-130h-142c-34 0 -61 11 -81 33z" />
    <glyph glyph-name="u" unicode="u" horiz-adv-x="603" 
d="M552 0h-164v57h-7c-14.667 -23.333 -35.5 -41 -62.5 -53s-56.833 -18 -89.5 -18c-54 0 -95.833 16.833 -125.5 50.5s-44.5 76.167 -44.5 127.5v324h168v-279c0 -21.333 7.16699 -38.833 21.5 -52.5s33.5 -20.5 57.5 -20.5c26 0 45.667 7.16699 59 21.5s20 32.5 20 54.5
v276h167v-488z" />
    <glyph glyph-name="v" unicode="v" horiz-adv-x="552" 
d="M557 488l-187 -488h-188l-187 488h181l101 -338l101 338h179z" />
    <glyph glyph-name="w" unicode="w" horiz-adv-x="822" 
d="M827 488l-136 -488h-216l-66 274l-64 -277h-215l-135 491h177l74 -346l88 346h152l88 -347l76 347h177z" />
    <glyph glyph-name="x" unicode="x" horiz-adv-x="567" 
d="M169 246l-169 242h195l90 -145l87 145h195l-172 -242l172 -246h-195l-87 148l-90 -148h-195z" />
    <glyph glyph-name="y" unicode="y" horiz-adv-x="511" 
d="M40 -24l59 -0.000976562c32.667 0 53 8.33301 61 25l16 37l-193 450h179l69 -214c4 -12 7.83301 -28 11.5 -48s5.5 -34.667 5.5 -44h9c0 8.66699 2 23.334 6 44.001s8 36.667 12 48l72 214h179l-220 -555c-23.333 -64 -66.333 -96 -129 -96h-137v139z" />
    <glyph glyph-name="z" unicode="z" horiz-adv-x="529" 
d="M504 129v-129h-479v116l249 243h-248v129h462v-122l-227 -237h243z" />
    <glyph glyph-name="braceleft" unicode="{" horiz-adv-x="338" 
d="M162.5 -135.5c-24.333 14.333 -43.666 33.6719 -57.999 58.0049s-21.5 51.166 -21.5 80.499v173c0 16 -4.5 27.167 -13.5 33.5s-24.167 9.16602 -45.5 8.49902v141c21.333 -0.666992 36.5 2.16602 45.5 8.49902s13.5 17.5 13.5 33.5v173
c0 29.333 7.16699 56.166 21.5 80.499s33.666 43.666 57.999 57.999s51.166 21.5 80.499 21.5h76v-152h-43c-12.667 0 -22.834 -3.66699 -30.501 -11s-11.5 -17 -11.5 -29v-156c0 -20.667 -3.16699 -38.667 -9.5 -54s-20.833 -29.666 -43.5 -42.999
c22.667 -13.333 37.167 -27.833 43.5 -43.5s9.5 -33.834 9.5 -54.501v-156c0 -12 3.83301 -21.667 11.5 -29s17.834 -11 30.501 -11h43v-152h-76c-29.333 0 -56.166 7.16699 -80.499 21.5z" />
    <glyph glyph-name="bar" unicode="|" horiz-adv-x="264" 
d="M71 749h122v-825h-122v825z" />
    <glyph glyph-name="braceright" unicode="}" horiz-adv-x="338" 
d="M19 -157v151.994h43c12.667 0 22.834 3.66699 30.501 11s11.5 17 11.5 29v156c0 20.667 3.16699 38.834 9.5 54.501s20.833 30.167 43.5 43.5c-22.667 13.333 -37.167 27.666 -43.5 42.999s-9.5 33.333 -9.5 54v156c0 12 -3.83301 21.667 -11.5 29s-17.834 11 -30.501 11
h-43v152h76c29.333 0 56.166 -7.16699 80.499 -21.5s43.666 -33.666 57.999 -57.999s21.5 -51.166 21.5 -80.499v-173c0 -16 4.5 -27.167 13.5 -33.5s24.167 -9.16602 45.5 -8.49902v-141c-21.333 0.666992 -36.5 -2.16602 -45.5 -8.49902s-13.5 -17.5 -13.5 -33.5v-173
c0 -29.333 -7.16699 -56.166 -21.5 -80.499s-33.666 -43.666 -57.999 -57.999s-51.166 -21.5 -80.499 -21.5h-76z" />
    <glyph glyph-name="asciitilde" unicode="~" horiz-adv-x="554" 
d="M321.5 182c-15.667 7.33301 -32.167 17.333 -49.5 30c-15.333 10.667 -28.333 18.667 -39 24s-22.334 8 -35.001 8c-12 0 -22.833 -5 -32.5 -15s-14.167 -28.667 -13.5 -56h-115c0 63.333 12 112 36 146s58.667 51 104 51c22 0 40.5 -3.66699 55.5 -11
s31.833 -17.666 50.5 -30.999c16 -10.667 28.667 -18.5 38 -23.5s20.333 -7.5 33 -7.5s23.834 5.16699 33.501 15.5s14.5 29.166 14.5 56.499h115c0 -64 -12.167 -113 -36.5 -147s-59.5 -51 -105.5 -51c-20 0 -37.833 3.66699 -53.5 11z" />
    <glyph glyph-name="exclamdown" unicode="&#xa1;" horiz-adv-x="302" 
d="M69 488h164v-163h-164v163zM89 240h124l14 -453h-152z" />
    <glyph glyph-name="cent" unicode="&#xa2;" horiz-adv-x="522" 
d="M334.5 254c13 11.333 22.833 28.333 29.5 51l142 -54c-28.667 -88 -84.667 -140 -168 -156v-95h-123v96c-60 12.667 -106.167 41.5 -138.5 86.5s-48.5 98.5 -48.5 160.5c0 62.667 16.167 116.5 48.5 161.5s78.5 73.5 138.5 85.5v96h123v-95
c82.667 -16 140.667 -66.667 174 -152l-145 -58c-10 26 -21.667 43.833 -35 53.5s-29.333 14.5 -48 14.5c-58 0 -87 -36 -87 -108c0 -69.333 28.333 -104 85 -104c22 0 39.5 5.66699 52.5 17z" />
    <glyph glyph-name="sterling" unicode="&#xa3;" horiz-adv-x="640" 
d="M250 140h364.999v-140h-517v253h-80v129h80v48c0 52 11.333 98.5 34 139.5s54.167 73 94.5 96s85.833 34.5 136.5 34.5c36 0 71.167 -7.5 105.5 -22.5s64.333 -36.167 90 -63.5s44.5 -58.333 56.5 -93l-144 -49c-7.33301 22.667 -21.166 41.167 -41.499 55.5
s-42.5 21.5 -66.5 21.5c-35.333 0 -63 -10.667 -83 -32s-30 -50.333 -30 -87v-48h186v-129h-186v-113z" />
    <glyph glyph-name="currency" unicode="&#xa4;" horiz-adv-x="602" 
d="M27 153l54 53c-23.333 38.667 -35 80.667 -35 126s11.667 87.333 35 126l-54 53l93 98l55 -57c39.333 23.333 81.333 35 126 35s86.667 -11.667 126 -35l55 57l93 -98l-54 -53c23.333 -38.667 35 -80.667 35 -126s-11.667 -87.333 -35 -126l54 -53l-93 -98l-55 57
c-39.333 -23.333 -81.333 -35 -126 -35s-86.667 11.667 -126 35l-55 -57zM387 247c22.667 23.333 34 51.666 34 84.999s-11.333 61.666 -34 84.999c-24.667 23.333 -53.334 35 -86.001 35s-61.334 -11.667 -86.001 -35c-22.667 -23.333 -34 -51.666 -34 -84.999
s11.333 -61.666 34 -84.999c24.667 -23.333 53.334 -35 86.001 -35s61.334 11.667 86.001 35z" />
    <glyph glyph-name="yen" unicode="&#xa5;" horiz-adv-x="695" 
d="M493 363h71v-109h-131v-79h131v-108h-131v-67h-171v67h-137v108h137v79h-137v109h77l-205 327h194l161 -280l153 280h194z" />
    <glyph glyph-name="brokenbar" unicode="&#xa6;" horiz-adv-x="287" 
d="M71 688h145v-311h-145v311zM71 211h145v-287h-145v287z" />
    <glyph glyph-name="section" unicode="&#xa7;" horiz-adv-x="562" 
d="M150 22c-41.333 20.667 -68.002 56.668 -80.002 108.001l148 45c4.66699 -20 13.834 -35.167 27.501 -45.5s34.5 -15.5 62.5 -15.5c45.333 0 68 13.333 68 40c0 16 -8.5 27.333 -25.5 34s-43.833 13 -80.5 19c-38 6 -69.5 12.833 -94.5 20.5s-46.5 21.167 -64.5 40.5
s-27 46 -27 80c0 41.333 15.667 75.333 47 102c-30.667 24 -46 57 -46 99c0 50.667 18.333 88.5 55 113.5s85.667 37.5 147 37.5c53.333 0 97.666 -10.333 132.999 -31s60.666 -54.334 75.999 -101.001l-134 -32c-4 16.667 -12 28.834 -24 36.501s-29.333 11.5 -52 11.5
c-20 0 -35.833 -3.16699 -47.5 -9.5s-17.5 -16.166 -17.5 -29.499c0 -14.667 7.83301 -25 23.5 -31s40.834 -12 75.501 -18c40 -6.66699 72.833 -14 98.5 -22s47.834 -22.5 66.501 -43.5s28 -50.5 28 -88.5c0 -18.667 -3.16699 -35.834 -9.5 -51.501
s-17.833 -30.5 -34.5 -44.5c16.667 -12.667 28.167 -26.334 34.5 -41.001s9.5 -31.667 9.5 -51c0 -56 -20.167 -97.167 -60.5 -123.5s-93.166 -39.5 -158.499 -39.5c-54.667 0 -102.667 10.333 -144 31zM366.998 340.001c0 7.33301 -2.66797 14.667 -8.00098 22
c-6.66699 12 -18.5 20.667 -35.5 26s-43.5 11.333 -79.5 18c-11.333 -8.66699 -17 -19 -17 -31c0 -6 1.33301 -11.333 4 -16c4.66699 -12 14.334 -20.667 29.001 -26s38 -11 70 -17l21 -4c10.667 8 16 17.333 16 28z" />
    <glyph glyph-name="dieresis" unicode="&#xa8;" horiz-adv-x="341" 
d="M20 690h118v-119h-118v119zM203 690h117v-119h-117v119z" />
    <glyph glyph-name="copyright" unicode="&#xa9;" horiz-adv-x="809" 
d="M215 19.5c-58.667 34.333 -105.167 80.5 -139.5 138.5s-51.5 121 -51.5 189c0 67.333 17.333 130 52 188s81.167 104.167 139.5 138.5s121.5 51.5 189.5 51.5s131.167 -17.167 189.5 -51.5s104.666 -80.5 138.999 -138.5s51.5 -120.667 51.5 -188
c0 -68 -17.167 -131 -51.5 -189s-80.666 -104.167 -138.999 -138.5s-121.5 -51.5 -189.5 -51.5s-131.333 17.167 -190 51.5zM563 74.5c48.667 28.333 87.334 66.666 116.001 114.999s43 100.833 43 157.5s-14.333 109 -43 157s-67.334 86.167 -116.001 114.5
s-101.334 42.5 -158.001 42.5c-57.333 0 -110.166 -14.167 -158.499 -42.5s-86.833 -66.5 -115.5 -114.5s-43 -100.333 -43 -157s14.333 -109.167 43 -157.5s67.167 -86.666 115.5 -114.999s101.166 -42.5 158.499 -42.5c56.667 0 109.334 14.167 158.001 42.5zM292.5 157.5
c-32.333 19.667 -56.832 46 -73.499 79s-25 69.833 -25 110.5s8.16699 77.5 24.5 110.5s40.833 59.167 73.5 78.5s72 29 118 29c99.333 0 166.666 -45 201.999 -135l-125 -50c-8.66699 22 -18.834 37.167 -30.501 45.5s-25.5 12.5 -41.5 12.5c-50 0 -75 -31 -75 -93
c0 -60 24.667 -90 74 -90c18.667 0 33.5 5 44.5 15s19.5 24.667 25.5 44l123 -47c-14.667 -46 -38.667 -80.667 -72 -104s-74.666 -35 -123.999 -35c-46.667 0 -86.167 9.83301 -118.5 29.5z" />
    <glyph glyph-name="ordfeminine" unicode="&#xaa;" horiz-adv-x="371" 
d="M48 378c-20 16 -30 38.667 -30 68c0 23.333 6.16699 42.166 18.5 56.499s28.5 24.833 48.5 31.5c14 4.66699 33.333 9 58 13c16 2.66699 27.667 5 35 7c16 3.33301 28.167 7.33301 36.5 12s12.5 11.334 12.5 20.001c0 7.33301 -3.83301 13.166 -11.5 17.499
s-17.5 6.5 -29.5 6.5c-17.333 0 -34.666 -4.16699 -51.999 -12.5s-31.333 -18.833 -42 -31.5l-75 60c39.333 49.333 94 74 164 74c43.333 0 79.833 -9.66699 109.5 -29s44.5 -48.666 44.5 -87.999v-178l1 -44h-96l-5 38h-5c-18.667 -30 -51.334 -45 -98.001 -45
c-36 0 -64 8 -84 24zM216.5 450.5c13 9.66699 19.501 24.501 19.501 44.501v15h-3c-4.66699 -4.66699 -10.334 -8.16699 -17.001 -10.5s-13.667 -4.33301 -21 -6s-13 -3.16699 -17 -4.5c-14 -4 -24.167 -7.83301 -30.5 -11.5s-9.5 -9.83398 -9.5 -18.501
c0 -15.333 11.333 -23 34 -23c16.667 0 31.5 4.83301 44.5 14.5z" />
    <glyph glyph-name="guillemotleft" unicode="&#xab;" horiz-adv-x="566" 
d="M33 248l240 190v-130l-83 -60l83 -57v-130zM294 248l239 190v-130l-83 -60l83 -57v-130z" />
    <glyph glyph-name="logicalnot" unicode="&#xac;" horiz-adv-x="607" 
d="M390 243h-335v146h497v-314h-162v168z" />
    <glyph glyph-name="registered" unicode="&#xae;" horiz-adv-x="637" 
d="M188.5 207.5c-39.667 23.667 -71 55.667 -94 96s-34.5 84.5 -34.5 132.5s11.5 92.167 34.5 132.5s54.333 72.333 94 96s82.834 35.5 129.501 35.5s89.834 -11.833 129.501 -35.5s71.167 -55.667 94.5 -96s35 -84.5 35 -132.5s-11.667 -92.167 -35 -132.5
s-54.833 -72.333 -94.5 -96s-82.834 -35.5 -129.501 -35.5s-89.834 11.833 -129.501 35.5zM418.5 260.5c31 18.333 55.5 43 73.5 74s27 64.833 27 101.5s-9.16699 70.5 -27.5 101.5s-42.833 55.833 -73.5 74.5s-64 28 -100 28s-69.333 -9.33301 -100 -28
s-55 -43.5 -73 -74.5s-27 -64.833 -27 -101.5s9 -70.5 27 -101.5s42.333 -55.667 73 -74s64 -27.5 100 -27.5s69.5 9.16699 100.5 27.5zM228 569h104.999c28.667 0 51.334 -7.5 68.001 -22.5s25 -35.5 25 -61.5c0 -34 -15 -59.667 -45 -77l68 -101h-83l-52 91h-13v-91h-73
v262zM332.999 461c7.33301 0 13.166 2.16797 17.499 6.50098s6.5 10.166 6.5 17.499c0 6.66699 -2.16699 12 -6.5 16s-10.166 6 -17.499 6h-35v-46h35z" />
    <glyph glyph-name="macron" unicode="&#xaf;" horiz-adv-x="315" 
d="M17 656h287v-82h-287v82z" />
    <glyph glyph-name="degree" unicode="&#xb0;" horiz-adv-x="398" 
d="M74.5 410c-32.333 31.333 -48.5 71.667 -48.5 121s16.167 89.833 48.5 121.5s74.166 47.5 125.499 47.5c33.333 0 63 -7.16699 89 -21.5s46.333 -34.333 61 -60s22 -54.834 22 -87.501c0 -49.333 -16 -89.666 -48 -120.999s-73.333 -47 -124 -47
c-51.333 0 -93.166 15.667 -125.499 47zM245 487.501c11.333 11 17 25.5 17 43.5s-5.66699 32.5 -17 43.5s-26.333 16.5 -45 16.5c-19.333 0 -34.833 -5.5 -46.5 -16.5s-17.5 -25.5 -17.5 -43.5s5.83301 -32.5 17.5 -43.5s27.167 -16.5 46.5 -16.5
c18.667 0 33.667 5.5 45 16.5z" />
    <glyph glyph-name="plusminus" unicode="&#xb1;" horiz-adv-x="680" 
d="M278 367h-223v126h223v190h124v-190h223v-126h-223v-190h-124v190zM56 125h568v-125h-568v125z" />
    <glyph glyph-name="acute" unicode="&#xb4;" horiz-adv-x="191" 
d="M71 690h162l-162 -142h-113z" />
    <glyph glyph-name="uni00B5" unicode="&#xb5;" horiz-adv-x="526" 
d="M55 488h146v-279c0 -26.667 5 -47 15 -61s27 -21 51 -21c28.667 0 54.167 9.33301 76.5 28s33.5 40.667 33.5 66v267h146v-488h-137v64c-14 -24 -31.833 -42.5 -53.5 -55.5s-46.167 -19.5 -73.5 -19.5c-18.667 0 -39 1.66699 -61 5l-8 -124h-135v618z" />
    <glyph glyph-name="paragraph" unicode="&#xb6;" horiz-adv-x="591" 
d="M257 304c-38.667 0 -74.834 7.83301 -108.501 23.5s-60.834 38 -81.501 67s-31 63.167 -31 102.5s10.333 73.5 31 102.5s47.834 51.333 81.501 67s69.834 23.5 108.501 23.5h95v-830h-95v444zM440 690h95v-830h-95v830z" />
    <glyph glyph-name="periodcentered" unicode="&#xb7;" horiz-adv-x="252" 
d="M67 319.5c-16 15.667 -24 34.833 -24 57.5c0 25.333 8.16699 46 24.5 62s36.833 24 61.5 24c22.667 0 41.834 -8 57.501 -24s23.5 -36.667 23.5 -62c0 -22 -7.83301 -41 -23.5 -57s-34.834 -24 -57.501 -24c-25.333 0 -46 7.83301 -62 23.5z" />
    <glyph glyph-name="cedilla" unicode="&#xb8;" horiz-adv-x="175" 
d="M22.5 -222.5c-22.333 14.333 -37.165 31.499 -44.498 51.499l75 34c2.66699 -8 7.16699 -14.667 13.5 -20s13.166 -8 20.499 -8h2c5.33301 0 10 1.66699 14 5s6 8 6 14c0 4 -2 8.16699 -6 12.5s-10.333 7.83301 -19 10.5l-84 23l59 100h115l-48 -60
c21.333 -5.33301 39.166 -15.833 53.499 -31.5s21.5 -34.5 21.5 -56.5c0 -29.333 -9.66699 -52.666 -29 -69.999s-45 -26 -77 -26c-26 0 -50.167 7.16699 -72.5 21.5z" />
    <glyph glyph-name="ordmasculine" unicode="&#xba;" horiz-adv-x="405" 
d="M107 373c-28.667 16 -50.834 37.5 -66.501 64.5s-23.5 56.5 -23.5 88.5s7.83301 61.333 23.5 88s37.834 48 66.501 64s61.667 24 99 24c35.333 0 66.833 -8 94.5 -24s49.167 -37.5 64.5 -64.5s23 -56.167 23 -87.5c0 -32 -7.66699 -61.5 -23 -88.5
s-36.833 -48.5 -64.5 -64.5s-59.167 -24 -94.5 -24c-37.333 0 -70.333 8 -99 24zM265 462.5c12.667 15 18.999 35.168 18.999 60.501s-6.5 45.666 -19.5 60.999s-32.5 23 -58.5 23c-29.333 0 -50.833 -7.5 -64.5 -22.5s-20.5 -35.5 -20.5 -61.5
c0 -25.333 6.83301 -45.5 20.5 -60.5s35.167 -22.5 64.5 -22.5c26.667 0 46.334 7.5 59.001 22.5z" />
    <glyph glyph-name="guillemotright" unicode="&#xbb;" horiz-adv-x="575" 
d="M42 191l83 57l-83 60v130l239 -190l-239 -187v130zM302 191l84 57l-84 60v130l240 -190l-240 -187v130z" />
    <glyph glyph-name="questiondown" unicode="&#xbf;" horiz-adv-x="496" 
d="M343 324h-158v164h158v-164zM331 195c0 -24.667 -3.66699 -44.832 -11 -60.499s-16 -27.834 -26 -36.501s-23.667 -18 -41 -28c-21.333 -12 -37 -23.5 -47 -34.5s-15 -27.5 -15 -49.5c0 -20 5.83301 -35.833 17.5 -47.5s28.5 -17.5 50.5 -17.5c29.333 0 50 10 62 30
s18 49 18 87h136c0 -74 -17 -134.167 -51 -180.5s-86.333 -69.5 -157 -69.5c-58.667 0 -108.5 16 -149.5 48s-61.5 80.667 -61.5 146c0 31.333 4.16699 56.5 12.5 75.5s18.333 33 30 42s26.5 18.167 44.5 27.5c18.667 9.33301 32.5 18.5 41.5 27.5s13.5 22.833 13.5 41.5v46
h133v-47z" />
    <glyph glyph-name="Agrave" unicode="&#xc0;" horiz-adv-x="707" 
d="M475 153h-241l-50 -153h-186l243 690h224l244 -690h-185zM430 291l-60.001 188c-3.33301 8 -6.16602 16.5 -8.49902 25.5s-3.5 18.167 -3.5 27.5h-5c0.666992 -12 -1 -23.167 -5 -33.5s-6.33301 -16.833 -7 -19.5l-62 -188h151zM126.999 890h160l115 -140h-98z" />
    <glyph glyph-name="Aacute" unicode="&#xc1;" horiz-adv-x="707" 
d="M475 153h-241l-50 -153h-186l243 690h224l244 -690h-185zM430 291l-60.001 188c-3.33301 8 -6.16602 16.5 -8.49902 25.5s-3.5 18.167 -3.5 27.5h-5c0.666992 -12 -1 -23.167 -5 -33.5s-6.33301 -16.833 -7 -19.5l-62 -188h151zM409.999 890h162l-162 -142h-113z" />
    <glyph glyph-name="Acircumflex" unicode="&#xc2;" horiz-adv-x="707" 
d="M475 153h-241l-50 -153h-186l243 690h224l244 -690h-185zM430 291l-60.001 188c-3.33301 8 -6.16602 16.5 -8.49902 25.5s-3.5 18.167 -3.5 27.5h-5c0.666992 -12 -1 -23.167 -5 -33.5s-6.33301 -16.833 -7 -19.5l-62 -188h151zM304.999 894h96l118 -149h-123l-44 80
l-43 -80h-122z" />
    <glyph glyph-name="Atilde" unicode="&#xc3;" horiz-adv-x="707" 
d="M475 153h-241l-50 -153h-186l243 690h224l244 -690h-185zM430 291l-60.001 188c-3.33301 8 -6.16602 16.5 -8.49902 25.5s-3.5 18.167 -3.5 27.5h-5c0.666992 -12 -1 -23.167 -5 -33.5s-6.33301 -16.833 -7 -19.5l-62 -188h151zM366.999 760
c-14 7.33301 -26.668 17.6689 -38.001 31.002c-6.66699 6.66699 -12 11.5 -16 14.5s-9 4.5 -15 4.5c-11.333 0 -20 -4.83301 -26 -14.5s-9.66699 -26.167 -11 -49.5h-113c0 52 12.5 90.667 37.5 116s59.5 38 103.5 38c20.667 0 37.334 -3.16699 50.001 -9.5
s24.667 -14.833 36 -25.5c8 -6.66699 14.167 -11.334 18.5 -14.001s9.5 -4 15.5 -4c9.33301 0 17.333 4.16699 24 12.5s10 21.166 10 38.499h117c0 -46.667 -11.667 -83.167 -35 -109.5s-55.333 -39.5 -96 -39.5c-27.333 0 -48 3.66699 -62 11z" />
    <glyph glyph-name="Adieresis" unicode="&#xc4;" horiz-adv-x="707" 
d="M475 153h-241l-50 -153h-186l243 690h224l244 -690h-185zM430 291l-60.001 188c-3.33301 8 -6.16602 16.5 -8.49902 25.5s-3.5 18.167 -3.5 27.5h-5c0.666992 -12 -1 -23.167 -5 -33.5s-6.33301 -16.833 -7 -19.5l-62 -188h151zM202.999 890h118v-119h-118v119z
M385.999 890h117v-119h-117v119z" />
    <glyph glyph-name="Aring" unicode="&#xc5;" horiz-adv-x="707" 
d="M475 153h-241l-50 -153h-186l243 690h10c-7.33301 16 -11 32.667 -11 50c0 31.333 10.833 58.166 32.5 80.499s48.5 33.5 80.5 33.5c31.333 0 58.333 -11.167 81 -33.5s34 -49.166 34 -80.499c0 -17.333 -3.66699 -34 -11 -50h8l244 -690h-185zM318.5 775
c-9 -8.66699 -13.499 -19.665 -13.499 -32.998c0 -14.667 4.66699 -26.834 14 -36.501s20.666 -14.5 33.999 -14.5c14.667 0 26.5 4.66699 35.5 14s13.5 21.666 13.5 36.999c0 14 -4.33301 25.167 -13 33.5s-20.667 12.5 -36 12.5c-14 0 -25.5 -4.33301 -34.5 -13z
M430.001 291.002l-60.001 188c-3.33301 8 -6.16602 16.5 -8.49902 25.5s-3.5 18.167 -3.5 27.5h-5c0.666992 -12 -1 -23.167 -5 -33.5s-6.33301 -16.833 -7 -19.5l-62 -188h151z" />
    <glyph glyph-name="AE" unicode="&#xc6;" horiz-adv-x="939" 
d="M531 536v-114h321v-153h-321v-117h365v-152h-520v142h-159l-56 -142h-163l287 690h611v-154h-365zM376 277v266l-105 -266h105z" />
    <glyph glyph-name="Ccedilla" unicode="&#xc7;" horiz-adv-x="644" 
d="M383 -8l-32.0039 -52c24 -5.33301 43.5 -16 58.5 -32s22.5 -35 22.5 -57c0 -29.333 -9.66699 -52.5 -29 -69.5s-45 -25.5 -77 -25.5c-26 0 -50.167 7.16699 -72.5 21.5s-37.166 31.5 -44.499 51.5l75 34c2.66699 -8.66699 7.16699 -15.5 13.5 -20.5
s13.166 -7.5 20.499 -7.5c6.66699 -0.666992 12.667 1 18 5s8 10.333 8 19s-2.5 15.667 -7.5 21s-13.833 9.66602 -26.5 12.999l-55 13l45 86c-64.667 5.33301 -117.5 25.166 -158.5 59.499s-70.833 77.166 -89.5 128.499s-28 106.333 -28 165
c0 62.667 10.333 120.834 31 174.501s54.334 97.334 101.001 131.001s107 50.5 181 50.5c75.333 0 137.333 -17.5 186 -52.5s85.334 -88.5 110.001 -160.5l-166 -62c-7.33301 40.667 -22.666 71.334 -45.999 92.001s-51.666 31 -84.999 31
c-43.333 0 -77.666 -17.5 -102.999 -52.5s-38 -84.5 -38 -148.5c0 -63.333 12.833 -113.5 38.5 -150.5s58.834 -55.5 99.501 -55.5c33.333 0 61.666 10.667 84.999 32s40.666 53.333 51.999 96l165 -66c-42.667 -127.333 -126.667 -198 -252 -212z" />
    <glyph glyph-name="Egrave" unicode="&#xc8;" horiz-adv-x="583" 
d="M67 690h473v-153h-301v-114h285v-154h-285v-115h301v-154h-473v690zM77 890h160l115 -140h-98z" />
    <glyph glyph-name="Eacute" unicode="&#xc9;" horiz-adv-x="583" 
d="M67 690h473v-153h-301v-114h285v-154h-285v-115h301v-154h-473v690zM360 890h162l-162 -142h-113z" />
    <glyph glyph-name="Ecircumflex" unicode="&#xca;" horiz-adv-x="583" 
d="M67 690h473v-153h-301v-114h285v-154h-285v-115h301v-154h-473v690zM255 894h96l118 -149h-123l-44 80l-43 -80h-122z" />
    <glyph glyph-name="Edieresis" unicode="&#xcb;" horiz-adv-x="583" 
d="M67 690h473v-153h-301v-114h285v-154h-285v-115h301v-154h-473v690zM153 890h118v-119h-118v119zM336 890h117v-119h-117v119z" />
    <glyph glyph-name="Igrave" unicode="&#xcc;" horiz-adv-x="306" 
d="M67 690h172v-690h-172v690zM-76 890h160l115 -140h-98z" />
    <glyph glyph-name="Iacute" unicode="&#xcd;" horiz-adv-x="306" 
d="M67 690h172v-690h-172v690zM207 890h162l-162 -142h-113z" />
    <glyph glyph-name="Icircumflex" unicode="&#xce;" horiz-adv-x="306" 
d="M67 690h172v-690h-172v690zM102 894h96l118 -149h-123l-44 80l-43 -80h-122z" />
    <glyph glyph-name="Idieresis" unicode="&#xcf;" horiz-adv-x="306" 
d="M67 690h172v-690h-172v690zM0 890h118v-119h-118v119zM183 890h117v-119h-117v119z" />
    <glyph glyph-name="Eth" unicode="&#xd0;" horiz-adv-x="683" 
d="M61 281h-56.001v134h56v275h213c121.333 0 215 -30.333 281 -91s99 -147 99 -259c0 -71.333 -15 -132.5 -45 -183.5s-73.667 -89.833 -131 -116.5s-125.666 -40 -204.999 -40h-212v281zM260.999 142c78.667 0 139 16 181 48s63 83.667 63 155
c0 70.667 -18.333 122.5 -55 155.5s-96 49.5 -178 49.5h-63v-135h176v-134h-176v-139h52z" />
    <glyph glyph-name="Ntilde" unicode="&#xd1;" horiz-adv-x="766" 
d="M67 690h174l250 -360c6.66699 -10 13.334 -21.833 20.001 -35.5s10.667 -25.5 12 -35.5h4v431h173v-690h-176l-250 363c-18.667 25.333 -28.334 49.333 -29.001 72h-6v-435h-172v690zM394 760c-14 7.33301 -26.668 17.6689 -38.001 31.002
c-6.66699 6.66699 -12 11.5 -16 14.5s-9 4.5 -15 4.5c-11.333 0 -20 -4.83301 -26 -14.5s-9.66699 -26.167 -11 -49.5h-113c0 52 12.5 90.667 37.5 116s59.5 38 103.5 38c20.667 0 37.334 -3.16699 50.001 -9.5s24.667 -14.833 36 -25.5
c8 -6.66699 14.167 -11.334 18.5 -14.001s9.5 -4 15.5 -4c9.33301 0 17.333 4.16699 24 12.5s10 21.166 10 38.499h117c0 -46.667 -11.667 -83.167 -35 -109.5s-55.333 -39.5 -96 -39.5c-27.333 0 -48 3.66699 -62 11z" />
    <glyph glyph-name="Ograve" unicode="&#xd2;" horiz-adv-x="724" 
d="M181.5 33.5c-50.333 29 -89.166 70.167 -116.499 123.5s-41 116 -41 188s13.667 134.667 41 188s66.166 94.5 116.499 123.5s109.5 43.5 177.5 43.5c69.333 0 129.666 -14.5 180.999 -43.5s90.833 -70.167 118.5 -123.5s41.5 -116 41.5 -188s-13.833 -134.667 -41.5 -188
s-67.167 -94.5 -118.5 -123.5s-111.666 -43.5 -180.999 -43.5c-68 0 -127.167 14.5 -177.5 43.5zM470.5 196c27.667 36.667 41.5 86.332 41.5 148.999s-13.833 112.334 -41.5 149.001s-64.834 55 -111.501 55c-44 0 -79.333 -18.5 -106 -55.5s-40 -86.5 -40 -148.5
s13.333 -111.5 40 -148.5s62 -55.5 106 -55.5c46.667 0 83.834 18.333 111.501 55zM132 889.998h160l115 -140h-98z" />
    <glyph glyph-name="Oacute" unicode="&#xd3;" horiz-adv-x="724" 
d="M181.5 33.5c-50.333 29 -89.166 70.167 -116.499 123.5s-41 116 -41 188s13.667 134.667 41 188s66.166 94.5 116.499 123.5s109.5 43.5 177.5 43.5c69.333 0 129.666 -14.5 180.999 -43.5s90.833 -70.167 118.5 -123.5s41.5 -116 41.5 -188s-13.833 -134.667 -41.5 -188
s-67.167 -94.5 -118.5 -123.5s-111.666 -43.5 -180.999 -43.5c-68 0 -127.167 14.5 -177.5 43.5zM470.5 196c27.667 36.667 41.5 86.332 41.5 148.999s-13.833 112.334 -41.5 149.001s-64.834 55 -111.501 55c-44 0 -79.333 -18.5 -106 -55.5s-40 -86.5 -40 -148.5
s13.333 -111.5 40 -148.5s62 -55.5 106 -55.5c46.667 0 83.834 18.333 111.501 55zM415 889.998h162l-162 -142h-113z" />
    <glyph glyph-name="Ocircumflex" unicode="&#xd4;" horiz-adv-x="724" 
d="M181.5 33.5c-50.333 29 -89.166 70.167 -116.499 123.5s-41 116 -41 188s13.667 134.667 41 188s66.166 94.5 116.499 123.5s109.5 43.5 177.5 43.5c69.333 0 129.666 -14.5 180.999 -43.5s90.833 -70.167 118.5 -123.5s41.5 -116 41.5 -188s-13.833 -134.667 -41.5 -188
s-67.167 -94.5 -118.5 -123.5s-111.666 -43.5 -180.999 -43.5c-68 0 -127.167 14.5 -177.5 43.5zM470.5 196c27.667 36.667 41.5 86.332 41.5 148.999s-13.833 112.334 -41.5 149.001s-64.834 55 -111.501 55c-44 0 -79.333 -18.5 -106 -55.5s-40 -86.5 -40 -148.5
s13.333 -111.5 40 -148.5s62 -55.5 106 -55.5c46.667 0 83.834 18.333 111.501 55zM310 893.998h96l118 -149h-123l-44 80l-43 -80h-122z" />
    <glyph glyph-name="Otilde" unicode="&#xd5;" horiz-adv-x="724" 
d="M181.5 33.5c-50.333 29 -89.166 70.167 -116.499 123.5s-41 116 -41 188s13.667 134.667 41 188s66.166 94.5 116.499 123.5s109.5 43.5 177.5 43.5c69.333 0 129.666 -14.5 180.999 -43.5s90.833 -70.167 118.5 -123.5s41.5 -116 41.5 -188s-13.833 -134.667 -41.5 -188
s-67.167 -94.5 -118.5 -123.5s-111.666 -43.5 -180.999 -43.5c-68 0 -127.167 14.5 -177.5 43.5zM470.5 196c27.667 36.667 41.5 86.332 41.5 148.999s-13.833 112.334 -41.5 149.001s-64.834 55 -111.501 55c-44 0 -79.333 -18.5 -106 -55.5s-40 -86.5 -40 -148.5
s13.333 -111.5 40 -148.5s62 -55.5 106 -55.5c46.667 0 83.834 18.333 111.501 55zM372 759.998c-14 7.33301 -26.668 17.6689 -38.001 31.002c-6.66699 6.66699 -12 11.5 -16 14.5s-9 4.5 -15 4.5c-11.333 0 -20 -4.83301 -26 -14.5s-9.66699 -26.167 -11 -49.5h-113
c0 52 12.5 90.667 37.5 116s59.5 38 103.5 38c20.667 0 37.334 -3.16699 50.001 -9.5s24.667 -14.833 36 -25.5c8 -6.66699 14.167 -11.334 18.5 -14.001s9.5 -4 15.5 -4c9.33301 0 17.333 4.16699 24 12.5s10 21.166 10 38.499h117c0 -46.667 -11.667 -83.167 -35 -109.5
s-55.333 -39.5 -96 -39.5c-27.333 0 -48 3.66699 -62 11z" />
    <glyph glyph-name="Odieresis" unicode="&#xd6;" horiz-adv-x="724" 
d="M181.5 33.5c-50.333 29 -89.166 70.167 -116.499 123.5s-41 116 -41 188s13.667 134.667 41 188s66.166 94.5 116.499 123.5s109.5 43.5 177.5 43.5c69.333 0 129.666 -14.5 180.999 -43.5s90.833 -70.167 118.5 -123.5s41.5 -116 41.5 -188s-13.833 -134.667 -41.5 -188
s-67.167 -94.5 -118.5 -123.5s-111.666 -43.5 -180.999 -43.5c-68 0 -127.167 14.5 -177.5 43.5zM470.5 196c27.667 36.667 41.5 86.332 41.5 148.999s-13.833 112.334 -41.5 149.001s-64.834 55 -111.501 55c-44 0 -79.333 -18.5 -106 -55.5s-40 -86.5 -40 -148.5
s13.333 -111.5 40 -148.5s62 -55.5 106 -55.5c46.667 0 83.834 18.333 111.501 55zM208 889.998h118v-119h-118v119zM391 889.998h117v-119h-117v119z" />
    <glyph glyph-name="multiply" unicode="&#xd7;" horiz-adv-x="596" 
d="M299 162l-132 -133l-91 90l133 133l-134 134l89 89l134 -134l133 133l91 -90l-133 -133l133 -134l-89 -89z" />
    <glyph glyph-name="Oslash" unicode="&#xd8;" horiz-adv-x="724" 
d="M700 345c0 -72 -13.833 -134.666 -41.5 -187.999s-67.167 -94.5 -118.5 -123.5s-111.666 -43.5 -180.999 -43.5c-85.333 0 -157.333 23 -216 69l-49 -49l-73 69l56 56c-35.333 59.333 -53 129.333 -53 210c0 72 13.667 134.667 41 188s66.166 94.5 116.499 123.5
s109.5 43.5 177.5 43.5c86 0 158 -22.333 216 -67l47 47l72 -69l-51 -51c38 -58.667 57 -130.334 57 -215.001zM219 277.001l235 235c-26 24.667 -57.667 37 -95 37c-44 0 -79.333 -18.5 -106 -55.5s-40 -86.5 -40 -148.5c0 -24 2 -46.667 6 -68zM470.5 196.001
c27.667 36.667 41.5 86.333 41.5 149c0 26.667 -2.66699 51.667 -8 75l-239 -239c25.333 -26.667 56.666 -40 93.999 -40c46.667 0 83.834 18.333 111.501 55z" />
    <glyph glyph-name="Ugrave" unicode="&#xd9;" horiz-adv-x="706" 
d="M136 62c-47.333 48 -71.001 116.334 -71.001 205.001v423h172v-428c0 -36.667 9.83301 -64.834 29.5 -84.501s47.834 -29.5 84.501 -29.5c37.333 0 66.333 9.83301 87 29.5s31 47.834 31 84.501v428h172v-418c0 -90.667 -24 -160.334 -72 -209.001s-120.667 -73 -218 -73
c-96 0 -167.667 24 -215 72zM126.999 890.001h160l115 -140h-98z" />
    <glyph glyph-name="Uacute" unicode="&#xda;" horiz-adv-x="706" 
d="M136 62c-47.333 48 -71.001 116.334 -71.001 205.001v423h172v-428c0 -36.667 9.83301 -64.834 29.5 -84.501s47.834 -29.5 84.501 -29.5c37.333 0 66.333 9.83301 87 29.5s31 47.834 31 84.501v428h172v-418c0 -90.667 -24 -160.334 -72 -209.001s-120.667 -73 -218 -73
c-96 0 -167.667 24 -215 72zM409.999 890.001h162l-162 -142h-113z" />
    <glyph glyph-name="Ucircumflex" unicode="&#xdb;" horiz-adv-x="706" 
d="M136 62c-47.333 48 -71.001 116.334 -71.001 205.001v423h172v-428c0 -36.667 9.83301 -64.834 29.5 -84.501s47.834 -29.5 84.501 -29.5c37.333 0 66.333 9.83301 87 29.5s31 47.834 31 84.501v428h172v-418c0 -90.667 -24 -160.334 -72 -209.001s-120.667 -73 -218 -73
c-96 0 -167.667 24 -215 72zM304.999 894.001h96l118 -149h-123l-44 80l-43 -80h-122z" />
    <glyph glyph-name="Udieresis" unicode="&#xdc;" horiz-adv-x="706" 
d="M136 62c-47.333 48 -71.001 116.334 -71.001 205.001v423h172v-428c0 -36.667 9.83301 -64.834 29.5 -84.501s47.834 -29.5 84.501 -29.5c37.333 0 66.333 9.83301 87 29.5s31 47.834 31 84.501v428h172v-418c0 -90.667 -24 -160.334 -72 -209.001s-120.667 -73 -218 -73
c-96 0 -167.667 24 -215 72zM202.999 890.001h118v-119h-118v119zM385.999 890.001h117v-119h-117v119z" />
    <glyph glyph-name="Yacute" unicode="&#xdd;" horiz-adv-x="695" 
d="M262 268l-265 422h194l161 -280l153 280h194l-266 -422v-268h-171v268zM403 890h162l-162 -142h-113z" />
    <glyph glyph-name="Thorn" unicode="&#xde;" horiz-adv-x="567" 
d="M67 690h146.999v-62h112c40 0 77.167 -9 111.5 -27s61.833 -44.833 82.5 -80.5s31 -79.5 31 -131.5c0 -44.667 -10.667 -83 -32 -115s-49.166 -56.333 -83.499 -73s-70.833 -25 -109.5 -25h-112v-176h-147v690zM325.999 318c25.333 0 44.666 6.99902 57.999 20.999
s20 34 20 60c0 26.667 -6.66699 47.334 -20 62.001s-32.666 22 -57.999 22h-112v-165h112z" />
    <glyph glyph-name="germandbls" unicode="&#xdf;" horiz-adv-x="584" 
d="M281 0l0.00292969 159.004c21.333 -15.333 44.666 -23 69.999 -23c16.667 0 29.5 4 38.5 12s13.5 16.333 13.5 25c0 8 -4 15.833 -12 23.5s-20.333 17.834 -37 30.501c-30.667 23.333 -54.334 45.166 -71.001 65.499s-25 45.5 -25 75.5
c0 24.667 5.83301 43.834 17.5 57.501s28.167 26.5 49.5 38.5c14 8.66699 24.167 16 30.5 22s9.5 13.333 9.5 22c0 12 -5.5 23.833 -16.5 35.5s-29.833 17.5 -56.5 17.5s-46.834 -7.33301 -60.501 -22s-20.5 -34.667 -20.5 -60v-479h-156v478c0 46 10.833 85.833 32.5 119.5
s50 59.167 85 76.5s72.167 26 111.5 26c37.333 0 74.166 -7.83301 110.499 -23.5s66.333 -38.667 90 -69s35.5 -66.5 35.5 -108.5c0 -28.667 -5.33301 -51.834 -16 -69.501s-22.5 -30.334 -35.5 -38.001s-28.167 -14.834 -45.5 -21.501
c-1.33301 -0.666992 -4.66602 -1.83398 -9.99902 -3.50098s-8 -3.83398 -8 -6.50098c0 -2 2.16699 -4.5 6.5 -7.5s9.83301 -6.16699 16.5 -9.5c36 -20 66.833 -43.333 92.5 -70s38.5 -63 38.5 -109c0 -34 -8.66699 -64 -26 -90s-41.333 -46.333 -72 -61
s-65.334 -22 -104.001 -22c-23.333 0 -48.666 3 -75.999 9z" />
    <glyph glyph-name="agrave" unicode="&#xe0;" horiz-adv-x="539" 
d="M72 25c-29.333 23.333 -43.999 56.3301 -43.999 98.9971c0 64 32.667 107 98 129c22 8 53.333 15 94 21l42 8c23.333 5.33301 41.166 11.333 53.499 18s18.5 16.334 18.5 29.001c0 11.333 -5.5 20 -16.5 26s-25.5 9 -43.5 9c-26 0 -51.833 -6 -77.5 -18
s-45.834 -27.333 -60.501 -46l-110 88c26 32.667 58.833 58.834 98.5 78.501s86.834 29.5 141.501 29.5c63.333 0 116.833 -14.167 160.5 -42.5s65.5 -71.166 65.5 -128.499v-260l2 -65h-141l-8 56h-7c-28 -44 -75.667 -66 -143 -66c-52.667 0 -93.667 11.667 -123 35z
M318.501 130.997c19 14 28.498 35.667 28.498 65v22h-5c-7.33301 -7.33301 -16.166 -12.833 -26.499 -16.5s-20.666 -6.66699 -30.999 -9s-17.833 -4.16602 -22.5 -5.49902c-21.333 -6 -36.5 -11.5 -45.5 -16.5s-13.5 -14.167 -13.5 -27.5
c0 -8.66699 3.66699 -16.334 11 -23.001s20.333 -10 39 -10c24.667 0 46.5 7 65.5 21zM28.999 689.997h160l115 -140h-98z" />
    <glyph glyph-name="aacute" unicode="&#xe1;" horiz-adv-x="539" 
d="M72 25c-29.333 23.333 -43.999 56.3301 -43.999 98.9971c0 64 32.667 107 98 129c22 8 53.333 15 94 21l42 8c23.333 5.33301 41.166 11.333 53.499 18s18.5 16.334 18.5 29.001c0 11.333 -5.5 20 -16.5 26s-25.5 9 -43.5 9c-26 0 -51.833 -6 -77.5 -18
s-45.834 -27.333 -60.501 -46l-110 88c26 32.667 58.833 58.834 98.5 78.501s86.834 29.5 141.501 29.5c63.333 0 116.833 -14.167 160.5 -42.5s65.5 -71.166 65.5 -128.499v-260l2 -65h-141l-8 56h-7c-28 -44 -75.667 -66 -143 -66c-52.667 0 -93.667 11.667 -123 35z
M318.501 130.997c19 14 28.498 35.667 28.498 65v22h-5c-7.33301 -7.33301 -16.166 -12.833 -26.499 -16.5s-20.666 -6.66699 -30.999 -9s-17.833 -4.16602 -22.5 -5.49902c-21.333 -6 -36.5 -11.5 -45.5 -16.5s-13.5 -14.167 -13.5 -27.5
c0 -8.66699 3.66699 -16.334 11 -23.001s20.333 -10 39 -10c24.667 0 46.5 7 65.5 21zM311.999 689.997h162l-162 -142h-113z" />
    <glyph glyph-name="acircumflex" unicode="&#xe2;" horiz-adv-x="539" 
d="M72 25c-29.333 23.333 -43.999 56.3301 -43.999 98.9971c0 64 32.667 107 98 129c22 8 53.333 15 94 21l42 8c23.333 5.33301 41.166 11.333 53.499 18s18.5 16.334 18.5 29.001c0 11.333 -5.5 20 -16.5 26s-25.5 9 -43.5 9c-26 0 -51.833 -6 -77.5 -18
s-45.834 -27.333 -60.501 -46l-110 88c26 32.667 58.833 58.834 98.5 78.501s86.834 29.5 141.501 29.5c63.333 0 116.833 -14.167 160.5 -42.5s65.5 -71.166 65.5 -128.499v-260l2 -65h-141l-8 56h-7c-28 -44 -75.667 -66 -143 -66c-52.667 0 -93.667 11.667 -123 35z
M318.501 130.997c19 14 28.498 35.667 28.498 65v22h-5c-7.33301 -7.33301 -16.166 -12.833 -26.499 -16.5s-20.666 -6.66699 -30.999 -9s-17.833 -4.16602 -22.5 -5.49902c-21.333 -6 -36.5 -11.5 -45.5 -16.5s-13.5 -14.167 -13.5 -27.5
c0 -8.66699 3.66699 -16.334 11 -23.001s20.333 -10 39 -10c24.667 0 46.5 7 65.5 21zM206.999 693.997h96l118 -149h-123l-44 80l-43 -80h-122z" />
    <glyph glyph-name="atilde" unicode="&#xe3;" horiz-adv-x="539" 
d="M72 25c-29.333 23.333 -43.999 56.3301 -43.999 98.9971c0 64 32.667 107 98 129c22 8 53.333 15 94 21l42 8c23.333 5.33301 41.166 11.333 53.499 18s18.5 16.334 18.5 29.001c0 11.333 -5.5 20 -16.5 26s-25.5 9 -43.5 9c-26 0 -51.833 -6 -77.5 -18
s-45.834 -27.333 -60.501 -46l-110 88c26 32.667 58.833 58.834 98.5 78.501s86.834 29.5 141.501 29.5c63.333 0 116.833 -14.167 160.5 -42.5s65.5 -71.166 65.5 -128.499v-260l2 -65h-141l-8 56h-7c-28 -44 -75.667 -66 -143 -66c-52.667 0 -93.667 11.667 -123 35z
M318.501 130.997c19 14 28.498 35.667 28.498 65v22h-5c-7.33301 -7.33301 -16.166 -12.833 -26.499 -16.5s-20.666 -6.66699 -30.999 -9s-17.833 -4.16602 -22.5 -5.49902c-21.333 -6 -36.5 -11.5 -45.5 -16.5s-13.5 -14.167 -13.5 -27.5
c0 -8.66699 3.66699 -16.334 11 -23.001s20.333 -10 39 -10c24.667 0 46.5 7 65.5 21zM268.999 559.997c-14 7.33301 -26.668 17.6689 -38.001 31.002c-6.66699 6.66699 -12 11.5 -16 14.5s-9 4.5 -15 4.5c-11.333 0 -20 -4.83301 -26 -14.5s-9.66699 -26.167 -11 -49.5
h-113c0 52 12.5 90.667 37.5 116s59.5 38 103.5 38c20.667 0 37.334 -3.16699 50.001 -9.5s24.667 -14.833 36 -25.5c8 -6.66699 14.167 -11.334 18.5 -14.001s9.5 -4 15.5 -4c9.33301 0 17.333 4.16699 24 12.5s10 21.166 10 38.499h117
c0 -46.667 -11.667 -83.167 -35 -109.5s-55.333 -39.5 -96 -39.5c-27.333 0 -48 3.66699 -62 11z" />
    <glyph glyph-name="adieresis" unicode="&#xe4;" horiz-adv-x="539" 
d="M72 25c-29.333 23.333 -43.999 56.3301 -43.999 98.9971c0 64 32.667 107 98 129c22 8 53.333 15 94 21l42 8c23.333 5.33301 41.166 11.333 53.499 18s18.5 16.334 18.5 29.001c0 11.333 -5.5 20 -16.5 26s-25.5 9 -43.5 9c-26 0 -51.833 -6 -77.5 -18
s-45.834 -27.333 -60.501 -46l-110 88c26 32.667 58.833 58.834 98.5 78.501s86.834 29.5 141.501 29.5c63.333 0 116.833 -14.167 160.5 -42.5s65.5 -71.166 65.5 -128.499v-260l2 -65h-141l-8 56h-7c-28 -44 -75.667 -66 -143 -66c-52.667 0 -93.667 11.667 -123 35z
M318.501 130.997c19 14 28.498 35.667 28.498 65v22h-5c-7.33301 -7.33301 -16.166 -12.833 -26.499 -16.5s-20.666 -6.66699 -30.999 -9s-17.833 -4.16602 -22.5 -5.49902c-21.333 -6 -36.5 -11.5 -45.5 -16.5s-13.5 -14.167 -13.5 -27.5
c0 -8.66699 3.66699 -16.334 11 -23.001s20.333 -10 39 -10c24.667 0 46.5 7 65.5 21zM104.999 689.997h118v-119h-118v119zM287.999 689.997h117v-119h-117v119z" />
    <glyph glyph-name="aring" unicode="&#xe5;" horiz-adv-x="539" 
d="M72 25c-29.333 23.333 -43.999 56.3301 -43.999 98.9971c0 64 32.667 107 98 129c22 8 53.333 15 94 21l42 8c23.333 5.33301 41.166 11.333 53.499 18s18.5 16.334 18.5 29.001c0 11.333 -5.5 20 -16.5 26s-25.5 9 -43.5 9c-26 0 -51.833 -6 -77.5 -18
s-45.834 -27.333 -60.501 -46l-110 88c26 32.667 58.833 58.834 98.5 78.501s86.834 29.5 141.501 29.5c63.333 0 116.833 -14.167 160.5 -42.5s65.5 -71.166 65.5 -128.499v-260l2 -65h-141l-8 56h-7c-28 -44 -75.667 -66 -143 -66c-52.667 0 -93.667 11.667 -123 35z
M318.501 130.997c19 14 28.498 35.667 28.498 65v22h-5c-7.33301 -7.33301 -16.166 -12.833 -26.499 -16.5s-20.666 -6.66699 -30.999 -9s-17.833 -4.16602 -22.5 -5.49902c-21.333 -6 -36.5 -11.5 -45.5 -16.5s-13.5 -14.167 -13.5 -27.5
c0 -8.66699 3.66699 -16.334 11 -23.001s20.333 -10 39 -10c24.667 0 46.5 7 65.5 21zM173.999 571.497c-21.333 22.333 -32 49.167 -32 80.5s10.833 58.166 32.5 80.499s48.5 33.5 80.5 33.5c31.333 0 58.333 -11.167 81 -33.5s34 -49.166 34 -80.499
c0 -32 -11.167 -59 -33.5 -81s-49.5 -33 -81.5 -33c-32.667 0 -59.667 11.167 -81 33.5zM290.499 616.998c9 9.33301 13.501 21.668 13.501 37.001c0 14 -4.33301 25.167 -13 33.5s-20.667 12.5 -36 12.5c-14 0 -25.5 -4.33301 -34.5 -13s-13.5 -19.667 -13.5 -33
c0 -14.667 4.66699 -26.834 14 -36.501s20.666 -14.5 33.999 -14.5c14.667 0 26.5 4.66699 35.5 14z" />
    <glyph glyph-name="ae" unicode="&#xe6;" horiz-adv-x="830" 
d="M658 174l150.002 -37.0039c-21.333 -44.667 -53.166 -79.667 -95.499 -105s-91.5 -38 -147.5 -38c-36 0 -69.167 5.83301 -99.5 17.5s-56.5 29.167 -78.5 52.5c-43.333 -49.333 -106 -74 -188 -74c-50.667 0 -92 11.167 -124 33.5s-48 54.833 -48 97.5
c0 32.667 8.83301 58.5 26.5 77.5s42.167 34.833 73.5 47.5c12.667 4.66699 34.334 11 65.001 19c31.333 8.66699 54.666 15.834 69.999 21.501s27.666 12.834 36.999 21.501c7.33301 4 12.166 8.83301 14.499 14.5s3.5 9.83398 3.5 12.501c0 10 -4.33301 17.833 -13 23.5
s-20.667 8.5 -36 8.5c-24.667 0 -48.667 -6.33301 -72 -19s-39.333 -29.667 -48 -51l-120 79c28 40.667 60 70.834 96 90.501s78.667 29.5 128 29.5c70.667 0 122.667 -20 156 -60c21.333 18.667 46 33 74 43s58 15 90 15c42 0 81 -8.16699 117 -24.5
s64.833 -40.833 86.5 -73.5s32.5 -72.667 32.5 -120c0 -28 -2 -50.667 -6 -68h-304c4 -51.333 29 -77 75 -77c35.333 0 63.666 14.333 84.999 43zM518.002 338.996c-11.333 -14 -17.667 -31.667 -19 -53h142c2 21.333 -2.83301 39 -14.5 53s-30.167 21 -55.5 21
c-24 0 -41.667 -7 -53 -21zM325.001 170.996c0 8 -2.66406 16.833 -7.99707 26.5s-12.666 18.5 -21.999 26.5c-12.667 -9.33301 -32.334 -20.333 -59.001 -33c-17.333 -8 -30.333 -15 -39 -21s-13.334 -13.333 -14.001 -22c-0.666992 -14.667 3.66602 -26.167 12.999 -34.5
s22.333 -12.5 39 -12.5c17.333 0 33.666 5.16699 48.999 15.5s27 23.5 35 39.5c4 3.33301 6 8.33301 6 15z" />
    <glyph glyph-name="ccedilla" unicode="&#xe7;" horiz-adv-x="522" 
d="M334.5 154c13 11.333 22.8311 28.3359 29.498 51.0029l142 -54c-28 -86 -82.333 -137.667 -163 -155l-35 -56c24 -5.33301 43.5 -16 58.5 -32s22.5 -35 22.5 -57c0 -29.333 -9.66699 -52.5 -29 -69.5s-45 -25.5 -77 -25.5c-26 0 -50.167 7.16699 -72.5 21.5
s-37.166 31.5 -44.499 51.5l75 34c2.66699 -8.66699 7.16699 -15.5 13.5 -20.5s13.166 -7.5 20.499 -7.5c6.66699 -0.666992 12.667 1 18 5s8 10.333 8 19s-2.5 15.667 -7.5 21s-13.833 9.66602 -26.5 12.999l-55 13l45 85c-49.333 2.66699 -91.166 15.5 -125.499 38.5
s-60.166 53.167 -77.499 90.5s-26 78.333 -26 123c0 47.333 9.5 90.166 28.5 128.499s47.333 68.666 85 90.999s83.167 33.5 136.5 33.5c114.667 0 192.667 -52.333 234 -157l-145 -58c-10 26 -21.667 43.833 -35 53.5s-29.333 14.5 -48 14.5c-58 0 -87 -36 -87 -108
c0 -69.333 28.333 -104 85 -104c22 0 39.5 5.66699 52.5 17z" />
    <glyph glyph-name="egrave" unicode="&#xe8;" horiz-adv-x="530" 
d="M357 174l150 -36.999c-21.333 -44.667 -53.166 -79.667 -95.499 -105s-91.5 -38 -147.5 -38c-44.667 0 -84.667 8.83301 -120 26.5s-63.5 44.5 -84.5 80.5s-31.5 80.333 -31.5 133c0 55.333 10.667 102.666 32 141.999s50.5 68.833 87.5 88.5s78.167 29.5 123.5 29.5
c42 0 81 -8.16699 117 -24.5s64.833 -40.833 86.5 -73.5s32.5 -72.667 32.5 -120c0 -28 -2 -50.667 -6 -68h-304c4 -51.333 29 -77 75 -77c35.333 0 63.666 14.333 84.999 43zM217 339.001c-11.333 -14 -17.667 -31.667 -19 -53h142c2 21.333 -2.83301 39 -14.5 53
s-30.167 21 -55.5 21c-24 0 -41.667 -7 -53 -21zM35.999 690.001h160l115 -140h-98z" />
    <glyph glyph-name="eacute" unicode="&#xe9;" horiz-adv-x="530" 
d="M357 174l150 -36.999c-21.333 -44.667 -53.166 -79.667 -95.499 -105s-91.5 -38 -147.5 -38c-44.667 0 -84.667 8.83301 -120 26.5s-63.5 44.5 -84.5 80.5s-31.5 80.333 -31.5 133c0 55.333 10.667 102.666 32 141.999s50.5 68.833 87.5 88.5s78.167 29.5 123.5 29.5
c42 0 81 -8.16699 117 -24.5s64.833 -40.833 86.5 -73.5s32.5 -72.667 32.5 -120c0 -28 -2 -50.667 -6 -68h-304c4 -51.333 29 -77 75 -77c35.333 0 63.666 14.333 84.999 43zM217 339.001c-11.333 -14 -17.667 -31.667 -19 -53h142c2 21.333 -2.83301 39 -14.5 53
s-30.167 21 -55.5 21c-24 0 -41.667 -7 -53 -21zM318.999 690.001h162l-162 -142h-113z" />
    <glyph glyph-name="ecircumflex" unicode="&#xea;" horiz-adv-x="530" 
d="M357 174l150 -36.999c-21.333 -44.667 -53.166 -79.667 -95.499 -105s-91.5 -38 -147.5 -38c-44.667 0 -84.667 8.83301 -120 26.5s-63.5 44.5 -84.5 80.5s-31.5 80.333 -31.5 133c0 55.333 10.667 102.666 32 141.999s50.5 68.833 87.5 88.5s78.167 29.5 123.5 29.5
c42 0 81 -8.16699 117 -24.5s64.833 -40.833 86.5 -73.5s32.5 -72.667 32.5 -120c0 -28 -2 -50.667 -6 -68h-304c4 -51.333 29 -77 75 -77c35.333 0 63.666 14.333 84.999 43zM217 339.001c-11.333 -14 -17.667 -31.667 -19 -53h142c2 21.333 -2.83301 39 -14.5 53
s-30.167 21 -55.5 21c-24 0 -41.667 -7 -53 -21zM213.999 694.001h96l118 -149h-123l-44 80l-43 -80h-122z" />
    <glyph glyph-name="edieresis" unicode="&#xeb;" horiz-adv-x="530" 
d="M357 174l150 -36.999c-21.333 -44.667 -53.166 -79.667 -95.499 -105s-91.5 -38 -147.5 -38c-44.667 0 -84.667 8.83301 -120 26.5s-63.5 44.5 -84.5 80.5s-31.5 80.333 -31.5 133c0 55.333 10.667 102.666 32 141.999s50.5 68.833 87.5 88.5s78.167 29.5 123.5 29.5
c42 0 81 -8.16699 117 -24.5s64.833 -40.833 86.5 -73.5s32.5 -72.667 32.5 -120c0 -28 -2 -50.667 -6 -68h-304c4 -51.333 29 -77 75 -77c35.333 0 63.666 14.333 84.999 43zM217 339.001c-11.333 -14 -17.667 -31.667 -19 -53h142c2 21.333 -2.83301 39 -14.5 53
s-30.167 21 -55.5 21c-24 0 -41.667 -7 -53 -21zM111.999 690.001h118v-119h-118v119zM294.999 690.001h117v-119h-117v119z" />
    <glyph glyph-name="igrave" unicode="&#xec;" horiz-adv-x="278" 
d="M55 488h168v-488h-168v488zM-87 690h160l115 -140h-98z" />
    <glyph glyph-name="iacute" unicode="&#xed;" horiz-adv-x="278" 
d="M55 488h168v-488h-168v488zM196 690h162l-162 -142h-113z" />
    <glyph glyph-name="icircumflex" unicode="&#xee;" horiz-adv-x="278" 
d="M55 488h168v-488h-168v488zM91 694h96l118 -149h-123l-44 80l-43 -80h-122z" />
    <glyph glyph-name="idieresis" unicode="&#xef;" horiz-adv-x="278" 
d="M55 488h168v-488h-168v488zM-11 690h118v-119h-118v119zM172 690h117v-119h-117v119z" />
    <glyph glyph-name="eth" unicode="&#xf0;" horiz-adv-x="574" 
d="M549 252c0 -46 -10.499 -88.833 -31.499 -128.5s-51.333 -71.5 -91 -95.5s-86.167 -36 -139.5 -36c-54.667 0 -101.667 12 -141 36s-69.166 55.833 -89.499 95.5s-30.5 82.5 -30.5 128.5s9.83301 88.833 29.5 128.5s48.167 71.5 85.5 95.5s80.666 36 129.999 36
c26.667 0 50.667 -4.5 72 -13.5s37.666 -21.167 48.999 -36.5c-30 52 -74 94 -132 126l-36 -55l-57 36l32 47c-16.667 6.66699 -38 13.334 -64 20.001l62 104c26.667 -10.667 48.667 -20 66 -28l44 64l55 -34l-41 -62c152 -94.667 228 -237.334 228 -428.001zM351.501 161
c15.667 23.333 23.5 53.665 23.5 90.998c0 38 -7.83301 68.5 -23.5 91.5s-37.167 34.5 -64.5 34.5c-28 0 -49.833 -11.667 -65.5 -35s-23.5 -53.666 -23.5 -90.999s7.83301 -67.666 23.5 -90.999s37.5 -35 65.5 -35c27.333 0 48.833 11.667 64.5 35z" />
    <glyph glyph-name="ntilde" unicode="&#xf1;" horiz-adv-x="594" 
d="M51 488h164.999v-57h6c14 21.333 34 38.5 60 51.5s56.667 19.5 92 19.5c50.667 0 91.667 -16.5 123 -49.5s47 -75.833 47 -128.5v-324h-167v293c0 22.667 -6.66699 40.167 -20 52.5s-31.333 18.5 -54 18.5c-25.333 0 -45.666 -6.66699 -60.999 -20s-23 -31.333 -23 -54
v-290h-168v488zM311.999 553c-14 7.33301 -26.668 17.6689 -38.001 31.002c-6.66699 6.66699 -12 11.5 -16 14.5s-9 4.5 -15 4.5c-11.333 0 -20 -4.83301 -26 -14.5s-9.66699 -26.167 -11 -49.5h-113c0 52 12.5 90.667 37.5 116s59.5 38 103.5 38
c20.667 0 37.334 -3.16699 50.001 -9.5s24.667 -14.833 36 -25.5c8 -6.66699 14.167 -11.334 18.5 -14.001s9.5 -4 15.5 -4c9.33301 0 17.333 4.16699 24 12.5s10 21.166 10 38.499h117c0 -46.667 -11.667 -83.167 -35 -109.5s-55.333 -39.5 -96 -39.5
c-27.333 0 -48 3.66699 -62 11z" />
    <glyph glyph-name="ograve" unicode="&#xf2;" horiz-adv-x="567" 
d="M152 19c-38.667 19.333 -69 48 -91 86s-33 83.667 -33 137c0 54 11 99.833 33 137.5s52.333 66.167 91 85.5s82.667 29 132 29s93.166 -9.66699 131.499 -29s68.5 -47.833 90.5 -85.5s33 -83.5 33 -137.5c0 -53.333 -11 -99 -33 -137s-52.167 -66.667 -90.5 -86
s-82.166 -29 -131.499 -29s-93.333 9.66699 -132 29zM347.5 155c15.667 18 23.5 47 23.5 87s-7.83301 69 -23.5 87s-36.834 27 -63.501 27s-47.834 -9 -63.501 -27s-23.5 -47 -23.5 -87s7.83301 -69 23.5 -87s36.834 -27 63.501 -27s47.834 9 63.501 27zM57 690h160
l115 -140h-98z" />
    <glyph glyph-name="oacute" unicode="&#xf3;" horiz-adv-x="567" 
d="M152 19c-38.667 19.333 -69 48 -91 86s-33 83.667 -33 137c0 54 11 99.833 33 137.5s52.333 66.167 91 85.5s82.667 29 132 29s93.166 -9.66699 131.499 -29s68.5 -47.833 90.5 -85.5s33 -83.5 33 -137.5c0 -53.333 -11 -99 -33 -137s-52.167 -66.667 -90.5 -86
s-82.166 -29 -131.499 -29s-93.333 9.66699 -132 29zM347.5 155c15.667 18 23.5 47 23.5 87s-7.83301 69 -23.5 87s-36.834 27 -63.501 27s-47.834 -9 -63.501 -27s-23.5 -47 -23.5 -87s7.83301 -69 23.5 -87s36.834 -27 63.501 -27s47.834 9 63.501 27zM340 690h162
l-162 -142h-113z" />
    <glyph glyph-name="ocircumflex" unicode="&#xf4;" horiz-adv-x="567" 
d="M152 19c-38.667 19.333 -69 48 -91 86s-33 83.667 -33 137c0 54 11 99.833 33 137.5s52.333 66.167 91 85.5s82.667 29 132 29s93.166 -9.66699 131.499 -29s68.5 -47.833 90.5 -85.5s33 -83.5 33 -137.5c0 -53.333 -11 -99 -33 -137s-52.167 -66.667 -90.5 -86
s-82.166 -29 -131.499 -29s-93.333 9.66699 -132 29zM347.5 155c15.667 18 23.5 47 23.5 87s-7.83301 69 -23.5 87s-36.834 27 -63.501 27s-47.834 -9 -63.501 -27s-23.5 -47 -23.5 -87s7.83301 -69 23.5 -87s36.834 -27 63.501 -27s47.834 9 63.501 27zM235 694h96
l118 -149h-123l-44 80l-43 -80h-122z" />
    <glyph glyph-name="otilde" unicode="&#xf5;" horiz-adv-x="567" 
d="M152 19c-38.667 19.333 -69 48 -91 86s-33 83.667 -33 137c0 54 11 99.833 33 137.5s52.333 66.167 91 85.5s82.667 29 132 29s93.166 -9.66699 131.499 -29s68.5 -47.833 90.5 -85.5s33 -83.5 33 -137.5c0 -53.333 -11 -99 -33 -137s-52.167 -66.667 -90.5 -86
s-82.166 -29 -131.499 -29s-93.333 9.66699 -132 29zM347.5 155c15.667 18 23.5 47 23.5 87s-7.83301 69 -23.5 87s-36.834 27 -63.501 27s-47.834 -9 -63.501 -27s-23.5 -47 -23.5 -87s7.83301 -69 23.5 -87s36.834 -27 63.501 -27s47.834 9 63.501 27zM297 560
c-14 7.33301 -26.668 17.6689 -38.001 31.002c-6.66699 6.66699 -12 11.5 -16 14.5s-9 4.5 -15 4.5c-11.333 0 -20 -4.83301 -26 -14.5s-9.66699 -26.167 -11 -49.5h-113c0 52 12.5 90.667 37.5 116s59.5 38 103.5 38c20.667 0 37.334 -3.16699 50.001 -9.5
s24.667 -14.833 36 -25.5c8 -6.66699 14.167 -11.334 18.5 -14.001s9.5 -4 15.5 -4c9.33301 0 17.333 4.16699 24 12.5s10 21.166 10 38.499h117c0 -46.667 -11.667 -83.167 -35 -109.5s-55.333 -39.5 -96 -39.5c-27.333 0 -48 3.66699 -62 11z" />
    <glyph glyph-name="odieresis" unicode="&#xf6;" horiz-adv-x="567" 
d="M152 19c-38.667 19.333 -69 48 -91 86s-33 83.667 -33 137c0 54 11 99.833 33 137.5s52.333 66.167 91 85.5s82.667 29 132 29s93.166 -9.66699 131.499 -29s68.5 -47.833 90.5 -85.5s33 -83.5 33 -137.5c0 -53.333 -11 -99 -33 -137s-52.167 -66.667 -90.5 -86
s-82.166 -29 -131.499 -29s-93.333 9.66699 -132 29zM347.5 155c15.667 18 23.5 47 23.5 87s-7.83301 69 -23.5 87s-36.834 27 -63.501 27s-47.834 -9 -63.501 -27s-23.5 -47 -23.5 -87s7.83301 -69 23.5 -87s36.834 -27 63.501 -27s47.834 9 63.501 27zM133 690h118v-119
h-118v119zM316 690h117v-119h-117v119z" />
    <glyph glyph-name="divide" unicode="&#xf7;" horiz-adv-x="595" 
d="M230 502h135v-116h-135v116zM74 317h447v-128h-447v128zM230 119h135v-117h-135v117z" />
    <glyph glyph-name="oslash" unicode="&#xf8;" horiz-adv-x="567" 
d="M539 242c0 -53.333 -11.001 -99.001 -33.001 -137.001s-52.167 -66.667 -90.5 -86s-82.166 -29 -131.499 -29c-62.667 0 -115.667 15 -159 45l-28 -28l-52 49l29 29c-30.667 42 -46 94.333 -46 157c0 54 11 99.833 33 137.5s52.333 66.167 91 85.5s82.667 29 132 29
c62.667 0 114.667 -14.333 156 -43l30 30l51 -49l-30 -30c32 -41.333 48 -94.666 48 -159.999zM198.999 209.999l133.001 133c-13.333 8.66699 -29.333 13 -48 13c-26.667 0 -47.834 -9 -63.501 -27s-23.5 -47 -23.5 -87c0 -8 0.666992 -18.667 2 -32zM347.5 154.999
c15.667 18 23.499 47 23.499 87c0 14 -1 26.333 -3 37l-135 -136c14 -10 31 -15 51 -15c26.667 0 47.834 9 63.501 27z" />
    <glyph glyph-name="ugrave" unicode="&#xf9;" horiz-adv-x="603" 
d="M552 0h-164v57h-7c-14.667 -23.333 -35.5 -41 -62.5 -53s-56.833 -18 -89.5 -18c-54 0 -95.833 16.833 -125.5 50.5s-44.5 76.167 -44.5 127.5v324h168v-279c0 -21.333 7.16699 -38.833 21.5 -52.5s33.5 -20.5 57.5 -20.5c26 0 45.667 7.16699 59 21.5s20 32.5 20 54.5
v276h167v-488zM78 690h160l115 -140h-98z" />
    <glyph glyph-name="uacute" unicode="&#xfa;" horiz-adv-x="603" 
d="M552 0h-164v57h-7c-14.667 -23.333 -35.5 -41 -62.5 -53s-56.833 -18 -89.5 -18c-54 0 -95.833 16.833 -125.5 50.5s-44.5 76.167 -44.5 127.5v324h168v-279c0 -21.333 7.16699 -38.833 21.5 -52.5s33.5 -20.5 57.5 -20.5c26 0 45.667 7.16699 59 21.5s20 32.5 20 54.5
v276h167v-488zM361 690h162l-162 -142h-113z" />
    <glyph glyph-name="ucircumflex" unicode="&#xfb;" horiz-adv-x="603" 
d="M552 0h-164v57h-7c-14.667 -23.333 -35.5 -41 -62.5 -53s-56.833 -18 -89.5 -18c-54 0 -95.833 16.833 -125.5 50.5s-44.5 76.167 -44.5 127.5v324h168v-279c0 -21.333 7.16699 -38.833 21.5 -52.5s33.5 -20.5 57.5 -20.5c26 0 45.667 7.16699 59 21.5s20 32.5 20 54.5
v276h167v-488zM256 694h96l118 -149h-123l-44 80l-43 -80h-122z" />
    <glyph glyph-name="udieresis" unicode="&#xfc;" horiz-adv-x="603" 
d="M552 0h-164v57h-7c-14.667 -23.333 -35.5 -41 -62.5 -53s-56.833 -18 -89.5 -18c-54 0 -95.833 16.833 -125.5 50.5s-44.5 76.167 -44.5 127.5v324h168v-279c0 -21.333 7.16699 -38.833 21.5 -52.5s33.5 -20.5 57.5 -20.5c26 0 45.667 7.16699 59 21.5s20 32.5 20 54.5
v276h167v-488zM154 690h118v-119h-118v119zM337 690h117v-119h-117v119z" />
    <glyph glyph-name="yacute" unicode="&#xfd;" horiz-adv-x="511" 
d="M40 -24l59 -0.000976562c32.667 0 53 8.33301 61 25l16 37l-193 450h179l69 -214c4 -12 7.83301 -28 11.5 -48s5.5 -34.667 5.5 -44h9c0 8.66699 2 23.334 6 44.001s8 36.667 12 48l72 214h179l-220 -555c-23.333 -64 -66.333 -96 -129 -96h-137v139zM313 689.999h162
l-162 -142h-113z" />
    <glyph glyph-name="thorn" unicode="&#xfe;" horiz-adv-x="578" 
d="M55 688l169.999 0.00390625v-257h1c9.33301 22.667 26.833 39.5 52.5 50.5s49.834 16.5 72.501 16.5c46 0 85.667 -11.833 119 -35.5s58.833 -54.834 76.5 -93.501s26.5 -80.334 26.5 -125.001s-8.83301 -86.334 -26.5 -125.001s-43.167 -69.834 -76.5 -93.501
s-73 -35.5 -119 -35.5c-22 0 -45 4.83301 -69 14.5s-42.333 26.167 -55 49.5h-5v-217h-167v851zM378.999 172.004c16 16.667 23.999 40.6689 23.999 72.002s-8.16699 56.666 -24.5 75.999s-38.166 29 -65.499 29c-30 0 -52.833 -9.33301 -68.5 -28
s-23.5 -44.334 -23.5 -77.001c0 -64.667 30.667 -97 92 -97c28 0 50 8.33301 66 25z" />
    <glyph glyph-name="ydieresis" unicode="&#xff;" horiz-adv-x="511" 
d="M40 -24l59 -0.000976562c32.667 0 53 8.33301 61 25l16 37l-193 450h179l69 -214c4 -12 7.83301 -28 11.5 -48s5.5 -34.667 5.5 -44h9c0 8.66699 2 23.334 6 44.001s8 36.667 12 48l72 214h179l-220 -555c-23.333 -64 -66.333 -96 -129 -96h-137v139zM106 689.999h118
v-119h-118v119zM289 689.999h117v-119h-117v119z" />
    <glyph glyph-name="Amacron" unicode="&#x100;" horiz-adv-x="707" 
d="M475 153h-241l-50 -153h-186l243 690h224l244 -690h-185zM430 291l-60.001 188c-3.33301 8 -6.16602 16.5 -8.49902 25.5s-3.5 18.167 -3.5 27.5h-5c0.666992 -12 -1 -23.167 -5 -33.5s-6.33301 -16.833 -7 -19.5l-62 -188h151zM211.999 856h287v-82h-287v82z" />
    <glyph glyph-name="amacron" unicode="&#x101;" horiz-adv-x="539" 
d="M72 25c-29.333 23.333 -43.999 56.3301 -43.999 98.9971c0 64 32.667 107 98 129c22 8 53.333 15 94 21l42 8c23.333 5.33301 41.166 11.333 53.499 18s18.5 16.334 18.5 29.001c0 11.333 -5.5 20 -16.5 26s-25.5 9 -43.5 9c-26 0 -51.833 -6 -77.5 -18
s-45.834 -27.333 -60.501 -46l-110 88c26 32.667 58.833 58.834 98.5 78.501s86.834 29.5 141.501 29.5c63.333 0 116.833 -14.167 160.5 -42.5s65.5 -71.166 65.5 -128.499v-260l2 -65h-141l-8 56h-7c-28 -44 -75.667 -66 -143 -66c-52.667 0 -93.667 11.667 -123 35z
M318.501 130.997c19 14 28.498 35.667 28.498 65v22h-5c-7.33301 -7.33301 -16.166 -12.833 -26.499 -16.5s-20.666 -6.66699 -30.999 -9s-17.833 -4.16602 -22.5 -5.49902c-21.333 -6 -36.5 -11.5 -45.5 -16.5s-13.5 -14.167 -13.5 -27.5
c0 -8.66699 3.66699 -16.334 11 -23.001s20.333 -10 39 -10c24.667 0 46.5 7 65.5 21zM113.999 655.997h287v-82h-287v82z" />
    <glyph glyph-name="Abreve" unicode="&#x102;" horiz-adv-x="707" 
d="M475 153h-241l-50 -153h-186l243 690h224l244 -690h-185zM430 291l-60.001 188c-3.33301 8 -6.16602 16.5 -8.49902 25.5s-3.5 18.167 -3.5 27.5h-5c0.666992 -12 -1 -23.167 -5 -33.5s-6.33301 -16.833 -7 -19.5l-62 -188h151zM231.999 759.5
c-22.667 21.667 -33.998 54.832 -33.998 99.499h99c0 -19.333 5.16699 -32.5 15.5 -39.5s24.166 -10.5 41.499 -10.5c20 0 34.833 3.83301 44.5 11.5s14.5 20.5 14.5 38.5h102c0 -47.333 -12 -81.166 -36 -101.499s-65.667 -30.5 -125 -30.5
c-58.667 0 -99.334 10.833 -122.001 32.5z" />
    <glyph glyph-name="abreve" unicode="&#x103;" horiz-adv-x="539" 
d="M72 25c-29.333 23.333 -43.999 56.3301 -43.999 98.9971c0 64 32.667 107 98 129c22 8 53.333 15 94 21l42 8c23.333 5.33301 41.166 11.333 53.499 18s18.5 16.334 18.5 29.001c0 11.333 -5.5 20 -16.5 26s-25.5 9 -43.5 9c-26 0 -51.833 -6 -77.5 -18
s-45.834 -27.333 -60.501 -46l-110 88c26 32.667 58.833 58.834 98.5 78.501s86.834 29.5 141.501 29.5c63.333 0 116.833 -14.167 160.5 -42.5s65.5 -71.166 65.5 -128.499v-260l2 -65h-141l-8 56h-7c-28 -44 -75.667 -66 -143 -66c-52.667 0 -93.667 11.667 -123 35z
M318.501 130.997c19 14 28.498 35.667 28.498 65v22h-5c-7.33301 -7.33301 -16.166 -12.833 -26.499 -16.5s-20.666 -6.66699 -30.999 -9s-17.833 -4.16602 -22.5 -5.49902c-21.333 -6 -36.5 -11.5 -45.5 -16.5s-13.5 -14.167 -13.5 -27.5
c0 -8.66699 3.66699 -16.334 11 -23.001s20.333 -10 39 -10c24.667 0 46.5 7 65.5 21zM133.999 559.497c-22.667 21.667 -33.998 54.832 -33.998 99.499h99c0 -19.333 5.16699 -32.5 15.5 -39.5s24.166 -10.5 41.499 -10.5c20 0 34.833 3.83301 44.5 11.5
s14.5 20.5 14.5 38.5h102c0 -47.333 -12 -81.166 -36 -101.499s-65.667 -30.5 -125 -30.5c-58.667 0 -99.334 10.833 -122.001 32.5z" />
    <glyph glyph-name="Aogonek" unicode="&#x104;" horiz-adv-x="707" 
d="M753 -171c-28 -42.667 -67 -64 -117 -64c-31.333 0 -59.166 8.5 -83.499 25.5s-36.5 44.5 -36.5 82.5c0 50 26.667 92.333 80 127h-72l-49 153h-241l-50 -153h-186l243 690h224l244 -690c-18.667 -17.333 -32.667 -30 -42 -38c-20.667 -16.667 -35.5 -30.5 -44.5 -41.5
s-13.5 -22.5 -13.5 -34.5c0 -8 2.16699 -14.333 6.5 -19s10.166 -7 17.499 -7c2 0 5.66699 0.666992 11 2c11.333 2 21.333 9.33301 30 22zM430 291l-60.001 188c-3.33301 8 -6.16602 16.5 -8.49902 25.5s-3.5 18.167 -3.5 27.5h-5c0.666992 -12 -1 -23.167 -5 -33.5
s-6.33301 -16.833 -7 -19.5l-62 -188h151z" />
    <glyph glyph-name="aogonek" unicode="&#x105;" horiz-adv-x="539" 
d="M538 -171c-28 -42.667 -66.999 -64.0029 -116.999 -64.0029c-31.333 0 -59.166 8.5 -83.499 25.5s-36.5 44.5 -36.5 82.5c0 50 26.667 92.333 80 127h-28l-8 56h-7c-28 -44 -75.667 -66 -143 -66c-52.667 0 -93.667 11.667 -123 35s-44 56.333 -44 99
c0 64 32.667 107 98 129c22 8 53.333 15 94 21l42 8c23.333 5.33301 41.166 11.333 53.499 18s18.5 16.334 18.5 29.001c0 11.333 -5.5 20 -16.5 26s-25.5 9 -43.5 9c-26 0 -51.833 -6 -77.5 -18s-45.834 -27.333 -60.501 -46l-110 88c26 32.667 58.833 58.834 98.5 78.501
s86.834 29.5 141.501 29.5c63.333 0 116.833 -14.167 160.5 -42.5s65.5 -71.166 65.5 -128.499v-260l2 -65c-18.667 -17.333 -32.667 -30 -42 -38c-20.667 -16.667 -35.5 -30.5 -44.5 -41.5s-13.5 -22.5 -13.5 -34.5c0 -8 2.16699 -14.333 6.5 -19s10.166 -7 17.499 -7
c2 0 5.66699 0.666992 11 2c11.333 2 21.333 9.33301 30 22zM347.001 217.997h-5.00195c-7.33301 -7.33301 -16.166 -12.833 -26.499 -16.5s-20.666 -6.66699 -30.999 -9s-17.833 -4.16602 -22.5 -5.49902c-21.333 -6 -36.5 -11.5 -45.5 -16.5s-13.5 -14.167 -13.5 -27.5
c0 -8.66699 3.66699 -16.334 11 -23.001s20.333 -10 39 -10c24.667 0 46.5 7 65.5 21s28.5 35.667 28.5 65v22z" />
    <glyph glyph-name="Cacute" unicode="&#x106;" horiz-adv-x="644" 
d="M156 40.5c-46.667 33.667 -80.3369 77.3301 -101.004 130.997s-31 111.5 -31 173.5c0 62.667 10.333 120.834 31 174.501s54.334 97.334 101.001 131.001s107 50.5 181 50.5c75.333 0 137.333 -17.5 186 -52.5s85.334 -88.5 110.001 -160.5l-166 -62
c-7.33301 40.667 -22.666 71.334 -45.999 92.001s-51.666 31 -84.999 31c-43.333 0 -77.666 -17.5 -102.999 -52.5s-38 -84.5 -38 -148.5c0 -63.333 12.833 -113.5 38.5 -150.5s58.834 -55.5 99.501 -55.5c33.333 0 61.666 10.667 84.999 32s40.666 53.333 51.999 96
l165 -66c-47.333 -142.667 -147 -214 -299 -214c-73.333 0 -133.333 16.833 -180 50.5zM366.997 889.996h162l-162 -142h-113z" />
    <glyph glyph-name="cacute" unicode="&#x107;" horiz-adv-x="522" 
d="M141.5 23.5c-37.667 22.333 -66.002 52.6699 -85.002 91.0029s-28.5 81.166 -28.5 128.499s9.5 90.166 28.5 128.499s47.333 68.666 85 90.999s83.167 33.5 136.5 33.5c114.667 0 192.667 -52.333 234 -157l-145 -58c-10 26 -21.667 43.833 -35 53.5
s-29.333 14.5 -48 14.5c-58 0 -87 -36 -87 -108c0 -69.333 28.333 -104 85 -104c22 0 39.5 5.66699 52.5 17s22.833 28.333 29.5 51l142 -54c-17.333 -53.333 -45.166 -93.5 -83.499 -120.5s-86.166 -40.5 -143.499 -40.5c-54 0 -99.833 11.167 -137.5 33.5z
M307.998 690.004h162l-162 -142h-113z" />
    <glyph glyph-name="Cdotaccent" unicode="&#x10a;" horiz-adv-x="644" 
d="M156 40.5c-46.667 33.667 -80.3369 77.3301 -101.004 130.997s-31 111.5 -31 173.5c0 62.667 10.333 120.834 31 174.501s54.334 97.334 101.001 131.001s107 50.5 181 50.5c75.333 0 137.333 -17.5 186 -52.5s85.334 -88.5 110.001 -160.5l-166 -62
c-7.33301 40.667 -22.666 71.334 -45.999 92.001s-51.666 31 -84.999 31c-43.333 0 -77.666 -17.5 -102.999 -52.5s-38 -84.5 -38 -148.5c0 -63.333 12.833 -113.5 38.5 -150.5s58.834 -55.5 99.501 -55.5c33.333 0 61.666 10.667 84.999 32s40.666 53.333 51.999 96
l165 -66c-47.333 -142.667 -147 -214 -299 -214c-73.333 0 -133.333 16.833 -180 50.5zM244.997 889.996h134v-127h-134v127z" />
    <glyph glyph-name="cdotaccent" unicode="&#x10b;" horiz-adv-x="522" 
d="M141.5 23.5c-37.667 22.333 -66.002 52.6699 -85.002 91.0029s-28.5 81.166 -28.5 128.499s9.5 90.166 28.5 128.499s47.333 68.666 85 90.999s83.167 33.5 136.5 33.5c114.667 0 192.667 -52.333 234 -157l-145 -58c-10 26 -21.667 43.833 -35 53.5
s-29.333 14.5 -48 14.5c-58 0 -87 -36 -87 -108c0 -69.333 28.333 -104 85 -104c22 0 39.5 5.66699 52.5 17s22.833 28.333 29.5 51l142 -54c-17.333 -53.333 -45.166 -93.5 -83.499 -120.5s-86.166 -40.5 -143.499 -40.5c-54 0 -99.833 11.167 -137.5 33.5z
M185.998 690.004h134v-127h-134v127z" />
    <glyph glyph-name="Ccaron" unicode="&#x10c;" horiz-adv-x="644" 
d="M156 40.5c-46.667 33.667 -80.3369 77.3301 -101.004 130.997s-31 111.5 -31 173.5c0 62.667 10.333 120.834 31 174.501s54.334 97.334 101.001 131.001s107 50.5 181 50.5c75.333 0 137.333 -17.5 186 -52.5s85.334 -88.5 110.001 -160.5l-166 -62
c-7.33301 40.667 -22.666 71.334 -45.999 92.001s-51.666 31 -84.999 31c-43.333 0 -77.666 -17.5 -102.999 -52.5s-38 -84.5 -38 -148.5c0 -63.333 12.833 -113.5 38.5 -150.5s58.834 -55.5 99.501 -55.5c33.333 0 61.666 10.667 84.999 32s40.666 53.333 51.999 96
l165 -66c-47.333 -142.667 -147 -214 -299 -214c-73.333 0 -133.333 16.833 -180 50.5zM144.997 889.996h122l43 -79l43 79h124l-119 -149h-96z" />
    <glyph glyph-name="ccaron" unicode="&#x10d;" horiz-adv-x="522" 
d="M141.5 23.5c-37.667 22.333 -66.002 52.6699 -85.002 91.0029s-28.5 81.166 -28.5 128.499s9.5 90.166 28.5 128.499s47.333 68.666 85 90.999s83.167 33.5 136.5 33.5c114.667 0 192.667 -52.333 234 -157l-145 -58c-10 26 -21.667 43.833 -35 53.5
s-29.333 14.5 -48 14.5c-58 0 -87 -36 -87 -108c0 -69.333 28.333 -104 85 -104c22 0 39.5 5.66699 52.5 17s22.833 28.333 29.5 51l142 -54c-17.333 -53.333 -45.166 -93.5 -83.499 -120.5s-86.166 -40.5 -143.499 -40.5c-54 0 -99.833 11.167 -137.5 33.5zM85.998 690.004
h122l43 -79l43 79h124l-119 -149h-96z" />
    <glyph glyph-name="Dcaron" unicode="&#x10e;" horiz-adv-x="684" 
d="M67 690h221.999c121.333 0 213.5 -30.333 276.5 -91s94.5 -145 94.5 -253c0 -111.333 -31.667 -196.833 -95 -256.5s-155.666 -89.5 -276.999 -89.5h-221v690zM275.999 152c71.333 0 124.833 16.5 160.5 49.5s53.5 81.5 53.5 145.5c0 62 -16.833 109.167 -50.5 141.5
s-84.5 48.5 -152.5 48.5h-48v-385h37zM113.999 890h122l43 -79l43 79h124l-119 -149h-96z" />
    <glyph glyph-name="dcaron" unicode="&#x10f;" horiz-adv-x="629" 
d="M756 692v-154l-84 -132h-74l46 132h-62v154h174zM378 690h168.004v-690h-164v69h-1c-10 -23.333 -28.333 -42.333 -55 -57s-56.667 -22 -90 -22c-40.667 0 -76.834 11 -108.501 33s-56.334 52.167 -74.001 90.5s-26.5 81.833 -26.5 130.5s8.66699 92.167 26 130.5
s41.666 68.5 72.999 90.5s67 33 107 33c31.333 0 60.166 -6.66699 86.499 -20s45.833 -31 58.5 -53v265zM355.004 173c16.667 18.667 25 43 25 73c0 30.667 -8.33301 55.667 -25 75s-38.334 29 -65.001 29c-28 0 -50.5 -9.66699 -67.5 -29s-25.5 -44.333 -25.5 -75
c0 -30 8.5 -54.333 25.5 -73s39.5 -28 67.5 -28c26.667 0 48.334 9.33301 65.001 28z" />
    <glyph glyph-name="Dcroat" unicode="&#x110;" horiz-adv-x="683" 
d="M61 281h-56.001v134h56v275h213c121.333 0 215 -30.333 281 -91s99 -147 99 -259c0 -71.333 -15 -132.5 -45 -183.5s-73.667 -89.833 -131 -116.5s-125.666 -40 -204.999 -40h-212v281zM260.999 142c78.667 0 139 16 181 48s63 83.667 63 155
c0 70.667 -18.333 122.5 -55 155.5s-96 49.5 -178 49.5h-63v-135h176v-134h-176v-139h52z" />
    <glyph glyph-name="dcroat" unicode="&#x111;" horiz-adv-x="597" 
d="M592 562h-45.9961v-562h-164v69h-1c-10 -23.333 -28.333 -42.333 -55 -57s-56.667 -22 -90 -22c-40.667 0 -76.834 11 -108.501 33s-56.334 52.167 -74.001 90.5s-26.5 81.833 -26.5 130.5s8.66699 92.167 26 130.5s41.666 68.5 72.999 90.5s67 33 107 33
c31.333 0 60.166 -6.66699 86.499 -20s45.833 -31 58.5 -53v137h-113v71h113v57h168v-57h46v-71zM355.004 173c16.667 18.667 25 43 25 73c0 30.667 -8.33301 55.667 -25 75s-38.334 29 -65.001 29c-28 0 -50.5 -9.66699 -67.5 -29s-25.5 -44.333 -25.5 -75
c0 -30 8.5 -54.333 25.5 -73s39.5 -28 67.5 -28c26.667 0 48.334 9.33301 65.001 28z" />
    <glyph glyph-name="Emacron" unicode="&#x112;" horiz-adv-x="583" 
d="M67 690h473v-153h-301v-114h285v-154h-285v-115h301v-154h-473v690zM162 856h287v-82h-287v82z" />
    <glyph glyph-name="emacron" unicode="&#x113;" horiz-adv-x="530" 
d="M357 174l150 -36.999c-21.333 -44.667 -53.166 -79.667 -95.499 -105s-91.5 -38 -147.5 -38c-44.667 0 -84.667 8.83301 -120 26.5s-63.5 44.5 -84.5 80.5s-31.5 80.333 -31.5 133c0 55.333 10.667 102.666 32 141.999s50.5 68.833 87.5 88.5s78.167 29.5 123.5 29.5
c42 0 81 -8.16699 117 -24.5s64.833 -40.833 86.5 -73.5s32.5 -72.667 32.5 -120c0 -28 -2 -50.667 -6 -68h-304c4 -51.333 29 -77 75 -77c35.333 0 63.666 14.333 84.999 43zM217 339.001c-11.333 -14 -17.667 -31.667 -19 -53h142c2 21.333 -2.83301 39 -14.5 53
s-30.167 21 -55.5 21c-24 0 -41.667 -7 -53 -21zM120.999 656.001h287v-82h-287v82z" />
    <glyph glyph-name="Edotaccent" unicode="&#x116;" horiz-adv-x="583" 
d="M67 690h473v-153h-301v-114h285v-154h-285v-115h301v-154h-473v690zM238 890h134v-127h-134v127z" />
    <glyph glyph-name="edotaccent" unicode="&#x117;" horiz-adv-x="530" 
d="M357 174l150 -36.999c-21.333 -44.667 -53.166 -79.667 -95.499 -105s-91.5 -38 -147.5 -38c-44.667 0 -84.667 8.83301 -120 26.5s-63.5 44.5 -84.5 80.5s-31.5 80.333 -31.5 133c0 55.333 10.667 102.666 32 141.999s50.5 68.833 87.5 88.5s78.167 29.5 123.5 29.5
c42 0 81 -8.16699 117 -24.5s64.833 -40.833 86.5 -73.5s32.5 -72.667 32.5 -120c0 -28 -2 -50.667 -6 -68h-304c4 -51.333 29 -77 75 -77c35.333 0 63.666 14.333 84.999 43zM217 339.001c-11.333 -14 -17.667 -31.667 -19 -53h142c2 21.333 -2.83301 39 -14.5 53
s-30.167 21 -55.5 21c-24 0 -41.667 -7 -53 -21zM196.999 690.001h134v-127h-134v127z" />
    <glyph glyph-name="Eogonek" unicode="&#x118;" horiz-adv-x="583" 
d="M584 -171c-28 -42.667 -67 -64 -117 -64c-31.333 0 -59.166 8.5 -83.499 25.5s-36.5 44.5 -36.5 82.5c0 50 26.667 92.333 80 127h-360v690h473v-153h-301v-114h285v-154h-285v-115h301v-154c-18.667 -17.333 -32.667 -30 -42 -38
c-20.667 -16.667 -35.5 -30.5 -44.5 -41.5s-13.5 -22.5 -13.5 -34.5c0 -8 2.16699 -14.333 6.5 -19s10.166 -7 17.499 -7c2 0 5.66699 0.666992 11 2c11.333 2 21.333 9.33301 30 22z" />
    <glyph glyph-name="eogonek" unicode="&#x119;" horiz-adv-x="530" 
d="M457 67l2.00098 0.000976562c-18.667 -17.333 -32.667 -30 -42 -38c-20.667 -16.667 -35.5 -30.5 -44.5 -41.5s-13.5 -22.5 -13.5 -34.5c0 -8 2.16699 -14.333 6.5 -19s10.166 -7 17.499 -7c2 0 5.66699 0.666992 11 2c11.333 2 21.333 9.33301 30 22l79 -55
c-28 -42.667 -67 -64 -117 -64c-31.333 0 -59.166 8.5 -83.499 25.5s-36.5 44.5 -36.5 82.5c0 18.667 4 36.667 12 54h-14c-44.667 0 -84.667 8.83301 -120 26.5s-63.5 44.5 -84.5 80.5s-31.5 80.333 -31.5 133c0 55.333 10.667 102.666 32 141.999s50.5 68.833 87.5 88.5
s78.167 29.5 123.5 29.5c42 0 81 -8.16699 117 -24.5s64.833 -40.833 86.5 -73.5s32.5 -72.667 32.5 -120c0 -28 -2 -50.667 -6 -68h-304c4 -51.333 29 -77 75 -77c35.333 0 63.666 14.333 84.999 43l150 -37c-14 -28.667 -30.667 -52 -50 -70zM217.001 339.001
c-11.333 -14 -17.667 -31.667 -19 -53h142c2 21.333 -2.83301 39 -14.5 53s-30.167 21 -55.5 21c-24 0 -41.667 -7 -53 -21z" />
    <glyph glyph-name="Ecaron" unicode="&#x11a;" horiz-adv-x="583" 
d="M67 690h473v-153h-301v-114h285v-154h-285v-115h301v-154h-473v690zM138 890h122l43 -79l43 79h124l-119 -149h-96z" />
    <glyph glyph-name="ecaron" unicode="&#x11b;" horiz-adv-x="530" 
d="M357 174l150 -36.999c-21.333 -44.667 -53.166 -79.667 -95.499 -105s-91.5 -38 -147.5 -38c-44.667 0 -84.667 8.83301 -120 26.5s-63.5 44.5 -84.5 80.5s-31.5 80.333 -31.5 133c0 55.333 10.667 102.666 32 141.999s50.5 68.833 87.5 88.5s78.167 29.5 123.5 29.5
c42 0 81 -8.16699 117 -24.5s64.833 -40.833 86.5 -73.5s32.5 -72.667 32.5 -120c0 -28 -2 -50.667 -6 -68h-304c4 -51.333 29 -77 75 -77c35.333 0 63.666 14.333 84.999 43zM217 339.001c-11.333 -14 -17.667 -31.667 -19 -53h142c2 21.333 -2.83301 39 -14.5 53
s-30.167 21 -55.5 21c-24 0 -41.667 -7 -53 -21zM96.999 690.001h122l43 -79l43 79h124l-119 -149h-96z" />
    <glyph glyph-name="Gbreve" unicode="&#x11e;" horiz-adv-x="716" 
d="M664 397l-0.00195312 -397.002h-131l-6 90c-20 -34.667 -47.5 -60 -82.5 -76s-74.167 -24 -117.5 -24c-62 0 -116 16.667 -162 50s-81 77.333 -105 132s-36 113.667 -36 177s12.667 121.833 38 175.5s62.5 96.5 111.5 128.5s108.167 48 177.5 48
c52 0 99.833 -9 143.5 -27s80 -42.167 109 -72.5s48.5 -63.5 58.5 -99.5l-145 -57c-10.667 36.667 -29.167 64.834 -55.5 84.501s-59.166 29.5 -98.499 29.5c-57.333 0 -99.666 -20 -126.999 -60s-41 -91 -41 -153s13.667 -112 41 -150s70 -57 128 -57
c32 0 59.333 5.83301 82 17.5s39.5 26.834 50.5 45.501s16.167 38 15.5 58h-145v137h297zM232.998 759.498c-22.667 21.667 -33.998 54.832 -33.998 99.499h99c0 -19.333 5.16699 -32.5 15.5 -39.5s24.166 -10.5 41.499 -10.5c20 0 34.833 3.83301 44.5 11.5
s14.5 20.5 14.5 38.5h102c0 -47.333 -12 -81.166 -36 -101.499s-65.667 -30.5 -125 -30.5c-58.667 0 -99.334 10.833 -122.001 32.5z" />
    <glyph glyph-name="gbreve" unicode="&#x11f;" horiz-adv-x="598" 
d="M543 488l0.000976562 -422.999c0 -81.333 -24.5 -141.333 -73.5 -180s-113.167 -58 -192.5 -58c-49.333 0 -93.333 7.33301 -132 22s-75.334 36 -110.001 64l86 110c40 -38 91.667 -57 155 -57c27.333 0 50.833 7.83301 70.5 23.5s29.5 40.834 29.5 75.501v35
c-7.33301 -16.667 -22.833 -31.334 -46.5 -44.001s-51.167 -19 -82.5 -19c-41.333 0 -78.5 8.83301 -111.5 26.5s-59.167 43.834 -78.5 78.501s-29 76.667 -29 126s9.5 91.166 28.5 125.499s44.167 60.166 75.5 77.499s65 26 101 26c33.333 0 62.5 -6.33301 87.5 -19
s43.5 -28 55.5 -46v56h167zM355.501 187.501c17 18.333 25.5 41.833 25.5 70.5c0 28 -8.5 51.667 -25.5 71s-39.5 29 -67.5 29c-27.333 0 -49.333 -9.33301 -66 -28s-25 -42 -25 -70c0 -29.333 8.33301 -53.333 25 -72s38.667 -28 66 -28c28 0 50.5 9.16699 67.5 27.5z
M165.001 559.501c-22.667 21.667 -33.998 54.832 -33.998 99.499h99c0 -19.333 5.16699 -32.5 15.5 -39.5s24.166 -10.5 41.499 -10.5c20 0 34.833 3.83301 44.5 11.5s14.5 20.5 14.5 38.5h102c0 -47.333 -12 -81.166 -36 -101.499s-65.667 -30.5 -125 -30.5
c-58.667 0 -99.334 10.833 -122.001 32.5z" />
    <glyph glyph-name="Gdotaccent" unicode="&#x120;" horiz-adv-x="716" 
d="M664 397l-0.00195312 -397.002h-131l-6 90c-20 -34.667 -47.5 -60 -82.5 -76s-74.167 -24 -117.5 -24c-62 0 -116 16.667 -162 50s-81 77.333 -105 132s-36 113.667 -36 177s12.667 121.833 38 175.5s62.5 96.5 111.5 128.5s108.167 48 177.5 48
c52 0 99.833 -9 143.5 -27s80 -42.167 109 -72.5s48.5 -63.5 58.5 -99.5l-145 -57c-10.667 36.667 -29.167 64.834 -55.5 84.501s-59.166 29.5 -98.499 29.5c-57.333 0 -99.666 -20 -126.999 -60s-41 -91 -41 -153s13.667 -112 41 -150s70 -57 128 -57
c32 0 59.333 5.83301 82 17.5s39.5 26.834 50.5 45.501s16.167 38 15.5 58h-145v137h297zM288.998 889.998h134v-127h-134v127z" />
    <glyph glyph-name="gdotaccent" unicode="&#x121;" horiz-adv-x="598" 
d="M543 488l0.000976562 -422.999c0 -81.333 -24.5 -141.333 -73.5 -180s-113.167 -58 -192.5 -58c-49.333 0 -93.333 7.33301 -132 22s-75.334 36 -110.001 64l86 110c40 -38 91.667 -57 155 -57c27.333 0 50.833 7.83301 70.5 23.5s29.5 40.834 29.5 75.501v35
c-7.33301 -16.667 -22.833 -31.334 -46.5 -44.001s-51.167 -19 -82.5 -19c-41.333 0 -78.5 8.83301 -111.5 26.5s-59.167 43.834 -78.5 78.501s-29 76.667 -29 126s9.5 91.166 28.5 125.499s44.167 60.166 75.5 77.499s65 26 101 26c33.333 0 62.5 -6.33301 87.5 -19
s43.5 -28 55.5 -46v56h167zM355.501 187.501c17 18.333 25.5 41.833 25.5 70.5c0 28 -8.5 51.667 -25.5 71s-39.5 29 -67.5 29c-27.333 0 -49.333 -9.33301 -66 -28s-25 -42 -25 -70c0 -29.333 8.33301 -53.333 25 -72s38.667 -28 66 -28c28 0 50.5 9.16699 67.5 27.5z
M221.001 690.001h134v-127h-134v127z" />
    <glyph glyph-name="Gcommaaccent" unicode="&#x122;" horiz-adv-x="716" 
d="M664 397l-0.00195312 -397.002h-131l-6 90c-20 -34.667 -47.5 -60 -82.5 -76s-74.167 -24 -117.5 -24c-62 0 -116 16.667 -162 50s-81 77.333 -105 132s-36 113.667 -36 177s12.667 121.833 38 175.5s62.5 96.5 111.5 128.5s108.167 48 177.5 48
c52 0 99.833 -9 143.5 -27s80 -42.167 109 -72.5s48.5 -63.5 58.5 -99.5l-145 -57c-10.667 36.667 -29.167 64.834 -55.5 84.501s-59.166 29.5 -98.499 29.5c-57.333 0 -99.666 -20 -126.999 -60s-41 -91 -41 -153s13.667 -112 41 -150s70 -57 128 -57
c32 0 59.333 5.83301 82 17.5s39.5 26.834 50.5 45.501s16.167 38 15.5 58h-145v137h297zM266.998 -64.002h154l-135 -147h-89z" />
    <glyph glyph-name="gcommaaccent" unicode="&#x123;" horiz-adv-x="598" 
d="M357 558h-154l135 132h89zM543 488l0.000976562 -422.999c0 -81.333 -24.5 -141.333 -73.5 -180s-113.167 -58 -192.5 -58c-49.333 0 -93.333 7.33301 -132 22s-75.334 36 -110.001 64l86 110c40 -38 91.667 -57 155 -57c27.333 0 50.833 7.83301 70.5 23.5
s29.5 40.834 29.5 75.501v35c-7.33301 -16.667 -22.833 -31.334 -46.5 -44.001s-51.167 -19 -82.5 -19c-41.333 0 -78.5 8.83301 -111.5 26.5s-59.167 43.834 -78.5 78.501s-29 76.667 -29 126s9.5 91.166 28.5 125.499s44.167 60.166 75.5 77.499s65 26 101 26
c33.333 0 62.5 -6.33301 87.5 -19s43.5 -28 55.5 -46v56h167zM355.501 187.501c17 18.333 25.5 41.833 25.5 70.5c0 28 -8.5 51.667 -25.5 71s-39.5 29 -67.5 29c-27.333 0 -49.333 -9.33301 -66 -28s-25 -42 -25 -70c0 -29.333 8.33301 -53.333 25 -72s38.667 -28 66 -28
c28 0 50.5 9.16699 67.5 27.5z" />
    <glyph glyph-name="Hbar" unicode="&#x126;" horiz-adv-x="732" 
d="M716 498h-51v-498h-172v269h-254v-269h-172v498h-50v92h50v98h172v-98h254v98h172v-98h51v-92zM493 498h-254v-76h254v76z" />
    <glyph glyph-name="hbar" unicode="&#x127;" horiz-adv-x="594" 
d="M499.5 451.5c29.667 -33.667 44.5 -76.167 44.5 -127.5v-324h-167v293c0 21.333 -7.16699 38.833 -21.5 52.5s-33.5 20.5 -57.5 20.5c-26 0 -45.667 -7.16699 -59 -21.5s-20 -32.5 -20 -54.5v-290h-168v547h-61v71h61v72h168v-72h98v-71h-98v-116h3
c14.667 23.333 35.5 41 62.5 53s56.833 18 89.5 18c54 0 95.833 -16.833 125.5 -50.5z" />
    <glyph glyph-name="Itilde" unicode="&#x128;" horiz-adv-x="306" 
d="M67 690h172v-690h-172v690zM164 760c-14 7.33301 -26.668 17.6689 -38.001 31.002c-6.66699 6.66699 -12 11.5 -16 14.5s-9 4.5 -15 4.5c-11.333 0 -20 -4.83301 -26 -14.5s-9.66699 -26.167 -11 -49.5h-113c0 52 12.5 90.667 37.5 116s59.5 38 103.5 38
c20.667 0 37.334 -3.16699 50.001 -9.5s24.667 -14.833 36 -25.5c8 -6.66699 14.167 -11.334 18.5 -14.001s9.5 -4 15.5 -4c9.33301 0 17.333 4.16699 24 12.5s10 21.166 10 38.499h117c0 -46.667 -11.667 -83.167 -35 -109.5s-55.333 -39.5 -96 -39.5
c-27.333 0 -48 3.66699 -62 11z" />
    <glyph glyph-name="itilde" unicode="&#x129;" horiz-adv-x="278" 
d="M55 488h168v-488h-168v488zM153 560c-14 7.33301 -26.668 17.6689 -38.001 31.002c-6.66699 6.66699 -12 11.5 -16 14.5s-9 4.5 -15 4.5c-11.333 0 -20 -4.83301 -26 -14.5s-9.66699 -26.167 -11 -49.5h-113c0 52 12.5 90.667 37.5 116s59.5 38 103.5 38
c20.667 0 37.334 -3.16699 50.001 -9.5s24.667 -14.833 36 -25.5c8 -6.66699 14.167 -11.334 18.5 -14.001s9.5 -4 15.5 -4c9.33301 0 17.333 4.16699 24 12.5s10 21.166 10 38.499h117c0 -46.667 -11.667 -83.167 -35 -109.5s-55.333 -39.5 -96 -39.5
c-27.333 0 -48 3.66699 -62 11z" />
    <glyph glyph-name="Imacron" unicode="&#x12a;" horiz-adv-x="306" 
d="M67 690h172v-690h-172v690zM9 856h287v-82h-287v82z" />
    <glyph glyph-name="imacron" unicode="&#x12b;" horiz-adv-x="278" 
d="M55 488h168v-488h-168v488zM-2 656h287v-82h-287v82z" />
    <glyph glyph-name="Iogonek" unicode="&#x12e;" horiz-adv-x="306" 
d="M283 -171c-28 -42.667 -67 -64 -117 -64c-31.333 0 -59.166 8.5 -83.499 25.5s-36.5 44.5 -36.5 82.5c0 50 26.667 92.333 80 127h-59v690h172v-690c-18.667 -17.333 -32.667 -30 -42 -38c-20.667 -16.667 -35.5 -30.5 -44.5 -41.5s-13.5 -22.5 -13.5 -34.5
c0 -8 2.16699 -14.333 6.5 -19s10.166 -7 17.499 -7c2 0 5.66699 0.666992 11 2c11.333 2 21.333 9.33301 30 22z" />
    <glyph glyph-name="iogonek" unicode="&#x12f;" horiz-adv-x="272" 
d="M221 555h-170v135h170v-135zM264 -171c-28 -42.667 -67 -64 -117 -64c-31.333 0 -59.166 8.5 -83.499 25.5s-36.5 44.5 -36.5 82.5c0 50 26.667 92.333 80 127h-55v488h168v-488c-18.667 -17.333 -32.667 -30 -42 -38c-20.667 -16.667 -35.5 -30.5 -44.5 -41.5
s-13.5 -22.5 -13.5 -34.5c0 -8 2.16699 -14.333 6.5 -19s10.166 -7 17.499 -7c2 0 5.66699 0.666992 11 2c11.333 2 21.333 9.33301 30 22z" />
    <glyph glyph-name="Idotaccent" unicode="&#x130;" horiz-adv-x="306" 
d="M67 690h172v-690h-172v690zM85 890h134v-127h-134v127z" />
    <glyph glyph-name="dotlessi" unicode="&#x131;" horiz-adv-x="278" 
d="M55 488h168v-488h-168v488z" />
    <glyph glyph-name="Kcommaaccent" unicode="&#x136;" horiz-adv-x="736" 
d="M736 0h-233l-240 295h-24v-295h-172v688h172v-312l266 312h219l-299 -332zM291 -64h154l-135 -147h-89z" />
    <glyph glyph-name="kcommaaccent" unicode="&#x137;" horiz-adv-x="580" 
d="M595 0h-198l-164 275h-14v-275h-168v690h168v-369l150 167h218l-188 -186zM220 -64h154l-135 -147h-89z" />
    <glyph glyph-name="kgreenlandic" unicode="&#x138;" horiz-adv-x="583" 
d="M598 0h-198l-144 248h-34v-248h-167v488h167v-167l150 167h218l-189 -186z" />
    <glyph glyph-name="Lacute" unicode="&#x139;" horiz-adv-x="540" 
d="M67 690h172v-537h295v-153h-467v690zM200 892h162l-162 -142h-113z" />
    <glyph glyph-name="lacute" unicode="&#x13a;" horiz-adv-x="279" 
d="M55 690h168v-690h-168v690zM195 892h162l-162 -142h-113z" />
    <glyph glyph-name="Lcommaaccent" unicode="&#x13b;" horiz-adv-x="540" 
d="M67 690h172v-537h295v-153h-467v690zM237 -64h154l-135 -147h-89z" />
    <glyph glyph-name="lcommaaccent" unicode="&#x13c;" horiz-adv-x="279" 
d="M55 690h168v-690h-168v690zM61 -64h154l-135 -147h-89z" />
    <glyph glyph-name="Lcaron" unicode="&#x13d;" horiz-adv-x="540" 
d="M381 537h-62v154h174v-154l-84 -132h-74zM534 153v-153h-467v690h172v-537h295z" />
    <glyph glyph-name="lcaron" unicode="&#x13e;" horiz-adv-x="398" 
d="M458 691v-154l-84 -132h-74l46 132h-62v154h174zM55 690h168v-690h-168v690z" />
    <glyph glyph-name="Lslash" unicode="&#x141;" horiz-adv-x="540" 
d="M534 153v-153h-467v177l-69 -52v120l69 55v390h172v-254l101 80v-132l-101 -76v-155h295z" />
    <glyph glyph-name="lslash" unicode="&#x142;" horiz-adv-x="279" 
d="M327 410l-104 -79v-331h-168v204l-88 -67v127l88 70v356h168v-223l104 82v-139z" />
    <glyph glyph-name="Nacute" unicode="&#x143;" horiz-adv-x="766" 
d="M67 690h174l250 -360c6.66699 -10 13.334 -21.833 20.001 -35.5s10.667 -25.5 12 -35.5h4v431h173v-690h-176l-250 363c-18.667 25.333 -28.334 49.333 -29.001 72h-6v-435h-172v690zM437 890h162l-162 -142h-113z" />
    <glyph glyph-name="nacute" unicode="&#x144;" horiz-adv-x="594" 
d="M51 488h164.999v-57h6c14 21.333 34 38.5 60 51.5s56.667 19.5 92 19.5c50.667 0 91.667 -16.5 123 -49.5s47 -75.833 47 -128.5v-324h-167v293c0 22.667 -6.66699 40.167 -20 52.5s-31.333 18.5 -54 18.5c-25.333 0 -45.666 -6.66699 -60.999 -20s-23 -31.333 -23 -54
v-290h-168v488zM354.999 683h162l-162 -142h-113z" />
    <glyph glyph-name="Ncommaaccent" unicode="&#x145;" horiz-adv-x="766" 
d="M67 690h174l250 -360c6.66699 -10 13.334 -21.833 20.001 -35.5s10.667 -25.5 12 -35.5h4v431h173v-690h-176l-250 363c-18.667 25.333 -28.334 49.333 -29.001 72h-6v-435h-172v690zM303 -64h154l-135 -147h-89z" />
    <glyph glyph-name="ncommaaccent" unicode="&#x146;" horiz-adv-x="594" 
d="M51 488h164.999v-57h6c14 21.333 34 38.5 60 51.5s56.667 19.5 92 19.5c50.667 0 91.667 -16.5 123 -49.5s47 -75.833 47 -128.5v-324h-167v293c0 22.667 -6.66699 40.167 -20 52.5s-31.333 18.5 -54 18.5c-25.333 0 -45.666 -6.66699 -60.999 -20s-23 -31.333 -23 -54
v-290h-168v488zM219.999 -64h154l-135 -147h-89z" />
    <glyph glyph-name="Ncaron" unicode="&#x147;" horiz-adv-x="766" 
d="M67 690h174l250 -360c6.66699 -10 13.334 -21.833 20.001 -35.5s10.667 -25.5 12 -35.5h4v431h173v-690h-176l-250 363c-18.667 25.333 -28.334 49.333 -29.001 72h-6v-435h-172v690zM215 890h122l43 -79l43 79h124l-119 -149h-96z" />
    <glyph glyph-name="ncaron" unicode="&#x148;" horiz-adv-x="594" 
d="M51 488h164.999v-57h6c14 21.333 34 38.5 60 51.5s56.667 19.5 92 19.5c50.667 0 91.667 -16.5 123 -49.5s47 -75.833 47 -128.5v-324h-167v293c0 22.667 -6.66699 40.167 -20 52.5s-31.333 18.5 -54 18.5c-25.333 0 -45.666 -6.66699 -60.999 -20s-23 -31.333 -23 -54
v-290h-168v488zM132.999 683h122l43 -79l43 79h124l-119 -149h-96z" />
    <glyph glyph-name="Eng" unicode="&#x14a;" horiz-adv-x="766" 
d="M700 690l-0.000976562 -690c0 -61.333 -15.167 -103.833 -45.5 -127.5s-77.166 -35.5 -140.499 -35.5h-77v101h59c18.667 0 34.5 5.66699 47.5 17s19.5 26.333 19.5 45h-39l-250 363c-18.667 25.333 -28.334 49.333 -29.001 72h-6v-435h-172v690h174l250 -360
c6.66699 -10 13.334 -21.833 20.001 -35.5s10.667 -25.5 12 -35.5h4v431h173z" />
    <glyph glyph-name="eng" unicode="&#x14b;" horiz-adv-x="631" 
d="M60 488l152.001 0.000976562v-77h9c16.667 31.333 38.834 53.333 66.501 66s57.167 19 88.5 19c44 0 80.5 -10 109.5 -30s50.167 -45.5 63.5 -76.5s20 -63.833 20 -98.5v-305c0 -28.667 -3.33301 -54.5 -10 -77.5s-23.834 -43.5 -51.501 -61.5s-69.834 -27 -126.501 -27
h-76v106h52c17.333 0 29.833 5.16699 37.5 15.5s11.5 23.166 11.5 38.499v282c0 26.667 -8 49 -24 67s-37.333 27 -64 27c-28 0 -51 -9.5 -69 -28.5s-27 -42.5 -27 -70.5v-257h-162v488z" />
    <glyph glyph-name="Omacron" unicode="&#x14c;" horiz-adv-x="724" 
d="M181.5 33.5c-50.333 29 -89.166 70.167 -116.499 123.5s-41 116 -41 188s13.667 134.667 41 188s66.166 94.5 116.499 123.5s109.5 43.5 177.5 43.5c69.333 0 129.666 -14.5 180.999 -43.5s90.833 -70.167 118.5 -123.5s41.5 -116 41.5 -188s-13.833 -134.667 -41.5 -188
s-67.167 -94.5 -118.5 -123.5s-111.666 -43.5 -180.999 -43.5c-68 0 -127.167 14.5 -177.5 43.5zM470.5 196c27.667 36.667 41.5 86.332 41.5 148.999s-13.833 112.334 -41.5 149.001s-64.834 55 -111.501 55c-44 0 -79.333 -18.5 -106 -55.5s-40 -86.5 -40 -148.5
s13.333 -111.5 40 -148.5s62 -55.5 106 -55.5c46.667 0 83.834 18.333 111.501 55zM217 855.998h287v-82h-287v82z" />
    <glyph glyph-name="omacron" unicode="&#x14d;" horiz-adv-x="567" 
d="M152 19c-38.667 19.333 -69 48 -91 86s-33 83.667 -33 137c0 54 11 99.833 33 137.5s52.333 66.167 91 85.5s82.667 29 132 29s93.166 -9.66699 131.499 -29s68.5 -47.833 90.5 -85.5s33 -83.5 33 -137.5c0 -53.333 -11 -99 -33 -137s-52.167 -66.667 -90.5 -86
s-82.166 -29 -131.499 -29s-93.333 9.66699 -132 29zM347.5 155c15.667 18 23.5 47 23.5 87s-7.83301 69 -23.5 87s-36.834 27 -63.501 27s-47.834 -9 -63.501 -27s-23.5 -47 -23.5 -87s7.83301 -69 23.5 -87s36.834 -27 63.501 -27s47.834 9 63.501 27zM142 656h287v-82
h-287v82z" />
    <glyph glyph-name="Ohungarumlaut" unicode="&#x150;" horiz-adv-x="724" 
d="M181.5 33.5c-50.333 29 -89.166 70.167 -116.499 123.5s-41 116 -41 188s13.667 134.667 41 188s66.166 94.5 116.499 123.5s109.5 43.5 177.5 43.5c69.333 0 129.666 -14.5 180.999 -43.5s90.833 -70.167 118.5 -123.5s41.5 -116 41.5 -188s-13.833 -134.667 -41.5 -188
s-67.167 -94.5 -118.5 -123.5s-111.666 -43.5 -180.999 -43.5c-68 0 -127.167 14.5 -177.5 43.5zM470.5 196c27.667 36.667 41.5 86.332 41.5 148.999s-13.833 112.334 -41.5 149.001s-64.834 55 -111.501 55c-44 0 -79.333 -18.5 -106 -55.5s-40 -86.5 -40 -148.5
s13.333 -111.5 40 -148.5s62 -55.5 106 -55.5c46.667 0 83.834 18.333 111.501 55zM292 889.998h126l-111 -138h-114zM485 889.998h173l-160 -138h-113z" />
    <glyph glyph-name="ohungarumlaut" unicode="&#x151;" horiz-adv-x="567" 
d="M152 19c-38.667 19.333 -69 48 -91 86s-33 83.667 -33 137c0 54 11 99.833 33 137.5s52.333 66.167 91 85.5s82.667 29 132 29s93.166 -9.66699 131.499 -29s68.5 -47.833 90.5 -85.5s33 -83.5 33 -137.5c0 -53.333 -11 -99 -33 -137s-52.167 -66.667 -90.5 -86
s-82.166 -29 -131.499 -29s-93.333 9.66699 -132 29zM347.5 155c15.667 18 23.5 47 23.5 87s-7.83301 69 -23.5 87s-36.834 27 -63.501 27s-47.834 -9 -63.501 -27s-23.5 -47 -23.5 -87s7.83301 -69 23.5 -87s36.834 -27 63.501 -27s47.834 9 63.501 27zM217 690h126
l-111 -138h-114zM410 690h173l-160 -138h-113z" />
    <glyph glyph-name="OE" unicode="&#x152;" horiz-adv-x="1151" 
d="M186 38.5c-53.333 32.333 -93 75.5 -119 129.5s-39 113 -39 177s13 122.833 39 176.5s65.667 96.834 119 129.501s119 49 197 49c34.667 0 67 -6.33301 97 -19s54.667 -26.334 74 -41.001s32.333 -26 39 -34h3v82h512v-153h-365v-113h322v-153h-322v-117h365v-152h-512
v85h-2c-6 -8 -18.833 -19.333 -38.5 -34s-44.667 -28.5 -75 -41.5s-62.833 -19.5 -97.5 -19.5c-78 0 -143.667 16.167 -197 48.5zM523.5 207c31 34 46.5 80.002 46.5 138.002s-15.5 104 -46.5 138s-77.833 51 -140.5 51c-62 0 -107.833 -16.833 -137.5 -50.5
s-44.5 -79.834 -44.5 -138.501s14.833 -104.834 44.5 -138.501s75.5 -50.5 137.5 -50.5c62.667 0 109.5 17 140.5 51z" />
    <glyph glyph-name="oe" unicode="&#x153;" horiz-adv-x="912" 
d="M740 174l150 -37c-21.333 -44.667 -53.166 -79.667 -95.499 -105s-91.5 -38 -147.5 -38c-34.667 0 -67 5.5 -97 16.5s-55.667 27.5 -77 49.5c-22.667 -22.667 -50.334 -40 -83.001 -52s-68 -18 -106 -18c-49.333 0 -93.333 9.66699 -132 29s-69 48 -91 86
s-33 83.667 -33 137c0 54 11 99.833 33 137.5s52.333 66.167 91 85.5s82.667 29 132 29c39.333 0 75.333 -6.16699 108 -18.5s60.334 -30.5 83.001 -54.5c22 24 48.333 42.167 79 54.5s64 18.5 100 18.5c42 0 81 -8.16699 117 -24.5s64.833 -40.833 86.5 -73.5
s32.5 -72.667 32.5 -120c0 -28 -2 -50.667 -6 -68h-304c4 -51.333 29 -77 75 -77c35.333 0 63.666 14.333 84.999 43zM600 339c-11.333 -14 -17.667 -31.667 -19 -53h142c2 21.333 -2.83301 39 -14.5 53s-30.167 21 -55.5 21c-24 0 -41.667 -7 -53 -21zM347.499 155
c15.667 18 23.5 47 23.5 87s-7.83301 69 -23.5 87s-36.834 27 -63.501 27s-47.834 -9 -63.501 -27s-23.5 -47 -23.5 -87s7.83301 -69 23.5 -87s36.834 -27 63.501 -27s47.834 9 63.501 27z" />
    <glyph glyph-name="Racute" unicode="&#x154;" horiz-adv-x="640" 
d="M67 690h302.999c44.667 0 84.834 -8.33301 120.501 -25s63.5 -40.5 83.5 -71.5s30 -67.833 30 -110.5c0 -86.667 -40.333 -149.667 -121 -189l161 -295h-200l-129 270h-76v-270h-172v691zM371.999 414c20 1.33301 35.833 7.49902 47.5 18.499s17.5 24.833 17.5 41.5
c0 18.667 -6 33.334 -18 44.001s-28.333 16 -49 16h-130v-120h132zM391.999 889.999h162l-162 -142h-113z" />
    <glyph glyph-name="racute" unicode="&#x155;" horiz-adv-x="393" 
d="M51 488l162.001 0.000976562v-83h3c15.333 35.333 33.166 59.166 53.499 71.499s42.833 18.5 67.5 18.5c16.667 0 30.334 -2 41.001 -6v-172c-28.667 8 -53.334 12 -74.001 12c-30.667 0 -52.5 -9 -65.5 -27s-19.5 -46.667 -19.5 -86v-216h-168v488zM271.001 690.001h162
l-162 -142h-113z" />
    <glyph glyph-name="Rcommaaccent" unicode="&#x156;" horiz-adv-x="640" 
d="M67 690h302.999c44.667 0 84.834 -8.33301 120.501 -25s63.5 -40.5 83.5 -71.5s30 -67.833 30 -110.5c0 -86.667 -40.333 -149.667 -121 -189l161 -295h-200l-129 270h-76v-270h-172v691zM371.999 414c20 1.33301 35.833 7.49902 47.5 18.499s17.5 24.833 17.5 41.5
c0 18.667 -6 33.334 -18 44.001s-28.333 16 -49 16h-130v-120h132zM249.999 -64.001h154l-135 -147h-89z" />
    <glyph glyph-name="rcommaaccent" unicode="&#x157;" horiz-adv-x="393" 
d="M51 488l162.001 0.000976562v-83h3c15.333 35.333 33.166 59.166 53.499 71.499s42.833 18.5 67.5 18.5c16.667 0 30.334 -2 41.001 -6v-172c-28.667 8 -53.334 12 -74.001 12c-30.667 0 -52.5 -9 -65.5 -27s-19.5 -46.667 -19.5 -86v-216h-168v488zM57.001 -63.999h154
l-135 -147h-89z" />
    <glyph glyph-name="Rcaron" unicode="&#x158;" horiz-adv-x="640" 
d="M67 690h302.999c44.667 0 84.834 -8.33301 120.501 -25s63.5 -40.5 83.5 -71.5s30 -67.833 30 -110.5c0 -86.667 -40.333 -149.667 -121 -189l161 -295h-200l-129 270h-76v-270h-172v691zM371.999 414c20 1.33301 35.833 7.49902 47.5 18.499s17.5 24.833 17.5 41.5
c0 18.667 -6 33.334 -18 44.001s-28.333 16 -49 16h-130v-120h132zM169.999 889.999h122l43 -79l43 79h124l-119 -149h-96z" />
    <glyph glyph-name="rcaron" unicode="&#x159;" horiz-adv-x="393" 
d="M51 488l162.001 0.000976562v-83h3c15.333 35.333 33.166 59.166 53.499 71.499s42.833 18.5 67.5 18.5c16.667 0 30.334 -2 41.001 -6v-172c-28.667 8 -53.334 12 -74.001 12c-30.667 0 -52.5 -9 -65.5 -27s-19.5 -46.667 -19.5 -86v-216h-168v488zM49.001 690.001h122
l43 -79l43 79h124l-119 -149h-96z" />
    <glyph glyph-name="Sacute" unicode="&#x15a;" horiz-adv-x="558" 
d="M142.5 23c-41.667 20.667 -73.998 48.5 -96.998 83.5s-34.5 73.167 -34.5 114.5h170c2 -23.333 13.333 -42.166 34 -56.499s45 -21.5 73 -21.5c28.667 0 51 6.16699 67 18.5s24 28.166 24 47.499c0 15.333 -5.83301 28.333 -17.5 39s-26.167 19.334 -43.5 26.001
s-42.333 15 -75 25c-42.667 13.333 -77.834 26.5 -105.501 39.5s-51.334 32.5 -71.001 58.5s-29.5 60 -29.5 102c0 42.667 10.333 79.167 31 109.5s48.834 53.166 84.501 68.499s75.5 23 119.5 23c43.333 0 84.166 -8.16699 122.499 -24.5s75.166 -43.5 110.499 -81.5
l-94 -102c-22 22 -45.667 38.833 -71 50.5s-48.666 17.5 -69.999 17.5c-20 0 -36.167 -4 -48.5 -12s-18.5 -18.333 -18.5 -31c0 -16 8.5 -28.333 25.5 -37s46.167 -19.667 87.5 -33c45.333 -14 83.5 -28.5 114.5 -43.5s57.667 -37.5 80 -67.5s33.5 -68.667 33.5 -116
c0 -46 -10.833 -86.167 -32.5 -120.5s-52 -60.833 -91 -79.5s-84.167 -28 -135.5 -28c-53.333 0 -100.833 10.333 -142.5 31zM335.002 890h162l-162 -142h-113z" />
    <glyph glyph-name="sacute" unicode="&#x15b;" horiz-adv-x="483" 
d="M131.5 6.5c-43.667 11 -79.8311 26.502 -108.498 46.502l62 123c24 -16.667 50.5 -30.167 79.5 -40.5s56.833 -15.5 83.5 -15.5c32 0 48 7.66699 48 23c0 9.33301 -6.16699 16.666 -18.5 21.999s-35.5 12 -69.5 20c-50.667 11.333 -91.334 28.166 -122.001 50.499
s-46 56.833 -46 103.5c0 55.333 19.333 96 58 122s88.667 39 150 39c42.667 0 79.834 -5.83301 111.501 -17.5s61.5 -27.167 89.5 -46.5l-63 -110c-30 24.667 -68 42 -114 52c-13.333 2.66699 -26 4 -38 4c-21.333 0 -34.333 -5.33301 -39 -16
c-6 -10.667 -1 -19.334 15 -26.001s41.333 -14.667 76 -24c4 -1.33301 12.667 -3.66602 26 -6.99902c43.333 -11.333 78.666 -28.666 105.999 -51.999s41 -56.333 41 -99c0 -52.667 -17 -93.834 -51 -123.501s-84 -44.5 -150 -44.5c-40.667 0 -82.834 5.5 -126.501 16.5z
M269.003 690.002h162l-162 -142h-113z" />
    <glyph glyph-name="Scedilla" unicode="&#x15e;" horiz-adv-x="558" 
d="M485 65.5c-39.333 -40.333 -91.999 -64.165 -157.999 -71.498l-33 -53c24 -5.33301 43.5 -16 58.5 -32s22.5 -35 22.5 -57c0 -29.333 -9.66699 -52.5 -29 -69.5s-45 -25.5 -77 -25.5c-26 0 -50.167 7.16699 -72.5 21.5s-37.166 31.5 -44.499 51.5l75 34
c2.66699 -8.66699 7.16699 -15.5 13.5 -20.5s13.166 -7.5 20.499 -7.5c6.66699 -0.666992 12.667 1 18 5s8 10.333 8 19s-2.5 15.667 -7.5 21s-13.833 9.66602 -26.5 12.999l-55 13l46 87c-46 5.33301 -86.667 18.666 -122 39.999s-62.666 48.5 -81.999 81.5
s-29 68.167 -29 105.5h170c2 -23.333 13.333 -42.166 34 -56.499s45 -21.5 73 -21.5c28.667 0 51 6.16699 67 18.5s24 28.166 24 47.499c0 15.333 -5.83301 28.333 -17.5 39s-26.167 19.334 -43.5 26.001s-42.333 15 -75 25c-42.667 13.333 -77.834 26.5 -105.501 39.5
s-51.334 32.5 -71.001 58.5s-29.5 60 -29.5 102c0 42.667 10.333 79.167 31 109.5s48.834 53.166 84.501 68.499s75.5 23 119.5 23c43.333 0 84.166 -8.16699 122.499 -24.5s75.166 -43.5 110.499 -81.5l-94 -102c-22 22 -45.667 38.833 -71 50.5s-48.666 17.5 -69.999 17.5
c-20 0 -36.167 -4 -48.5 -12s-18.5 -18.333 -18.5 -31c0 -16 8.5 -28.333 25.5 -37s46.167 -19.667 87.5 -33c45.333 -14 83.5 -28.5 114.5 -43.5s57.667 -37.5 80 -67.5s33.5 -68.667 33.5 -116c0 -62.667 -19.667 -114.167 -59 -154.5z" />
    <glyph glyph-name="scedilla" unicode="&#x15f;" horiz-adv-x="483" 
d="M418 44c-27.333 -28.667 -67.332 -45.9971 -119.999 -51.9971l-32 -52c24 -5.33301 43.5 -16 58.5 -32s22.5 -35 22.5 -57c0 -29.333 -9.66699 -52.5 -29 -69.5s-45 -25.5 -77 -25.5c-26 0 -50.167 7.16699 -72.5 21.5s-37.166 31.5 -44.499 51.5l75 34
c2.66699 -8.66699 7.16699 -15.5 13.5 -20.5s13.166 -7.5 20.499 -7.5c6.66699 -0.666992 12.667 1 18 5s8 10.333 8 19s-2.5 15.667 -7.5 21s-13.833 9.66602 -26.5 12.999l-55 13l46 86c-36 3.33301 -71.333 10.166 -106 20.499s-63.667 23.833 -87 40.5l62 123
c24 -16.667 50.5 -30.167 79.5 -40.5s56.833 -15.5 83.5 -15.5c32 0 48 7.66699 48 23c0 9.33301 -6.16699 16.666 -18.5 21.999s-35.5 12 -69.5 20c-50.667 11.333 -91.334 28.166 -122.001 50.499s-46 56.833 -46 103.5c0 55.333 19.333 96 58 122s88.667 39 150 39
c42.667 0 79.834 -5.83301 111.501 -17.5s61.5 -27.167 89.5 -46.5l-63 -110c-30 24.667 -68 42 -114 52c-13.333 2.66699 -26 4 -38 4c-21.333 0 -34.333 -5.33301 -39 -16c-6 -10.667 -1 -19.334 15 -26.001s41.333 -14.667 76 -24
c4 -1.33301 12.667 -3.66602 26 -6.99902c43.333 -11.333 78.666 -28.666 105.999 -51.999s41 -56.333 41 -99c0 -47.333 -13.667 -85.333 -41 -114z" />
    <glyph glyph-name="Scaron" unicode="&#x160;" horiz-adv-x="558" 
d="M142.5 23c-41.667 20.667 -73.998 48.5 -96.998 83.5s-34.5 73.167 -34.5 114.5h170c2 -23.333 13.333 -42.166 34 -56.499s45 -21.5 73 -21.5c28.667 0 51 6.16699 67 18.5s24 28.166 24 47.499c0 15.333 -5.83301 28.333 -17.5 39s-26.167 19.334 -43.5 26.001
s-42.333 15 -75 25c-42.667 13.333 -77.834 26.5 -105.501 39.5s-51.334 32.5 -71.001 58.5s-29.5 60 -29.5 102c0 42.667 10.333 79.167 31 109.5s48.834 53.166 84.501 68.499s75.5 23 119.5 23c43.333 0 84.166 -8.16699 122.499 -24.5s75.166 -43.5 110.499 -81.5
l-94 -102c-22 22 -45.667 38.833 -71 50.5s-48.666 17.5 -69.999 17.5c-20 0 -36.167 -4 -48.5 -12s-18.5 -18.333 -18.5 -31c0 -16 8.5 -28.333 25.5 -37s46.167 -19.667 87.5 -33c45.333 -14 83.5 -28.5 114.5 -43.5s57.667 -37.5 80 -67.5s33.5 -68.667 33.5 -116
c0 -46 -10.833 -86.167 -32.5 -120.5s-52 -60.833 -91 -79.5s-84.167 -28 -135.5 -28c-53.333 0 -100.833 10.333 -142.5 31zM113.002 890h122l43 -79l43 79h124l-119 -149h-96z" />
    <glyph glyph-name="scaron" unicode="&#x161;" horiz-adv-x="483" 
d="M131.5 6.5c-43.667 11 -79.8311 26.502 -108.498 46.502l62 123c24 -16.667 50.5 -30.167 79.5 -40.5s56.833 -15.5 83.5 -15.5c32 0 48 7.66699 48 23c0 9.33301 -6.16699 16.666 -18.5 21.999s-35.5 12 -69.5 20c-50.667 11.333 -91.334 28.166 -122.001 50.499
s-46 56.833 -46 103.5c0 55.333 19.333 96 58 122s88.667 39 150 39c42.667 0 79.834 -5.83301 111.501 -17.5s61.5 -27.167 89.5 -46.5l-63 -110c-30 24.667 -68 42 -114 52c-13.333 2.66699 -26 4 -38 4c-21.333 0 -34.333 -5.33301 -39 -16
c-6 -10.667 -1 -19.334 15 -26.001s41.333 -14.667 76 -24c4 -1.33301 12.667 -3.66602 26 -6.99902c43.333 -11.333 78.666 -28.666 105.999 -51.999s41 -56.333 41 -99c0 -52.667 -17 -93.834 -51 -123.501s-84 -44.5 -150 -44.5c-40.667 0 -82.834 5.5 -126.501 16.5z
M47.0029 690.002h122l43 -79l43 79h124l-119 -149h-96z" />
    <glyph glyph-name="uni0162" unicode="&#x162;" horiz-adv-x="582" 
d="M336 0l-37 -59.999c24 -5.33301 43.5 -16 58.5 -32s22.5 -35 22.5 -57c0 -29.333 -9.66699 -52.5 -29 -69.5s-45 -25.5 -77 -25.5c-26 0 -50.167 7.16699 -72.5 21.5s-37.166 31.5 -44.499 51.5l75 34c2.66699 -8.66699 7.16699 -15.5 13.5 -20.5
s13.166 -7.5 20.499 -7.5c6.66699 -0.666992 12.667 1 18 5s8 10.333 8 19s-2.5 15.667 -7.5 21s-13.833 9.66602 -26.5 12.999l-55 13l50 94h-49v537h-198v153h570v-153h-199v-537h-41z" />
    <glyph glyph-name="uni0163" unicode="&#x163;" horiz-adv-x="351" 
d="M273 0l-36.999 -59.999c24 -5.33301 43.5 -16 58.5 -32s22.5 -35 22.5 -57c0 -29.333 -9.66699 -52.5 -29 -69.5s-45 -25.5 -77 -25.5c-26 0 -50.167 7.16699 -72.5 21.5s-37.166 31.5 -44.499 51.5l75 34c2.66699 -8.66699 7.16699 -15.5 13.5 -20.5
s13.166 -7.5 20.499 -7.5c6.66699 -0.666992 12.667 1 18 5s8 10.333 8 19s-2.5 15.667 -7.5 21s-13.833 9.66602 -26.5 12.999l-55 13l50 94c-32.667 1.33301 -58.334 13 -77.001 35s-28 50.667 -28 86v262h-82v105h15c44.667 0 67 23.333 67 70v80h167v-150h77v-105h-77
v-228c0 -9.33301 1.83301 -15.833 5.5 -19.5s9.16699 -5.5 16.5 -5.5h64v-130h-65z" />
    <glyph glyph-name="Tcaron" unicode="&#x164;" horiz-adv-x="582" 
d="M204 537h-198v153h570v-153h-199v-537h-173v537zM122 890h122l43 -79l43 79h124l-119 -149h-96z" />
    <glyph glyph-name="tcaron" unicode="&#x165;" horiz-adv-x="452" 
d="M479 796v-154l-84 -132h-74l46 132h-62v154h174zM257.5 135.5c3.66699 -3.66699 9.16699 -5.5 16.5 -5.5h64v-130h-142c-34 0 -61 11 -81 33s-30 51.333 -30 88v262h-82v105h15c44.667 0 67 23.333 67 70v80h167v-150h77v-105h-77v-228
c0 -9.33301 1.83301 -15.833 5.5 -19.5z" />
    <glyph glyph-name="Tbar" unicode="&#x166;" horiz-adv-x="582" 
d="M377 537v-156h74v-71h-74v-310h-173v310h-80v71h80v156h-198v153h570v-153h-199z" />
    <glyph glyph-name="tbar" unicode="&#x167;" horiz-adv-x="351" 
d="M338 130v-130h-142c-34 0 -61 11 -81 33s-30 51.333 -30 88v88h-72v71h72v103h-82v105h15c44.667 0 67 23.333 67 70v80h167v-150h77v-105h-77v-103h81v-71h-81v-54c0 -9.33301 1.83301 -15.833 5.5 -19.5s9.16699 -5.5 16.5 -5.5h64z" />
    <glyph glyph-name="Utilde" unicode="&#x168;" horiz-adv-x="706" 
d="M136 62c-47.333 48 -71.001 116.334 -71.001 205.001v423h172v-428c0 -36.667 9.83301 -64.834 29.5 -84.501s47.834 -29.5 84.501 -29.5c37.333 0 66.333 9.83301 87 29.5s31 47.834 31 84.501v428h172v-418c0 -90.667 -24 -160.334 -72 -209.001s-120.667 -73 -218 -73
c-96 0 -167.667 24 -215 72zM366.999 760.001c-14 7.33301 -26.668 17.6689 -38.001 31.002c-6.66699 6.66699 -12 11.5 -16 14.5s-9 4.5 -15 4.5c-11.333 0 -20 -4.83301 -26 -14.5s-9.66699 -26.167 -11 -49.5h-113c0 52 12.5 90.667 37.5 116s59.5 38 103.5 38
c20.667 0 37.334 -3.16699 50.001 -9.5s24.667 -14.833 36 -25.5c8 -6.66699 14.167 -11.334 18.5 -14.001s9.5 -4 15.5 -4c9.33301 0 17.333 4.16699 24 12.5s10 21.166 10 38.499h117c0 -46.667 -11.667 -83.167 -35 -109.5s-55.333 -39.5 -96 -39.5
c-27.333 0 -48 3.66699 -62 11z" />
    <glyph glyph-name="utilde" unicode="&#x169;" horiz-adv-x="603" 
d="M552 0h-164v57h-7c-14.667 -23.333 -35.5 -41 -62.5 -53s-56.833 -18 -89.5 -18c-54 0 -95.833 16.833 -125.5 50.5s-44.5 76.167 -44.5 127.5v324h168v-279c0 -21.333 7.16699 -38.833 21.5 -52.5s33.5 -20.5 57.5 -20.5c26 0 45.667 7.16699 59 21.5s20 32.5 20 54.5
v276h167v-488zM318 560c-14 7.33301 -26.668 17.6689 -38.001 31.002c-6.66699 6.66699 -12 11.5 -16 14.5s-9 4.5 -15 4.5c-11.333 0 -20 -4.83301 -26 -14.5s-9.66699 -26.167 -11 -49.5h-113c0 52 12.5 90.667 37.5 116s59.5 38 103.5 38
c20.667 0 37.334 -3.16699 50.001 -9.5s24.667 -14.833 36 -25.5c8 -6.66699 14.167 -11.334 18.5 -14.001s9.5 -4 15.5 -4c9.33301 0 17.333 4.16699 24 12.5s10 21.166 10 38.499h117c0 -46.667 -11.667 -83.167 -35 -109.5s-55.333 -39.5 -96 -39.5
c-27.333 0 -48 3.66699 -62 11z" />
    <glyph glyph-name="Umacron" unicode="&#x16a;" horiz-adv-x="706" 
d="M136 62c-47.333 48 -71.001 116.334 -71.001 205.001v423h172v-428c0 -36.667 9.83301 -64.834 29.5 -84.501s47.834 -29.5 84.501 -29.5c37.333 0 66.333 9.83301 87 29.5s31 47.834 31 84.501v428h172v-418c0 -90.667 -24 -160.334 -72 -209.001s-120.667 -73 -218 -73
c-96 0 -167.667 24 -215 72zM211.999 856.001h287v-82h-287v82z" />
    <glyph glyph-name="umacron" unicode="&#x16b;" horiz-adv-x="603" 
d="M552 0h-164v57h-7c-14.667 -23.333 -35.5 -41 -62.5 -53s-56.833 -18 -89.5 -18c-54 0 -95.833 16.833 -125.5 50.5s-44.5 76.167 -44.5 127.5v324h168v-279c0 -21.333 7.16699 -38.833 21.5 -52.5s33.5 -20.5 57.5 -20.5c26 0 45.667 7.16699 59 21.5s20 32.5 20 54.5
v276h167v-488zM163 656h287v-82h-287v82z" />
    <glyph glyph-name="Uring" unicode="&#x16e;" horiz-adv-x="706" 
d="M136 62c-47.333 48 -71.001 116.334 -71.001 205.001v423h172v-428c0 -36.667 9.83301 -64.834 29.5 -84.501s47.834 -29.5 84.501 -29.5c37.333 0 66.333 9.83301 87 29.5s31 47.834 31 84.501v428h172v-418c0 -90.667 -24 -160.334 -72 -209.001s-120.667 -73 -218 -73
c-96 0 -167.667 24 -215 72zM271.999 771.501c-21.333 22.333 -32 49.167 -32 80.5s10.833 58.166 32.5 80.499s48.5 33.5 80.5 33.5c31.333 0 58.333 -11.167 81 -33.5s34 -49.166 34 -80.499c0 -32 -11.167 -59 -33.5 -81s-49.5 -33 -81.5 -33
c-32.667 0 -59.667 11.167 -81 33.5zM388.499 817.002c9 9.33301 13.501 21.668 13.501 37.001c0 14 -4.33301 25.167 -13 33.5s-20.667 12.5 -36 12.5c-14 0 -25.5 -4.33301 -34.5 -13s-13.5 -19.667 -13.5 -33c0 -14.667 4.66699 -26.834 14 -36.501
s20.666 -14.5 33.999 -14.5c14.667 0 26.5 4.66699 35.5 14z" />
    <glyph glyph-name="uring" unicode="&#x16f;" horiz-adv-x="603" 
d="M552 0h-164v57h-7c-14.667 -23.333 -35.5 -41 -62.5 -53s-56.833 -18 -89.5 -18c-54 0 -95.833 16.833 -125.5 50.5s-44.5 76.167 -44.5 127.5v324h168v-279c0 -21.333 7.16699 -38.833 21.5 -52.5s33.5 -20.5 57.5 -20.5c26 0 45.667 7.16699 59 21.5s20 32.5 20 54.5
v276h167v-488zM223 571.5c-21.333 22.333 -32 49.167 -32 80.5s10.833 58.166 32.5 80.499s48.5 33.5 80.5 33.5c31.333 0 58.333 -11.167 81 -33.5s34 -49.166 34 -80.499c0 -32 -11.167 -59 -33.5 -81s-49.5 -33 -81.5 -33c-32.667 0 -59.667 11.167 -81 33.5z
M339.5 617.001c9 9.33301 13.501 21.668 13.501 37.001c0 14 -4.33301 25.167 -13 33.5s-20.667 12.5 -36 12.5c-14 0 -25.5 -4.33301 -34.5 -13s-13.5 -19.667 -13.5 -33c0 -14.667 4.66699 -26.834 14 -36.501s20.666 -14.5 33.999 -14.5c14.667 0 26.5 4.66699 35.5 14z
" />
    <glyph glyph-name="Uhungarumlaut" unicode="&#x170;" horiz-adv-x="706" 
d="M136 62c-47.333 48 -71.001 116.334 -71.001 205.001v423h172v-428c0 -36.667 9.83301 -64.834 29.5 -84.501s47.834 -29.5 84.501 -29.5c37.333 0 66.333 9.83301 87 29.5s31 47.834 31 84.501v428h172v-418c0 -90.667 -24 -160.334 -72 -209.001s-120.667 -73 -218 -73
c-96 0 -167.667 24 -215 72zM286.999 890.001h126l-111 -138h-114zM479.999 890.001h173l-160 -138h-113z" />
    <glyph glyph-name="uhungarumlaut" unicode="&#x171;" horiz-adv-x="603" 
d="M552 0h-164v57h-7c-14.667 -23.333 -35.5 -41 -62.5 -53s-56.833 -18 -89.5 -18c-54 0 -95.833 16.833 -125.5 50.5s-44.5 76.167 -44.5 127.5v324h168v-279c0 -21.333 7.16699 -38.833 21.5 -52.5s33.5 -20.5 57.5 -20.5c26 0 45.667 7.16699 59 21.5s20 32.5 20 54.5
v276h167v-488zM238 690h126l-111 -138h-114zM431 690h173l-160 -138h-113z" />
    <glyph glyph-name="Uogonek" unicode="&#x172;" horiz-adv-x="706" 
d="M512 13c-20 -17.333 -34.168 -31.001 -42.501 -41.001s-12.5 -21 -12.5 -33c0 -8 2.16699 -14.333 6.5 -19s10.166 -7 17.499 -7c2 0 5.66699 0.666992 11 2c11.333 2 21.333 9.33301 30 22l79 -55c-28 -42.667 -67 -64 -117 -64c-31.333 0 -59.166 8.5 -83.499 25.5
s-36.5 44.5 -36.5 82.5c0 22.667 5.66699 44.334 17 65.001c-6.66699 -0.666992 -16.667 -1 -30 -1c-96 0 -167.667 24 -215 72s-71 116.333 -71 205v423h172v-428c0 -36.667 9.83301 -64.834 29.5 -84.501s47.834 -29.5 84.501 -29.5c37.333 0 66.333 9.83301 87 29.5
s31 47.834 31 84.501v428h172v-418c0 -104 -30.667 -179.333 -92 -226c-16 -14.667 -28.333 -25.667 -37 -33z" />
    <glyph glyph-name="uogonek" unicode="&#x173;" horiz-adv-x="603" 
d="M600 -171c-28 -42.667 -67 -64 -117 -64c-31.333 0 -59.166 8.5 -83.499 25.5s-36.5 44.5 -36.5 82.5c0 50 26.667 92.333 80 127h-55v57h-7c-14.667 -23.333 -35.5 -41 -62.5 -53s-56.833 -18 -89.5 -18c-54 0 -95.833 16.833 -125.5 50.5s-44.5 76.167 -44.5 127.5v324
h168v-279c0 -21.333 7.16699 -38.833 21.5 -52.5s33.5 -20.5 57.5 -20.5c26 0 45.667 7.16699 59 21.5s20 32.5 20 54.5v276h167v-488h4c-18.667 -17.333 -32.667 -30 -42 -38c-20.667 -16.667 -35.5 -30.5 -44.5 -41.5s-13.5 -22.5 -13.5 -34.5
c0 -8 2.16699 -14.333 6.5 -19s10.166 -7 17.499 -7c2 0 5.66699 0.666992 11 2c11.333 2 21.333 9.33301 30 22z" />
    <glyph glyph-name="Wcircumflex" unicode="&#x174;" horiz-adv-x="977" 
d="M4 690h179l104 -497c3.33301 -18 5 -34.667 5 -50h10c0 11.333 1.33301 22.333 4 33l5 20l90 426h176l92 -426c0.666992 -2.66699 2 -9.5 4 -20.5s3 -21.833 3 -32.5h9c0 16 2 32.667 6 50l103 497h179l-162 -690h-251l-73 406l-70 -406h-252zM438 872h96l118 -149h-123
l-44 80l-43 -80h-122z" />
    <glyph glyph-name="wcircumflex" unicode="&#x175;" horiz-adv-x="822" 
d="M827 488l-136 -488h-216l-66 274l-64 -277h-215l-135 491h177l74 -346l88 346h152l88 -347l76 347h177zM363 694h96l118 -149h-123l-44 80l-43 -80h-122z" />
    <glyph glyph-name="Ycircumflex" unicode="&#x176;" horiz-adv-x="695" 
d="M262 268l-265 422h194l161 -280l153 280h194l-266 -422v-268h-171v268zM298 894h96l118 -149h-123l-44 80l-43 -80h-122z" />
    <glyph glyph-name="ycircumflex" unicode="&#x177;" horiz-adv-x="511" 
d="M40 -24l59 -0.000976562c32.667 0 53 8.33301 61 25l16 37l-193 450h179l69 -214c4 -12 7.83301 -28 11.5 -48s5.5 -34.667 5.5 -44h9c0 8.66699 2 23.334 6 44.001s8 36.667 12 48l72 214h179l-220 -555c-23.333 -64 -66.333 -96 -129 -96h-137v139zM208 693.999h96
l118 -149h-123l-44 80l-43 -80h-122z" />
    <glyph glyph-name="Ydieresis" unicode="&#x178;" horiz-adv-x="695" 
d="M262 268l-265 422h194l161 -280l153 280h194l-266 -422v-268h-171v268zM196 890h118v-119h-118v119zM379 890h117v-119h-117v119z" />
    <glyph glyph-name="Zacute" unicode="&#x179;" horiz-adv-x="612" 
d="M595 571l-325 -418h325v-153h-578v110l333 418h-311v162h556v-119zM356 890h162l-162 -142h-113z" />
    <glyph glyph-name="zacute" unicode="&#x17a;" horiz-adv-x="529" 
d="M504 129v-129h-479v116l249 243h-248v129h462v-122l-227 -237h243zM318 690h162l-162 -142h-113z" />
    <glyph glyph-name="Zdotaccent" unicode="&#x17b;" horiz-adv-x="612" 
d="M595 571l-325 -418h325v-153h-578v110l333 418h-311v162h556v-119zM234 890h134v-127h-134v127z" />
    <glyph glyph-name="zdotaccent" unicode="&#x17c;" horiz-adv-x="529" 
d="M504 129v-129h-479v116l249 243h-248v129h462v-122l-227 -237h243zM196 690h134v-127h-134v127z" />
    <glyph glyph-name="Zcaron" unicode="&#x17d;" horiz-adv-x="612" 
d="M595 571l-325 -418h325v-153h-578v110l333 418h-311v162h556v-119zM134 890h122l43 -79l43 79h124l-119 -149h-96z" />
    <glyph glyph-name="zcaron" unicode="&#x17e;" horiz-adv-x="529" 
d="M504 129v-129h-479v116l249 243h-248v129h462v-122l-227 -237h243zM96 690h122l43 -79l43 79h124l-119 -149h-96z" />
    <glyph glyph-name="florin" unicode="&#x192;" horiz-adv-x="478" 
d="M308.5 554.5c-3.66699 -5.66699 -5.50098 -13.833 -5.50098 -24.5v-42h90v-105h-90v-383c0 -75.333 -23.667 -130.333 -71 -165s-111.666 -52 -192.999 -52v135c34.667 0 59.334 6 74.001 18s22 33.333 22 64v383h-89v105h91v41c0 53.333 13.667 93.5 41 120.5
s70 40.5 128 40.5h87v-127h-63c-10.667 0 -17.834 -2.83301 -21.501 -8.5z" />
    <glyph glyph-name="uni01CD" unicode="&#x1cd;" horiz-adv-x="707" 
d="M475 153h-241l-50 -153h-186l243 690h224l244 -690h-185zM430 291l-60.001 188c-3.33301 8 -6.16602 16.5 -8.49902 25.5s-3.5 18.167 -3.5 27.5h-5c0.666992 -12 -1 -23.167 -5 -33.5s-6.33301 -16.833 -7 -19.5l-62 -188h151zM187.999 890h122l43 -79l43 79h124
l-119 -149h-96z" />
    <glyph glyph-name="uni01CE" unicode="&#x1ce;" horiz-adv-x="539" 
d="M72 25c-29.333 23.333 -43.999 56.3301 -43.999 98.9971c0 64 32.667 107 98 129c22 8 53.333 15 94 21l42 8c23.333 5.33301 41.166 11.333 53.499 18s18.5 16.334 18.5 29.001c0 11.333 -5.5 20 -16.5 26s-25.5 9 -43.5 9c-26 0 -51.833 -6 -77.5 -18
s-45.834 -27.333 -60.501 -46l-110 88c26 32.667 58.833 58.834 98.5 78.501s86.834 29.5 141.501 29.5c63.333 0 116.833 -14.167 160.5 -42.5s65.5 -71.166 65.5 -128.499v-260l2 -65h-141l-8 56h-7c-28 -44 -75.667 -66 -143 -66c-52.667 0 -93.667 11.667 -123 35z
M318.501 130.997c19 14 28.498 35.667 28.498 65v22h-5c-7.33301 -7.33301 -16.166 -12.833 -26.499 -16.5s-20.666 -6.66699 -30.999 -9s-17.833 -4.16602 -22.5 -5.49902c-21.333 -6 -36.5 -11.5 -45.5 -16.5s-13.5 -14.167 -13.5 -27.5
c0 -8.66699 3.66699 -16.334 11 -23.001s20.333 -10 39 -10c24.667 0 46.5 7 65.5 21zM89.999 689.997h122l43 -79l43 79h124l-119 -149h-96z" />
    <glyph glyph-name="uni01CF" unicode="&#x1cf;" horiz-adv-x="306" 
d="M67 690h172v-690h-172v690zM-15 890h122l43 -79l43 79h124l-119 -149h-96z" />
    <glyph glyph-name="uni01D0" unicode="&#x1d0;" horiz-adv-x="278" 
d="M55 488h168v-488h-168v488zM-26 690h122l43 -79l43 79h124l-119 -149h-96z" />
    <glyph glyph-name="uni01D1" unicode="&#x1d1;" horiz-adv-x="724" 
d="M181.5 33.5c-50.333 29 -89.166 70.167 -116.499 123.5s-41 116 -41 188s13.667 134.667 41 188s66.166 94.5 116.499 123.5s109.5 43.5 177.5 43.5c69.333 0 129.666 -14.5 180.999 -43.5s90.833 -70.167 118.5 -123.5s41.5 -116 41.5 -188s-13.833 -134.667 -41.5 -188
s-67.167 -94.5 -118.5 -123.5s-111.666 -43.5 -180.999 -43.5c-68 0 -127.167 14.5 -177.5 43.5zM470.5 196c27.667 36.667 41.5 86.332 41.5 148.999s-13.833 112.334 -41.5 149.001s-64.834 55 -111.501 55c-44 0 -79.333 -18.5 -106 -55.5s-40 -86.5 -40 -148.5
s13.333 -111.5 40 -148.5s62 -55.5 106 -55.5c46.667 0 83.834 18.333 111.501 55zM193 889.998h122l43 -79l43 79h124l-119 -149h-96z" />
    <glyph glyph-name="uni01D2" unicode="&#x1d2;" horiz-adv-x="567" 
d="M152 19c-38.667 19.333 -69 48 -91 86s-33 83.667 -33 137c0 54 11 99.833 33 137.5s52.333 66.167 91 85.5s82.667 29 132 29s93.166 -9.66699 131.499 -29s68.5 -47.833 90.5 -85.5s33 -83.5 33 -137.5c0 -53.333 -11 -99 -33 -137s-52.167 -66.667 -90.5 -86
s-82.166 -29 -131.499 -29s-93.333 9.66699 -132 29zM347.5 155c15.667 18 23.5 47 23.5 87s-7.83301 69 -23.5 87s-36.834 27 -63.501 27s-47.834 -9 -63.501 -27s-23.5 -47 -23.5 -87s7.83301 -69 23.5 -87s36.834 -27 63.501 -27s47.834 9 63.501 27zM118 690h122l43 -79
l43 79h124l-119 -149h-96z" />
    <glyph glyph-name="uni01D3" unicode="&#x1d3;" horiz-adv-x="706" 
d="M136 62c-47.333 48 -71.001 116.334 -71.001 205.001v423h172v-428c0 -36.667 9.83301 -64.834 29.5 -84.501s47.834 -29.5 84.501 -29.5c37.333 0 66.333 9.83301 87 29.5s31 47.834 31 84.501v428h172v-418c0 -90.667 -24 -160.334 -72 -209.001s-120.667 -73 -218 -73
c-96 0 -167.667 24 -215 72zM187.999 890.001h122l43 -79l43 79h124l-119 -149h-96z" />
    <glyph glyph-name="uni01D4" unicode="&#x1d4;" horiz-adv-x="603" 
d="M552 0h-164v57h-7c-14.667 -23.333 -35.5 -41 -62.5 -53s-56.833 -18 -89.5 -18c-54 0 -95.833 16.833 -125.5 50.5s-44.5 76.167 -44.5 127.5v324h168v-279c0 -21.333 7.16699 -38.833 21.5 -52.5s33.5 -20.5 57.5 -20.5c26 0 45.667 7.16699 59 21.5s20 32.5 20 54.5
v276h167v-488zM139 690h122l43 -79l43 79h124l-119 -149h-96z" />
    <glyph glyph-name="uni01D5" unicode="&#x1d5;" horiz-adv-x="706" 
d="M136 62c-47.333 48 -71.001 116.334 -71.001 205.001v423h172v-428c0 -36.667 9.83301 -64.834 29.5 -84.501s47.834 -29.5 84.501 -29.5c37.333 0 66.333 9.83301 87 29.5s31 47.834 31 84.501v428h172v-418c0 -90.667 -24 -160.334 -72 -209.001s-120.667 -73 -218 -73
c-96 0 -167.667 24 -215 72zM202.999 890.001h118v-119h-118v119zM385.999 890.001h117v-119h-117v119zM211.999 1058h287v-82h-287v82z" />
    <glyph glyph-name="uni01D6" unicode="&#x1d6;" horiz-adv-x="603" 
d="M552 0h-164v57h-7c-14.667 -23.333 -35.5 -41 -62.5 -53s-56.833 -18 -89.5 -18c-54 0 -95.833 16.833 -125.5 50.5s-44.5 76.167 -44.5 127.5v324h168v-279c0 -21.333 7.16699 -38.833 21.5 -52.5s33.5 -20.5 57.5 -20.5c26 0 45.667 7.16699 59 21.5s20 32.5 20 54.5
v276h167v-488zM154 690h118v-119h-118v119zM337 690h117v-119h-117v119zM163 858h287v-82h-287v82z" />
    <glyph glyph-name="uni01D7" unicode="&#x1d7;" horiz-adv-x="706" 
d="M136 62c-47.333 48 -71.001 116.334 -71.001 205.001v423h172v-428c0 -36.667 9.83301 -64.834 29.5 -84.501s47.834 -29.5 84.501 -29.5c37.333 0 66.333 9.83301 87 29.5s31 47.834 31 84.501v428h172v-418c0 -90.667 -24 -160.334 -72 -209.001s-120.667 -73 -218 -73
c-96 0 -167.667 24 -215 72zM202.999 890.001h118v-119h-118v119zM385.999 890.001h117v-119h-117v119zM409.999 1092h162l-162 -142h-113z" />
    <glyph glyph-name="uni01D8" unicode="&#x1d8;" horiz-adv-x="603" 
d="M552 0h-164v57h-7c-14.667 -23.333 -35.5 -41 -62.5 -53s-56.833 -18 -89.5 -18c-54 0 -95.833 16.833 -125.5 50.5s-44.5 76.167 -44.5 127.5v324h168v-279c0 -21.333 7.16699 -38.833 21.5 -52.5s33.5 -20.5 57.5 -20.5c26 0 45.667 7.16699 59 21.5s20 32.5 20 54.5
v276h167v-488zM154 690h118v-119h-118v119zM337 690h117v-119h-117v119zM361 892h162l-162 -142h-113z" />
    <glyph glyph-name="uni01D9" unicode="&#x1d9;" horiz-adv-x="706" 
d="M136 62c-47.333 48 -71.001 116.334 -71.001 205.001v423h172v-428c0 -36.667 9.83301 -64.834 29.5 -84.501s47.834 -29.5 84.501 -29.5c37.333 0 66.333 9.83301 87 29.5s31 47.834 31 84.501v428h172v-418c0 -90.667 -24 -160.334 -72 -209.001s-120.667 -73 -218 -73
c-96 0 -167.667 24 -215 72zM202.999 890.001h118v-119h-118v119zM385.999 890.001h117v-119h-117v119zM187.999 1092h122l43 -79l43 79h124l-119 -149h-96z" />
    <glyph glyph-name="uni01DA" unicode="&#x1da;" horiz-adv-x="603" 
d="M552 0h-164v57h-7c-14.667 -23.333 -35.5 -41 -62.5 -53s-56.833 -18 -89.5 -18c-54 0 -95.833 16.833 -125.5 50.5s-44.5 76.167 -44.5 127.5v324h168v-279c0 -21.333 7.16699 -38.833 21.5 -52.5s33.5 -20.5 57.5 -20.5c26 0 45.667 7.16699 59 21.5s20 32.5 20 54.5
v276h167v-488zM154 690h118v-119h-118v119zM337 690h117v-119h-117v119zM139 892h122l43 -79l43 79h124l-119 -149h-96z" />
    <glyph glyph-name="uni01DB" unicode="&#x1db;" horiz-adv-x="706" 
d="M136 62c-47.333 48 -71.001 116.334 -71.001 205.001v423h172v-428c0 -36.667 9.83301 -64.834 29.5 -84.501s47.834 -29.5 84.501 -29.5c37.333 0 66.333 9.83301 87 29.5s31 47.834 31 84.501v428h172v-418c0 -90.667 -24 -160.334 -72 -209.001s-120.667 -73 -218 -73
c-96 0 -167.667 24 -215 72zM202.999 890.001h118v-119h-118v119zM385.999 890.001h117v-119h-117v119zM126.999 1092h160l115 -140h-98z" />
    <glyph glyph-name="uni01DC" unicode="&#x1dc;" horiz-adv-x="603" 
d="M552 0h-164v57h-7c-14.667 -23.333 -35.5 -41 -62.5 -53s-56.833 -18 -89.5 -18c-54 0 -95.833 16.833 -125.5 50.5s-44.5 76.167 -44.5 127.5v324h168v-279c0 -21.333 7.16699 -38.833 21.5 -52.5s33.5 -20.5 57.5 -20.5c26 0 45.667 7.16699 59 21.5s20 32.5 20 54.5
v276h167v-488zM154 690h118v-119h-118v119zM337 690h117v-119h-117v119zM78 892h160l115 -140h-98z" />
    <glyph glyph-name="Oslashacute" unicode="&#x1fe;" horiz-adv-x="724" 
d="M700 345c0 -72 -13.833 -134.666 -41.5 -187.999s-67.167 -94.5 -118.5 -123.5s-111.666 -43.5 -180.999 -43.5c-85.333 0 -157.333 23 -216 69l-49 -49l-73 69l56 56c-35.333 59.333 -53 129.333 -53 210c0 72 13.667 134.667 41 188s66.166 94.5 116.499 123.5
s109.5 43.5 177.5 43.5c86 0 158 -22.333 216 -67l47 47l72 -69l-51 -51c38 -58.667 57 -130.334 57 -215.001zM219 277.001l235 235c-26 24.667 -57.667 37 -95 37c-44 0 -79.333 -18.5 -106 -55.5s-40 -86.5 -40 -148.5c0 -24 2 -46.667 6 -68zM470.5 196.001
c27.667 36.667 41.5 86.333 41.5 149c0 26.667 -2.66699 51.667 -8 75l-239 -239c25.333 -26.667 56.666 -40 93.999 -40c46.667 0 83.834 18.333 111.501 55zM415 890h162l-162 -142h-113z" />
    <glyph glyph-name="oslashacute" unicode="&#x1ff;" horiz-adv-x="567" 
d="M539 242c0 -53.333 -11.001 -99.001 -33.001 -137.001s-52.167 -66.667 -90.5 -86s-82.166 -29 -131.499 -29c-62.667 0 -115.667 15 -159 45l-28 -28l-52 49l29 29c-30.667 42 -46 94.333 -46 157c0 54 11 99.833 33 137.5s52.333 66.167 91 85.5s82.667 29 132 29
c62.667 0 114.667 -14.333 156 -43l30 30l51 -49l-30 -30c32 -41.333 48 -94.666 48 -159.999zM198.999 209.999l133.001 133c-13.333 8.66699 -29.333 13 -48 13c-26.667 0 -47.834 -9 -63.501 -27s-23.5 -47 -23.5 -87c0 -8 0.666992 -18.667 2 -32zM347.5 154.999
c15.667 18 23.499 47 23.499 87c0 14 -1 26.333 -3 37l-135 -136c14 -10 31 -15 51 -15c26.667 0 47.834 9 63.501 27zM339.999 689.999h162l-162 -142h-113z" />
    <glyph glyph-name="Scommaaccent" unicode="&#x218;" horiz-adv-x="558" 
d="M142.5 23c-41.667 20.667 -73.998 48.5 -96.998 83.5s-34.5 73.167 -34.5 114.5h170c2 -23.333 13.333 -42.166 34 -56.499s45 -21.5 73 -21.5c28.667 0 51 6.16699 67 18.5s24 28.166 24 47.499c0 15.333 -5.83301 28.333 -17.5 39s-26.167 19.334 -43.5 26.001
s-42.333 15 -75 25c-42.667 13.333 -77.834 26.5 -105.501 39.5s-51.334 32.5 -71.001 58.5s-29.5 60 -29.5 102c0 42.667 10.333 79.167 31 109.5s48.834 53.166 84.501 68.499s75.5 23 119.5 23c43.333 0 84.166 -8.16699 122.499 -24.5s75.166 -43.5 110.499 -81.5
l-94 -102c-22 22 -45.667 38.833 -71 50.5s-48.666 17.5 -69.999 17.5c-20 0 -36.167 -4 -48.5 -12s-18.5 -18.333 -18.5 -31c0 -16 8.5 -28.333 25.5 -37s46.167 -19.667 87.5 -33c45.333 -14 83.5 -28.5 114.5 -43.5s57.667 -37.5 80 -67.5s33.5 -68.667 33.5 -116
c0 -46 -10.833 -86.167 -32.5 -120.5s-52 -60.833 -91 -79.5s-84.167 -28 -135.5 -28c-53.333 0 -100.833 10.333 -142.5 31zM205.002 -63h154l-135 -147h-89z" />
    <glyph glyph-name="scommaaccent" unicode="&#x219;" horiz-adv-x="483" 
d="M131.5 6.5c-43.667 11 -79.8311 26.502 -108.498 46.502l62 123c24 -16.667 50.5 -30.167 79.5 -40.5s56.833 -15.5 83.5 -15.5c32 0 48 7.66699 48 23c0 9.33301 -6.16699 16.666 -18.5 21.999s-35.5 12 -69.5 20c-50.667 11.333 -91.334 28.166 -122.001 50.499
s-46 56.833 -46 103.5c0 55.333 19.333 96 58 122s88.667 39 150 39c42.667 0 79.834 -5.83301 111.501 -17.5s61.5 -27.167 89.5 -46.5l-63 -110c-30 24.667 -68 42 -114 52c-13.333 2.66699 -26 4 -38 4c-21.333 0 -34.333 -5.33301 -39 -16
c-6 -10.667 -1 -19.334 15 -26.001s41.333 -14.667 76 -24c4 -1.33301 12.667 -3.66602 26 -6.99902c43.333 -11.333 78.666 -28.666 105.999 -51.999s41 -56.333 41 -99c0 -52.667 -17 -93.834 -51 -123.501s-84 -44.5 -150 -44.5c-40.667 0 -82.834 5.5 -126.501 16.5z
M177.003 -63.998h154l-135 -147h-89z" />
    <glyph glyph-name="uni021A" unicode="&#x21a;" horiz-adv-x="582" 
d="M204 537h-198v153h570v-153h-199v-537h-173v537zM210 -64h154l-135 -147h-89z" />
    <glyph glyph-name="uni021B" unicode="&#x21b;" horiz-adv-x="351" 
d="M115 33c-20 22 -30 51.333 -30 88v262h-82v105h15c44.667 0 67 23.333 67 70v80h167v-150h77v-105h-77v-228c0 -9.33301 1.83301 -15.833 5.5 -19.5s9.16699 -5.5 16.5 -5.5h64v-130h-142c-34 0 -61 11 -81 33zM147 -64h154l-135 -147h-89z" />
    <glyph glyph-name="uni0237" unicode="&#x237;" horiz-adv-x="271" 
d="M-45 -163v121h53c12.667 0 23.167 3.66699 31.5 11s12.5 17.333 12.5 30v489h168v-478c0 -49.333 -14.5 -90.5 -43.5 -123.5s-71.167 -49.5 -126.5 -49.5h-95z" />
    <glyph glyph-name="circumflex" unicode="&#x2c6;" horiz-adv-x="314" 
d="M109 681h96l118 -149h-123l-44 80l-43 -80h-122z" />
    <glyph glyph-name="caron" unicode="&#x2c7;" horiz-adv-x="314" 
d="M-9 690h122l43 -79l43 79h124l-119 -149h-96z" />
    <glyph glyph-name="breve" unicode="&#x2d8;" horiz-adv-x="289" 
d="M22 559.5c-22.667 21.667 -33.998 54.832 -33.998 99.499h99c0 -19.333 5.16699 -32.5 15.5 -39.5s24.166 -10.5 41.499 -10.5c20 0 34.833 3.83301 44.5 11.5s14.5 20.5 14.5 38.5h102c0 -47.333 -12 -81.166 -36 -101.499s-65.667 -30.5 -125 -30.5
c-58.667 0 -99.334 10.833 -122.001 32.5z" />
    <glyph glyph-name="dotaccent" unicode="&#x2d9;" horiz-adv-x="116" 
d="M4 690h134v-127h-134v127z" />
    <glyph glyph-name="ring" unicode="&#x2da;" horiz-adv-x="187" 
d="M12 571.5c-21.333 22.333 -32 49.167 -32 80.5s10.833 58.166 32.5 80.499s48.5 33.5 80.5 33.5c31.333 0 58.333 -11.167 81 -33.5s34 -49.166 34 -80.499c0 -32 -11.167 -59 -33.5 -81s-49.5 -33 -81.5 -33c-32.667 0 -59.667 11.167 -81 33.5zM128.5 617.001
c9 9.33301 13.501 21.668 13.501 37.001c0 14 -4.33301 25.167 -13 33.5s-20.667 12.5 -36 12.5c-14 0 -25.5 -4.33301 -34.5 -13s-13.5 -19.667 -13.5 -33c0 -14.667 4.66699 -26.834 14 -36.501s20.666 -14.5 33.999 -14.5c14.667 0 26.5 4.66699 35.5 14z" />
    <glyph glyph-name="ogonek" unicode="&#x2db;" horiz-adv-x="211" 
d="M30.5 -209.5c-24.333 17 -36.498 44.499 -36.498 82.499c0 24.667 5.66699 46.334 17 65.001s22.166 32 32.499 40s25.166 18.333 44.499 31l99 -9c-18.667 -17.333 -32.667 -30 -42 -38c-20.667 -16.667 -35.5 -30.5 -44.5 -41.5s-13.5 -22.5 -13.5 -34.5
c0 -8 2.16699 -14.333 6.5 -19s10.166 -7 17.499 -7c2 0 5.66699 0.666992 11 2c11.333 2 21.333 9.33301 30 22l79 -55c-28 -42.667 -67 -64 -117 -64c-31.333 0 -59.166 8.5 -83.499 25.5z" />
    <glyph glyph-name="tilde" unicode="&#x2dc;" horiz-adv-x="340" 
d="M184 557.5c-14 7.66699 -26.666 17.835 -37.999 30.502l-7.5 7.5c-3.66699 3.66699 -7.33398 6.5 -11.001 8.5s-7.83398 3 -12.501 3c-11.333 0 -20 -4.83301 -26 -14.5s-9.66699 -26.167 -11 -49.5h-113c0 52 12.5 90.667 37.5 116s59.5 38 103.5 38
c20.667 0 37.334 -3.16699 50.001 -9.5s24.667 -14.833 36 -25.5c8 -6.66699 14.167 -11.334 18.5 -14.001s9.5 -4 15.5 -4c9.33301 0 17.333 4.16699 24 12.5s10 21.166 10 38.499h117c0 -46.667 -11.667 -83.167 -35 -109.5s-55.333 -39.5 -96 -39.5
c-27.333 0 -48 3.83301 -62 11.5z" />
    <glyph glyph-name="hungarumlaut" unicode="&#x2dd;" horiz-adv-x="357" 
d="M66 690h126l-111 -138h-114zM259 690h173l-160 -138h-113z" />
    <glyph glyph-name="gravecomb" unicode="&#x300;" 
d="M-227 690h160l115 -140h-98z" />
    <glyph glyph-name="acutecomb" unicode="&#x301;" 
d="M-120 690h162l-162 -142h-113z" />
    <glyph glyph-name="uni0302" unicode="&#x302;" 
d="M-205 681h96l118 -149h-123l-44 80l-43 -80h-122z" />
    <glyph glyph-name="tildecomb" unicode="&#x303;" 
d="M-156 557c-14 7.33301 -26.668 17.6689 -38.001 31.002c-6.66699 6.66699 -12 11.5 -16 14.5s-9 4.5 -15 4.5c-11.333 0 -20 -4.83301 -26 -14.5s-9.66699 -26.167 -11 -49.5h-113c0 52 12.5 90.667 37.5 116s59.5 38 103.5 38c20.667 0 37.334 -3.16699 50.001 -9.5
s24.667 -14.833 36 -25.5c8 -6.66699 14.167 -11.334 18.5 -14.001s9.5 -4 15.5 -4c9.33301 0 17.333 4.16699 24 12.5s10 21.166 10 38.499h117c0 -46.667 -11.667 -83.167 -35 -109.5s-55.333 -39.5 -96 -39.5c-27.333 0 -48 3.66699 -62 11z" />
    <glyph glyph-name="uni0304" unicode="&#x304;" 
d="M-298 656h287v-82h-287v82z" />
    <glyph glyph-name="uni0306" unicode="&#x306;" 
d="M-267 559.5c-22.667 21.667 -33.998 54.832 -33.998 99.499h99c0 -19.333 5.16699 -32.5 15.5 -39.5s24.166 -10.5 41.499 -10.5c20 0 34.833 3.83301 44.5 11.5s14.5 20.5 14.5 38.5h102c0 -47.333 -12 -81.166 -36 -101.499s-65.667 -30.5 -125 -30.5
c-58.667 0 -99.334 10.833 -122.001 32.5z" />
    <glyph glyph-name="uni0307" unicode="&#x307;" 
d="M-112 690h134v-127h-134v127z" />
    <glyph glyph-name="uni0308" unicode="&#x308;" 
d="M-321 690h118v-119h-118v119zM-138 690h117v-119h-117v119z" />
    <glyph glyph-name="uni030A" unicode="&#x30a;" 
d="M-175 571.5c-21.333 22.333 -32 49.167 -32 80.5s10.833 58.166 32.5 80.499s48.5 33.5 80.5 33.5c31.333 0 58.333 -11.167 81 -33.5s34 -49.166 34 -80.499c0 -32 -11.167 -59 -33.5 -81s-49.5 -33 -81.5 -33c-32.667 0 -59.667 11.167 -81 33.5zM-58.5 617.001
c9 9.33301 13.501 21.668 13.501 37.001c0 14 -4.33301 25.167 -13 33.5s-20.667 12.5 -36 12.5c-14 0 -25.5 -4.33301 -34.5 -13s-13.5 -19.667 -13.5 -33c0 -14.667 4.66699 -26.834 14 -36.501s20.666 -14.5 33.999 -14.5c14.667 0 26.5 4.66699 35.5 14z" />
    <glyph glyph-name="uni030B" unicode="&#x30b;" 
d="M-291 690h126l-111 -138h-114zM-98 690h173l-160 -138h-113z" />
    <glyph glyph-name="uni030C" unicode="&#x30c;" 
d="M-323 690h122l43 -79l43 79h124l-119 -149h-96z" />
    <glyph glyph-name="uni030F" unicode="&#x30f;" 
d="M-431 690h161l114 -183h-91zM-228 690h160l119 -183h-94z" />
    <glyph glyph-name="uni0312" unicode="&#x312;" 
d="M134 557h-154l135 132h89z" />
    <glyph glyph-name="uni031B" unicode="&#x31b;" 
d="M-94 690h154l-135 -202h-89z" />
    <glyph glyph-name="uni0326" unicode="&#x326;" 
d="M-180 -64h154l-135 -147h-89z" />
    <glyph glyph-name="uni0327" unicode="&#x327;" 
d="M-152.5 -222.5c-22.333 14.333 -37.166 31.501 -44.499 51.501l75 34c2.66699 -8.66699 7.16699 -15.5 13.5 -20.5s13.166 -7.5 20.499 -7.5c6.66699 -0.666992 12.667 1 18 5s8 10.333 8 19s-2.5 15.667 -7.5 21s-13.833 9.66602 -26.5 12.999l-55 13l54 102h84l-42 -68
c24 -5.33301 43.5 -16 58.5 -32s22.5 -35 22.5 -57c0 -29.333 -9.66699 -52.5 -29 -69.5s-45 -25.5 -77 -25.5c-26 0 -50.167 7.16699 -72.5 21.5z" />
    <glyph glyph-name="uni0328" unicode="&#x328;" 
d="M-180.5 -209.5c-24.333 17 -36.498 44.499 -36.498 82.499c0 24.667 5.66699 46.334 17 65.001s22.166 32 32.499 40s25.166 18.333 44.499 31l99 -9c-18.667 -17.333 -32.667 -30 -42 -38c-20.667 -16.667 -35.5 -30.5 -44.5 -41.5s-13.5 -22.5 -13.5 -34.5
c0 -8 2.16699 -14.333 6.5 -19s10.166 -7 17.499 -7c2 0 5.66699 0.666992 11 2c11.333 2 21.333 9.33301 30 22l79 -55c-28 -42.667 -67 -64 -117 -64c-31.333 0 -59.166 8.5 -83.499 25.5z" />
    <glyph glyph-name="uni0335" unicode="&#x335;" 
d="M-133 322h327v-71h-327v71z" />
    <glyph glyph-name="uni0336" unicode="&#x336;" 
d="M-643 324h699v-92h-699v92z" />
    <glyph glyph-name="uni0337" unicode="&#x337;" 
d="M-432 249l457 362v-176l-457 -347v161z" />
    <glyph glyph-name="uni0338" unicode="&#x338;" 
d="M23 611l-600 -601l-73 69l601 601z" />
    <glyph glyph-name="pi" unicode="&#x3c0;" horiz-adv-x="585" 
d="M367.5 8c-19.667 12 -34.832 27.333 -45.499 46s-16 37.667 -16 57v242h-76v-353h-135v353h-40v135h426v-135h-40v-218c0 -12.667 5 -19 15 -19c7.33301 0 17.666 4.33301 30.999 13l44 -112c-20.667 -10 -38.167 -17 -52.5 -21s-28.166 -6 -41.499 -6
c-26.667 0 -49.834 6 -69.501 18z" />
    <glyph glyph-name="Wgrave" unicode="&#x1e80;" horiz-adv-x="977" 
d="M4 690h179l104 -497c3.33301 -18 5 -34.667 5 -50h10c0 11.333 1.33301 22.333 4 33l5 20l90 426h176l92 -426c0.666992 -2.66699 2 -9.5 4 -20.5s3 -21.833 3 -32.5h9c0 16 2 32.667 6 50l103 497h179l-162 -690h-251l-73 406l-70 -406h-252zM260 868h160l115 -140h-98z
" />
    <glyph glyph-name="wgrave" unicode="&#x1e81;" horiz-adv-x="822" 
d="M827 488l-136 -488h-216l-66 274l-64 -277h-215l-135 491h177l74 -346l88 346h152l88 -347l76 347h177zM185 690h160l115 -140h-98z" />
    <glyph glyph-name="Wacute" unicode="&#x1e82;" horiz-adv-x="977" 
d="M4 690h179l104 -497c3.33301 -18 5 -34.667 5 -50h10c0 11.333 1.33301 22.333 4 33l5 20l90 426h176l92 -426c0.666992 -2.66699 2 -9.5 4 -20.5s3 -21.833 3 -32.5h9c0 16 2 32.667 6 50l103 497h179l-162 -690h-251l-73 406l-70 -406h-252zM543 868h162l-162 -142
h-113z" />
    <glyph glyph-name="wacute" unicode="&#x1e83;" horiz-adv-x="822" 
d="M827 488l-136 -488h-216l-66 274l-64 -277h-215l-135 491h177l74 -346l88 346h152l88 -347l76 347h177zM468 690h162l-162 -142h-113z" />
    <glyph glyph-name="Wdieresis" unicode="&#x1e84;" horiz-adv-x="977" 
d="M4 690h179l104 -497c3.33301 -18 5 -34.667 5 -50h10c0 11.333 1.33301 22.333 4 33l5 20l90 426h176l92 -426c0.666992 -2.66699 2 -9.5 4 -20.5s3 -21.833 3 -32.5h9c0 16 2 32.667 6 50l103 497h179l-162 -690h-251l-73 406l-70 -406h-252zM336 868h118v-119h-118v119
zM519 868h117v-119h-117v119z" />
    <glyph glyph-name="wdieresis" unicode="&#x1e85;" horiz-adv-x="822" 
d="M827 488l-136 -488h-216l-66 274l-64 -277h-215l-135 491h177l74 -346l88 346h152l88 -347l76 347h177zM261 690h118v-119h-118v119zM444 690h117v-119h-117v119z" />
    <glyph glyph-name="uni1EBC" unicode="&#x1ebc;" horiz-adv-x="583" 
d="M67 690h473v-153h-301v-114h285v-154h-285v-115h301v-154h-473v690zM317 760c-14 7.33301 -26.668 17.6689 -38.001 31.002c-6.66699 6.66699 -12 11.5 -16 14.5s-9 4.5 -15 4.5c-11.333 0 -20 -4.83301 -26 -14.5s-9.66699 -26.167 -11 -49.5h-113
c0 52 12.5 90.667 37.5 116s59.5 38 103.5 38c20.667 0 37.334 -3.16699 50.001 -9.5s24.667 -14.833 36 -25.5c8 -6.66699 14.167 -11.334 18.5 -14.001s9.5 -4 15.5 -4c9.33301 0 17.333 4.16699 24 12.5s10 21.166 10 38.499h117c0 -46.667 -11.667 -83.167 -35 -109.5
s-55.333 -39.5 -96 -39.5c-27.333 0 -48 3.66699 -62 11z" />
    <glyph glyph-name="uni1EBD" unicode="&#x1ebd;" horiz-adv-x="530" 
d="M357 174l150 -36.999c-21.333 -44.667 -53.166 -79.667 -95.499 -105s-91.5 -38 -147.5 -38c-44.667 0 -84.667 8.83301 -120 26.5s-63.5 44.5 -84.5 80.5s-31.5 80.333 -31.5 133c0 55.333 10.667 102.666 32 141.999s50.5 68.833 87.5 88.5s78.167 29.5 123.5 29.5
c42 0 81 -8.16699 117 -24.5s64.833 -40.833 86.5 -73.5s32.5 -72.667 32.5 -120c0 -28 -2 -50.667 -6 -68h-304c4 -51.333 29 -77 75 -77c35.333 0 63.666 14.333 84.999 43zM217 339.001c-11.333 -14 -17.667 -31.667 -19 -53h142c2 21.333 -2.83301 39 -14.5 53
s-30.167 21 -55.5 21c-24 0 -41.667 -7 -53 -21zM275.999 560.001c-14 7.33301 -26.668 17.6689 -38.001 31.002c-6.66699 6.66699 -12 11.5 -16 14.5s-9 4.5 -15 4.5c-11.333 0 -20 -4.83301 -26 -14.5s-9.66699 -26.167 -11 -49.5h-113c0 52 12.5 90.667 37.5 116
s59.5 38 103.5 38c20.667 0 37.334 -3.16699 50.001 -9.5s24.667 -14.833 36 -25.5c8 -6.66699 14.167 -11.334 18.5 -14.001s9.5 -4 15.5 -4c9.33301 0 17.333 4.16699 24 12.5s10 21.166 10 38.499h117c0 -46.667 -11.667 -83.167 -35 -109.5s-55.333 -39.5 -96 -39.5
c-27.333 0 -48 3.66699 -62 11z" />
    <glyph glyph-name="Ygrave" unicode="&#x1ef2;" horiz-adv-x="695" 
d="M262 268l-265 422h194l161 -280l153 280h194l-266 -422v-268h-171v268zM120 890h160l115 -140h-98z" />
    <glyph glyph-name="ygrave" unicode="&#x1ef3;" horiz-adv-x="511" 
d="M40 -24l59 -0.000976562c32.667 0 53 8.33301 61 25l16 37l-193 450h179l69 -214c4 -12 7.83301 -28 11.5 -48s5.5 -34.667 5.5 -44h9c0 8.66699 2 23.334 6 44.001s8 36.667 12 48l72 214h179l-220 -555c-23.333 -64 -66.333 -96 -129 -96h-137v139zM30 689.999h160
l115 -140h-98z" />
    <glyph glyph-name="uni1EF8" unicode="&#x1ef8;" horiz-adv-x="695" 
d="M262 268l-265 422h194l161 -280l153 280h194l-266 -422v-268h-171v268zM360 760c-14 7.33301 -26.668 17.6689 -38.001 31.002c-6.66699 6.66699 -12 11.5 -16 14.5s-9 4.5 -15 4.5c-11.333 0 -20 -4.83301 -26 -14.5s-9.66699 -26.167 -11 -49.5h-113
c0 52 12.5 90.667 37.5 116s59.5 38 103.5 38c20.667 0 37.334 -3.16699 50.001 -9.5s24.667 -14.833 36 -25.5c8 -6.66699 14.167 -11.334 18.5 -14.001s9.5 -4 15.5 -4c9.33301 0 17.333 4.16699 24 12.5s10 21.166 10 38.499h117c0 -46.667 -11.667 -83.167 -35 -109.5
s-55.333 -39.5 -96 -39.5c-27.333 0 -48 3.66699 -62 11z" />
    <glyph glyph-name="uni1EF9" unicode="&#x1ef9;" horiz-adv-x="511" 
d="M40 -24l59 -0.000976562c32.667 0 53 8.33301 61 25l16 37l-193 450h179l69 -214c4 -12 7.83301 -28 11.5 -48s5.5 -34.667 5.5 -44h9c0 8.66699 2 23.334 6 44.001s8 36.667 12 48l72 214h179l-220 -555c-23.333 -64 -66.333 -96 -129 -96h-137v139zM270 559.999
c-14 7.33301 -26.668 17.6689 -38.001 31.002c-6.66699 6.66699 -12 11.5 -16 14.5s-9 4.5 -15 4.5c-11.333 0 -20 -4.83301 -26 -14.5s-9.66699 -26.167 -11 -49.5h-113c0 52 12.5 90.667 37.5 116s59.5 38 103.5 38c20.667 0 37.334 -3.16699 50.001 -9.5
s24.667 -14.833 36 -25.5c8 -6.66699 14.167 -11.334 18.5 -14.001s9.5 -4 15.5 -4c9.33301 0 17.333 4.16699 24 12.5s10 21.166 10 38.499h117c0 -46.667 -11.667 -83.167 -35 -109.5s-55.333 -39.5 -96 -39.5c-27.333 0 -48 3.66699 -62 11z" />
    <glyph glyph-name="endash" unicode="&#x2013;" horiz-adv-x="441" 
d="M16 331h409v-154h-409v154z" />
    <glyph glyph-name="emdash" unicode="&#x2014;" horiz-adv-x="992" 
d="M-4 331h1000v-154h-1000v154z" />
    <glyph glyph-name="quoteleft" unicode="&#x2018;" horiz-adv-x="235" 
d="M208 541v-174h-197v174l95 149h83l-52 -149h71z" />
    <glyph glyph-name="quoteright" unicode="&#x2019;" horiz-adv-x="263" 
d="M232 691v-174l-95 -149h-83l52 149h-71v174h197z" />
    <glyph glyph-name="quotesinglbase" unicode="&#x201a;" horiz-adv-x="279" 
d="M235 174v-174l-95 -149h-83l52 149h-71v174h197z" />
    <glyph glyph-name="quotedblleft" unicode="&#x201c;" horiz-adv-x="500" 
d="M474 541v-174h-197v174l95 149h83l-52 -149h71zM208 541v-174h-197v174l95 149h83l-52 -149h71z" />
    <glyph glyph-name="quotedblright" unicode="&#x201d;" horiz-adv-x="528" 
d="M232 691v-174l-95 -149h-83l52 149h-71v174h197zM497 691v-174l-95 -149h-83l52 149h-71v174h197z" />
    <glyph glyph-name="quotedblbase" unicode="&#x201e;" horiz-adv-x="544" 
d="M235 174v-174l-95 -149h-83l52 149h-71v174h197zM500 174v-174l-95 -149h-83l52 149h-71v174h197z" />
    <glyph glyph-name="dagger" unicode="&#x2020;" horiz-adv-x="465" 
d="M158 374h-108v151h108v165h149v-165h108v-151h-108v-474h-149v474z" />
    <glyph glyph-name="daggerdbl" unicode="&#x2021;" horiz-adv-x="465" 
d="M158 66h-108v151h108v157h-108v151h108v165h149v-165h108v-151h-108v-157h108v-151h-108v-166h-149v166z" />
    <glyph glyph-name="bullet" unicode="&#x2022;" horiz-adv-x="593" 
d="M166 112.5c-40 23.667 -71.667 55.5 -95 95.5s-35 83.333 -35 130c0 47.333 11.667 91 35 131s55 71.667 95 95s83.667 35 131 35c46.667 0 89.834 -11.667 129.501 -35s71.334 -55 95.001 -95s35.5 -83.667 35.5 -131c0 -46.667 -11.833 -90 -35.5 -130
s-55.334 -71.833 -95.001 -95.5s-82.834 -35.5 -129.501 -35.5c-47.333 0 -91 11.833 -131 35.5z" />
    <glyph glyph-name="twodotenleader" unicode="&#x2025;" horiz-adv-x="396" 
d="M23 164h142v-164h-142v164zM225 164h142v-164h-142v164z" />
    <glyph glyph-name="ellipsis" unicode="&#x2026;" horiz-adv-x="862" 
d="M331 174h197v-174h-197v174zM43 174h197v-174h-197v174zM619 174h197v-174h-197v174z" />
    <glyph glyph-name="perthousand" unicode="&#x2030;" horiz-adv-x="1096" 
d="M507 729h142l-403 -751h-141zM89.5 387.5c-23 19 -39.3359 41.333 -49.0029 67s-14.5 50.167 -14.5 73.5c0 24.667 4.66699 50.334 14 77.001s25.333 49.334 48 68.001s52.667 28 90 28c34.667 0 63.334 -8.83301 86.001 -26.5s39.334 -39.834 50.001 -66.501
s16 -53.667 16 -81c0 -26.667 -5.16699 -52.834 -15.5 -78.501s-26.666 -47 -48.999 -64s-50.5 -25.5 -84.5 -25.5c-38 0 -68.5 9.5 -91.5 28.5zM201.497 489.5c7 9.66699 10.5 22.5 10.5 38.5c0 18.667 -3.5 33 -10.5 43s-14.833 15 -23.5 15c-10 0 -18.5 -5 -25.5 -15
s-10.5 -24.333 -10.5 -43c0 -17.333 3.66699 -30.5 11 -39.5s16 -13.5 26 -13.5c8 0 15.5 4.83301 22.5 14.5zM493.497 19c-23 18.667 -39.3359 41.333 -49.0029 68s-14.5 52.334 -14.5 77.001c0 25.333 4.66699 51.666 14 78.999s25.333 50.666 48 69.999s52.667 29 90 29
c34.667 0 63.334 -9 86.001 -27s39.334 -40.667 50.001 -68s16 -55 16 -83c0 -27.333 -5.16699 -54.166 -15.5 -80.499s-26.666 -48.333 -48.999 -66s-50.5 -26.5 -84.5 -26.5c-38 0 -68.5 9.33301 -91.5 28zM826.494 19.499c-23 19 -39.6699 41.666 -50.0029 67.999
s-15.5 51.833 -15.5 76.5s5 50.834 15 78.501s26.333 51.167 49 70.5s52 29 88 29c34 0 62.833 -9.16699 86.5 -27.5s41.334 -41.166 53.001 -68.499s17.5 -54.666 17.5 -81.999c0 -26.667 -5.66699 -53.334 -17 -80.001s-28.666 -48.834 -51.999 -66.501
s-51.666 -26.5 -84.999 -26.5c-36.667 0 -66.5 9.5 -89.5 28.5zM605.491 122.498c7 11 10.499 25.166 10.499 42.499c0 18.667 -3.5 33.334 -10.5 44.001s-14.833 16 -23.5 16c-9.33301 0 -17.666 -5.33301 -24.999 -16s-11 -25.667 -11 -45c0 -18 3.66699 -32.167 11 -42.5
s16.333 -15.5 27 -15.5c7.33301 0 14.5 5.5 21.5 16.5zM936.49 122.497c7 11 10.5 25.168 10.5 42.501c0 19.333 -3.33301 34.166 -10 44.499s-14.667 15.5 -24 15.5s-16.833 -5.16699 -22.5 -15.5s-8.5 -25.5 -8.5 -45.5c0 -18.667 3 -33 9 -43s13.667 -15 23 -15
c8 0 15.5 5.5 22.5 16.5z" />
    <glyph glyph-name="guilsinglleft" unicode="&#x2039;" horiz-adv-x="312" 
d="M36 249l240 189v-130l-84 -59l84 -58v-130z" />
    <glyph glyph-name="guilsinglright" unicode="&#x203a;" horiz-adv-x="312" 
d="M36 191l83 58l-83 59v130l240 -189l-240 -188v130z" />
    <glyph glyph-name="fraction" unicode="&#x2044;" horiz-adv-x="243" 
d="M244 690h159l-410 -690h-154z" />
    <glyph glyph-name="Euro" unicode="&#x20ac;" horiz-adv-x="603" 
d="M594 44c-48.667 -36.667 -111.333 -55 -188 -55c-86.667 0 -154.5 23 -203.5 69s-81.167 105.667 -96.5 179h-114l37 71h67c-0.666992 8 -1 20.333 -1 37v15h-90l40 75h57c13.333 78 44.666 141.833 93.999 191.5s119.333 74.5 210 74.5c74 0 135 -17 183 -51l-69 -170
c-12.667 24.667 -29 43.167 -49 55.5s-42 18.5 -66 18.5c-33.333 0 -61.166 -10.333 -83.499 -31s-38.166 -50 -47.499 -88h227l-31 -75h-206v-16c0 -16.667 0.333008 -28.667 1 -36h184l-29 -71h-141c10.667 -32.667 26.667 -57.5 48 -74.5s47.666 -25.5 78.999 -25.5
c28.667 0 51.667 4.33301 69 13s34.333 22 51 40z" />
    <glyph glyph-name="trademark" unicode="&#x2122;" horiz-adv-x="653" 
d="M5 690h236v-80h-70v-224h-96v224h-70v80zM624 690v-304h-88v211l-42 -211h-87l-45 200v-200h-88v304h137l40 -201l36 201h137z" />
    <glyph glyph-name="uni2126" unicode="&#x2126;" horiz-adv-x="754" 
d="M22 134l98 0.00292969c-31.333 25.333 -55.166 59.5 -71.499 102.5s-24.5 85.167 -24.5 126.5c0 60 16.167 114.833 48.5 164.5s75.666 88.667 129.999 117s112.166 42.5 173.499 42.5c63.333 0 122 -14.667 176 -44s97.167 -69.333 129.5 -120s48.5 -106.667 48.5 -168
c0 -40.667 -7.66699 -81.834 -23 -123.501s-37.666 -76.834 -66.999 -105.501h92v-126h-292v122c28 2 53.5 11.667 76.5 29s41.333 41.333 55 72s20.5 65.667 20.5 105c0 46 -9.33301 86 -28 120s-44.167 60 -76.5 78s-69.166 27 -110.499 27
c-42 0 -79.333 -9.33301 -112 -28s-58 -45 -76 -79s-27 -73.667 -27 -119c0 -42.667 7.83301 -79 23.5 -109s35.167 -52.833 58.5 -68.5s46.666 -24.834 69.999 -27.501v-122h-292v134z" />
    <glyph glyph-name="partialdiff" unicode="&#x2202;" horiz-adv-x="614" 
d="M91 59.5c-42.667 43.667 -63.999 101.501 -63.999 173.501c0 55.333 12.5 106.5 37.5 153.5s58.667 84.333 101 112s88.166 41.5 137.499 41.5c26 0 49.333 -3.83301 70 -11.5s37 -17.334 49 -29.001s19.333 -23.5 22 -35.5c-4 48 -18.167 81 -42.5 99
s-49.833 27 -76.5 27c-22.667 0 -44.667 -5.33301 -66 -16l-75 90c37.333 22.667 82.333 34 135 34c59.333 0 108.333 -14.833 147 -44.5s66.834 -69.167 84.501 -118.5s26.5 -104.333 26.5 -165c0 -70.667 -11.833 -134.5 -35.5 -191.5s-58.5 -102 -104.5 -135
s-101.667 -49.5 -167 -49.5c-76.667 0 -136.334 21.833 -179.001 65.5zM348.001 154.001c24 15.333 42.833 36.5 56.5 63.5s20.5 56.5 20.5 88.5c0 66.667 -30.333 100 -91 100c-31.333 0 -59.5 -8.16699 -84.5 -24.5s-44.333 -38 -58 -65s-20.5 -55.833 -20.5 -86.5
c0 -32 8.5 -56.5 25.5 -73.5s40.5 -25.5 70.5 -25.5s57 7.66699 81 23z" />
    <glyph glyph-name="uni2206" unicode="&#x2206;" horiz-adv-x="631" 
d="M314 762l319 -762h-635zM437 135l-123 317l-120 -317h243z" />
    <glyph glyph-name="product" unicode="&#x220f;" horiz-adv-x="674" 
d="M107 556h-40v134h540v-134h-40v-556h-134v556h-192v-556h-134v556z" />
    <glyph glyph-name="summation" unicode="&#x2211;" horiz-adv-x="624" 
d="M31 71l272 274l-272 273v72h562v-134h-328l229 -211l-229 -210h328v-135h-562v71z" />
    <glyph glyph-name="minus" unicode="&#x2212;" horiz-adv-x="595" 
d="M74 317h447v-128h-447v128z" />
    <glyph glyph-name="radical" unicode="&#x221a;" horiz-adv-x="606" 
d="M101 246h-80v136h180l59 -190l202 508l128 -42l-339 -809z" />
    <glyph glyph-name="infinity" unicode="&#x221e;" horiz-adv-x="754" 
d="M107 154c-26 15.333 -46.333 36.666 -61 63.999s-22 57.666 -22 90.999s7.33301 63.666 22 90.999s35 48.666 61 63.999s55.333 23 88 23c29.333 0 59.5 -7.66699 90.5 -23s61.5 -37 91.5 -65c30 28 60.5 49.667 91.5 65s61.167 23 90.5 23
c32.667 0 62.167 -7.66699 88.5 -23s46.833 -36.666 61.5 -63.999s22 -57.666 22 -90.999s-7.33301 -63.666 -22 -90.999s-35.167 -48.666 -61.5 -63.999s-55.833 -23 -88.5 -23c-29.333 0 -59.5 7.66699 -90.5 23s-61.5 37 -91.5 65c-30 -28 -60.5 -49.667 -91.5 -65
s-61.167 -23 -90.5 -23c-32.667 0 -62 7.66699 -88 23zM243 265.5c13.333 9 30.666 23.499 51.999 43.499c-21.333 20 -38.666 34.5 -51.999 43.5s-26.333 13.5 -39 13.5c-16.667 0 -30.667 -5 -42 -15s-17 -24 -17 -42c0 -17.333 5.66699 -31.166 17 -41.499
s25.333 -15.5 42 -15.5c12.667 0 25.667 4.5 39 13.5zM592.5 267.499c11.667 10.333 17.5 24.167 17.5 41.5c0 18 -5.83301 32 -17.5 42s-25.834 15 -42.501 15c-12 0 -25 -4.5 -39 -13.5s-31.333 -23.5 -52 -43.5c20.667 -20 38 -34.5 52 -43.5s27 -13.5 39 -13.5
c16.667 0 30.834 5.16699 42.501 15.5z" />
    <glyph glyph-name="integral" unicode="&#x222b;" horiz-adv-x="420" 
d="M1 -89c36 0 63.334 3.33105 82.001 9.99805s31.667 18 39 34s11 39 11 69v519c0 31.333 7.16699 59.5 21.5 84.5s34.166 44.5 59.499 58.5s53.333 21 84 21c21.333 0 43 -4 65 -12s40.667 -19.333 56 -34l-88 -103c-13.333 10 -24.333 15 -33 15
c-19.333 0 -29 -12.667 -29 -38v-523c0 -49.333 -11.333 -91.666 -34 -126.999s-54.167 -62.166 -94.5 -80.499s-86.833 -27.5 -139.5 -27.5v134z" />
    <glyph glyph-name="approxequal" unicode="&#x2248;" horiz-adv-x="510" 
d="M283.5 63c-15.667 7.33301 -32.167 17.333 -49.5 30c-15.333 10.667 -28.333 18.667 -39 24s-22.334 8 -35.001 8c-12 0 -22.833 -5 -32.5 -15s-14.167 -28.667 -13.5 -56h-115c0 63.333 12 112 36 146s58.667 51 104 51c22 0 40.5 -3.66699 55.5 -11
s31.833 -17.666 50.5 -30.999c16 -10.667 28.667 -18.5 38 -23.5s20.333 -7.5 33 -7.5s23.834 5.16699 33.501 15.5s14.5 29.166 14.5 56.499h115c0 -64 -12.167 -113 -36.5 -147s-59.5 -51 -105.5 -51c-20 0 -37.833 3.66699 -53.5 11zM283.5 307
c-15.667 7.33301 -32.167 17.333 -49.5 30c-15.333 10.667 -28.333 18.667 -39 24s-22.334 8 -35.001 8c-12 0 -22.833 -5 -32.5 -15s-14.167 -28.667 -13.5 -56h-115c0 63.333 12 112 36 146s58.667 51 104 51c22 0 40.5 -3.66699 55.5 -11s31.833 -17.666 50.5 -30.999
c16 -10.667 28.667 -18.5 38 -23.5s20.333 -7.5 33 -7.5s23.834 5.16699 33.501 15.5s14.5 29.166 14.5 56.499h115c0 -64 -12.167 -113 -36.5 -147s-59.5 -51 -105.5 -51c-20 0 -37.833 3.66699 -53.5 11z" />
    <glyph glyph-name="notequal" unicode="&#x2260;" horiz-adv-x="629" 
d="M408 313l-57 -100h230v-137h-307l-88 -156h-131l89 156h-102v137h180l57 100h-237v137h316l91 160h126l-90 -160h96v-137h-173z" />
    <glyph glyph-name="lessequal" unicode="&#x2264;" horiz-adv-x="680" 
d="M40 457l560 283v-148l-280 -135l280 -134v-149zM50 0v125h550v-125h-550z" />
    <glyph glyph-name="greaterequal" unicode="&#x2265;" horiz-adv-x="678" 
d="M78 323l280 134l-280 135v148l560 -283l-560 -283v149zM78 125h550v-125h-550v125z" />
    <glyph glyph-name="lozenge" unicode="&#x25ca;" horiz-adv-x="588" 
d="M36 350l199 350h120l197 -350l-197 -350h-120zM394 350l-101 201l-99 -201l99 -201z" />
    <glyph glyph-name="dblgrave" unicode="&#xf6d6;" horiz-adv-x="357" 
d="M-74 690h161l114 -183h-91zM129 690h160l119 -183h-94z" />
    <glyph glyph-name="i.loclTRK" horiz-adv-x="278" 
d="M55 488h168v-488h-168v488zM74 690h134v-127h-134v127z" />
    <glyph glyph-name="f_t" horiz-adv-x="662" 
d="M649 130v-130h-142c-34 0 -61 11 -81 33s-30 51.333 -30 88v262h-137v-383h-167v383h-89v105h91v33c0 56 13.333 98.167 40 126.5s70.667 42.5 132 42.5h64v-127h-47c-16 0 -24 -16.333 -24 -49v-26h70c44.667 0 67 23.333 67 70v80h167v-150h77v-105h-77v-228
c0 -9.33301 1.83301 -15.833 5.5 -19.5s9.16699 -5.5 16.5 -5.5h64z" />
    <glyph glyph-name="t_t" horiz-adv-x="659" 
d="M647 130v-130h-142c-34 0 -61 11 -81 33s-30 51.333 -30 88v262h-142v-228c0 -9.33301 1.83301 -15.833 5.5 -19.5s9.16699 -5.5 16.5 -5.5h64v-130h-142c-34 0 -61 11 -81 33s-30 51.333 -30 88v262h-82v105h15c44.667 0 67 23.333 67 70v80h167v-150h75
c44.667 0 67 23.333 67 70v80h167v-150h77v-105h-77v-228c0 -9.33301 1.83301 -15.833 5.5 -19.5s9.16699 -5.5 16.5 -5.5h64z" />
    <glyph glyph-name="horn" horiz-adv-x="161" 
d="M67 690h154l-135 -202h-89z" />
    <glyph glyph-name="commaturnedabove" horiz-adv-x="68" 
d="M202 557h-154l135 132h89z" />
    <glyph glyph-name="softdash" horiz-adv-x="407" 
d="M8 316h389v-125h-389v125z" />
    <glyph glyph-name="HankenDesign" horiz-adv-x="898" 
d="M259.5 21c-57.667 34 -103.5 79.833 -137.5 137.5s-51 120.834 -51 189.501s17 131.834 51 189.501s79.833 103.5 137.5 137.5s120.834 51 189.501 51s131.834 -17 189.501 -51s103.5 -79.833 137.5 -137.5s51 -120.834 51 -189.501s-17 -131.834 -51 -189.501
s-79.833 -103.5 -137.5 -137.5s-120.834 -51 -189.501 -51s-131.834 17 -189.501 51zM621 51c52.667 30.667 94.334 72.334 125.001 125.001s46 110 46 172s-15.333 119.333 -46 172s-72.334 94.334 -125.001 125.001s-110 46 -172 46s-119.333 -15.333 -172 -46
s-94.334 -72.334 -125.001 -125.001s-46 -110 -46 -172s15.333 -119.333 46 -172s72.334 -94.334 125.001 -125.001s110 -46 172 -46s119.333 15.333 172 46zM240 205c-3.33301 3.33301 -5 7.33105 -5 11.998v262c0 4.66699 1.66699 8.83398 5 12.501s7.33301 5.5 12 5.5
c5.33301 0 9.66602 -1.66699 12.999 -5s5 -7.66602 5 -12.999v-262c0 -4.66699 -1.66699 -8.66699 -5 -12s-7.66602 -5 -12.999 -5c-4.66699 0 -8.66699 1.66699 -12 5zM437 204.998c-3.33301 3.33301 -5 7.33301 -5 12v262c0 5.33301 1.66699 9.66602 5 12.999
s7.33301 5 12 5s8.66699 -1.66699 12 -5s5 -7.66602 5 -12.999v-262c0 -4.66699 -1.5 -8.66699 -4.5 -12s-7.16699 -5 -12.5 -5c-4.66699 0 -8.66699 1.66699 -12 5zM634 204.998l-131.999 130.998c-2 3.33301 -3 7.33301 -3 12c0 6 1 10 3 12l132 131c3.33301 4 7 6 11 6
c4.66699 0 8.83398 -1.83301 12.501 -5.5s5.5 -7.5 5.5 -11.5c0 -5.33301 -1.66699 -9.66602 -5 -12.999l-119 -119l119 -119c3.33301 -3.33301 5 -7.66602 5 -12.999c0 -4 -1.83301 -7.66699 -5.5 -11s-7.83398 -5 -12.501 -5s-8.33398 1.66699 -11.001 5zM306.001 335.996
c-3.33301 3.33301 -5 7.33301 -5 12c0 5.33301 1.66699 9.5 5 12.5s7.33301 4.5 12 4.5h65c5.33301 0 9.66602 -1.66699 12.999 -5s5 -7.33301 5 -12s-1.66699 -8.66699 -5 -12s-7.66602 -5 -12.999 -5h-65c-4.66699 0 -8.66699 1.66699 -12 5z" />
    <</font>
</defs>
</svg>
